<svg width="24" height="24" viewBox="0 0 24 24" fill="none" xmlns="http://www.w3.org/2000/svg">
<path d="M6 7H5C4.44772 7 4 7.44772 4 8C4 8.55228 4.44772 9 5 9H9C9.55228 9 10 8.55228 10 8C10 7.44772 9.55228 7 9 7H8L8 5C8 4.44772 7.55229 4 7 4C6.44772 4 6 4.44772 6 5L6 7Z" fill="black"/>
<path d="M7 11C7.55228 11 8 11.4477 8 12L8 19C8 19.5523 7.55228 20 7 20C6.44771 20 6 19.5523 6 19L6 12C6 11.4477 6.44772 11 7 11Z" fill="black"/>
<path d="M13 5C13 4.44772 12.5523 4 12 4C11.4477 4 11 4.44772 11 5L11 13C11 13.5523 11.4477 14 12 14C12.5523 14 13 13.5523 13 13V5Z" fill="black"/>
<path d="M17 13C17.5523 13 18 13.4477 18 14L18 19C18 19.5523 17.5523 20 17 20C16.4477 20 16 19.5523 16 19L16 14C16 13.4477 16.4477 13 17 13Z" fill="black"/>
<path d="M15 10H16V5C16 4.44772 16.4477 4 17 4C17.5523 4 18 4.44772 18 5V10H19C19.5523 10 20 10.4477 20 11C20 11.5523 19.5523 12 19 12H15C14.4477 12 14 11.5523 14 11C14 10.4477 14.4477 10 15 10Z" fill="black"/>
<path d="M11 17L11 19C11 19.5523 11.4477 20 12 20C12.5523 20 13 19.5523 13 19L13 17H14C14.5523 17 15 16.5523 15 16C15 15.4477 14.5523 15 14 15H10C9.44772 15 9 15.4477 9 16C9 16.5523 9.44772 17 10 17H11Z" fill="black"/>
</svg>
