<svg width="24" height="24" viewBox="0 0 24 24" fill="none" xmlns="http://www.w3.org/2000/svg">
<path d="M17 5C17 4.44772 16.5523 4 16 4C15.4477 4 15 4.44772 15 5V9C15 9.55228 15.4477 10 16 10C16.5523 10 17 9.55228 17 9V8L19 8C19.5523 8 20 7.55229 20 7C20 6.44772 19.5523 6 19 6L17 6V5Z" fill="black"/>
<path d="M13 7C13 7.55228 12.5523 8 12 8L5 8C4.44772 8 4 7.55228 4 7C4 6.44771 4.44772 6 5 6L12 6C12.5523 6 13 6.44772 13 7Z" fill="black"/>
<path d="M19 13C19.5523 13 20 12.5523 20 12C20 11.4477 19.5523 11 19 11L11 11C10.4477 11 10 11.4477 10 12C10 12.5523 10.4477 13 11 13L19 13Z" fill="black"/>
<path d="M11 17C11 17.5523 10.5523 18 10 18L5 18C4.44772 18 4 17.5523 4 17C4 16.4477 4.44772 16 5 16L10 16C10.5523 16 11 16.4477 11 17Z" fill="black"/>
<path d="M14 15V16L19 16C19.5523 16 20 16.4477 20 17C20 17.5523 19.5523 18 19 18L14 18V19C14 19.5523 13.5523 20 13 20C12.4477 20 12 19.5523 12 19V15C12 14.4477 12.4477 14 13 14C13.5523 14 14 14.4477 14 15Z" fill="black"/>
<path d="M7 11L5 11C4.44772 11 4 11.4477 4 12C4 12.5523 4.44771 13 5 13L7 13V14C7 14.5523 7.44772 15 8 15C8.55228 15 9 14.5523 9 14L9 10C9 9.44772 8.55229 9 8 9C7.44772 9 7 9.44772 7 10V11Z" fill="black"/>
</svg>
