<svg width="24" height="24" viewBox="0 0 24 24" fill="none" xmlns="http://www.w3.org/2000/svg">
<g clip-path="url(#clip0_363_3611)">
<rect width="24" height="24" fill="white"/>
<path d="M0 0H24M0 0V24M0 0L24 24M24 0V24M24 0L0 24M24 24H0" stroke="#C4C4C4" stroke-width="0.13"/>
<circle cx="12" cy="12" r="10" stroke="#C4C4C4" stroke-width="0.13"/>
<rect x="2" y="4" width="20" height="16" rx="1" stroke="#C4C4C4" stroke-width="0.13"/>
<rect x="4" y="2" width="16" height="20" rx="1" stroke="#C4C4C4" stroke-width="0.13"/>
<rect x="3" y="3" width="18" height="18" rx="1" stroke="#C4C4C4" stroke-width="0.13"/>
<circle cx="12" cy="12" r="4" stroke="#C4C4C4" stroke-width="0.13"/>
<path d="M17 16L17 19" stroke="black" stroke-width="2" stroke-linecap="round"/>
<path d="M7 13L7 19" stroke="black" stroke-width="2" stroke-linecap="round"/>
<path d="M12 8L12 5" stroke="black" stroke-width="2" stroke-linecap="round"/>
<path d="M18 5C18 4.44772 17.5523 4 17 4C16.4477 4 16 4.44772 16 5L18 5ZM16 13L16 14L18 14L18 13L16 13ZM16 5L16 13L18 13L18 5L16 5Z" fill="black"/>
<path d="M8 5C8 4.44772 7.55228 4 7 4C6.44772 4 6 4.44772 6 5L8 5ZM6 10L6 11L8 11L8 10L6 10ZM6 5L6 10L8 10L8 5L6 5Z" fill="black"/>
<path d="M11 19C11 19.5523 11.4477 20 12 20C12.5523 20 13 19.5523 13 19L11 19ZM13 11L13 10L11 10L11 11L13 11ZM13 19L13 11L11 11L11 19L13 19Z" fill="black"/>
<path d="M19 16L15 16" stroke="black" stroke-width="2" stroke-linecap="round"/>
<path d="M9 13L5 13" stroke="black" stroke-width="2" stroke-linecap="round"/>
<path d="M10 8L14 8" stroke="black" stroke-width="2" stroke-linecap="round"/>
</g>
<defs>
<clipPath id="clip0_363_3611">
<rect width="24" height="24" fill="white"/>
</clipPath>
</defs>
</svg>
