<svg width="24" height="24" viewBox="0 0 24 24" fill="none" xmlns="http://www.w3.org/2000/svg">
<g clip-path="url(#clip0_363_3506)">
<rect width="24" height="24" fill="white"/>
<path d="M0 0H24M0 0V24M0 0L24 24M24 0V24M24 0L0 24M24 24H0" stroke="#C4C4C4" stroke-width="0.13"/>
<circle cx="12" cy="12" r="10" stroke="#C4C4C4" stroke-width="0.13"/>
<rect x="2" y="4" width="20" height="16" rx="1" stroke="#C4C4C4" stroke-width="0.13"/>
<rect x="4" y="2" width="16" height="20" rx="1" stroke="#C4C4C4" stroke-width="0.13"/>
<rect x="3" y="3" width="18" height="18" rx="1" stroke="#C4C4C4" stroke-width="0.13"/>
<circle cx="12" cy="12" r="4" stroke="#C4C4C4" stroke-width="0.13"/>
<path d="M16 7L19 7" stroke="black" stroke-width="2" stroke-linecap="round"/>
<path d="M13 17L19 17" stroke="black" stroke-width="2" stroke-linecap="round"/>
<path d="M8 12L5 12" stroke="black" stroke-width="2" stroke-linecap="round"/>
<path d="M5 6C4.44772 6 4 6.44772 4 7C4 7.55228 4.44772 8 5 8L5 6ZM13 8L14 8L14 6L13 6L13 8ZM5 8L13 8L13 6L5 6L5 8Z" fill="black"/>
<path d="M5 16C4.44772 16 4 16.4477 4 17C4 17.5523 4.44772 18 5 18L5 16ZM10 18L11 18L11 16L10 16L10 18ZM5 18L10 18L10 16L5 16L5 18Z" fill="black"/>
<path d="M19 13C19.5523 13 20 12.5523 20 12C20 11.4477 19.5523 11 19 11L19 13ZM11 11L10 11L10 13L11 13L11 11ZM19 11L11 11L11 13L19 13L19 11Z" fill="black"/>
<path d="M16 5V9" stroke="black" stroke-width="2" stroke-linecap="round"/>
<path d="M13 15V19" stroke="black" stroke-width="2" stroke-linecap="round"/>
<path d="M8 14L8 10" stroke="black" stroke-width="2" stroke-linecap="round"/>
</g>
<defs>
<clipPath id="clip0_363_3506">
<rect width="24" height="24" fill="white"/>
</clipPath>
</defs>
</svg>
