<svg width="24" height="24" viewBox="0 0 24 24" fill="none" xmlns="http://www.w3.org/2000/svg">
<path d="M3.41422 6.86899C2.63317 6.08794 2.63317 4.82161 3.41422 4.04056L5.04056 2.41422C5.82161 1.63317 7.08794 1.63317 7.86899 2.41422L8.5761 3.12132L4.12132 7.5761L3.41422 6.86899Z" fill="black"/>
<path d="M16.9508 2.41416C17.7319 1.63311 18.9982 1.63311 19.7793 2.41416L21.4056 4.0405C22.1867 4.82155 22.1867 6.08788 21.4056 6.86893L20.6985 7.57604L16.2437 3.12126L16.9508 2.41416Z" fill="black"/>
<path fill-rule="evenodd" clip-rule="evenodd" d="M12.5 21.9999C17.4705 21.9999 21.5 17.9705 21.5 12.9999C21.5 8.02937 17.4705 3.99994 12.5 3.99994C7.52943 3.99994 3.5 8.02937 3.5 12.9999C3.5 17.9705 7.52943 21.9999 12.5 21.9999ZM13.5 8.05C13.5 7.49771 13.0523 7.05 12.5 7.05C11.9477 7.05 11.5 7.49771 11.5 8.05V13.618L15.6528 15.6944C16.1468 15.9414 16.7474 15.7412 16.9944 15.2472C17.2414 14.7532 17.0412 14.1525 16.5472 13.9056L13.5 12.382V8.05Z" fill="black"/>
</svg>
