<svg width="24" height="24" viewBox="0 0 24 24" fill="none" xmlns="http://www.w3.org/2000/svg">
<g clip-path="url(#clip0_355_752)">
<rect width="24" height="24" fill="white"/>
<path d="M0 0H24M0 0V24M0 0L24 24M24 0V24M24 0L0 24M24 24H0" stroke="#C4C4C4" stroke-width="0.13"/>
<circle cx="12" cy="12" r="10" stroke="#C4C4C4" stroke-width="0.13"/>
<rect x="2" y="4" width="20" height="16" rx="1" stroke="#C4C4C4" stroke-width="0.13"/>
<rect x="4" y="2" width="16" height="20" rx="1" stroke="#C4C4C4" stroke-width="0.13"/>
<rect x="3" y="3" width="18" height="18" rx="1" stroke="#C4C4C4" stroke-width="0.13"/>
<circle cx="12" cy="12" r="4" stroke="#C4C4C4" stroke-width="0.13"/>
<path d="M3.41421 6.86905C2.63316 6.088 2.63317 4.82167 3.41421 4.04062L5.04056 2.41427C5.82161 1.63323 7.08794 1.63323 7.86899 2.41427L8.57609 3.12138L4.12132 7.57615L3.41421 6.86905Z" fill="black"/>
<path d="M16.9508 2.41421C17.7319 1.63316 18.9982 1.63317 19.7793 2.41421L21.4056 4.04056C22.1867 4.82161 22.1867 6.08794 21.4056 6.86899L20.6985 7.57609L16.2437 3.12132L16.9508 2.41421Z" fill="black"/>
<path fill-rule="evenodd" clip-rule="evenodd" d="M12.5 22C17.4705 22 21.5 17.9705 21.5 13C21.5 8.02943 17.4705 4 12.5 4C7.52943 4 3.5 8.02943 3.5 13C3.5 17.9705 7.52943 22 12.5 22ZM13.5 8.05006C13.5 7.49777 13.0523 7.05006 12.5 7.05006C11.9477 7.05006 11.5 7.49777 11.5 8.05006V13V13.6181L12.0528 13.8945L15.6528 15.6945C16.1468 15.9415 16.7474 15.7412 16.9944 15.2473C17.2414 14.7533 17.0412 14.1526 16.5472 13.9056L13.5 12.382V8.05006Z" fill="black"/>
</g>
<defs>
<clipPath id="clip0_355_752">
<rect width="24" height="24" fill="white"/>
</clipPath>
</defs>
</svg>
