<svg width="24" height="24" viewBox="0 0 24 24" fill="none" xmlns="http://www.w3.org/2000/svg">
<path fill-rule="evenodd" clip-rule="evenodd" d="M7.88837 4.07907C8.26344 3.704 8.77215 3.49329 9.30259 3.49329H14.6976C15.228 3.49329 15.7367 3.704 16.1118 4.07907L19.9266 7.8939C20.3017 8.26897 20.5124 8.77768 20.5124 9.30811V14.7031C20.5124 15.2335 20.3017 15.7422 19.9266 16.1173L16.1118 19.9321C15.7367 20.3072 15.228 20.5179 14.6976 20.5179H9.30258C8.77215 20.5179 8.26344 20.3072 7.88837 19.9321L4.07355 16.1173C3.69848 15.7422 3.48776 15.2335 3.48776 14.7031V9.30811C3.48776 8.77767 3.69848 8.26897 4.07355 7.8939L7.88837 4.07907ZM12 7.00002C12.5523 7.00002 13 7.44773 13 8.00002V13C13 13.5523 12.5523 14 12 14C11.4477 14 11 13.5523 11 13V8.00002C11 7.44773 11.4477 7.00002 12 7.00002ZM12 17C12.5523 17 13 16.5523 13 16C13 15.4477 12.5523 15 12 15C11.4477 15 11 15.4477 11 16C11 16.5523 11.4477 17 12 17Z" fill="black"/>
</svg>
