<svg width="24" height="24" viewBox="0 0 24 24" fill="none" xmlns="http://www.w3.org/2000/svg">
<g clip-path="url(#clip0_351_888)">
<rect width="24" height="24" fill="white"/>
<path d="M0 0H24M0 0V24M0 0L24 24M24 0V24M24 0L0 24M24 24H0" stroke="#C4C4C4" stroke-width="0.13"/>
<circle cx="12" cy="12" r="10" stroke="#C4C4C4" stroke-width="0.13"/>
<rect x="2" y="4" width="20" height="16" rx="1" stroke="#C4C4C4" stroke-width="0.13"/>
<rect x="4" y="2" width="16" height="20" rx="1" stroke="#C4C4C4" stroke-width="0.13"/>
<rect x="3" y="3" width="18" height="18" rx="1" stroke="#C4C4C4" stroke-width="0.13"/>
<circle cx="12" cy="12" r="4" stroke="#C4C4C4" stroke-width="0.13"/>
<path fill-rule="evenodd" clip-rule="evenodd" d="M13.7321 3C12.9623 1.66667 11.0377 1.66667 10.2679 3L1.6077 18C0.837895 19.3333 1.80015 21 3.33975 21H20.6603C22.1999 21 23.1621 19.3333 22.3923 18L13.7321 3ZM12 8C12.5523 8 13 8.44772 13 9V14C13 14.5523 12.5523 15 12 15C11.4477 15 11 14.5523 11 14V9C11 8.44772 11.4477 8 12 8ZM13 17C13 17.5523 12.5523 18 12 18C11.4477 18 11 17.5523 11 17C11 16.4477 11.4477 16 12 16C12.5523 16 13 16.4477 13 17Z" fill="black"/>
</g>
<defs>
<clipPath id="clip0_351_888">
<rect width="24" height="24" fill="white"/>
</clipPath>
</defs>
</svg>
