<svg width="24" height="24" viewBox="0 0 24 24" fill="none" xmlns="http://www.w3.org/2000/svg">
<path fill-rule="evenodd" clip-rule="evenodd" d="M21 12C21 16.9706 16.9706 21 12 21C7.02944 21 3 16.9706 3 12C3 7.02944 7.02944 3 12 3C16.9706 3 21 7.02944 21 12ZM12 7.4C12.5523 7.4 13 7.84772 13 8.4V12.9C13 13.4523 12.5523 13.9 12 13.9C11.4477 13.9 11 13.4523 11 12.9V8.4C11 7.84772 11.4477 7.4 12 7.4ZM12 16.5C12.4971 16.5 12.9 16.0971 12.9 15.6C12.9 15.1029 12.4971 14.7 12 14.7C11.5029 14.7 11.1 15.1029 11.1 15.6C11.1 16.0971 11.5029 16.5 12 16.5Z" fill="black"/>
</svg>
