<svg width="24" height="24" viewBox="0 0 24 24" fill="none" xmlns="http://www.w3.org/2000/svg">
<path fill-rule="evenodd" clip-rule="evenodd" d="M13.7321 3C12.9623 1.66667 11.0377 1.66667 10.2679 3L1.6077 18C0.837895 19.3333 1.80015 21 3.33975 21H20.6603C22.1999 21 23.1621 19.3333 22.3923 18L13.7321 3ZM12 8C12.5523 8 13 8.44772 13 9V14C13 14.5523 12.5523 15 12 15C11.4477 15 11 14.5523 11 14V9C11 8.44772 11.4477 8 12 8ZM13 17C13 17.5523 12.5523 18 12 18C11.4477 18 11 17.5523 11 17C11 16.4477 11.4477 16 12 16C12.5523 16 13 16.4477 13 17Z" fill="black"/>
</svg>
