<svg width="24" height="24" viewBox="0 0 24 24" fill="none" xmlns="http://www.w3.org/2000/svg">
<path fill-rule="evenodd" clip-rule="evenodd" d="M7.26609 2.57663C7.64116 2.20156 8.14987 1.99084 8.6803 1.99084H15.3199C15.8503 1.99084 16.359 2.20156 16.7341 2.57663L21.429 7.27152C21.8041 7.6466 22.0148 8.1553 22.0148 8.68574V15.3253C22.0148 15.8557 21.8041 16.3645 21.429 16.7395L16.7341 21.4344C16.359 21.8095 15.8503 22.0202 15.3199 22.0202H8.6803C8.14987 22.0202 7.64116 21.8095 7.26609 21.4344L2.5712 16.7395C2.19613 16.3645 1.98541 15.8557 1.98541 15.3253V8.68574C1.98541 8.1553 2.19613 7.64659 2.5712 7.27152L7.26609 2.57663ZM12 7.00002C12.5523 7.00002 13 7.44774 13 8.00002V13C13 13.5523 12.5523 14 12 14C11.4477 14 11 13.5523 11 13V8.00002C11 7.44774 11.4477 7.00002 12 7.00002ZM12 17C12.5523 17 13 16.5523 13 16C13 15.4477 12.5523 15 12 15C11.4477 15 11 15.4477 11 16C11 16.5523 11.4477 17 12 17Z" fill="black"/>
</svg>
