<svg width="24" height="24" viewBox="0 0 24 24" fill="none" xmlns="http://www.w3.org/2000/svg">
<rect width="24" height="24" fill="white"/>
<path d="M16.9497 16.9497L6.34314 6.3431" stroke="black" stroke-width="2" stroke-linecap="round"/>
<path d="M17.6569 17.6569L17.6569 18.6569C18.2091 18.6569 18.6569 18.2092 18.6569 17.6569L17.6569 17.6569ZM18.6569 9.17163C18.6569 8.61935 18.2091 8.17163 17.6569 8.17163C17.1046 8.17163 16.6569 8.61935 16.6569 9.17163L18.6569 9.17163ZM9.17158 16.6569C8.61929 16.6569 8.17158 17.1046 8.17158 17.6569C8.17158 18.2092 8.61929 18.6569 9.17158 18.6569L9.17158 16.6569ZM18.6569 17.6569L18.6569 9.17163L16.6569 9.17163L16.6569 17.6569L18.6569 17.6569ZM17.6569 16.6569L9.17158 16.6569L9.17158 18.6569L17.6569 18.6569L17.6569 16.6569Z" fill="black"/>
</svg>
