<svg width="24" height="24" viewBox="0 0 24 24" fill="none" xmlns="http://www.w3.org/2000/svg">
<g clip-path="url(#clip0_357_1474)">
<rect width="24" height="24" fill="white"/>
<path d="M0 0H24M0 0V24M0 0L24 24M24 0V24M24 0L0 24M24 24H0" stroke="#C4C4C4" stroke-width="0.13"/>
<circle cx="12" cy="12" r="10" stroke="#C4C4C4" stroke-width="0.13"/>
<rect x="2" y="4" width="20" height="16" rx="1" stroke="#C4C4C4" stroke-width="0.13"/>
<rect x="4" y="2" width="16" height="20" rx="1" stroke="#C4C4C4" stroke-width="0.13"/>
<rect x="3" y="3" width="18" height="18" rx="1" stroke="#C4C4C4" stroke-width="0.13"/>
<circle cx="12" cy="12" r="4" stroke="#C4C4C4" stroke-width="0.13"/>
<path d="M12 19L12 4" stroke="black" stroke-width="2" stroke-linecap="round"/>
<path d="M12 20L11.2929 20.7071C11.6834 21.0976 12.3166 21.0976 12.7071 20.7071L12 20ZM18.7071 14.7071C19.0976 14.3166 19.0976 13.6834 18.7071 13.2929C18.3166 12.9024 17.6834 12.9024 17.2929 13.2929L18.7071 14.7071ZM6.70711 13.2929C6.31658 12.9024 5.68342 12.9024 5.29289 13.2929C4.90237 13.6834 4.90237 14.3166 5.29289 14.7071L6.70711 13.2929ZM12.7071 20.7071L18.7071 14.7071L17.2929 13.2929L11.2929 19.2929L12.7071 20.7071ZM12.7071 19.2929L6.70711 13.2929L5.29289 14.7071L11.2929 20.7071L12.7071 19.2929Z" fill="black"/>
</g>
<defs>
<clipPath id="clip0_357_1474">
<rect width="24" height="24" fill="white"/>
</clipPath>
</defs>
</svg>
