<svg width="24" height="24" viewBox="0 0 24 24" fill="none" xmlns="http://www.w3.org/2000/svg">
<rect width="24" height="24" fill="white"/>
<path d="M6.94992 6.94995L17.5565 17.5566" stroke="black" stroke-width="2" stroke-linecap="round"/>
<path d="M6.24265 6.24275L6.24265 5.24275C5.69036 5.24275 5.24265 5.69046 5.24265 6.24275L6.24265 6.24275ZM5.24265 14.728C5.24265 15.2803 5.69036 15.728 6.24264 15.728C6.79493 15.728 7.24265 15.2803 7.24265 14.728L5.24265 14.728ZM14.7279 7.24275C15.2802 7.24275 15.7279 6.79503 15.7279 6.24275C15.7279 5.69046 15.2802 5.24275 14.7279 5.24275L14.7279 7.24275ZM5.24265 6.24275L5.24265 14.728L7.24265 14.728L7.24265 6.24275L5.24265 6.24275ZM6.24265 7.24275L14.7279 7.24275L14.7279 5.24275L6.24265 5.24275L6.24265 7.24275Z" fill="black"/>
</svg>
