<svg width="24" height="24" viewBox="0 0 24 24" fill="none" xmlns="http://www.w3.org/2000/svg">
<path d="M15 6C15 6.55228 15.4477 7 16 7C16.5523 7 17 6.55228 17 6V3C17 2.44772 16.5523 2 16 2C15.4477 2 15 2.44772 15 3V6Z" fill="black"/>
<path fill-rule="evenodd" clip-rule="evenodd" d="M16 7.5C15.1716 7.5 14.5 6.82843 14.5 6V4H9.5V6C9.5 6.82843 8.82843 7.5 8 7.5C7.17157 7.5 6.5 6.82843 6.5 6L6.5 4H5C3.89543 4 3 4.89543 3 6V19C3 20.6569 4.34315 22 6 22H18C19.6569 22 21 20.6569 21 19V6C21 4.89543 20.1046 4 19 4H17.5V6C17.5 6.82843 16.8284 7.5 16 7.5ZM19 11H5V19C5 19.5523 5.44772 20 6 20H18C18.5523 20 19 19.5523 19 19V11Z" fill="black"/>
<path d="M8 7C7.44772 7 7 6.55228 7 6L7 3C7 2.44772 7.44772 2 8 2C8.55228 2 9 2.44772 9 3V6C9 6.55228 8.55228 7 8 7Z" fill="black"/>
<path d="M13 14H17V18H13V14Z" fill="black"/>
</svg>
