<svg width="24" height="24" viewBox="0 0 24 24" fill="none" xmlns="http://www.w3.org/2000/svg">
<rect width="24" height="24" fill="white"/>
<path fill-rule="evenodd" clip-rule="evenodd" d="M16 7C15.4477 7 15 6.55228 15 6V3C15 2.44772 15.4477 2 16 2C16.5523 2 17 2.44772 17 3V6C17 6.55228 16.5523 7 16 7ZM14.5 6C14.5 6.82843 15.1716 7.5 16 7.5C16.8284 7.5 17.5 6.82843 17.5 6V4H19C20.1046 4 21 4.89543 21 6V10V10.5V19C21 20.6569 19.6569 22 18 22H6C4.34315 22 3 20.6569 3 19V10.5V10V6C3 4.89543 3.89543 4 5 4H6.5L6.5 6C6.5 6.82843 7.17157 7.5 8 7.5C8.82843 7.5 9.5 6.82843 9.5 6V4H14.5V6ZM5 10.5H19V19C19 19.5523 18.5523 20 18 20H6C5.44772 20 5 19.5523 5 19V10.5ZM7 6C7 6.55228 7.44772 7 8 7C8.55228 7 9 6.55228 9 6V3C9 2.44772 8.55228 2 8 2C7.44772 2 7 2.44772 7 3L7 6ZM8.46967 13.0303L10.9393 15.5L8.46967 17.9697L9.53033 19.0303L12 16.5607L14.4697 19.0303L15.5303 17.9697L13.0607 15.5L15.5303 13.0303L14.4697 11.9697L12 14.4393L9.53033 11.9697L8.46967 13.0303Z" fill="black"/>
</svg>
