<svg width="24" height="24" viewBox="0 0 24 24" fill="none" xmlns="http://www.w3.org/2000/svg">
<g clip-path="url(#clip0_344_458)">
<rect width="24" height="24" fill="white"/>
<path d="M0 0H24M0 0V24M0 0L24 24M24 0V24M24 0L0 24M24 24H0" stroke="#C4C4C4" stroke-width="0.13"/>
<circle cx="12" cy="12" r="10" stroke="#C4C4C4" stroke-width="0.13"/>
<rect x="2" y="4" width="20" height="16" rx="1" stroke="#C4C4C4" stroke-width="0.13"/>
<rect x="4" y="2" width="16" height="20" rx="1" stroke="#C4C4C4" stroke-width="0.13"/>
<rect x="3" y="3" width="18" height="18" rx="1" stroke="#C4C4C4" stroke-width="0.13"/>
<circle cx="12" cy="12" r="4" stroke="#C4C4C4" stroke-width="0.13"/>
<path fill-rule="evenodd" clip-rule="evenodd" d="M16 7C15.4477 7 15 6.55228 15 6V3C15 2.44772 15.4477 2 16 2C16.5523 2 17 2.44772 17 3V6C17 6.55228 16.5523 7 16 7ZM14.5 6C14.5 6.82843 15.1716 7.5 16 7.5C16.8284 7.5 17.5 6.82843 17.5 6V4H19C20.1046 4 21 4.89543 21 6V10V10.5V19C21 20.6569 19.6569 22 18 22H6C4.34315 22 3 20.6569 3 19V10.5V10V6C3 4.89543 3.89543 4 5 4H6.5L6.5 6C6.5 6.82843 7.17157 7.5 8 7.5C8.82843 7.5 9.5 6.82843 9.5 6V4H14.5V6ZM5 10.5H19V19C19 19.5523 18.5523 20 18 20H6C5.44772 20 5 19.5523 5 19V10.5ZM7 6C7 6.55228 7.44772 7 8 7C8.55228 7 9 6.55228 9 6V3C9 2.44772 8.55228 2 8 2C7.44772 2 7 2.44772 7 3L7 6ZM16.0303 13.5303L14.9697 12.4697L10.5 16.9393L8.53033 14.9697L7.46967 16.0303L9.96967 18.5303L10.5 19.0607L11.0303 18.5303L16.0303 13.5303Z" fill="black"/>
</g>
<defs>
<clipPath id="clip0_344_458">
<rect width="24" height="24" fill="white"/>
</clipPath>
</defs>
</svg>
