<svg width="24" height="24" viewBox="0 0 24 24" fill="none" xmlns="http://www.w3.org/2000/svg">
<g clip-path="url(#clip0_344_339)">
<rect width="24" height="24" fill="white"/>
<path d="M0 0H24M0 0V24M0 0L24 24M24 0V24M24 0L0 24M24 24H0" stroke="#C4C4C4" stroke-width="0.13"/>
<circle cx="12" cy="12" r="10" stroke="#C4C4C4" stroke-width="0.13"/>
<rect x="2" y="4" width="20" height="16" rx="1" stroke="#C4C4C4" stroke-width="0.13"/>
<rect x="4" y="2" width="16" height="20" rx="1" stroke="#C4C4C4" stroke-width="0.13"/>
<rect x="3" y="3" width="18" height="18" rx="1" stroke="#C4C4C4" stroke-width="0.13"/>
<circle cx="12" cy="12" r="4" stroke="#C4C4C4" stroke-width="0.13"/>
<path fill-rule="evenodd" clip-rule="evenodd" d="M15 6C15 6.55228 15.4477 7 16 7C16.5523 7 17 6.55228 17 6V3C17 2.44772 16.5523 2 16 2C15.4477 2 15 2.44772 15 3V6ZM16 7.5C15.1716 7.5 14.5 6.82843 14.5 6V4H9.5V6C9.5 6.82843 8.82843 7.5 8 7.5C7.17157 7.5 6.5 6.82843 6.5 6V4H5C3.89543 4 3 4.89543 3 6V10V10.5V19C3 20.6569 4.34315 22 6 22H18C19.6569 22 21 20.6569 21 19V10.5V10V6C21 4.89543 20.1046 4 19 4H17.5V6C17.5 6.82843 16.8284 7.5 16 7.5ZM19 10.5H5V19C5 19.5523 5.44772 20 6 20H18C18.5523 20 19 19.5523 19 19V10.5ZM8 7C7.44772 7 7 6.55228 7 6V3C7 2.44772 7.44772 2 8 2C8.55228 2 9 2.44772 9 3V6C9 6.55228 8.55228 7 8 7ZM9 13V15H7V13H9ZM9 18V16H7V18H9ZM11 13H13V15H11V13ZM13 16H11V18H13V16ZM17 13V15H15V13H17ZM17 18V16H15V18H17Z" fill="black"/>
</g>
<defs>
<clipPath id="clip0_344_339">
<rect width="24" height="24" fill="white"/>
</clipPath>
</defs>
</svg>
