<svg width="24" height="24" viewBox="0 0 24 24" fill="none" xmlns="http://www.w3.org/2000/svg">
<path fill-rule="evenodd" clip-rule="evenodd" d="M2.70711 1.29289C3.09763 0.902369 3.7308 0.902369 4.12132 1.29289L22.7071 19.8787C23.0976 20.2692 23.0976 20.9024 22.7071 21.2929C22.3166 21.6834 21.6834 21.6834 21.2929 21.2929L20 20H4C2.89543 20 2 19.1046 2 18V8C2 6.89543 2.89543 6 4 6H6L2.70711 2.70711C2.31658 2.31658 2.31658 1.68342 2.70711 1.29289ZM9.71586 9.71587C8.6787 10.4386 8 11.64 8 13C8 15.2091 9.79086 17 12 17C13.36 17 14.5614 16.3213 15.2841 15.2841L9.71586 9.71587ZM8.5 3.5L22 17V8C22 6.89543 21.1046 6 20 6H17.5352C17.2008 6 16.8886 5.8329 16.7031 5.5547L15.5937 3.8906C15.2228 3.3342 14.5983 3 13.9296 3H9.70711C9.25435 3 8.82014 3.17986 8.5 3.5Z" fill="black"/>
</svg>
