<svg width="24" height="24" viewBox="0 0 24 24" fill="none" xmlns="http://www.w3.org/2000/svg">
<rect width="24" height="24" fill="white"/>
<line x1="3.41421" y1="2" x2="22" y2="20.5858" stroke="black" stroke-width="2" stroke-linecap="round"/>
<path fill-rule="evenodd" clip-rule="evenodd" d="M7.5 5.5L7.2 6H4C2.89543 6 2 6.89543 2 8V18C2 19.1046 2.89543 20 4 20H20C20.5523 20 21.0523 19.7761 21.4142 19.4142L15.8987 13.8987C15.4909 15.6751 13.9002 17 12 17C9.79086 17 8 15.2091 8 13C8 11.0998 9.32493 9.50915 11.1013 9.10135L7.5 5.5Z" fill="black"/>
<mask id="mask0_346_279" style="mask-type:alpha" maskUnits="userSpaceOnUse" x="7" y="2" width="16" height="16">
<path d="M23 18L7 2H23V18Z" fill="#D9D9D9"/>
</mask>
<g mask="url(#mask0_346_279)">
<path fill-rule="evenodd" clip-rule="evenodd" d="M8.41739 3.97101C8.77884 3.3686 9.42986 3 10.1324 3H13.8676C14.5701 3 15.2212 3.3686 15.5826 3.97101L16.6543 5.75725C16.7447 5.90785 16.9075 6 17.0831 6H20C21.1046 6 22 6.89543 22 8V18C22 19.1046 21.1046 20 20 20H4C2.89543 20 2 19.1046 2 18V8C2 6.89543 2.89543 6 4 6H6.9169C7.09254 6 7.25529 5.90785 7.34565 5.75725L8.41739 3.97101ZM12 17C14.2091 17 16 15.2091 16 13C16 10.7909 14.2091 9 12 9C9.79086 9 8 10.7909 8 13C8 15.2091 9.79086 17 12 17Z" fill="black"/>
</g>
</svg>
