<svg width="24" height="24" viewBox="0 0 24 24" fill="none" xmlns="http://www.w3.org/2000/svg">
<rect width="24" height="24" fill="white"/>
<path fill-rule="evenodd" clip-rule="evenodd" d="M11.5 22C16.7467 22 21 17.7467 21 12.5C21 10.933 20.6206 9.45467 19.9487 8.15176L22.2344 5.67874C22.6092 5.27316 22.5843 4.64048 22.1787 4.26562C21.7732 3.89076 21.1405 3.91567 20.7656 4.32126L18.8122 6.43481C17.0696 4.33629 14.4409 3 11.5 3C6.25329 3 2 7.25329 2 12.5C2 17.7467 6.25329 22 11.5 22ZM18.8122 6.43481L11.317 14.5443L7.21899 10.305C6.83514 9.90789 6.20206 9.89716 5.80498 10.281C5.40789 10.6649 5.39716 11.2979 5.78101 11.695L10.2467 16.3147C10.8455 16.9342 11.8419 16.923 12.4267 16.2903L19.9487 8.15176C19.6319 7.5374 19.25 6.96205 18.8122 6.43481Z" fill="black"/>
</svg>
