<svg width="24" height="24" viewBox="0 0 24 24" fill="none" xmlns="http://www.w3.org/2000/svg">
<path d="M12 12L11.2929 12.7071C11.4804 12.8946 11.7348 13 12 13C12.2652 13 12.5196 12.8946 12.7071 12.7071L12 12ZM18.7071 6.70711C19.0976 6.31659 19.0976 5.68342 18.7071 5.2929C18.3166 4.90237 17.6834 4.90237 17.2929 5.2929L18.7071 6.70711ZM6.70711 5.29289C6.31658 4.90237 5.68342 4.90237 5.29289 5.29289C4.90237 5.68342 4.90237 6.31658 5.29289 6.70711L6.70711 5.29289ZM12 18L11.2929 18.7071C11.6834 19.0976 12.3166 19.0976 12.7071 18.7071L12 18ZM18.7071 12.7071C19.0976 12.3166 19.0976 11.6834 18.7071 11.2929C18.3166 10.9024 17.6834 10.9024 17.2929 11.2929L18.7071 12.7071ZM6.70711 11.2929C6.31658 10.9024 5.68342 10.9024 5.29289 11.2929C4.90237 11.6834 4.90237 12.3166 5.29289 12.7071L6.70711 11.2929ZM12.7071 12.7071L18.7071 6.70711L17.2929 5.2929L11.2929 11.2929L12.7071 12.7071ZM12.7071 11.2929L6.70711 5.29289L5.29289 6.70711L11.2929 12.7071L12.7071 11.2929ZM12.7071 18.7071L18.7071 12.7071L17.2929 11.2929L11.2929 17.2929L12.7071 18.7071ZM12.7071 17.2929L6.70711 11.2929L5.29289 12.7071L11.2929 18.7071L12.7071 17.2929Z" fill="black"/>
</svg>
