<svg width="24" height="24" viewBox="0 0 24 24" fill="none" xmlns="http://www.w3.org/2000/svg">
<g clip-path="url(#clip0_333_495)">
<rect width="24" height="24" fill="white"/>
<path d="M0 0H24M0 0V24M0 0L24 24M24 0V24M24 0L0 24M24 24H0" stroke="#C4C4C4" stroke-width="0.13"/>
<circle cx="12" cy="12" r="10" stroke="#C4C4C4" stroke-width="0.13"/>
<rect x="2" y="4" width="20" height="16" rx="1" stroke="#C4C4C4" stroke-width="0.13"/>
<rect x="4" y="2" width="16" height="20" rx="1" stroke="#C4C4C4" stroke-width="0.13"/>
<rect x="3" y="3" width="18" height="18" rx="1" stroke="#C4C4C4" stroke-width="0.13"/>
<circle cx="12" cy="12" r="4" stroke="#C4C4C4" stroke-width="0.13"/>
<path d="M12 15L11.2929 15.7071C11.6834 16.0976 12.3166 16.0976 12.7071 15.7071L12 15ZM18.7071 9.70711C19.0976 9.31658 19.0976 8.68342 18.7071 8.29289C18.3166 7.90237 17.6834 7.90237 17.2929 8.29289L18.7071 9.70711ZM6.70711 8.29289C6.31658 7.90237 5.68342 7.90237 5.29289 8.29289C4.90237 8.68342 4.90237 9.31658 5.29289 9.70711L6.70711 8.29289ZM12.7071 15.7071L18.7071 9.70711L17.2929 8.29289L11.2929 14.2929L12.7071 15.7071ZM12.7071 14.2929L6.70711 8.29289L5.29289 9.70711L11.2929 15.7071L12.7071 14.2929Z" fill="black"/>
</g>
<defs>
<clipPath id="clip0_333_495">
<rect width="24" height="24" fill="white"/>
</clipPath>
</defs>
</svg>
