<svg width="24" height="24" viewBox="0 0 24 24" fill="none" xmlns="http://www.w3.org/2000/svg">
<path d="M12 15L11.2929 15.7071C11.4804 15.8946 11.7348 16 12 16C12.2652 16 12.5196 15.8946 12.7071 15.7071L12 15ZM18.7071 9.70711C19.0976 9.31658 19.0976 8.68342 18.7071 8.29289C18.3166 7.90237 17.6834 7.90237 17.2929 8.29289L18.7071 9.70711ZM6.70711 8.29289C6.31658 7.90237 5.68342 7.90237 5.29289 8.29289C4.90237 8.68342 4.90237 9.31658 5.29289 9.70711L6.70711 8.29289ZM12.7071 15.7071L18.7071 9.70711L17.2929 8.29289L11.2929 14.2929L12.7071 15.7071ZM12.7071 14.2929L6.70711 8.29289L5.29289 9.70711L11.2929 15.7071L12.7071 14.2929Z" fill="black"/>
</svg>
