<svg width="24" height="24" viewBox="0 0 24 24" fill="none" xmlns="http://www.w3.org/2000/svg">
<g clip-path="url(#clip0_333_696)">
<rect width="24" height="24" fill="white"/>
<path d="M0 0H24M0 0V24M0 0L24 24M24 0V24M24 0L0 24M24 24H0" stroke="#C4C4C4" stroke-width="0.13"/>
<circle cx="12" cy="12" r="10" stroke="#C4C4C4" stroke-width="0.13"/>
<rect x="2" y="4" width="20" height="16" rx="1" stroke="#C4C4C4" stroke-width="0.13"/>
<rect x="4" y="2" width="16" height="20" rx="1" stroke="#C4C4C4" stroke-width="0.13"/>
<rect x="3" y="3" width="18" height="18" rx="1" stroke="#C4C4C4" stroke-width="0.13"/>
<circle cx="12" cy="12" r="4" stroke="#C4C4C4" stroke-width="0.13"/>
<path d="M12 12L11.2929 12.7071C11.6834 13.0976 12.3166 13.0976 12.7071 12.7071L12 12ZM18.7071 6.70711C19.0976 6.31658 19.0976 5.68342 18.7071 5.29289C18.3166 4.90237 17.6834 4.90237 17.2929 5.29289L18.7071 6.70711ZM6.70711 5.29289C6.31658 4.90237 5.68342 4.90237 5.29289 5.29289C4.90237 5.68341 4.90237 6.31658 5.29289 6.7071L6.70711 5.29289ZM12.7071 12.7071L18.7071 6.70711L17.2929 5.29289L11.2929 11.2929L12.7071 12.7071ZM12.7071 11.2929L6.70711 5.29289L5.29289 6.7071L11.2929 12.7071L12.7071 11.2929Z" fill="black"/>
<path d="M12 18L11.2929 18.7071C11.6834 19.0976 12.3166 19.0976 12.7071 18.7071L12 18ZM18.7071 12.7071C19.0976 12.3166 19.0976 11.6834 18.7071 11.2929C18.3166 10.9024 17.6834 10.9024 17.2929 11.2929L18.7071 12.7071ZM6.70711 11.2929C6.31658 10.9024 5.68342 10.9024 5.29289 11.2929C4.90237 11.6834 4.90237 12.3166 5.29289 12.7071L6.70711 11.2929ZM12.7071 18.7071L18.7071 12.7071L17.2929 11.2929L11.2929 17.2929L12.7071 18.7071ZM12.7071 17.2929L6.70711 11.2929L5.29289 12.7071L11.2929 18.7071L12.7071 17.2929Z" fill="black"/>
</g>
<defs>
<clipPath id="clip0_333_696">
<rect width="24" height="24" fill="white"/>
</clipPath>
</defs>
</svg>
