<svg width="24" height="24" viewBox="0 0 24 24" fill="none" xmlns="http://www.w3.org/2000/svg">
<g clip-path="url(#clip0_331_177)">
<rect width="24" height="24" fill="white"/>
<path d="M0 0H24M0 0V24M0 0L24 24M24 0V24M24 0L0 24M24 24H0" stroke="#C4C4C4" stroke-width="0.13"/>
<circle cx="12" cy="12" r="10" stroke="#C4C4C4" stroke-width="0.13"/>
<rect x="2" y="4" width="20" height="16" rx="1" stroke="#C4C4C4" stroke-width="0.13"/>
<rect x="4" y="2" width="16" height="20" rx="1" stroke="#C4C4C4" stroke-width="0.13"/>
<rect x="3" y="3" width="18" height="18" rx="1" stroke="#C4C4C4" stroke-width="0.13"/>
<circle cx="12" cy="12" r="4" stroke="#C4C4C4" stroke-width="0.13"/>
<path d="M9 12L8.29289 11.2929C7.90237 11.6834 7.90237 12.3166 8.29289 12.7071L9 12ZM14.2929 18.7071C14.6834 19.0976 15.3166 19.0976 15.7071 18.7071C16.0976 18.3166 16.0976 17.6834 15.7071 17.2929L14.2929 18.7071ZM15.7071 6.70711C16.0976 6.31658 16.0976 5.68342 15.7071 5.29289C15.3166 4.90237 14.6834 4.90237 14.2929 5.29289L15.7071 6.70711ZM8.29289 12.7071L14.2929 18.7071L15.7071 17.2929L9.70711 11.2929L8.29289 12.7071ZM9.70711 12.7071L15.7071 6.70711L14.2929 5.29289L8.29289 11.2929L9.70711 12.7071Z" fill="black"/>
</g>
<defs>
<clipPath id="clip0_331_177">
<rect width="24" height="24" fill="white"/>
</clipPath>
</defs>
</svg>
