<svg width="24" height="24" viewBox="0 0 24 24" fill="none" xmlns="http://www.w3.org/2000/svg">
<g clip-path="url(#clip0_331_163)">
<rect width="24" height="24" fill="white"/>
<path d="M0 0H24M0 0V24M0 0L24 24M24 0V24M24 0L0 24M24 24H0" stroke="#C4C4C4" stroke-width="0.13"/>
<circle cx="12" cy="12" r="10" stroke="#C4C4C4" stroke-width="0.13"/>
<rect x="2" y="4" width="20" height="16" rx="1" stroke="#C4C4C4" stroke-width="0.13"/>
<rect x="4" y="2" width="16" height="20" rx="1" stroke="#C4C4C4" stroke-width="0.13"/>
<rect x="3" y="3" width="18" height="18" rx="1" stroke="#C4C4C4" stroke-width="0.13"/>
<circle cx="12" cy="12" r="4" stroke="#C4C4C4" stroke-width="0.13"/>
<path d="M15 12L15.7071 12.7071C16.0976 12.3166 16.0976 11.6834 15.7071 11.2929L15 12ZM9.70711 5.29289C9.31658 4.90237 8.68342 4.90237 8.29289 5.29289C7.90237 5.68342 7.90237 6.31658 8.29289 6.70711L9.70711 5.29289ZM8.29289 17.2929C7.90237 17.6834 7.90237 18.3166 8.29289 18.7071C8.68342 19.0976 9.31658 19.0976 9.70711 18.7071L8.29289 17.2929ZM15.7071 11.2929L9.70711 5.29289L8.29289 6.70711L14.2929 12.7071L15.7071 11.2929ZM14.2929 11.2929L8.29289 17.2929L9.70711 18.7071L15.7071 12.7071L14.2929 11.2929Z" fill="black"/>
</g>
<defs>
<clipPath id="clip0_331_163">
<rect width="24" height="24" fill="white"/>
</clipPath>
</defs>
</svg>
