<svg width="24" height="24" viewBox="0 0 24 24" fill="none" xmlns="http://www.w3.org/2000/svg">
<g clip-path="url(#clip0_355_590)">
<rect width="24" height="24" fill="white"/>
<path d="M0 0H24M0 0V24M0 0L24 24M24 0V24M24 0L0 24M24 24H0" stroke="#C4C4C4" stroke-width="0.13"/>
<circle cx="12" cy="12" r="10" stroke="#C4C4C4" stroke-width="0.13"/>
<rect x="2" y="4" width="20" height="16" rx="1" stroke="#C4C4C4" stroke-width="0.13"/>
<rect x="4" y="2" width="16" height="20" rx="1" stroke="#C4C4C4" stroke-width="0.13"/>
<rect x="3" y="3" width="18" height="18" rx="1" stroke="#C4C4C4" stroke-width="0.13"/>
<circle cx="12" cy="12" r="4" stroke="#C4C4C4" stroke-width="0.13"/>
<path fill-rule="evenodd" clip-rule="evenodd" d="M7 4H6C4.89543 4 4 4.89543 4 6V20C4 21.1046 4.89543 22 6 22H18C19.1046 22 20 21.1046 20 20V6C20 4.89543 19.1046 4 18 4H17V5C17 6.10457 16.1046 7 15 7H9C7.89543 7 7 6.10457 7 5V4Z" fill="black"/>
<rect x="8" y="2" width="8" height="4" rx="2" fill="black"/>
</g>
<defs>
<clipPath id="clip0_355_590">
<rect width="24" height="24" fill="white"/>
</clipPath>
</defs>
</svg>
