<svg width="24" height="24" viewBox="0 0 24 24" fill="none" xmlns="http://www.w3.org/2000/svg">
<g clip-path="url(#clip0_365_4224)">
<rect width="24" height="24" fill="white"/>
<path d="M0 0H24M0 0V24M0 0L24 24M24 0V24M24 0L0 24M24 24H0" stroke="#C4C4C4" stroke-width="0.13"/>
<circle cx="12" cy="12" r="10" stroke="#C4C4C4" stroke-width="0.13"/>
<rect x="2" y="4" width="20" height="16" rx="1" stroke="#C4C4C4" stroke-width="0.13"/>
<rect x="4" y="2" width="16" height="20" rx="1" stroke="#C4C4C4" stroke-width="0.13"/>
<rect x="3" y="3" width="18" height="18" rx="1" stroke="#C4C4C4" stroke-width="0.13"/>
<circle cx="12" cy="12" r="4" stroke="#C4C4C4" stroke-width="0.13"/>
<path d="M3 4C3 2.89543 3.89543 2 5 2H11.4706V22H5C3.89543 22 3 21.1046 3 20V4Z" fill="black"/>
<path d="M21 20C21 21.1046 20.1046 22 19 22L12.5294 22L12.5294 2L19 2C20.1046 2 21 2.89543 21 4L21 20Z" fill="black"/>
</g>
<defs>
<clipPath id="clip0_365_4224">
<rect width="24" height="24" fill="white"/>
</clipPath>
</defs>
</svg>
