<svg width="24" height="24" viewBox="0 0 24 24" fill="none" xmlns="http://www.w3.org/2000/svg">
<rect width="24" height="24" fill="white"/>
<path d="M5 16H17C18.1046 16 19 15.1046 19 14V4" stroke="black" stroke-width="2" stroke-linecap="round"/>
<path d="M5 16L4.29289 15.2929C4.10536 15.4804 4 15.7348 4 16C4 16.2652 4.10536 16.5196 4.29289 16.7071L5 16ZM8.29289 20.7071C8.68342 21.0976 9.31658 21.0976 9.70711 20.7071C10.0976 20.3166 10.0976 19.6834 9.70711 19.2929L8.29289 20.7071ZM9.70711 12.7071C10.0976 12.3166 10.0976 11.6834 9.70711 11.2929C9.31658 10.9024 8.68342 10.9024 8.29289 11.2929L9.70711 12.7071ZM4.29289 16.7071L8.29289 20.7071L9.70711 19.2929L5.70711 15.2929L4.29289 16.7071ZM5.70711 16.7071L9.70711 12.7071L8.29289 11.2929L4.29289 15.2929L5.70711 16.7071Z" fill="black"/>
</svg>
