<svg width="24" height="24" viewBox="0 0 24 24" fill="none" xmlns="http://www.w3.org/2000/svg">
<path d="M20 20C20.5523 20 21 19.5523 21 19C21 18.4477 20.5523 18 20 18H10C9.44771 18 9 17.5523 9 17L9 7.41421L11.2929 9.70711C11.6834 10.0976 12.3166 10.0976 12.7071 9.70711C13.0976 9.31658 13.0976 8.68342 12.7071 8.29289L8.77782 4.3636C8.76565 4.35144 8.75327 4.33961 8.74068 4.32813C8.55774 4.12657 8.29365 4 8 4C7.70635 4 7.44226 4.12657 7.25932 4.32813C7.24673 4.33961 7.23435 4.35144 7.22218 4.3636L3.29289 8.29289C2.90237 8.68342 2.90237 9.31658 3.29289 9.70711C3.68342 10.0976 4.31658 10.0976 4.70711 9.70711L7 7.41421L7 17C7 18.6569 8.34314 20 10 20H20Z" fill="black"/>
</svg>
