<svg width="24" height="24" viewBox="0 0 24 24" fill="none" xmlns="http://www.w3.org/2000/svg">
<rect width="24" height="24" fill="white"/>
<path d="M19 16H7C5.89543 16 5 15.1046 5 14V4" stroke="black" stroke-width="2" stroke-linecap="round"/>
<path d="M19 16L19.7071 15.2929C19.8946 15.4804 20 15.7348 20 16C20 16.2652 19.8946 16.5196 19.7071 16.7071L19 16ZM15.7071 20.7071C15.3166 21.0976 14.6834 21.0976 14.2929 20.7071C13.9024 20.3166 13.9024 19.6834 14.2929 19.2929L15.7071 20.7071ZM14.2929 12.7071C13.9024 12.3166 13.9024 11.6834 14.2929 11.2929C14.6834 10.9024 15.3166 10.9024 15.7071 11.2929L14.2929 12.7071ZM19.7071 16.7071L15.7071 20.7071L14.2929 19.2929L18.2929 15.2929L19.7071 16.7071ZM18.2929 16.7071L14.2929 12.7071L15.7071 11.2929L19.7071 15.2929L18.2929 16.7071Z" fill="black"/>
</svg>
