<svg width="24" height="24" viewBox="0 0 24 24" fill="none" xmlns="http://www.w3.org/2000/svg">
<path d="M20 4C20 3.44772 19.5523 3 19 3C18.4477 3 18 3.44772 18 4V14C18 14.5523 17.5523 15 17 15H7.41421L9.70711 12.7071C10.0976 12.3166 10.0976 11.6834 9.70711 11.2929C9.31658 10.9024 8.68342 10.9024 8.29289 11.2929L4.3636 15.2222C4.35144 15.2344 4.33961 15.2467 4.32813 15.2593C4.12657 15.4423 4 15.7064 4 16C4 16.2937 4.12657 16.5577 4.32813 16.7407C4.33961 16.7533 4.35144 16.7656 4.3636 16.7778L8.29289 20.7071C8.68342 21.0976 9.31658 21.0976 9.70711 20.7071C10.0976 20.3166 10.0976 19.6834 9.70711 19.2929L7.41421 17H17C18.6569 17 20 15.6569 20 14V4Z" fill="black"/>
</svg>
