<svg width="24" height="24" viewBox="0 0 24 24" fill="none" xmlns="http://www.w3.org/2000/svg">
<path d="M4 4C4 3.44772 4.44771 3 5 3C5.55228 3 6 3.44772 6 4V14C6 14.5523 6.44771 15 7 15H16.5858L14.2929 12.7071C13.9024 12.3166 13.9024 11.6834 14.2929 11.2929C14.6834 10.9024 15.3166 10.9024 15.7071 11.2929L19.6364 15.2222C19.6486 15.2344 19.6604 15.2467 19.6719 15.2593C19.8734 15.4423 20 15.7064 20 16C20 16.2936 19.8734 16.5577 19.6719 16.7407C19.6604 16.7533 19.6486 16.7656 19.6364 16.7778L15.7071 20.7071C15.3166 21.0976 14.6834 21.0976 14.2929 20.7071C13.9024 20.3166 13.9024 19.6834 14.2929 19.2929L16.5858 17H7C5.34315 17 4 15.6569 4 14V4Z" fill="black"/>
</svg>
