<svg width="24" height="24" viewBox="0 0 24 24" fill="none" xmlns="http://www.w3.org/2000/svg">
<g clip-path="url(#clip0_358_2047)">
<rect width="24" height="24" fill="white"/>
<path d="M0 0H24M0 0V24M0 0L24 24M24 0V24M24 0L0 24M24 24H0" stroke="#C4C4C4" stroke-width="0.13"/>
<circle cx="12" cy="12" r="10" stroke="#C4C4C4" stroke-width="0.13"/>
<rect x="2" y="4" width="20" height="16" rx="1" stroke="#C4C4C4" stroke-width="0.13"/>
<rect x="4" y="2" width="16" height="20" rx="1" stroke="#C4C4C4" stroke-width="0.13"/>
<rect x="3" y="3" width="18" height="18" rx="1" stroke="#C4C4C4" stroke-width="0.13"/>
<circle cx="12" cy="12" r="4" stroke="#C4C4C4" stroke-width="0.13"/>
<path d="M8 5L8 17C8 18.1046 8.89543 19 10 19L20 19" stroke="black" stroke-width="2" stroke-linecap="round"/>
<path d="M8 5L8.70711 4.29289C8.51957 4.10536 8.26522 4 8 4C7.73478 4 7.48043 4.10536 7.29289 4.29289L8 5ZM3.29289 8.29289C2.90237 8.68342 2.90237 9.31658 3.29289 9.70711C3.68342 10.0976 4.31658 10.0976 4.70711 9.70711L3.29289 8.29289ZM11.2929 9.70711C11.6834 10.0976 12.3166 10.0976 12.7071 9.70711C13.0976 9.31658 13.0976 8.68342 12.7071 8.29289L11.2929 9.70711ZM7.29289 4.29289L3.29289 8.29289L4.70711 9.70711L8.70711 5.70711L7.29289 4.29289ZM7.29289 5.70711L11.2929 9.70711L12.7071 8.29289L8.70711 4.29289L7.29289 5.70711Z" fill="black"/>
</g>
<defs>
<clipPath id="clip0_358_2047">
<rect width="24" height="24" fill="white"/>
</clipPath>
</defs>
</svg>
