<svg width="24" height="24" viewBox="0 0 24 24" fill="none" xmlns="http://www.w3.org/2000/svg">
<path d="M4 20C3.44772 20 3 19.5523 3 19C3 18.4477 3.44772 18 4 18H14C14.5523 18 15 17.5523 15 17L15 7.41421L12.7071 9.70711C12.3166 10.0976 11.6834 10.0976 11.2929 9.70711C10.9024 9.31658 10.9024 8.68342 11.2929 8.29289L15.2222 4.3636C15.2344 4.35143 15.2467 4.3396 15.2593 4.32812C15.4423 4.12657 15.7064 4 16 4C16.2936 4 16.5577 4.12657 16.7407 4.32813C16.7533 4.33961 16.7656 4.35143 16.7778 4.3636L20.7071 8.29289C21.0976 8.68342 21.0976 9.31658 20.7071 9.70711C20.3166 10.0976 19.6834 10.0976 19.2929 9.70711L17 7.41421L17 17C17 18.6569 15.6569 20 14 20H4Z" fill="black"/>
</svg>
