<svg width="24" height="24" viewBox="0 0 24 24" fill="none" xmlns="http://www.w3.org/2000/svg">
<g clip-path="url(#clip0_358_2071)">
<rect width="24" height="24" fill="white"/>
<path d="M0 0H24M0 0V24M0 0L24 24M24 0V24M24 0L0 24M24 24H0" stroke="#C4C4C4" stroke-width="0.13"/>
<circle cx="12" cy="12" r="10" stroke="#C4C4C4" stroke-width="0.13"/>
<rect x="2" y="4" width="20" height="16" rx="1" stroke="#C4C4C4" stroke-width="0.13"/>
<rect x="4" y="2" width="16" height="20" rx="1" stroke="#C4C4C4" stroke-width="0.13"/>
<rect x="3" y="3" width="18" height="18" rx="1" stroke="#C4C4C4" stroke-width="0.13"/>
<circle cx="12" cy="12" r="4" stroke="#C4C4C4" stroke-width="0.13"/>
<path d="M16 5L16 17C16 18.1046 15.1046 19 14 19L4 19" stroke="black" stroke-width="2" stroke-linecap="round"/>
<path d="M16 5L15.2929 4.29289C15.4804 4.10536 15.7348 4 16 4C16.2652 4 16.5196 4.10536 16.7071 4.29289L16 5ZM20.7071 8.29289C21.0976 8.68342 21.0976 9.31658 20.7071 9.70711C20.3166 10.0976 19.6834 10.0976 19.2929 9.70711L20.7071 8.29289ZM12.7071 9.70711C12.3166 10.0976 11.6834 10.0976 11.2929 9.70711C10.9024 9.31658 10.9024 8.68342 11.2929 8.29289L12.7071 9.70711ZM16.7071 4.29289L20.7071 8.29289L19.2929 9.70711L15.2929 5.70711L16.7071 4.29289ZM16.7071 5.70711L12.7071 9.70711L11.2929 8.29289L15.2929 4.29289L16.7071 5.70711Z" fill="black"/>
</g>
<defs>
<clipPath id="clip0_358_2071">
<rect width="24" height="24" fill="white"/>
</clipPath>
</defs>
</svg>
