<svg width="24" height="24" viewBox="0 0 24 24" fill="none" xmlns="http://www.w3.org/2000/svg">
<rect width="24" height="24" fill="white"/>
<path d="M8 3V14C8 15.1046 8.89543 16 10 16H21" stroke="black" stroke-width="2" stroke-linecap="round"/>
<path fill-rule="evenodd" clip-rule="evenodd" d="M7 7H3C2.44772 7 2 7.44771 2 8C2 8.55228 2.44772 9 3 9L7 9V7ZM10 9L14 9C14.5523 9 15 9.44772 15 10V14H17V10C17 8.34315 15.6569 7 14 7H10V9ZM16 22C15.4477 22 15 21.5523 15 21V17H17V21C17 21.5523 16.5523 22 16 22Z" fill="black"/>
</svg>
