<svg width="24" height="24" viewBox="0 0 24 24" fill="none" xmlns="http://www.w3.org/2000/svg">
<g clip-path="url(#clip0_358_2505)">
<rect width="24" height="24" fill="white"/>
<path d="M0 0H24M0 0V24M0 0L24 24M24 0V24M24 0L0 24M24 24H0" stroke="#C4C4C4" stroke-width="0.13"/>
<circle cx="12" cy="12" r="10" stroke="#C4C4C4" stroke-width="0.13"/>
<rect x="2" y="4" width="20" height="16" rx="1" stroke="#C4C4C4" stroke-width="0.13"/>
<rect x="4" y="2" width="16" height="20" rx="1" stroke="#C4C4C4" stroke-width="0.13"/>
<rect x="3" y="3" width="18" height="18" rx="1" stroke="#C4C4C4" stroke-width="0.13"/>
<circle cx="12" cy="12" r="4" stroke="#C4C4C4" stroke-width="0.13"/>
<path d="M8 3V14C8 15.1046 8.89543 16 10 16H21" stroke="black" stroke-width="2" stroke-linecap="round"/>
<path fill-rule="evenodd" clip-rule="evenodd" d="M7 7H3C2.44772 7 2 7.44771 2 8C2 8.55228 2.44772 9 3 9L7 9V7ZM10 9L14 9C14.5523 9 15 9.44772 15 10V14H17V10C17 8.34315 15.6569 7 14 7H10V9ZM16 22C15.4477 22 15 21.5523 15 21V17H17V21C17 21.5523 16.5523 22 16 22Z" fill="black"/>
</g>
<defs>
<clipPath id="clip0_358_2505">
<rect width="24" height="24" fill="white"/>
</clipPath>
</defs>
</svg>
