<svg width="24" height="24" viewBox="0 0 24 24" fill="none" xmlns="http://www.w3.org/2000/svg">
<path d="M9 3C9 2.44772 8.55228 2 8 2C7.44772 2 7 2.44772 7 3V7H3C2.44772 7 2 7.44771 2 8C2 8.55229 2.44772 9 3 9H7V14C7 15.6569 8.34315 17 10 17H15V21C15 21.5523 15.4477 22 16 22C16.5523 22 17 21.5523 17 21V17H21C21.5523 17 22 16.5523 22 16C22 15.4477 21.5523 15 21 15H10C9.44772 15 9 14.5523 9 14V3Z" fill="black"/>
<path d="M14 9L10 9V7H14C15.6569 7 17 8.34315 17 10V14H15V10C15 9.44772 14.5523 9 14 9Z" fill="black"/>
</svg>
