<svg width="24" height="24" viewBox="0 0 24 24" fill="none" xmlns="http://www.w3.org/2000/svg">
<path fill-rule="evenodd" clip-rule="evenodd" d="M7.70068 5.34921C7.89066 5.12756 8.16801 5 8.45993 5H20C21.1046 5 22 5.89543 22 7V17C22 18.1046 21.1046 19 20 19H8.45994C8.16801 19 7.89066 18.8724 7.70068 18.6508L2.55782 12.6508C2.23683 12.2763 2.23683 11.7237 2.55782 11.3492L7.70068 5.34921ZM12.5303 8.46967C12.2374 8.17678 11.7626 8.17678 11.4697 8.46967C11.1768 8.76256 11.1768 9.23744 11.4697 9.53033L13.9393 12L11.4697 14.4697C11.1768 14.7626 11.1768 15.2374 11.4697 15.5303C11.7626 15.8232 12.2374 15.8232 12.5303 15.5303L15 13.0607L17.4697 15.5303C17.7626 15.8232 18.2374 15.8232 18.5303 15.5303C18.8232 15.2374 18.8232 14.7626 18.5303 14.4697L16.0607 12L18.5303 9.53033C18.8232 9.23744 18.8232 8.76256 18.5303 8.46967C18.2374 8.17678 17.7626 8.17678 17.4697 8.46967L15 10.9393L12.5303 8.46967Z" fill="black"/>
</svg>
