<svg width="24" height="24" viewBox="0 0 24 24" fill="none" xmlns="http://www.w3.org/2000/svg">
<path d="M11 13.1237C11.0012 13.676 11.45 14.1227 12.0023 14.1214C12.5546 14.1201 13.0012 13.6714 13 13.1191L11 13.1237ZM12.9791 3.99771C12.9778 3.44542 12.5291 2.99874 11.9768 3C11.4245 3.00127 10.9778 3.45001 10.9791 4.00229L12.9791 3.99771ZM12 14.1214L11.2929 14.8285C11.4804 15.016 11.7348 15.1214 12 15.1214C12.2652 15.1214 12.5195 15.016 12.7071 14.8285L12 14.1214ZM16.7071 10.8285C17.0976 10.438 17.0976 9.80481 16.7071 9.41429C16.3166 9.02376 15.6834 9.02376 15.2929 9.41429L16.7071 10.8285ZM8.70708 9.41429C8.31655 9.02376 7.68339 9.02376 7.29286 9.41429C6.90234 9.80481 6.90234 10.438 7.29286 10.8285L8.70708 9.41429ZM22 14C22 13.4477 21.5523 13 21 13C20.4477 13 20 13.4477 20 14H22ZM21 18H20H21ZM19 20V21V20ZM4.99997 20V19V20ZM2.99997 18H3.99997H2.99997ZM3.99997 14C3.99997 13.4477 3.55225 13 2.99997 13C2.44768 13 1.99997 13.4477 1.99997 14H3.99997ZM13 13.1191L12.9791 3.99771L10.9791 4.00229L11 13.1237L13 13.1191ZM12.7071 14.8285L16.7071 10.8285L15.2929 9.41429L11.2929 13.4143L12.7071 14.8285ZM12.7071 13.4143L8.70708 9.41429L7.29286 10.8285L11.2929 14.8285L12.7071 13.4143ZM20 14V18H22V14H20ZM19 19H4.99997V21H19V19ZM3.99997 18V14H1.99997L1.99997 18H3.99997ZM4.99997 19C4.44769 19 3.99997 18.5523 3.99997 18H1.99997C1.99997 19.6568 3.34312 21 4.99997 21V19ZM20 18C20 18.5523 19.5523 19 19 19V21C20.6568 21 22 19.6568 22 18H20Z" fill="black"/>
</svg>
