<svg width="24" height="24" viewBox="0 0 24 24" fill="none" xmlns="http://www.w3.org/2000/svg">
<path d="M20.6483 6.78897L20.6391 6.79819L11.8333 15.6039C11.8283 15.609 11.8201 15.609 11.815 15.6039C11.8118 15.6007 11.8071 15.5994 11.8027 15.6005L7.57499 16.6747C7.50149 16.6934 7.43477 16.6267 7.45344 16.5532L8.52761 12.3254C8.52873 12.321 8.52745 12.3163 8.52423 12.3131C8.51919 12.3081 8.51919 12.2999 8.52423 12.2949L8.53917 12.2799C8.53917 12.2799 8.53917 12.2799 8.53917 12.2799L17.3393 3.47981C18.2531 2.56611 19.7346 2.56614 20.6483 3.47989C21.5621 4.39366 21.5621 5.87519 20.6483 6.78897Z" fill="black"/>
<path d="M4 20H18V13.0036L20 11.0036V20C20 21.1046 19.1046 22 18 22H4C2.89543 22 2 21.1046 2 20V6.00003C2 4.89546 2.89543 4.00003 4 4.00003H13.0361L11.0361 6.00003H4L4 20Z" fill="black"/>
</svg>
