<svg width="24" height="24" viewBox="0 0 24 24" fill="none" xmlns="http://www.w3.org/2000/svg">
<g clip-path="url(#clip0_356_1336)">
<rect width="24" height="24" fill="white"/>
<path d="M0 0H24M0 0V24M0 0L24 24M24 0V24M24 0L0 24M24 24H0" stroke="#C4C4C4" stroke-width="0.13"/>
<circle cx="12" cy="12" r="10" stroke="#C4C4C4" stroke-width="0.13"/>
<rect x="2" y="4" width="20" height="16" rx="1" stroke="#C4C4C4" stroke-width="0.13"/>
<rect x="4" y="2" width="16" height="20" rx="1" stroke="#C4C4C4" stroke-width="0.13"/>
<rect x="3" y="3" width="18" height="18" rx="1" stroke="#C4C4C4" stroke-width="0.13"/>
<circle cx="12" cy="12" r="4" stroke="#C4C4C4" stroke-width="0.13"/>
<path fill-rule="evenodd" clip-rule="evenodd" d="M20.6483 6.78893L20.6391 6.79815L11.8333 15.6039C11.8283 15.609 11.8201 15.609 11.815 15.6039C11.8118 15.6007 11.8071 15.5994 11.8027 15.6005L7.57499 16.6747C7.50149 16.6934 7.43477 16.6266 7.45344 16.5531L8.52761 12.3254C8.52873 12.321 8.52745 12.3163 8.52423 12.3131C8.51919 12.3081 8.51919 12.2999 8.52423 12.2948L8.53917 12.2799C8.53917 12.2799 8.53917 12.2799 8.53917 12.2799L8.53918 12.2799C8.53918 12.2799 8.53919 12.2799 8.53919 12.2799C8.5392 12.2799 8.5392 12.2799 8.5392 12.2799L17.3393 3.47977C17.3393 3.47977 17.3393 3.47977 17.3393 3.47977C17.3393 3.47978 17.3393 3.47978 17.3393 3.47977C18.2531 2.56608 19.7346 2.56611 20.6483 3.47986C21.5621 4.39363 21.5621 5.87516 20.6483 6.78893Z" fill="black"/>
<path d="M20.6391 6.79815L20.2865 6.44363L20.2855 6.4446L20.6391 6.79815ZM20.6483 6.78893L21.0009 7.14346L21.0019 7.14249L20.6483 6.78893ZM17.3393 3.47977L17.6929 3.83334L17.3393 3.47977ZM8.53918 12.2799L8.05415 12.1584L8.53918 12.2799ZM8.53917 12.2799L8.05414 12.1585L8.53917 12.2799ZM8.52761 12.3254L8.04301 12.2023L8.52761 12.3254ZM7.57499 16.6747L7.69811 17.1593L7.57499 16.6747ZM7.45344 16.5531L6.96884 16.43L7.45344 16.5531ZM11.8027 15.6005L11.6796 15.1159L11.8027 15.6005ZM11.8333 15.6039L12.1869 15.9575L11.8333 15.6039ZM20.9917 7.15267L21.0009 7.14345L20.2958 6.43442L20.2865 6.44364L20.9917 7.15267ZM12.1869 15.9575L20.9926 7.15171L20.2855 6.4446L11.4798 15.2503L12.1869 15.9575ZM11.6796 15.1159L7.45186 16.1901L7.69811 17.1593L11.9258 16.0851L11.6796 15.1159ZM7.93805 16.6763L9.01221 12.4485L8.04301 12.2023L6.96884 16.43L7.93805 16.6763ZM8.18562 11.9263L8.17068 11.9413L8.87778 12.6484L8.89272 12.6335L8.18562 11.9263ZM9.02421 12.4013L9.02421 12.4013L8.05415 12.1584L8.05414 12.1585L9.02421 12.4013ZM16.9857 3.12622L8.18565 11.9263L8.89276 12.6334L17.6929 3.83333L16.9857 3.12622ZM21.0019 3.1263C19.8929 2.0173 18.0949 2.01726 16.9858 3.1262L17.6929 3.83334C18.4114 3.1149 19.5763 3.11492 20.2948 3.83341L21.0019 3.1263ZM21.0019 7.14249C22.1109 6.03345 22.1109 4.23534 21.0019 3.1263L20.2948 3.83341C21.0133 4.55192 21.0133 5.71687 20.2948 6.43538L21.0019 7.14249ZM16.9858 3.83333C17.1847 4.03222 17.5013 4.02495 17.6929 3.83334L16.9858 3.1262C17.1774 2.93461 17.494 2.92734 17.6929 3.12622L16.9858 3.83333ZM17.6929 3.83333C17.4976 4.02858 17.181 4.02858 16.9858 3.83333L17.6929 3.12622C17.4976 2.93095 17.181 2.93095 16.9857 3.12622L17.6929 3.83333ZM8.18564 12.6334C8.35364 12.8014 8.6713 12.8549 8.89276 12.6334L8.18565 11.9263C8.4071 11.7049 8.72475 11.7583 8.89275 11.9263L8.18564 12.6334ZM9.02421 12.4013C8.92985 12.7782 8.4604 12.9082 8.18564 12.6334L8.89275 11.9263C8.61798 11.6515 8.14851 11.7815 8.05415 12.1584L9.02421 12.4013ZM8.89272 12.6335C8.95677 12.5694 9.00221 12.4892 9.02421 12.4013L8.05414 12.1585C8.07613 12.0706 8.12158 11.9904 8.18562 11.9263L8.89272 12.6335ZM8.87778 11.9595C9.068 12.1498 9.068 12.4582 8.87778 12.6484L8.17068 11.9413C7.97037 12.1416 7.97037 12.4663 8.17068 12.6666L8.87778 11.9595ZM9.01221 12.4485C9.05675 12.2732 9.00568 12.0874 8.87778 11.9595L8.17068 12.6666C8.04922 12.5452 8.00071 12.3687 8.04301 12.2023L9.01221 12.4485ZM7.45186 16.1901C7.74584 16.1154 8.01274 16.3823 7.93805 16.6763L6.96884 16.43C6.8568 16.871 7.25714 17.2713 7.69811 17.1593L7.45186 16.1901ZM12.1686 15.2503C12.0407 15.1224 11.8549 15.0714 11.6796 15.1159L11.9258 16.0851C11.7594 16.1274 11.5829 16.0789 11.4615 15.9575L12.1686 15.2503ZM11.4798 15.2503C11.67 15.0601 11.9784 15.0601 12.1686 15.2503L11.4615 15.9575C11.6618 16.1578 11.9866 16.1578 12.1869 15.9575L11.4798 15.2503Z" fill="black"/>
<path fill-rule="evenodd" clip-rule="evenodd" d="M4 20H18V13.0036L20 11.0036V20C20 21.1046 19.1046 22 18 22H4C2.89543 22 2 21.1046 2 20V6C2 4.89543 2.89543 4 4 4H13.0361L11.0361 6H4L4 20Z" fill="black"/>
</g>
<defs>
<clipPath id="clip0_356_1336">
<rect width="24" height="24" fill="white"/>
</clipPath>
</defs>
</svg>
