<svg width="24" height="24" viewBox="0 0 24 24" fill="none" xmlns="http://www.w3.org/2000/svg">
<g clip-path="url(#clip0_356_1041)">
<rect width="24" height="24" fill="white"/>
<path d="M0 0H24M0 0V24M0 0L24 24M24 0V24M24 0L0 24M24 24H0" stroke="#C4C4C4" stroke-width="0.13"/>
<circle cx="12" cy="12" r="10" stroke="#C4C4C4" stroke-width="0.13"/>
<rect x="2" y="4" width="20" height="16" rx="1" stroke="#C4C4C4" stroke-width="0.13"/>
<rect x="4" y="2" width="16" height="20" rx="1" stroke="#C4C4C4" stroke-width="0.13"/>
<rect x="3" y="3" width="18" height="18" rx="1" stroke="#C4C4C4" stroke-width="0.13"/>
<circle cx="12" cy="12" r="4" stroke="#C4C4C4" stroke-width="0.13"/>
<path fill-rule="evenodd" clip-rule="evenodd" d="M8.47136 20.5137C8.47137 20.5137 8.47139 20.5137 8.4714 20.5137L21.1208 7.86434L21.1208 7.86431C22.4307 6.55441 22.4307 4.43068 21.1208 3.12079C19.8109 1.81091 17.6872 1.8109 16.3773 3.12077L16.3773 3.12079L3.72785 15.7702C3.72784 15.7702 3.72783 15.7702 3.72783 15.7702C3.72782 15.7702 3.7278 15.7702 3.7278 15.7702L2.34874 21.2864C2.25719 21.6526 2.58889 21.9843 2.95508 21.8928L8.47133 20.5137C8.47134 20.5137 8.47135 20.5137 8.47136 20.5137Z" fill="black"/>
</g>
<defs>
<clipPath id="clip0_356_1041">
<rect width="24" height="24" fill="white"/>
</clipPath>
</defs>
</svg>
