<svg width="24" height="24" viewBox="0 0 24 24" fill="none" xmlns="http://www.w3.org/2000/svg">
<path d="M15.3285 1.82837C14.7762 1.82837 14.3285 2.27608 14.3285 2.82837C14.3285 3.38065 14.7762 3.82837 15.3285 3.82837L18.5907 3.82837L10.2859 12.3C9.89928 12.6944 9.90557 13.3275 10.3 13.7142C10.6943 14.1008 11.3275 14.0945 11.7141 13.7001L19.9853 5.26273L19.9853 8.48522C19.9853 9.03751 20.433 9.48522 20.9853 9.48522C21.5376 9.48522 21.9853 9.03751 21.9853 8.48522V2.82837C21.9853 2.56315 21.88 2.3088 21.6924 2.12126C21.5049 1.93373 21.2505 1.82837 20.9853 1.82837H15.3285Z" fill="black"/>
<path d="M6 18.0001H18V13.1078L20 11.1078V18.0001C20 19.1046 19.1046 20.0001 18 20.0001H6C4.89543 20.0001 4 19.1046 4 18.0001V6.00006C4 4.89549 4.89543 4.00006 6 4.00006H13.7534L11.7534 6.00006H6V18.0001Z" fill="black"/>
</svg>
