<svg width="24" height="24" viewBox="0 0 24 24" fill="none" xmlns="http://www.w3.org/2000/svg">
<path d="M20.4578 5.59133C19.9691 5.08683 19.3889 4.68663 18.7503 4.41358C18.1117 4.14054 17.4272 4 16.7359 4C16.0446 4 15.3601 4.14054 14.7215 4.41358C14.0829 4.68663 13.5026 5.08683 13.0139 5.59133L11.9997 6.63785L10.9855 5.59133C9.99842 4.57276 8.6596 4.00053 7.26361 4.00053C5.86761 4.00053 4.52879 4.57276 3.54168 5.59133C2.55456 6.6099 2 7.99139 2 9.43187C2 10.8723 2.55456 12.2538 3.54168 13.2724L11.2816 21.259C11.6745 21.6644 12.3249 21.6644 12.7179 21.259L20.4578 13.2724C20.9467 12.7681 21.3346 12.1694 21.5992 11.5105C21.8638 10.8515 22 10.1452 22 9.43187C22 8.71857 21.8638 8.01225 21.5992 7.35328C21.3346 6.69431 20.9467 6.09559 20.4578 5.59133Z" fill="black"/>
</svg>
