<svg width="24" height="24" viewBox="0 0 24 24" fill="none" xmlns="http://www.w3.org/2000/svg">
<path fill-rule="evenodd" clip-rule="evenodd" d="M6 2H12.5V8.5C12.5 9.05229 12.9477 9.5 13.5 9.5H20V20C20 21.1046 19.1046 22 18 22H6C4.89543 22 4 21.1046 4 20V4C4 2.89543 4.89543 2 6 2ZM17 12H15V20H17V12ZM11 20L11 14H13V20H11ZM7 16L7 20H9L9 16H7Z" fill="black"/>
<path d="M19.4142 7.91421C19.5852 8.08523 19.7221 8.28403 19.8204 8.5H13.5V2.17964C13.716 2.27792 13.9148 2.41477 14.0858 2.58579L19.4142 7.91421Z" fill="black"/>
</svg>
