<svg width="24" height="24" viewBox="0 0 24 24" fill="none" xmlns="http://www.w3.org/2000/svg">
<path d="M12.5 2H6C4.89543 2 4 2.89543 4 4V20C4 21.1046 4.89543 22 6 22H11.2683L11.2518 14.8088L8.53033 17.5303C8.23744 17.8232 7.76256 17.8232 7.46967 17.5303C7.17678 17.2374 7.17678 16.7626 7.46967 16.4697L11.4697 12.4697C11.6103 12.329 11.8011 12.25 12 12.25C12.1989 12.25 12.3897 12.329 12.5303 12.4697L16.5303 16.4697C16.8232 16.7626 16.8232 17.2374 16.5303 17.5303C16.2374 17.8232 15.7626 17.8232 15.4697 17.5303L12.7519 14.8125L12.7683 22H18C19.1046 22 20 21.1046 20 20V9.5H13.5C12.9477 9.5 12.5 9.05229 12.5 8.5V2Z" fill="black"/>
<path d="M19.8204 8.5C19.7221 8.28403 19.5852 8.08523 19.4142 7.91421L14.0858 2.58579C13.9148 2.41477 13.716 2.27792 13.5 2.17964V8.5H19.8204Z" fill="black"/>
</svg>
