<svg width="24" height="24" viewBox="0 0 24 24" fill="none" xmlns="http://www.w3.org/2000/svg">
<path fill-rule="evenodd" clip-rule="evenodd" d="M12.5 2H6C4.89543 2 4 2.89543 4 4V20C4 21.1046 4.89543 22 6 22H18C19.1046 22 20 21.1046 20 20V9.5H13.5C12.9477 9.5 12.5 9.05229 12.5 8.5V2ZM16 15H8V13H16V15ZM8 19H16V17H8V19Z" fill="black"/>
<path d="M19.8204 8.5C19.7221 8.28403 19.5852 8.08523 19.4142 7.91421L14.0858 2.58579C13.9148 2.41477 13.716 2.27792 13.5 2.17964V8.5H19.8204Z" fill="black"/>
</svg>
