<svg width="24" height="24" viewBox="0 0 24 24" fill="none" xmlns="http://www.w3.org/2000/svg">
<path d="M6 2H12.5V8.5C12.5 9.05229 12.9477 9.5 13.5 9.5H20V20C20 20.2771 19.9436 20.5411 19.8417 20.7811L17.7386 18.678C18.2186 17.9897 18.5 17.1527 18.5 16.25C18.5 13.9028 16.5972 12 14.25 12C11.9028 12 10 13.9028 10 16.25C10 18.5972 11.9028 20.5 14.25 20.5C15.1527 20.5 15.9897 20.2186 16.678 19.7386L18.7811 21.8417C18.5411 21.9436 18.2771 22 18 22H6C4.89543 22 4 21.1046 4 20V4C4 2.89543 4.89543 2 6 2Z" fill="black"/>
<path d="M19.4142 7.91421C19.5852 8.08523 19.7221 8.28403 19.8204 8.5H13.5V2.17964C13.716 2.27792 13.9148 2.41477 14.0858 2.58579L19.4142 7.91421Z" fill="black"/>
<path d="M14.25 19C15.7688 19 17 17.7688 17 16.25C17 14.7312 15.7688 13.5 14.25 13.5C12.7312 13.5 11.5 14.7312 11.5 16.25C11.5 17.7688 12.7312 19 14.25 19Z" fill="black"/>
</svg>
