<svg width="24" height="24" viewBox="0 0 24 24" fill="none" xmlns="http://www.w3.org/2000/svg">
<g clip-path="url(#clip0_358_2859)">
<rect width="24" height="24" fill="white"/>
<path d="M0 0H24M0 0V24M0 0L24 24M24 0V24M24 0L0 24M24 24H0" stroke="#C4C4C4" stroke-width="0.13"/>
<circle cx="12" cy="12" r="10" stroke="#C4C4C4" stroke-width="0.13"/>
<rect x="2" y="4" width="20" height="16" rx="1" stroke="#C4C4C4" stroke-width="0.13"/>
<rect x="4" y="2" width="16" height="20" rx="1" stroke="#C4C4C4" stroke-width="0.13"/>
<rect x="3" y="3" width="18" height="18" rx="1" stroke="#C4C4C4" stroke-width="0.13"/>
<circle cx="12" cy="12" r="4" stroke="#C4C4C4" stroke-width="0.13"/>
<path fill-rule="evenodd" clip-rule="evenodd" d="M6 2H12.5V8.5C12.5 9.05229 12.9477 9.5 13.5 9.5H20V20C20 21.1046 19.1046 22 18 22H6C4.89543 22 4 21.1046 4 20V4C4 2.89543 4.89543 2 6 2ZM19.4142 7.91421C19.5852 8.08523 19.7221 8.28403 19.8204 8.5H13.5V2.17964C13.716 2.27792 13.9148 2.41477 14.0858 2.58579L19.4142 7.91421ZM8 17H16V15H8V17Z" fill="black"/>
</g>
<defs>
<clipPath id="clip0_358_2859">
<rect width="24" height="24" fill="white"/>
</clipPath>
</defs>
</svg>
