<svg width="24" height="24" viewBox="0 0 24 24" fill="none" xmlns="http://www.w3.org/2000/svg">
<path d="M13.8125 2H9C7.89543 2 7 2.89543 7 4V16C7 17.1046 7.89543 18 9 18H18C19.1046 18 20 17.1046 20 16V8.1H14.8125C14.2602 8.1 13.8125 7.65228 13.8125 7.1V2Z" fill="black"/>
<path d="M19.7667 7.1C19.6719 6.92152 19.5499 6.75681 19.4032 6.61239L15.3026 2.57487C15.1568 2.43132 14.9913 2.31235 14.8125 2.22061V7.1L19.7667 7.1Z" fill="black"/>
<path d="M6 6H5C3.89543 6 3 6.89543 3 8V20C3 21.1046 3.89543 22 5 22H14C15.1046 22 16 21.1046 16 20V18.8H8C6.89543 18.8 6 17.9046 6 16.8V6Z" fill="black"/>
</svg>
