<svg width="24" height="24" viewBox="0 0 24 24" fill="none" xmlns="http://www.w3.org/2000/svg">
<g clip-path="url(#clip0_361_3281)">
<rect width="24" height="24" fill="white"/>
<path d="M0 0H24M0 0V24M0 0L24 24M24 0V24M24 0L0 24M24 24H0" stroke="#C4C4C4" stroke-width="0.13"/>
<circle cx="12" cy="12" r="10" stroke="#C4C4C4" stroke-width="0.13"/>
<rect x="2" y="4" width="20" height="16" rx="1" stroke="#C4C4C4" stroke-width="0.13"/>
<rect x="4" y="2" width="16" height="20" rx="1" stroke="#C4C4C4" stroke-width="0.13"/>
<rect x="3" y="3" width="18" height="18" rx="1" stroke="#C4C4C4" stroke-width="0.13"/>
<circle cx="12" cy="12" r="4" stroke="#C4C4C4" stroke-width="0.13"/>
<path fill-rule="evenodd" clip-rule="evenodd" d="M13.8125 2H9C7.89543 2 7 2.89543 7 4V16C7 17.1046 7.89543 18 9 18H18C19.1046 18 20 17.1046 20 16V8.1H14.8125C14.2602 8.1 13.8125 7.65228 13.8125 7.1V2ZM19.7667 7.1C19.6719 6.92152 19.5499 6.75681 19.4032 6.61239L15.3026 2.57487C15.1568 2.43132 14.9913 2.31235 14.8125 2.22061V7.1L19.7667 7.1Z" fill="black"/>
<path fill-rule="evenodd" clip-rule="evenodd" d="M6 6H5C3.89543 6 3 6.89543 3 8V20C3 21.1046 3.89543 22 5 22H14C15.1046 22 16 21.1046 16 20V18.8H8C6.89543 18.8 6 17.9046 6 16.8V6Z" fill="black"/>
</g>
<defs>
<clipPath id="clip0_361_3281">
<rect width="24" height="24" fill="white"/>
</clipPath>
</defs>
</svg>
