<svg width="24" height="24" viewBox="0 0 24 24" fill="none" xmlns="http://www.w3.org/2000/svg">
<rect width="24" height="24" fill="white"/>
<path fill-rule="evenodd" clip-rule="evenodd" d="M4.11188 2.90933C5.30878 1.72012 9.75399 1.61607 12 3.08349C13.6106 4.13575 16.8423 4.76434 18.8231 3.94566C19.2649 3.76306 20 4.08149 20 4.55955V14.5935C20 14.7034 19.9651 14.8114 19.8922 14.8936C18.295 16.6927 13.9542 16.0397 12 14.763C10.6715 13.895 8.57359 13.5768 6.83357 13.7078C6.34903 13.7443 5.99997 14.1646 5.99997 14.6505L5.99997 21C5.99997 21.5523 5.55226 22 4.99997 22C4.44769 22 3.99997 21.5523 3.99997 21V5V4.00002C3.99997 4.00001 3.99998 4 3.99998 4C3.99999 4 4 4 4 3.99999V3.20538C4 3.09555 4.03396 2.98675 4.11188 2.90933Z" fill="black"/>
</svg>
