<svg width="24" height="24" viewBox="0 0 24 24" fill="none" xmlns="http://www.w3.org/2000/svg">
<g clip-path="url(#clip0_363_3758)">
<rect width="24" height="24" fill="white"/>
<path d="M0 0H24M0 0V24M0 0L24 24M24 0V24M24 0L0 24M24 24H0" stroke="#C4C4C4" stroke-width="0.13"/>
<circle cx="12" cy="12" r="10" stroke="#C4C4C4" stroke-width="0.13"/>
<rect x="2" y="4" width="20" height="16" rx="1" stroke="#C4C4C4" stroke-width="0.13"/>
<rect x="4" y="2" width="16" height="20" rx="1" stroke="#C4C4C4" stroke-width="0.13"/>
<rect x="3" y="3" width="18" height="18" rx="1" stroke="#C4C4C4" stroke-width="0.13"/>
<circle cx="12" cy="12" r="4" stroke="#C4C4C4" stroke-width="0.13"/>
<path fill-rule="evenodd" clip-rule="evenodd" d="M2 18C2 19.1046 2.89543 20 4 20H20C21.1046 20 22 19.1046 22 18V7.65625C22 6.55168 21.1046 5.65625 20 5.65625H12L9.5 3H4C2.89543 3 2 3.89543 2 5V18ZM8 12V14H16V12H8Z" fill="black"/>
</g>
<defs>
<clipPath id="clip0_363_3758">
<rect width="24" height="24" fill="white"/>
</clipPath>
</defs>
</svg>
