<svg width="24" height="24" viewBox="0 0 24 24" fill="none" xmlns="http://www.w3.org/2000/svg">
<path fill-rule="evenodd" clip-rule="evenodd" d="M19.2858 7C19.3728 6.60144 19.3662 6.19322 19.2954 5.81571C19.0398 4.4529 17.8352 3 16 3C14.567 3 13.4317 3.88615 12.7074 4.82779C12.5106 5.08355 12.3315 5.35925 12.175 5.64576C12.0186 5.35925 11.8395 5.08355 11.6427 4.82779C10.9184 3.88615 9.78313 3 8.35009 3C6.51492 3 5.31025 4.4529 5.05472 5.81571C4.98394 6.19322 4.97729 6.60144 5.06434 7H3C2.44772 7 2 7.44772 2 8V10C2 10.5523 2.44772 11 3 11H21C21.5523 11 22 10.5523 22 10V8C22 7.44772 21.5523 7 21 7H19.2858ZM7.10304 6.76449C7.15837 6.83627 7.3294 7 7.85009 7H10.6096C10.4787 6.68663 10.2951 6.35617 10.0575 6.04721C9.53181 5.36385 8.91706 5 8.35009 5C7.68527 5 7.13994 5.5471 7.02047 6.18429C6.96492 6.48056 7.03026 6.67008 7.10304 6.76449ZM13.7396 7H16.5C17.0207 7 17.1917 6.83627 17.247 6.76449C17.3198 6.67008 17.3852 6.48056 17.3296 6.18429C17.2102 5.5471 16.6648 5 16 5C15.433 5 14.8183 5.36385 14.2926 6.04721C14.055 6.35617 13.8705 6.68663 13.7396 7Z" fill="black"/>
<path d="M12.5 21H19C19.5523 21 20 20.5523 20 20V12H12.5V21Z" fill="black"/>
<path d="M11.5 12H4V20C4 20.5523 4.44772 21 5 21H11.5V12Z" fill="black"/>
</svg>
