<svg width="24" height="24" viewBox="0 0 24 24" fill="none" xmlns="http://www.w3.org/2000/svg">
<path fill-rule="evenodd" clip-rule="evenodd" d="M2 13.1623C2 13.0548 2.01733 12.948 2.05132 12.8461L4.54415 5.36754C4.81638 4.55086 5.58066 4 6.44152 4H17.5585C18.4193 4 19.1836 4.55086 19.4558 5.36754L21.9487 12.8461C21.9827 12.948 22 13.0548 22 13.1623V19C22 20.1046 21.1046 21 20 21H4C2.89543 21 2 20.1046 2 19V13.1623ZM20 13.5H15.8831L14.3744 16.0145C14.1937 16.3157 13.8682 16.5 13.5169 16.5H10.45C10.1352 16.5 9.83885 16.3518 9.65 16.1L7.7 13.5H4V13.3246L6.44152 6L17.5585 5.99999L20 13.3246V13.5Z" fill="black"/>
</svg>
