<svg width="24" height="24" viewBox="0 0 24 24" fill="none" xmlns="http://www.w3.org/2000/svg">
<g clip-path="url(#clip0_365_4404)">
<rect width="24" height="24" fill="white"/>
<path d="M0 0H24M0 0V24M0 0L24 24M24 0V24M24 0L0 24M24 24H0" stroke="#C4C4C4" stroke-width="0.13"/>
<circle cx="12" cy="12" r="10" stroke="#C4C4C4" stroke-width="0.13"/>
<rect x="2" y="4" width="20" height="16" rx="1" stroke="#C4C4C4" stroke-width="0.13"/>
<rect x="4" y="2" width="16" height="20" rx="1" stroke="#C4C4C4" stroke-width="0.13"/>
<rect x="3" y="3" width="18" height="18" rx="1" stroke="#C4C4C4" stroke-width="0.13"/>
<circle cx="12" cy="12" r="4" stroke="#C4C4C4" stroke-width="0.13"/>
<mask id="path-7-inside-1_365_4404" fill="white">
<path fill-rule="evenodd" clip-rule="evenodd" d="M2.01325 13C2.02183 12.9478 2.03455 12.8964 2.05132 12.8461L4.54415 5.36754C4.81638 4.55086 5.58066 4 6.44152 4H17.5585C18.4193 4 19.1836 4.55086 19.4558 5.36754L21.9487 12.8461C21.9655 12.8964 21.9782 12.9478 21.9867 13H22V13.1623V18.5V19C22 20.1046 21.1046 21 20 21H4C2.89543 21 2 20.1046 2 19V18.5V13.1623V13H2.01325ZM19.8918 13H15.8831L14.3744 15.5145C14.1937 15.8157 13.8682 16 13.5169 16H12H10.45C10.1352 16 9.83885 15.8518 9.65 15.6L7.7 13H4.10819L6.44152 6L17.5585 5.99999L19.8918 13Z"/>
</mask>
<path fill-rule="evenodd" clip-rule="evenodd" d="M2.01325 13C2.02183 12.9478 2.03455 12.8964 2.05132 12.8461L4.54415 5.36754C4.81638 4.55086 5.58066 4 6.44152 4H17.5585C18.4193 4 19.1836 4.55086 19.4558 5.36754L21.9487 12.8461C21.9655 12.8964 21.9782 12.9478 21.9867 13H22V13.1623V18.5V19C22 20.1046 21.1046 21 20 21H4C2.89543 21 2 20.1046 2 19V18.5V13.1623V13H2.01325ZM19.8918 13H15.8831L14.3744 15.5145C14.1937 15.8157 13.8682 16 13.5169 16H12H10.45C10.1352 16 9.83885 15.8518 9.65 15.6L7.7 13H4.10819L6.44152 6L17.5585 5.99999L19.8918 13Z" fill="black"/>
<path d="M2.05132 12.8461L0.15395 12.2136L0.153948 12.2136L2.05132 12.8461ZM2.01325 13V15H3.71121L3.98675 13.3246L2.01325 13ZM4.54415 5.36754L2.64679 4.73509L2.64679 4.73509L4.54415 5.36754ZM19.4558 5.36754L17.5585 5.99999L17.5585 6L19.4558 5.36754ZM21.9487 12.8461L23.8461 12.2136L23.8461 12.2136L21.9487 12.8461ZM21.9867 13L20.0133 13.3245L20.2888 15H21.9867V13ZM22 13H24V11H22V13ZM2 13V11H0V13H2ZM15.8831 13V11H14.7507L14.1681 11.971L15.8831 13ZM19.8918 13V15H22.6667L21.7892 12.3675L19.8918 13ZM14.3744 15.5145L16.0894 16.5435L16.0894 16.5435L14.3744 15.5145ZM9.65 15.6L11.25 14.4L11.25 14.4L9.65 15.6ZM7.7 13L9.3 11.8L8.7 11H7.7V13ZM4.10819 13L2.21082 12.3675L1.33333 15H4.10819V13ZM6.44152 6L6.44152 4L5 4L4.54415 5.36754L6.44152 6ZM17.5585 5.99999L19.4558 5.36754L19 3.99999L17.5585 3.99999L17.5585 5.99999ZM0.153948 12.2136C0.103642 12.3645 0.0654989 12.519 0.0397643 12.6754L3.98675 13.3246C3.97817 13.3767 3.96545 13.4282 3.94869 13.4785L0.153948 12.2136ZM2.64679 4.73509L0.15395 12.2136L3.94868 13.4785L6.44152 6L2.64679 4.73509ZM6.44152 2C4.7198 2 3.19124 3.10172 2.64679 4.73509L6.44152 6L6.44152 6V2ZM17.5585 2H6.44152V6H17.5585V2ZM21.3532 4.73509C20.8088 3.10172 19.2802 2 17.5585 2V6L17.5585 5.99999L21.3532 4.73509ZM23.8461 12.2136L21.3532 4.73509L17.5585 6L20.0513 13.4785L23.8461 12.2136ZM23.9602 12.6755C23.9345 12.5189 23.8963 12.3645 23.8461 12.2136L20.0513 13.4785C20.0346 13.4282 20.0218 13.3768 20.0133 13.3245L23.9602 12.6755ZM21.9867 15H22V11H21.9867V15ZM20 13V13.1623H24V13H20ZM20 13.1623V18.5H24V13.1623H20ZM24 19V18.5H20V19H24ZM20 23C22.2091 23 24 21.2091 24 19H20V23ZM4 23H20V19H4V23ZM0 19C0 21.2091 1.79086 23 4 23V19H0ZM0 18.5V19H4V18.5H0ZM4 18.5V13.1623H0V18.5H4ZM4 13.1623V13H0V13.1623H4ZM2 15H2.01325V11H2V15ZM15.8831 15H19.8918V11H15.8831V15ZM16.0894 16.5435L17.5981 14.029L14.1681 11.971L12.6594 14.4855L16.0894 16.5435ZM13.5169 18C14.5707 18 15.5472 17.4471 16.0894 16.5435L12.6594 14.4855C12.8401 14.1843 13.1656 14 13.5169 14V18ZM12 18H13.5169V14H12V18ZM10.45 18H12V14H10.45V18ZM8.05 16.8C8.61656 17.5554 9.50573 18 10.45 18V14C10.7648 14 11.0611 14.1482 11.25 14.4L8.05 16.8ZM6.1 14.2L8.05 16.8L11.25 14.4L9.3 11.8L6.1 14.2ZM4.10819 15H7.7V11H4.10819V15ZM4.54415 5.36754L2.21082 12.3675L6.00555 13.6325L8.33888 6.63246L4.54415 5.36754ZM17.5585 3.99999L6.44152 4L6.44152 8L17.5585 7.99999L17.5585 3.99999ZM21.7892 12.3675L19.4558 5.36754L15.6611 6.63245L17.9944 13.6325L21.7892 12.3675Z" fill="black" mask="url(#path-7-inside-1_365_4404)"/>
</g>
<defs>
<clipPath id="clip0_365_4404">
<rect width="24" height="24" fill="white"/>
</clipPath>
</defs>
</svg>
