<svg width="24" height="24" viewBox="0 0 24 24" fill="none" xmlns="http://www.w3.org/2000/svg">
<rect width="24" height="24" fill="white"/>
<path fill-rule="evenodd" clip-rule="evenodd" d="M2 12C2 6.47715 6.47715 2 12 2C17.5228 2 22 6.47715 22 12C22 17.5228 17.5228 22 12 22C6.47715 22 2 17.5228 2 12ZM12 17C11.4477 17 11 16.5523 11 16L11 11C11 10.4477 11.4477 10 12 10C12.5523 10 13 10.4477 13 11L13 16C13 16.5523 12.5523 17 12 17ZM12 7C11.4477 7 11 7.44771 11 8C11 8.55228 11.4477 9 12 9C12.5523 9 13 8.55228 13 8C13 7.44771 12.5523 7 12 7Z" fill="black"/>
</svg>
