<svg width="24" height="24" viewBox="0 0 24 24" fill="none" xmlns="http://www.w3.org/2000/svg">
<path d="M4 12C4 7.58172 7.58172 4 12 4C16.4183 4 20 7.58172 20 12C20 16.4183 16.4183 20 12 20C7.58172 20 4 16.4183 4 12ZM14 7.98999C14 6.88542 13.1046 5.98999 12 5.98999C10.8954 5.98999 10 6.88542 10 7.98999V7.99999C10 8.59734 10.2619 9.13352 10.6771 9.49999C10.2619 9.86646 10 10.4026 10 11L10 16C10 17.1046 10.8954 18 12 18C13.1046 18 14 17.1046 14 16L14 11C14 10.4026 13.7381 9.86646 13.3229 9.49999C13.7381 9.13352 14 8.59734 14 7.99999V7.98999Z" fill="black" stroke="black" stroke-width="2"/>
</svg>
