<svg width="24" height="24" viewBox="0 0 24 24" fill="none" xmlns="http://www.w3.org/2000/svg">
<path d="M19.3751 3.20679C19.6944 3.34331 19.9846 3.54342 20.2289 3.79567C20.4734 4.0478 20.6673 4.34716 20.7996 4.67664C20.9319 5.00613 21 5.35928 21 5.71593C21 6.07258 20.9319 6.42574 20.7996 6.75523C20.6673 7.08471 20.4734 7.38407 20.2289 7.6362L16.718 11.259C16.3251 11.6644 15.6747 11.6644 15.2818 11.259L11.7708 7.6362C11.2773 7.12692 11 6.43617 11 5.71593C11 4.99569 11.2773 4.30495 11.7708 3.79567C12.2644 3.28638 12.9338 3.00026 13.6318 3.00026C14.3298 3.00026 14.9992 3.28638 15.4928 3.79567L15.9999 4.31893L16.507 3.79567C16.7513 3.54342 17.0414 3.34331 17.3607 3.20679C17.6801 3.07027 18.0223 3 18.3679 3C18.7136 3 19.0558 3.07027 19.3751 3.20679Z" fill="black"/>
<path d="M10.3005 12L3.69951 12C2.93703 12 2.45506 11.1809 2.82536 10.5144L6.12584 4.57348C6.50685 3.88767 7.49315 3.88767 7.87416 4.57348L11.1746 10.5144C11.5449 11.1809 11.063 12 10.3005 12Z" fill="black"/>
<path d="M11 17.5C11 19.9853 8.98528 22 6.5 22C4.01472 22 2 19.9853 2 17.5C2 15.0147 4.01472 13 6.5 13C8.98528 13 11 15.0147 11 17.5Z" fill="black"/>
<path d="M13 13C12.4477 13 12 13.4477 12 14V21C12 21.5523 12.4477 22 13 22H20C20.5523 22 21 21.5523 21 21V14C21 13.4477 20.5523 13 20 13H13Z" fill="black"/>
</svg>
