<svg width="24" height="24" viewBox="0 0 24 24" fill="none" xmlns="http://www.w3.org/2000/svg">
<path d="M5 8C5.55228 8 6 7.55228 6 7C6 6.44772 5.55228 6 5 6C4.44772 6 4 6.44772 4 7C4 7.55228 4.44772 8 5 8Z" fill="black"/>
<path d="M9 6C8.44771 6 8 6.44772 8 7C8 7.55228 8.44771 8 9 8H19C19.5523 8 20 7.55228 20 7C20 6.44772 19.5523 6 19 6H9Z" fill="black"/>
<path d="M9 11C8.44771 11 8 11.4477 8 12C8 12.5523 8.44771 13 9 13H19C19.5523 13 20 12.5523 20 12C20 11.4477 19.5523 11 19 11H9Z" fill="black"/>
<path d="M8 17C8 16.4477 8.44771 16 9 16H19C19.5523 16 20 16.4477 20 17C20 17.5523 19.5523 18 19 18H9C8.44771 18 8 17.5523 8 17Z" fill="black"/>
<path d="M6 12C6 12.5523 5.55228 13 5 13C4.44772 13 4 12.5523 4 12C4 11.4477 4.44772 11 5 11C5.55228 11 6 11.4477 6 12Z" fill="black"/>
<path d="M5 18C5.55228 18 6 17.5523 6 17C6 16.4477 5.55228 16 5 16C4.44772 16 4 16.4477 4 17C4 17.5523 4.44772 18 5 18Z" fill="black"/>
</svg>
