<svg width="24" height="24" viewBox="0 0 24 24" fill="none" xmlns="http://www.w3.org/2000/svg">
<path d="M13.1237 13C13.676 12.9987 14.1227 12.55 14.1214 11.9977C14.1201 11.4454 13.6714 10.9987 13.1191 11L13.1237 13ZM3.99771 11.0209C3.44542 11.0222 2.99874 11.4709 3 12.0232C3.00127 12.5755 3.45001 13.0222 4.00229 13.0209L3.99771 11.0209ZM14.1214 12L14.8285 12.7071C15.016 12.5196 15.1214 12.2652 15.1214 12C15.1214 11.7348 15.016 11.4804 14.8285 11.2929L14.1214 12ZM10.8285 7.29289C10.438 6.90237 9.80481 6.90237 9.41429 7.29289C9.02376 7.68342 9.02376 8.31658 9.41429 8.70711L10.8285 7.29289ZM9.41429 15.2929C9.02376 15.6834 9.02376 16.3166 9.41429 16.7071C9.80481 17.0976 10.438 17.0976 10.8285 16.7071L9.41429 15.2929ZM14 2C13.4477 2 13 2.44772 13 3C13 3.55228 13.4477 4 14 4V2ZM14 20C13.4477 20 13 20.4477 13 21C13 21.5523 13.4477 22 14 22V20ZM13.1191 11L3.99771 11.0209L4.00229 13.0209L13.1237 13L13.1191 11ZM14.8285 11.2929L10.8285 7.29289L9.41429 8.70711L13.4143 12.7071L14.8285 11.2929ZM13.4143 11.2929L9.41429 15.2929L10.8285 16.7071L14.8285 12.7071L13.4143 11.2929ZM14 4H18V2H14V4ZM19 5V19H21V5H19ZM18 20H14V22H18V20ZM19 19C19 19.5523 18.5523 20 18 20V22C19.6568 22 21 20.6569 21 19H19ZM18 4C18.5523 4 19 4.44772 19 5H21C21 3.34315 19.6568 2 18 2V4Z" fill="black"/>
</svg>
