<svg width="24" height="24" viewBox="0 0 24 24" fill="none" xmlns="http://www.w3.org/2000/svg">
<path d="M19.0023 13C19.5546 12.9987 20.0013 12.55 20 11.9977C19.9987 11.4454 19.55 10.9987 18.9977 11L19.0023 13ZM9.8763 11.0209C9.32401 11.0222 8.87732 11.4709 8.87859 12.0232C8.87986 12.5755 9.3286 13.0222 9.88088 13.0209L9.8763 11.0209ZM20 12L20.7071 12.7071C20.8946 12.5196 21 12.2652 21 12C21 11.7348 20.8946 11.4804 20.7071 11.2929L20 12ZM16.7071 7.2929C16.3166 6.90237 15.6834 6.90237 15.2929 7.2929C14.9024 7.68342 14.9024 8.31658 15.2929 8.70711L16.7071 7.2929ZM15.2929 15.2929C14.9023 15.6834 14.9023 16.3166 15.2929 16.7071C15.6834 17.0976 16.3166 17.0976 16.7071 16.7071L15.2929 15.2929ZM10 22C10.5523 22 11 21.5523 11 21C11 20.4477 10.5523 20 10 20V22ZM6 21L6 22H6V21ZM4 19H5H4ZM4 5L3 5L4 5ZM6 3V2V3ZM10 4C10.5523 4 11 3.55229 11 3C11 2.44772 10.5523 2 10 2V4ZM18.9977 11L9.8763 11.0209L9.88088 13.0209L19.0023 13L18.9977 11ZM20.7071 11.2929L16.7071 7.2929L15.2929 8.70711L19.2929 12.7071L20.7071 11.2929ZM19.2929 11.2929L15.2929 15.2929L16.7071 16.7071L20.7071 12.7071L19.2929 11.2929ZM10 20H6V22H10V20ZM5 19L5 5L3 5L3 19H5ZM6 4L10 4V2L6 2V4ZM5 5C5 4.44772 5.44772 4 6 4V2C4.34315 2 3 3.34315 3 5L5 5ZM6 20C5.44772 20 5 19.5523 5 19H3C3 20.6569 4.34315 22 6 22L6 20Z" fill="black"/>
</svg>
