<svg width="24" height="24" viewBox="0 0 24 24" fill="none" xmlns="http://www.w3.org/2000/svg">
<g clip-path="url(#clip0_358_1932)">
<rect width="24" height="24" fill="white"/>
<path d="M0 0H24M0 0V24M0 0L24 24M24 0V24M24 0L0 24M24 24H0" stroke="#C4C4C4" stroke-width="0.13"/>
<circle cx="12" cy="12" r="10" stroke="#C4C4C4" stroke-width="0.13"/>
<rect x="2" y="4" width="20" height="16" rx="1" stroke="#C4C4C4" stroke-width="0.13"/>
<rect x="4" y="2" width="16" height="20" rx="1" stroke="#C4C4C4" stroke-width="0.13"/>
<rect x="3" y="3" width="18" height="18" rx="1" stroke="#C4C4C4" stroke-width="0.13"/>
<circle cx="12" cy="12" r="4" stroke="#C4C4C4" stroke-width="0.13"/>
<path d="M19 12L9.87859 12.0209" stroke="black" stroke-width="2" stroke-linecap="round"/>
<path d="M20 12L20.7071 12.7071C20.8946 12.5196 21 12.2652 21 12C21 11.7348 20.8946 11.4804 20.7071 11.2929L20 12ZM16.7071 7.29289C16.3166 6.90237 15.6834 6.90237 15.2929 7.29289C14.9023 7.68342 14.9023 8.31658 15.2929 8.70711L16.7071 7.29289ZM15.2929 15.2929C14.9023 15.6834 14.9023 16.3166 15.2929 16.7071C15.6834 17.0976 16.3166 17.0976 16.7071 16.7071L15.2929 15.2929ZM20.7071 11.2929L16.7071 7.29289L15.2929 8.70711L19.2929 12.7071L20.7071 11.2929ZM19.2929 11.2929L15.2929 15.2929L16.7071 16.7071L20.7071 12.7071L19.2929 11.2929Z" fill="black"/>
<path d="M10 21L6 21C4.89543 21 4 20.1046 4 19L4 5C4 3.89543 4.89543 3 6 3L10 3" stroke="black" stroke-width="2" stroke-linecap="round"/>
</g>
<defs>
<clipPath id="clip0_358_1932">
<rect width="24" height="24" fill="white"/>
</clipPath>
</defs>
</svg>
