<svg width="24" height="24" viewBox="0 0 24 24" fill="none" xmlns="http://www.w3.org/2000/svg">
<path d="M20 9C20 9.55229 20.4477 10 21 10C21.5523 10 22 9.55229 22 9V3.1C22 2.49249 21.5075 2 20.9 2H15C14.4477 2 14 2.44772 14 3C14 3.55228 14.4477 4 15 4L18.5562 4L13.2279 9.32829C12.8374 9.71882 12.8374 10.352 13.2279 10.7425C13.6184 11.133 14.2516 11.133 14.6421 10.7425L20 5.38464V9Z" fill="black"/>
<path d="M10.7721 13.2929C10.3816 12.9024 9.74839 12.9024 9.35787 13.2929L4 18.6508V15C4 14.4477 3.55228 14 3 14C2.44772 14 2 14.4477 2 15V20.9C2 21.2542 2.16737 21.5692 2.42732 21.7704C2.61643 21.9273 2.84978 22.0038 3.08202 21.9999L3.1 22H9C9.55228 22 10 21.5523 10 21C10 20.4477 9.55228 20 9 20H5.47919L10.7721 14.7071C11.1626 14.3166 11.1626 13.6834 10.7721 13.2929Z" fill="black"/>
</svg>
