<svg width="24" height="24" viewBox="0 0 24 24" fill="none" xmlns="http://www.w3.org/2000/svg">
<path d="M9.65685 3C9.65685 2.44772 9.20914 2 8.65685 2C8.10457 2 7.65685 2.44772 7.65685 3H9.65685ZM6.65685 8.65685L6.65685 9.65685H6.65685V8.65685ZM3 7.65685C2.44772 7.65685 2 8.10457 2 8.65685C2 9.20914 2.44772 9.65685 3 9.65685L3 7.65685ZM15.3284 17.3284H14.3284H15.3284ZM14.3284 20.9852C14.3284 21.5375 14.7761 21.9852 15.3284 21.9852C15.8807 21.9852 16.3284 21.5375 16.3284 20.9852H14.3284ZM17.3284 15.3284V14.3284V15.3284ZM20.9853 16.3284C21.5376 16.3284 21.9853 15.8806 21.9853 15.3284C21.9853 14.7761 21.5376 14.3284 20.9853 14.3284V16.3284ZM20.9853 9.65692C21.5375 9.65692 21.9853 9.2092 21.9853 8.65692C21.9853 8.10463 21.5375 7.65692 20.9853 7.65692V9.65692ZM15.3284 6.65692L14.3284 6.65692V6.65692H15.3284ZM16.3284 3.00006C16.3284 2.44778 15.8807 2.00006 15.3284 2.00006C14.7761 2.00006 14.3284 2.44778 14.3284 3.00006L16.3284 3.00006ZM6.6569 15.3285V14.3285H6.6569L6.6569 15.3285ZM3.00005 14.3285C2.44776 14.3285 2.00005 14.7762 2.00005 15.3285C2.00005 15.8808 2.44776 16.3285 3.00005 16.3285L3.00005 14.3285ZM8.6569 17.3285H9.6569H8.6569ZM7.6569 20.9853C7.6569 21.5376 8.10462 21.9853 8.6569 21.9853C9.20919 21.9853 9.6569 21.5376 9.6569 20.9853H7.6569ZM9.65685 6.65685V3H7.65685V6.65685H9.65685ZM6.65685 7.65685L3 7.65685L3 9.65685L6.65685 9.65685L6.65685 7.65685ZM7.65685 6.65685C7.65685 7.20914 7.20914 7.65685 6.65685 7.65685V9.65685C8.31371 9.65685 9.65685 8.31371 9.65685 6.65685H7.65685ZM14.3284 17.3284L14.3284 20.9852H16.3284L16.3284 17.3284H14.3284ZM17.3284 16.3284L20.9853 16.3284V14.3284L17.3284 14.3284V16.3284ZM16.3284 17.3284C16.3284 16.7761 16.7761 16.3284 17.3284 16.3284V14.3284C15.6716 14.3284 14.3284 15.6715 14.3284 17.3284H16.3284ZM17.3284 9.65692H20.9853V7.65692H17.3284V9.65692ZM16.3284 6.65692L16.3284 3.00006L14.3284 3.00006L14.3284 6.65692L16.3284 6.65692ZM17.3284 7.65692C16.7761 7.65692 16.3284 7.2092 16.3284 6.65692H14.3284C14.3284 8.31377 15.6715 9.65692 17.3284 9.65692V7.65692ZM6.6569 14.3285L3.00005 14.3285L3.00005 16.3285L6.6569 16.3285L6.6569 14.3285ZM7.6569 17.3285L7.6569 20.9853H9.6569L9.6569 17.3285H7.6569ZM6.6569 16.3285C7.20918 16.3285 7.6569 16.7762 7.6569 17.3285H9.6569C9.6569 15.6716 8.31376 14.3285 6.6569 14.3285V16.3285Z" fill="black"/>
</svg>
