<svg width="24" height="24" viewBox="0 0 24 24" fill="none" xmlns="http://www.w3.org/2000/svg">
<path d="M14.8284 4.34315V7.5666L20.2618 2.10824C20.6515 1.71682 21.2846 1.71537 21.676 2.10499C22.0675 2.49462 22.0689 3.12779 21.6793 3.5192L16.2236 9L19.4853 9C20.0376 9 20.4853 9.44772 20.4853 10C20.4853 10.5523 20.0376 11 19.4853 11H13.9284C13.3209 11 12.8284 10.5075 12.8284 9.9V4.34315C12.8284 3.79086 13.2762 3.34315 13.8284 3.34315C14.3807 3.34315 14.8284 3.79086 14.8284 4.34315Z" fill="black"/>
<path d="M7.57562 14.8284H4.5C3.94771 14.8284 3.5 14.3807 3.5 13.8284C3.5 13.2761 3.94771 12.8284 4.5 12.8284H10.0569C10.6644 12.8284 11.1569 13.3209 11.1569 13.9284L11.1569 19.4852C11.1569 20.0375 10.7091 20.4852 10.1569 20.4852C9.60457 20.4852 9.15685 20.0375 9.15685 19.4852L9.15685 16.0748L3.55193 21.7055C3.1623 22.0969 2.52914 22.0984 2.13772 21.7087C1.7463 21.3191 1.74485 20.6859 2.13447 20.2945L7.57562 14.8284Z" fill="black"/>
</svg>
