<svg width="24" height="24" viewBox="0 0 24 24" fill="none" xmlns="http://www.w3.org/2000/svg">
<path d="M3.70711 1.29289C3.31658 0.902369 2.68342 0.902369 2.29289 1.29289C1.90237 1.68342 1.90237 2.31658 2.29289 2.70711L5.79341 6.20762C5.70644 6.35078 5.6019 6.5924 5.50001 7C5.2894 7.84244 5.23372 8.75236 5.17456 9.71922C5.09328 11.0477 5.00541 12.4838 4.5 14C4.42496 14.2251 4.35982 14.441 4.29539 14.6545C4.04111 15.4971 3.79784 16.3032 3.00002 17.5C2.23023 18.6547 2.51465 19 3.00001 19H18.5858L20.7929 21.2071C21.1834 21.5976 21.8166 21.5976 22.2071 21.2071C22.5976 20.8166 22.5976 20.1834 22.2071 19.7929L3.70711 1.29289Z" fill="black"/>
<path d="M8 3.49999L19 14.5C18.4628 11.8142 18.4109 10.2463 18.3722 9.07973C18.3389 8.07457 18.3154 7.36743 18 6.5C15.9317 0.812043 10.5 2.00001 9.5 2.50001C8.86753 2.81625 8 3.49999 8 3.49999Z" fill="black"/>
<path d="M12 23C10.3431 23 9 21.6569 9 20H15C15 21.6569 13.6569 23 12 23Z" fill="black"/>
</svg>
