<svg width="24" height="24" viewBox="0 0 24 24" fill="none" xmlns="http://www.w3.org/2000/svg">
<rect width="24" height="24" fill="white"/>
<path fill-rule="evenodd" clip-rule="evenodd" d="M12.0233 19.0297L3.48856 19.0297C3.09482 19.0297 2.85612 18.5955 3.06244 18.2601C4.70668 15.5874 5.72821 13.3436 5.72885 8.01551C5.72885 8.01279 5.73105 8.01049 5.73377 8.01049C5.73639 8.01049 5.73855 8.00842 5.73869 8.00581C5.92244 4.6577 8.66594 2 12.0234 2C15.4998 2 18.3179 4.84928 18.3179 8.36404C18.3179 8.57709 18.3076 8.78771 18.2873 8.99539C18.2865 9.00439 18.2935 9.0122 18.3026 9.0122C18.311 9.0122 18.3179 9.01938 18.3179 9.02782C18.3198 14.1911 19.2822 15.6684 20.8417 18.0621C20.8856 18.1295 20.93 18.1977 20.9749 18.2666C21.1895 18.5967 20.9519 19.0297 20.5582 19.0297L12.0233 19.0297Z" fill="black"/>
<path fill-rule="evenodd" clip-rule="evenodd" d="M9 20C9 21.6569 10.3431 23 12 23C13.6569 23 15 21.6569 15 20H9Z" fill="black"/>
</svg>
