<svg width="24" height="24" viewBox="0 0 24 24" fill="none" xmlns="http://www.w3.org/2000/svg">
<rect width="24" height="24" fill="white"/>
<path fill-rule="evenodd" clip-rule="evenodd" d="M2.29289 1.29289C2.68342 0.902369 3.31658 0.902369 3.70711 1.29289L22.2929 19.8787C22.6834 20.2692 22.6834 20.9024 22.2929 21.2929C21.9024 21.6834 21.2692 21.6834 20.8787 21.2929L18.6155 19.0297L11.6091 19.0297L4.52162 19.0297L4.48609 19.0297H3.89912H3.07435C2.68061 19.0297 2.44191 18.5955 2.64822 18.2601C2.79534 18.021 2.93748 17.7853 3.07435 17.5505C3.17079 17.385 3.26461 17.2201 3.35571 17.0547L3.36944 17.0297C4.58581 14.814 5.3141 12.514 5.31464 8.01552C5.31464 8.0128 5.31684 8.0105 5.31956 8.0105C5.32217 8.0105 5.32433 8.00843 5.32448 8.00582C5.36056 7.3484 5.49533 6.71759 5.71407 6.1283L2.29289 2.70711C1.90237 2.31658 1.90237 1.68342 2.29289 1.29289ZM5.31956 10.0105C5.69974 10.0105 6.05365 9.90532 6.35505 9.72306C6.0582 9.90413 5.70632 10.0105 5.31956 10.0105Z" fill="black"/>
<path fill-rule="evenodd" clip-rule="evenodd" d="M9 20C9 21.6569 10.3431 23 12 23C13.6569 23 15 21.6569 15 20H9Z" fill="black"/>
<mask id="mask0_342_584" style="mask-type:alpha" maskUnits="userSpaceOnUse" x="2" y="2" width="20" height="18">
<path fill-rule="evenodd" clip-rule="evenodd" d="M12.0233 19.0297L3.48856 19.0297C3.09482 19.0297 2.85612 18.5955 3.06244 18.2601C4.70668 15.5874 5.72821 13.3436 5.72885 8.01551C5.72885 8.01279 5.73105 8.01049 5.73377 8.01049C5.73639 8.01049 5.73855 8.00842 5.73869 8.00581C5.92244 4.6577 8.66594 2 12.0234 2C15.4998 2 18.3179 4.84928 18.3179 8.36404C18.3179 8.57709 18.3076 8.78771 18.2873 8.99539C18.2865 9.00439 18.2935 9.0122 18.3026 9.0122C18.311 9.0122 18.3179 9.01938 18.3179 9.02782C18.3198 14.1911 19.2822 15.6684 20.8417 18.0621C20.8856 18.1295 20.93 18.1977 20.9749 18.2666C21.1895 18.5967 20.9519 19.0297 20.5582 19.0297L12.0233 19.0297Z" fill="black"/>
</mask>
<g mask="url(#mask0_342_584)">
<path d="M23 18.5L6 1.5H21.5L23 5V18.5Z" fill="black"/>
</g>
</svg>
