<svg width="24" height="24" viewBox="0 0 24 24" fill="none" xmlns="http://www.w3.org/2000/svg">
<g clip-path="url(#clip0_333_392)">
<rect width="24" height="24" fill="white"/>
<path d="M0 0H24M0 0V24M0 0L24 24M24 0V24M24 0L0 24M24 24H0" stroke="#C4C4C4" stroke-width="0.13"/>
<circle cx="12" cy="12" r="10" stroke="#C4C4C4" stroke-width="0.13"/>
<rect x="2" y="4" width="20" height="16" rx="1" stroke="#C4C4C4" stroke-width="0.13"/>
<rect x="4" y="2" width="16" height="20" rx="1" stroke="#C4C4C4" stroke-width="0.13"/>
<rect x="3" y="3" width="18" height="18" rx="1" stroke="#C4C4C4" stroke-width="0.13"/>
<circle cx="12" cy="12" r="4" stroke="#C4C4C4" stroke-width="0.13"/>
<path fill-rule="evenodd" clip-rule="evenodd" d="M14.2955 3.18196C14.1218 2.48732 13.4977 2 12.7817 2H11.2183C10.5023 2 9.87817 2.48732 9.70451 3.18196C9.45037 4.19853 8.28639 4.68067 7.38786 4.14156C6.77388 3.77316 5.98796 3.86992 5.48166 4.37622L4.37621 5.48167C3.86991 5.98797 3.77316 6.77388 4.14155 7.38787C4.68067 8.2864 4.19853 9.45037 3.18196 9.70451C2.48732 9.87817 2 10.5023 2 11.2183V12.7817C2 13.4977 2.48732 14.1218 3.18196 14.2955C4.19853 14.5496 4.68067 15.7136 4.14156 16.6121C3.77316 17.2261 3.86992 18.012 4.37622 18.5183L5.48167 19.6238C5.98797 20.1301 6.77388 20.2268 7.38787 19.8584C8.2864 19.3193 9.45037 19.8015 9.70451 20.818C9.87817 21.5127 10.5023 22 11.2183 22H12.7817C13.4977 22 14.1218 21.5127 14.2955 20.818C14.5496 19.8015 15.7136 19.3193 16.6121 19.8584C17.2261 20.2268 18.012 20.1301 18.5183 19.6238L19.6238 18.5183C20.1301 18.012 20.2268 17.2261 19.8584 16.6121C19.3193 15.7136 19.8015 14.5496 20.818 14.2955C21.5127 14.1218 22 13.4977 22 12.7817V11.2183C22 10.5023 21.5127 9.87817 20.818 9.70451C19.8015 9.45037 19.3193 8.28639 19.8584 7.38786C20.2268 6.77388 20.1301 5.98796 19.6238 5.48166L18.5183 4.37621C18.012 3.86991 17.2261 3.77316 16.6121 4.14155C15.7136 4.68067 14.5496 4.19853 14.2955 3.18196ZM12 16C14.2091 16 16 14.2091 16 12C16 9.79086 14.2091 8 12 8C9.79086 8 8 9.79086 8 12C8 14.2091 9.79086 16 12 16Z" fill="black"/>
</g>
<defs>
<clipPath id="clip0_333_392">
<rect width="24" height="24" fill="white"/>
</clipPath>
</defs>
</svg>
