<svg width="24" height="24" viewBox="0 0 24 24" fill="none" xmlns="http://www.w3.org/2000/svg">
<rect width="24" height="24" fill="white"/>
<path d="M4 17L19 17" stroke="black" stroke-width="2" stroke-linecap="round"/>
<path d="M3 17L2.29289 16.2929C2.10536 16.4804 2 16.7348 2 17C2 17.2652 2.10536 17.5196 2.29289 17.7071L3 17ZM6.29289 21.7071C6.68342 22.0976 7.31658 22.0976 7.70711 21.7071C8.09763 21.3166 8.09763 20.6834 7.70711 20.2929L6.29289 21.7071ZM7.70711 13.7071C8.09763 13.3166 8.09763 12.6834 7.70711 12.2929C7.31658 11.9024 6.68342 11.9024 6.29289 12.2929L7.70711 13.7071ZM2.29289 17.7071L6.29289 21.7071L7.70711 20.2929L3.70711 16.2929L2.29289 17.7071ZM3.70711 17.7071L7.70711 13.7071L6.29289 12.2929L2.29289 16.2929L3.70711 17.7071Z" fill="black"/>
<path d="M20 7L5 7" stroke="black" stroke-width="2" stroke-linecap="round"/>
<path d="M21 7L21.7071 7.70711C21.8946 7.51957 22 7.26522 22 7C22 6.73478 21.8946 6.48043 21.7071 6.29289L21 7ZM17.7071 2.29289C17.3166 1.90237 16.6834 1.90237 16.2929 2.29289C15.9024 2.68342 15.9024 3.31658 16.2929 3.70711L17.7071 2.29289ZM16.2929 10.2929C15.9024 10.6834 15.9024 11.3166 16.2929 11.7071C16.6834 12.0976 17.3166 12.0976 17.7071 11.7071L16.2929 10.2929ZM21.7071 6.29289L17.7071 2.29289L16.2929 3.70711L20.2929 7.70711L21.7071 6.29289ZM20.2929 6.29289L16.2929 10.2929L17.7071 11.7071L21.7071 7.70711L20.2929 6.29289Z" fill="black"/>
</svg>
