<svg width="24" height="24" viewBox="0 0 24 24" fill="none" xmlns="http://www.w3.org/2000/svg">
<path d="M16.2929 2.29289C16.6834 1.90237 17.3166 1.90237 17.7071 2.29289L21.6364 6.22218C22.066 6.65176 22.066 7.34824 21.6364 7.77782L17.7071 11.7071C17.3166 12.0976 16.6834 12.0976 16.2929 11.7071C15.9024 11.3166 15.9024 10.6834 16.2929 10.2929L18.5858 8L4.99999 8C4.44771 8 3.99999 7.55228 3.99999 7C3.99999 6.44771 4.44771 6 4.99999 6L18.5858 6L16.2929 3.70711C15.9024 3.31658 15.9024 2.68342 16.2929 2.29289Z" fill="black"/>
<path d="M5.41421 18L7.7071 20.2929C8.09762 20.6834 8.09762 21.3166 7.7071 21.7071C7.31657 22.0976 6.68341 22.0976 6.29288 21.7071L2.36359 17.7778C1.93401 17.3482 1.93402 16.6518 2.3636 16.2222L6.29288 12.2929C6.68341 11.9024 7.31657 11.9024 7.7071 12.2929C8.09762 12.6834 8.09762 13.3166 7.7071 13.7071L5.4142 16L19 16C19.5523 16 20 16.4477 20 17C20 17.5523 19.5523 18 19 18L5.41421 18Z" fill="black"/>
</svg>
