<svg width="24" height="24" viewBox="0 0 24 24" fill="none" xmlns="http://www.w3.org/2000/svg">
<rect width="24" height="24" fill="white"/>
<path d="M7 4L7 19" stroke="black" stroke-width="2" stroke-linecap="round"/>
<path d="M7 3L7.70711 2.29289C7.51957 2.10536 7.26522 2 7 2C6.73478 2 6.48043 2.10536 6.29289 2.29289L7 3ZM2.29289 6.29289C1.90237 6.68342 1.90237 7.31658 2.29289 7.70711C2.68342 8.09763 3.31658 8.09763 3.70711 7.70711L2.29289 6.29289ZM10.2929 7.70711C10.6834 8.09763 11.3166 8.09763 11.7071 7.70711C12.0976 7.31658 12.0976 6.68342 11.7071 6.29289L10.2929 7.70711ZM6.29289 2.29289L2.29289 6.29289L3.70711 7.70711L7.70711 3.70711L6.29289 2.29289ZM6.29289 3.70711L10.2929 7.70711L11.7071 6.29289L7.70711 2.29289L6.29289 3.70711Z" fill="black"/>
<path d="M17 20L17 5" stroke="black" stroke-width="2" stroke-linecap="round"/>
<path d="M17 21L16.2929 21.7071C16.4804 21.8946 16.7348 22 17 22C17.2652 22 17.5196 21.8946 17.7071 21.7071L17 21ZM21.7071 17.7071C22.0976 17.3166 22.0976 16.6834 21.7071 16.2929C21.3166 15.9024 20.6834 15.9024 20.2929 16.2929L21.7071 17.7071ZM13.7071 16.2929C13.3166 15.9024 12.6834 15.9024 12.2929 16.2929C11.9024 16.6834 11.9024 17.3166 12.2929 17.7071L13.7071 16.2929ZM17.7071 21.7071L21.7071 17.7071L20.2929 16.2929L16.2929 20.2929L17.7071 21.7071ZM17.7071 20.2929L13.7071 16.2929L12.2929 17.7071L16.2929 21.7071L17.7071 20.2929Z" fill="black"/>
</svg>
