<svg width="24" height="24" viewBox="0 0 24 24" fill="none" xmlns="http://www.w3.org/2000/svg">
<path d="M2.25613 6.35587C1.86815 6.74892 1.87225 7.38207 2.26529 7.77006C2.65834 8.15804 3.29149 8.15394 3.67948 7.7609L6 5.41011L6 19C6 19.5523 6.44771 20 7 20C7.55228 20 8 19.5523 8 19L8 5.48227L10.2651 7.71823C10.6582 8.10622 11.2913 8.10212 11.6793 7.70907C12.0673 7.31603 12.0632 6.68287 11.6701 6.29489L7.71549 2.39114C7.28314 1.96435 6.58667 1.96886 6.15988 2.40121L2.25613 6.35587Z" fill="black"/>
<path d="M16 18.5178L13.7349 16.2818C13.3418 15.8939 12.7087 15.898 12.3207 16.291C11.9327 16.684 11.9368 17.3172 12.3299 17.7052L16.2845 21.6089C16.7169 22.0357 17.4133 22.0312 17.8401 21.5989L21.7439 17.6442C22.1319 17.2512 22.1278 16.618 21.7347 16.23C21.3417 15.842 20.7085 15.8461 20.3205 16.2392L18 18.59L18 5.00004C18 4.44775 17.5523 4.00004 17 4.00004C16.4477 4.00004 16 4.44775 16 5.00004L16 18.5178Z" fill="black"/>
</svg>
