<svg width="24" height="24" viewBox="0 0 24 24" fill="none" xmlns="http://www.w3.org/2000/svg">
<g clip-path="url(#clip0_365_4141)">
<rect width="24" height="24" fill="white"/>
<path d="M0 0H24M0 0V24M0 0L24 24M24 0V24M24 0L0 24M24 24H0" stroke="#C4C4C4" stroke-width="0.13"/>
<circle cx="12" cy="12" r="10" stroke="#C4C4C4" stroke-width="0.13"/>
<rect x="2" y="4" width="20" height="16" rx="1" stroke="#C4C4C4" stroke-width="0.13"/>
<rect x="4" y="2" width="16" height="20" rx="1" stroke="#C4C4C4" stroke-width="0.13"/>
<rect x="3" y="3" width="18" height="18" rx="1" stroke="#C4C4C4" stroke-width="0.13"/>
<circle cx="12" cy="12" r="4" stroke="#C4C4C4" stroke-width="0.13"/>
<path fill-rule="evenodd" clip-rule="evenodd" d="M4 2C2.89543 2 2 2.89543 2 4V8H8H9H15H16H22V4C22 2.89543 21.1046 2 20 2H4ZM15 9H9L9 22H15L15 9ZM16 22L16 9H22V20C22 21.1046 21.1046 22 20 22H16ZM2 9H8L8 22H4C2.89543 22 2 21.1046 2 20V9Z" fill="black"/>
</g>
<defs>
<clipPath id="clip0_365_4141">
<rect width="24" height="24" fill="white"/>
</clipPath>
</defs>
</svg>
