<svg width="24" height="24" viewBox="0 0 24 24" fill="none" xmlns="http://www.w3.org/2000/svg">
<g clip-path="url(#clip0_331_228)">
<rect width="24" height="24" fill="white"/>
<path d="M0 0H24M0 0V24M0 0L24 24M24 0V24M24 0L0 24M24 24H0" stroke="#C4C4C4" stroke-width="0.13"/>
<circle cx="12" cy="12" r="10" stroke="#C4C4C4" stroke-width="0.13"/>
<rect x="2" y="4" width="20" height="16" rx="1" stroke="#C4C4C4" stroke-width="0.13"/>
<rect x="4" y="2" width="16" height="20" rx="1" stroke="#C4C4C4" stroke-width="0.13"/>
<rect x="3" y="3" width="18" height="18" rx="1" stroke="#C4C4C4" stroke-width="0.13"/>
<circle cx="12" cy="12" r="4" stroke="#C4C4C4" stroke-width="0.13"/>
<path fill-rule="evenodd" clip-rule="evenodd" d="M8 4C8 2.89543 8.89543 2 10 2H14C15.1046 2 16 2.89543 16 4V5H20C20.5523 5 21 5.44772 21 6C21 6.55228 20.5523 7 20 7H16H8H4C3.44772 7 3 6.55228 3 6C3 5.44772 3.44772 5 4 5H8V4ZM19 8H5V18C5 19.6569 6.34315 21 8 21H16C17.6569 21 19 19.6569 19 18V8Z" fill="black"/>
</g>
<defs>
<clipPath id="clip0_331_228">
<rect width="24" height="24" fill="white"/>
</clipPath>
</defs>
</svg>
