<svg width="24" height="24" viewBox="0 0 24 24" fill="none" xmlns="http://www.w3.org/2000/svg">
<rect width="24" height="24" fill="white"/>
<path fill-rule="evenodd" clip-rule="evenodd" d="M8 4C8 2.89543 8.89543 2 10 2H14C15.1046 2 16 2.89543 16 4V5H20C20.5523 5 21 5.44772 21 6C21 6.55228 20.5523 7 20 7H16H8H4C3.44772 7 3 6.55228 3 6C3 5.44772 3.44772 5 4 5H8V4ZM19 8H5V18C5 19.6569 6.34315 21 8 21H16C17.6569 21 19 19.6569 19 18V8ZM10 17.75C9.58579 17.75 9.25 17.4142 9.25 17V11C9.25 10.5858 9.58579 10.25 10 10.25C10.4142 10.25 10.75 10.5858 10.75 11V17C10.75 17.4142 10.4142 17.75 10 17.75ZM13.25 17C13.25 17.4142 13.5858 17.75 14 17.75C14.4142 17.75 14.75 17.4142 14.75 17V11C14.75 10.5858 14.4142 10.25 14 10.25C13.5858 10.25 13.25 10.5858 13.25 11V17Z" fill="black"/>
</svg>
