<svg width="24" height="24" viewBox="0 0 24 24" fill="none" xmlns="http://www.w3.org/2000/svg">
<path d="M13 4.99769C12.9987 4.4454 12.55 3.99872 11.9977 3.99998C11.4454 4.00125 10.9987 4.44999 11 5.00227L13 4.99769ZM11.0209 14.1237C11.0221 14.676 11.4709 15.1227 12.0232 15.1214C12.5755 15.1201 13.0221 14.6714 13.0209 14.1191L11.0209 14.1237ZM12 4L12.7071 3.29289C12.5195 3.10536 12.2652 3 12 3C11.7348 3 11.4804 3.10536 11.2929 3.29289L12 4ZM7.29286 7.29289C6.90234 7.68342 6.90234 8.31658 7.29286 8.70711C7.68339 9.09763 8.31655 9.09763 8.70708 8.70711L7.29286 7.29289ZM15.2929 8.70711C15.6834 9.09763 16.3166 9.09763 16.7071 8.70711C17.0976 8.31658 17.0976 7.68342 16.7071 7.29289L15.2929 8.70711ZM22 14C22 13.4477 21.5523 13 21 13C20.4477 13 20 13.4477 20 14H22ZM21 18H20H21ZM19 20V21V20ZM4.99997 20V19V20ZM2.99997 18H3.99997H2.99997ZM3.99997 14C3.99997 13.4477 3.55225 13 2.99997 13C2.44768 13 1.99997 13.4477 1.99997 14H3.99997ZM11 5.00227L11.0209 14.1237L13.0209 14.1191L13 4.99769L11 5.00227ZM11.2929 3.29289L7.29286 7.29289L8.70708 8.70711L12.7071 4.70711L11.2929 3.29289ZM11.2929 4.70711L15.2929 8.70711L16.7071 7.29289L12.7071 3.29289L11.2929 4.70711ZM20 14V18H22V14H20ZM19 19H4.99997V21H19V19ZM3.99997 18V14H1.99997L1.99997 18H3.99997ZM4.99997 19C4.44769 19 3.99997 18.5523 3.99997 18H1.99997C1.99997 19.6568 3.34312 21 4.99997 21V19ZM20 18C20 18.5523 19.5523 19 19 19V21C20.6568 21 22 19.6568 22 18H20Z" fill="black"/>
</svg>
