<svg width="24" height="24" viewBox="0 0 24 24" fill="none" xmlns="http://www.w3.org/2000/svg">
<g clip-path="url(#clip0_331_138)">
<rect width="24" height="24" fill="white"/>
<path d="M0 0H24M0 0V24M0 0L24 24M24 0V24M24 0L0 24M24 24H0" stroke="#C4C4C4" stroke-width="0.13"/>
<circle cx="12" cy="12" r="10" stroke="#C4C4C4" stroke-width="0.13"/>
<rect x="2" y="4" width="20" height="16" rx="1" stroke="#C4C4C4" stroke-width="0.13"/>
<rect x="4" y="2" width="16" height="20" rx="1" stroke="#C4C4C4" stroke-width="0.13"/>
<rect x="3" y="3" width="18" height="18" rx="1" stroke="#C4C4C4" stroke-width="0.13"/>
<circle cx="12" cy="12" r="4" stroke="#C4C4C4" stroke-width="0.13"/>
<circle cx="12" cy="7" r="5" fill="black"/>
<path d="M3 17.5C3 15.0147 5.01472 13 7.5 13H16.5C18.9853 13 21 15.0147 21 17.5V20C21 20.5523 20.5523 21 20 21H4C3.44772 21 3 20.5523 3 20V17.5Z" fill="black"/>
</g>
<defs>
<clipPath id="clip0_331_138">
<rect width="24" height="24" fill="white"/>
</clipPath>
</defs>
</svg>
