<svg width="24" height="24" viewBox="0 0 24 24" fill="none" xmlns="http://www.w3.org/2000/svg">
<path fill-rule="evenodd" clip-rule="evenodd" d="M3.20711 2.29289C2.81658 1.90237 2.18342 1.90237 1.79289 2.29289C1.40237 2.68342 1.40237 3.31658 1.79289 3.70711L4.08579 6H4C2.89543 6 2 6.89543 2 8V16C2 17.1046 2.89543 18 4 18H15.5661C15.7078 18 15.8336 17.9321 15.9128 17.827L20.2929 22.2071C20.6834 22.5976 21.3166 22.5976 21.7071 22.2071C22.0976 21.8166 22.0976 21.1834 21.7071 20.7929L3.20711 2.29289ZM11 8L9 6H15C16.1046 6 17 6.89543 17 8V9.74998L20.4 7.19998C21.0592 6.70556 22 7.17594 22 7.99998V16C22 16.824 21.0592 17.2944 20.4 16.8L18 15L17 14L15 12V12L13 10L11 8Z" fill="black"/>
</svg>
