<svg width="24" height="24" viewBox="0 0 24 24" fill="none" xmlns="http://www.w3.org/2000/svg">
<rect width="24" height="24" fill="white"/>
<line x1="2.41421" y1="3" x2="21" y2="21.5858" stroke="black" stroke-width="2" stroke-linecap="round"/>
<mask id="mask0_348_289" style="mask-type:alpha" maskUnits="userSpaceOnUse" x="2" y="6" width="20" height="12">
<path fill-rule="evenodd" clip-rule="evenodd" d="M4 6C2.89543 6 2 6.89543 2 8V16C2 17.1046 2.89543 18 4 18H15C16.1046 18 17 17.1046 17 16V14.25L20.4 16.8C21.0592 17.2944 22 16.824 22 16V8C22 7.17595 21.0592 6.70557 20.4 7.2L17 9.75V8C17 6.89543 16.1046 6 15 6H4Z" fill="black"/>
</mask>
<g mask="url(#mask0_348_289)">
<path d="M23 23.5L2 2.5L0.5 3V23.5H23Z" fill="black"/>
</g>
<mask id="mask1_348_289" style="mask-type:alpha" maskUnits="userSpaceOnUse" x="2" y="6" width="20" height="12">
<path fill-rule="evenodd" clip-rule="evenodd" d="M4 6C2.89543 6 2 6.89543 2 8V16C2 17.1046 2.89543 18 4 18H15C16.1046 18 17 17.1046 17 16V14.25L20.4 16.8C21.0592 17.2944 22 16.824 22 16V8C22 7.17595 21.0592 6.70557 20.4 7.2L17 9.75V8C17 6.89543 16.1046 6 15 6H4Z" fill="black"/>
</mask>
<g mask="url(#mask1_348_289)">
<path d="M22 18.5L7 4L25.5 5L22 18.5Z" fill="black"/>
</g>
</svg>
