<svg width="24" height="24" viewBox="0 0 24 24" fill="none" xmlns="http://www.w3.org/2000/svg">
<g clip-path="url(#clip0_350_514)">
<rect width="24" height="24" fill="white"/>
<path d="M0 0H24M0 0V24M0 0L24 24M24 0V24M24 0L0 24M24 24H0" stroke="#C4C4C4" stroke-width="0.13"/>
<circle cx="12" cy="12" r="10" stroke="#C4C4C4" stroke-width="0.13"/>
<rect x="2" y="4" width="20" height="16" rx="1" stroke="#C4C4C4" stroke-width="0.13"/>
<rect x="4" y="2" width="16" height="20" rx="1" stroke="#C4C4C4" stroke-width="0.13"/>
<rect x="3" y="3" width="18" height="18" rx="1" stroke="#C4C4C4" stroke-width="0.13"/>
<circle cx="12" cy="12" r="4" stroke="#C4C4C4" stroke-width="0.13"/>
<mask id="path-7-inside-1_350_514" fill="white">
<path fill-rule="evenodd" clip-rule="evenodd" d="M5 3C3.89543 3 3 3.89543 3 5V19C3 20.1046 3.89543 21 5 21H19C20.1046 21 21 20.1046 21 19V5C21 3.89543 20.1046 3 19 3H5ZM9.70711 8.29289C9.31658 7.90237 8.68342 7.90237 8.29289 8.29289C7.90237 8.68342 7.90237 9.31658 8.29289 9.70711L10.5858 12L8.29289 14.2929C7.90237 14.6834 7.90237 15.3166 8.29289 15.7071C8.68342 16.0976 9.31658 16.0976 9.70711 15.7071L12 13.4142L14.2929 15.7071C14.6834 16.0976 15.3166 16.0976 15.7071 15.7071C16.0976 15.3166 16.0976 14.6834 15.7071 14.2929L13.4142 12L15.7071 9.70711C16.0976 9.31658 16.0976 8.68342 15.7071 8.29289C15.3166 7.90237 14.6834 7.90237 14.2929 8.29289L12 10.5858L9.70711 8.29289Z"/>
</mask>
<path fill-rule="evenodd" clip-rule="evenodd" d="M5 3C3.89543 3 3 3.89543 3 5V19C3 20.1046 3.89543 21 5 21H19C20.1046 21 21 20.1046 21 19V5C21 3.89543 20.1046 3 19 3H5ZM9.70711 8.29289C9.31658 7.90237 8.68342 7.90237 8.29289 8.29289C7.90237 8.68342 7.90237 9.31658 8.29289 9.70711L10.5858 12L8.29289 14.2929C7.90237 14.6834 7.90237 15.3166 8.29289 15.7071C8.68342 16.0976 9.31658 16.0976 9.70711 15.7071L12 13.4142L14.2929 15.7071C14.6834 16.0976 15.3166 16.0976 15.7071 15.7071C16.0976 15.3166 16.0976 14.6834 15.7071 14.2929L13.4142 12L15.7071 9.70711C16.0976 9.31658 16.0976 8.68342 15.7071 8.29289C15.3166 7.90237 14.6834 7.90237 14.2929 8.29289L12 10.5858L9.70711 8.29289Z" fill="black"/>
<path d="M8.29289 8.29289L9.70711 9.70711L9.70711 9.70711L8.29289 8.29289ZM9.70711 8.29289L8.29289 9.70711L8.29289 9.70711L9.70711 8.29289ZM8.29289 9.70711L9.70711 8.29289L9.70711 8.29289L8.29289 9.70711ZM10.5858 12L12 13.4142L13.4142 12L12 10.5858L10.5858 12ZM8.29289 14.2929L9.70711 15.7071L9.70711 15.7071L8.29289 14.2929ZM8.29289 15.7071L9.70711 14.2929L9.70711 14.2929L8.29289 15.7071ZM9.70711 15.7071L8.29289 14.2929L8.29289 14.2929L9.70711 15.7071ZM12 13.4142L13.4142 12L12 10.5858L10.5858 12L12 13.4142ZM14.2929 15.7071L15.7071 14.2929L15.7071 14.2929L14.2929 15.7071ZM15.7071 15.7071L14.2929 14.2929L14.2929 14.2929L15.7071 15.7071ZM15.7071 14.2929L14.2929 15.7071L14.2929 15.7071L15.7071 14.2929ZM13.4142 12L12 10.5858L10.5858 12L12 13.4142L13.4142 12ZM15.7071 9.70711L14.2929 8.29289L14.2929 8.29289L15.7071 9.70711ZM15.7071 8.29289L14.2929 9.70711L14.2929 9.70711L15.7071 8.29289ZM14.2929 8.29289L15.7071 9.70711L15.7071 9.70711L14.2929 8.29289ZM12 10.5858L10.5858 12L12 13.4142L13.4142 12L12 10.5858ZM5 5V5V1C2.79086 1 1 2.79086 1 5H5ZM5 19V5H1V19H5ZM5 19H5H1C1 21.2091 2.79086 23 5 23V19ZM19 19H5V23H19V19ZM19 19V23C21.2091 23 23 21.2091 23 19H19ZM19 5V19H23V5H19ZM19 5H23C23 2.79086 21.2091 1 19 1V5ZM5 5H19V1H5V5ZM9.70711 9.70711C9.31658 10.0976 8.68342 10.0976 8.29289 9.70711L11.1213 6.87868C9.94975 5.70711 8.05025 5.70711 6.87868 6.87868L9.70711 9.70711ZM9.70711 8.29289C10.0976 8.68342 10.0976 9.31658 9.70711 9.70711L6.87868 6.87868C5.70711 8.05025 5.70711 9.94975 6.87868 11.1213L9.70711 8.29289ZM12 10.5858L9.70711 8.29289L6.87868 11.1213L9.17157 13.4142L12 10.5858ZM9.70711 15.7071L12 13.4142L9.17157 10.5858L6.87868 12.8787L9.70711 15.7071ZM9.70711 14.2929C10.0976 14.6834 10.0976 15.3166 9.70711 15.7071L6.87868 12.8787C5.70711 14.0503 5.70711 15.9497 6.87868 17.1213L9.70711 14.2929ZM8.29289 14.2929C8.68342 13.9024 9.31658 13.9024 9.70711 14.2929L6.87868 17.1213C8.05025 18.2929 9.94975 18.2929 11.1213 17.1213L8.29289 14.2929ZM10.5858 12L8.29289 14.2929L11.1213 17.1213L13.4142 14.8284L10.5858 12ZM15.7071 14.2929L13.4142 12L10.5858 14.8284L12.8787 17.1213L15.7071 14.2929ZM14.2929 14.2929C14.6834 13.9024 15.3166 13.9024 15.7071 14.2929L12.8787 17.1213C14.0503 18.2929 15.9497 18.2929 17.1213 17.1213L14.2929 14.2929ZM14.2929 15.7071C13.9024 15.3166 13.9024 14.6834 14.2929 14.2929L17.1213 17.1213C18.2929 15.9497 18.2929 14.0503 17.1213 12.8787L14.2929 15.7071ZM12 13.4142L14.2929 15.7071L17.1213 12.8787L14.8284 10.5858L12 13.4142ZM14.2929 8.29289L12 10.5858L14.8284 13.4142L17.1213 11.1213L14.2929 8.29289ZM14.2929 9.70711C13.9024 9.31658 13.9024 8.68342 14.2929 8.29289L17.1213 11.1213C18.2929 9.94975 18.2929 8.05025 17.1213 6.87868L14.2929 9.70711ZM15.7071 9.70711C15.3166 10.0976 14.6834 10.0976 14.2929 9.70711L17.1213 6.87868C15.9497 5.70711 14.0503 5.70711 12.8787 6.87868L15.7071 9.70711ZM13.4142 12L15.7071 9.70711L12.8787 6.87868L10.5858 9.17157L13.4142 12ZM8.29289 9.70711L10.5858 12L13.4142 9.17157L11.1213 6.87868L8.29289 9.70711Z" fill="black" mask="url(#path-7-inside-1_350_514)"/>
</g>
<defs>
<clipPath id="clip0_350_514">
<rect width="24" height="24" fill="white"/>
</clipPath>
</defs>
</svg>
