<svg width="24" height="24" viewBox="0 0 24 24" fill="none" xmlns="http://www.w3.org/2000/svg">
<path d="M4 5C4 4.44772 4.44772 4 5 4H19C19.5523 4 20 4.44772 20 5V19C20 19.5523 19.5523 20 19 20H5C4.44771 20 4 19.5523 4 19V5ZM10.4142 7.58579C9.63317 6.80474 8.36683 6.80474 7.58579 7.58579C6.80474 8.36683 6.80474 9.63317 7.58579 10.4142L9.17157 12L7.58579 13.5858C6.80474 14.3668 6.80474 15.6332 7.58579 16.4142C8.36683 17.1953 9.63317 17.1953 10.4142 16.4142L12 14.8284L13.5858 16.4142C14.3668 17.1953 15.6332 17.1953 16.4142 16.4142C17.1953 15.6332 17.1953 14.3668 16.4142 13.5858L14.8284 12L16.4142 10.4142C17.1953 9.63317 17.1953 8.36683 16.4142 7.58579C15.6332 6.80474 14.3668 6.80474 13.5858 7.58579L12 9.17157L10.4142 7.58579Z" fill="black" stroke="black" stroke-width="2"/>
</svg>
