<svg xmlns="http://www.w3.org/2000/svg" fill="none" viewBox="0 0 24 24" stroke-width="2" stroke="currentColor" aria-hidden="true">
  <g clip-path="url(#clip0_355_747)">
    <path fill="#fff" d="M0 0h24v24H0z"/>
    <path d="M0 0h24M0 0v24M0 0l24 24m0-24v24m0-24L0 24m24 0H0"/>
    <circle cx="12" cy="12" r="10" stroke-width=".13"/>
    <rect width="20" height="16" x="2" y="4" stroke-width=".13" rx="1"/>
    <rect width="16" height="20" x="4" y="2" stroke-width=".13" rx="1"/>
    <rect width="18" height="18" x="3" y="3" stroke-width=".13" rx="1"/>
    <circle cx="12" cy="12" r="4" stroke-width=".13"/>
    <circle cx="12.5" cy="13" r="8" stroke-width="2"/>
    <path stroke-linecap="round" d="M12 8.05V13l3.6 1.8"/>
    <path fill="#000" d="M3.414 6.869a2 2 0 010-2.828l1.627-1.627a2 2 0 012.828 0l.707.707-4.455 4.455-.707-.707zM16.95 2.414a2 2 0 012.83 0l1.626 1.627a2 2 0 010 2.828l-.707.707-4.455-4.455.707-.707z"/>
  </g>
  <defs>
    <clipPath id="clip0_355_747">
      <path fill="#fff" d="M0 0h24v24H0z"/>
    </clipPath>
  </defs>
</svg>
