<svg xmlns="http://www.w3.org/2000/svg" fill="none" viewBox="0 0 24 24" stroke-width="2" stroke="currentColor" aria-hidden="true">
  <path fill="#fff" d="M0 0h24v24H0z"/>
  <path fill="#000" fill-rule="evenodd" d="M8.68 3.99h6.64l4.695 4.696v6.64L15.32 20.02H8.68l-4.695-4.695v-6.64L8.68 3.992zM7.266 2.578A2 2 0 018.68 1.99h6.64a2 2 0 011.414.586l4.695 4.695a2 2 0 01.586 1.414v6.64a2 2 0 01-.586 1.413l-4.695 4.695a2 2 0 01-1.414.586H8.68a2 2 0 01-1.414-.586L2.571 16.74a2 2 0 01-.586-1.414v-6.64a2 2 0 01.586-1.413l4.695-4.695zM12 7a1 1 0 011 1v5a1 1 0 11-2 0V8a1 1 0 011-1zm1 9a1 1 0 11-2 0 1 1 0 012 0z" clip-rule="evenodd"/>
</svg>
