<svg xmlns="http://www.w3.org/2000/svg" fill="none" viewBox="0 0 24 24" stroke-width="2" stroke="currentColor" aria-hidden="true">
  <g clip-path="url(#clip0_351_882)">
    <path fill="#fff" d="M0 0h24v24H0z"/>
    <path d="M0 0h24M0 0v24M0 0l24 24m0-24v24m0-24L0 24m24 0H0"/>
    <circle cx="12" cy="12" r="10" stroke-width=".13"/>
    <rect width="20" height="16" x="2" y="4" stroke-width=".13" rx="1"/>
    <rect width="16" height="20" x="4" y="2" stroke-width=".13" rx="1"/>
    <rect width="18" height="18" x="3" y="3" stroke-width=".13" rx="1"/>
    <circle cx="12" cy="12" r="4" stroke-width=".13"/>
    <path fill="#000" fill-rule="evenodd" d="M12 4l8.66 15H3.34L12 4zm-1.732-1c.77-1.333 2.694-1.333 3.464 0l8.66 15c.77 1.333-.192 3-1.732 3H3.34c-1.54 0-2.502-1.667-1.732-3l8.66-15zM12 8a1 1 0 011 1v5a1 1 0 11-2 0V9a1 1 0 011-1zm1 9a1 1 0 11-2 0 1 1 0 012 0z" clip-rule="evenodd"/>
  </g>
  <defs>
    <clipPath id="clip0_351_882">
      <path fill="#fff" d="M0 0h24v24H0z"/>
    </clipPath>
  </defs>
</svg>
