<svg xmlns="http://www.w3.org/2000/svg" fill="none" viewBox="0 0 24 24" stroke-width="2" stroke="currentColor" aria-hidden="true">
  <g clip-path="url(#clip0_365_4033)">
    <path fill="#fff" d="M0 0h24v24H0z"/>
    <path d="M0 0h24M0 0v24M0 0l24 24m0-24v24m0-24L0 24m24 0H0"/>
    <circle cx="12" cy="12" r="10" stroke-width=".13"/>
    <rect width="20" height="16" x="2" y="4" stroke-width=".13" rx="1"/>
    <rect width="16" height="20" x="4" y="2" stroke-width=".13" rx="1"/>
    <rect width="18" height="18" x="3" y="3" stroke-width=".13" rx="1"/>
    <circle cx="12" cy="12" r="4" stroke-width=".13"/>
    <mask id="a" fill="#fff">
      <rect width="6" height="6" x="2" y="2" rx="1"/>
    </mask>
    <rect width="6" height="6" x="2" y="2" stroke-width="4" mask="url(#a)" rx="1"/>
    <mask id="b" fill="#fff">
      <rect width="6" height="6" x="2" y="9" rx="1"/>
    </mask>
    <rect width="6" height="6" x="2" y="9" stroke-width="4" mask="url(#b)" rx="1"/>
    <mask id="c" fill="#fff">
      <rect width="6" height="6" x="2" y="16" rx="1"/>
    </mask>
    <rect width="6" height="6" x="2" y="16" stroke-width="4" mask="url(#c)" rx="1"/>
    <mask id="d" fill="#fff">
      <rect width="6" height="6" x="9" y="2" rx="1"/>
    </mask>
    <rect width="6" height="6" x="9" y="2" stroke-width="4" mask="url(#d)" rx="1"/>
    <mask id="e" fill="#fff">
      <rect width="6" height="6" x="9" y="9" rx="1"/>
    </mask>
    <rect width="6" height="6" x="9" y="9" stroke-width="4" mask="url(#e)" rx="1"/>
    <mask id="f" fill="#fff">
      <rect width="6" height="6" x="9" y="16" rx="1"/>
    </mask>
    <rect width="6" height="6" x="9" y="16" stroke-width="4" mask="url(#f)" rx="1"/>
    <mask id="g" fill="#fff">
      <rect width="6" height="6" x="16" y="2" rx="1"/>
    </mask>
    <rect width="6" height="6" x="16" y="2" stroke-width="4" mask="url(#g)" rx="1"/>
    <mask id="h" fill="#fff">
      <rect width="6" height="6" x="16" y="9" rx="1"/>
    </mask>
    <rect width="6" height="6" x="16" y="9" stroke-width="4" mask="url(#h)" rx="1"/>
    <mask id="i" fill="#fff">
      <rect width="6" height="6" x="16" y="16" rx="1"/>
    </mask>
    <rect width="6" height="6" x="16" y="16" stroke-width="4" mask="url(#i)" rx="1"/>
  </g>
  <defs>
    <clipPath id="clip0_365_4033">
      <path fill="#fff" d="M0 0h24v24H0z"/>
    </clipPath>
  </defs>
</svg>
