<svg xmlns="http://www.w3.org/2000/svg" fill="none" viewBox="0 0 24 24" stroke-width="2" stroke="currentColor" aria-hidden="true">
  <path fill="#fff" d="M0 0h24v24H0z"/>
  <mask id="a" fill="#fff">
    <rect width="6" height="6" x="2" y="2" rx="1"/>
  </mask>
  <rect width="6" height="6" x="2" y="2" stroke-width="4" mask="url(#a)" rx="1"/>
  <mask id="b" fill="#fff">
    <rect width="6" height="6" x="2" y="9" rx="1"/>
  </mask>
  <rect width="6" height="6" x="2" y="9" stroke-width="4" mask="url(#b)" rx="1"/>
  <mask id="c" fill="#fff">
    <rect width="6" height="6" x="2" y="16" rx="1"/>
  </mask>
  <rect width="6" height="6" x="2" y="16" stroke-width="4" mask="url(#c)" rx="1"/>
  <mask id="d" fill="#fff">
    <rect width="6" height="6" x="9" y="2" rx="1"/>
  </mask>
  <rect width="6" height="6" x="9" y="2" stroke-width="4" mask="url(#d)" rx="1"/>
  <mask id="e" fill="#fff">
    <rect width="6" height="6" x="9" y="9" rx="1"/>
  </mask>
  <rect width="6" height="6" x="9" y="9" stroke-width="4" mask="url(#e)" rx="1"/>
  <mask id="f" fill="#fff">
    <rect width="6" height="6" x="9" y="16" rx="1"/>
  </mask>
  <rect width="6" height="6" x="9" y="16" stroke-width="4" mask="url(#f)" rx="1"/>
  <mask id="g" fill="#fff">
    <rect width="6" height="6" x="16" y="2" rx="1"/>
  </mask>
  <rect width="6" height="6" x="16" y="2" stroke-width="4" mask="url(#g)" rx="1"/>
  <mask id="h" fill="#fff">
    <rect width="6" height="6" x="16" y="9" rx="1"/>
  </mask>
  <rect width="6" height="6" x="16" y="9" stroke-width="4" mask="url(#h)" rx="1"/>
  <mask id="i" fill="#fff">
    <rect width="6" height="6" x="16" y="16" rx="1"/>
  </mask>
  <rect width="6" height="6" x="16" y="16" stroke-width="4" mask="url(#i)" rx="1"/>
</svg>
