<svg xmlns="http://www.w3.org/2000/svg" fill="none" viewBox="0 0 24 24" stroke-width="2" stroke="currentColor" aria-hidden="true">
  <g clip-path="url(#clip0_357_1556)">
    <path fill="#fff" d="M0 0h24v24H0z"/>
    <path d="M0 0h24M0 0v24M0 0l24 24m0-24v24m0-24L0 24m24 0H0"/>
    <circle cx="12" cy="12" r="10" stroke-width=".13"/>
    <rect width="20" height="16" x="2" y="4" stroke-width=".13" rx="1"/>
    <rect width="16" height="20" x="4" y="2" stroke-width=".13" rx="1"/>
    <rect width="18" height="18" x="3" y="3" stroke-width=".13" rx="1"/>
    <circle cx="12" cy="12" r="4" stroke-width=".13"/>
    <path stroke-linecap="round" d="M16.607 6.95L6 17.556"/>
    <path fill="#000" d="M17.314 6.243h1a1 1 0 00-1-1v1zm-8.485-1a1 1 0 100 2v-2zm7.485 9.485a1 1 0 002 0h-2zm1-9.485H8.829v2h8.485v-2zm-1 1v8.485h2V6.243h-2z"/>
  </g>
  <defs>
    <clipPath id="clip0_357_1556">
      <path fill="#fff" d="M0 0h24v24H0z"/>
    </clipPath>
  </defs>
</svg>
