<svg xmlns="http://www.w3.org/2000/svg" fill="none" viewBox="0 0 24 24" stroke-width="2" stroke="currentColor" aria-hidden="true">
  <g clip-path="url(#clip0_354_508)">
    <path fill="#fff" d="M0 0h24v24H0z"/>
    <path d="M0 0h24M0 0v24M0 0l24 24m0-24v24m0-24L0 24m24 0H0"/>
    <circle cx="12" cy="12" r="10" stroke-width=".13"/>
    <rect width="20" height="16" x="2" y="4" stroke-width=".13" rx="1"/>
    <rect width="16" height="20" x="4" y="2" stroke-width=".13" rx="1"/>
    <rect width="18" height="18" x="3" y="3" stroke-width=".13" rx="1"/>
    <circle cx="12" cy="12" r="4" stroke-width=".13"/>
    <path fill="#000" fill-rule="evenodd" d="M9 5a1 1 0 011-1h4a1 1 0 011 1v1H9V5zM7 6V5a3 3 0 013-3h4a3 3 0 013 3v1h3a2 2 0 012 2v11a2 2 0 01-2 2H4a2 2 0 01-2-2V8a2 2 0 012-2h3zm8 2H9v11h6V8zm2 11V8h3v11h-3zM7 19H4V8h3v11z" clip-rule="evenodd"/>
  </g>
  <defs>
    <clipPath id="clip0_354_508">
      <path fill="#fff" d="M0 0h24v24H0z"/>
    </clipPath>
  </defs>
</svg>
