<svg xmlns="http://www.w3.org/2000/svg" fill="none" viewBox="0 0 24 24" stroke-width="2" stroke="currentColor" aria-hidden="true">
  <path fill="#fff" d="M0 0h24v24H0z"/>
  <path fill="#000" fill-rule="evenodd" d="M16 8a1 1 0 01-1-1V6H9v1a1 1 0 01-2 0V6H5v3h14V6h-2v1a1 1 0 01-1 1zM7 4H5a2 2 0 00-2 2v14a2 2 0 002 2h14a2 2 0 002-2V6a2 2 0 00-2-2h-2V3a1 1 0 10-2 0v1H9V3a1 1 0 00-2 0v1zm-2 7v9h14v-9H5zm4 2v2H7v-2h2zm0 5v-2H7v2h2zm2-5h2v2h-2v-2zm2 3h-2v2h2v-2zm4-3v2h-2v-2h2zm0 5v-2h-2v2h2z" clip-rule="evenodd"/>
</svg>
