<svg xmlns="http://www.w3.org/2000/svg" fill="none" viewBox="0 0 24 24" stroke-width="2" stroke="currentColor" aria-hidden="true">
  <g clip-path="url(#clip0_344_331)">
    <path fill="#fff" d="M0 0h24v24H0z"/>
    <path d="M0 0h24M0 0v24M0 0l24 24m0-24v24m0-24L0 24m24 0H0"/>
    <circle cx="12" cy="12" r="10" stroke-width=".13"/>
    <rect width="20" height="16" x="2" y="4" stroke-width=".13" rx="1"/>
    <rect width="16" height="20" x="4" y="2" stroke-width=".13" rx="1"/>
    <rect width="18" height="18" x="3" y="3" stroke-width=".13" rx="1"/>
    <circle cx="12" cy="12" r="4" stroke-width=".13"/>
    <path fill="#000" fill-rule="evenodd" d="M16 8a1 1 0 01-1-1V6H9v1a1 1 0 01-2 0V6H5v3h14V6h-2v1a1 1 0 01-1 1zM7 4H5a2 2 0 00-2 2v14a2 2 0 002 2h14a2 2 0 002-2V6a2 2 0 00-2-2h-2V3a1 1 0 10-2 0v1H9V3a1 1 0 00-2 0v1zm-2 7v9h14v-9H5zm4 2v2H7v-2h2zm0 5v-2H7v2h2zm2-5h2v2h-2v-2zm2 3h-2v2h2v-2zm4-3v2h-2v-2h2zm0 5v-2h-2v2h2z" clip-rule="evenodd"/>
  </g>
  <defs>
    <clipPath id="clip0_344_331">
      <path fill="#fff" d="M0 0h24v24H0z"/>
    </clipPath>
  </defs>
</svg>
