<svg xmlns="http://www.w3.org/2000/svg" fill="none" viewBox="0 0 24 24" stroke-width="2" stroke="currentColor" aria-hidden="true">
  <g clip-path="url(#clip0_344_283)">
    <path fill="#fff" d="M0 0h24v24H0z"/>
    <path d="M0 0h24M0 0v24M0 0l24 24m0-24v24m0-24L0 24m24 0H0"/>
    <circle cx="12" cy="12" r="10" stroke-width=".13"/>
    <rect width="20" height="16" x="2" y="4" stroke-width=".13" rx="1"/>
    <rect width="16" height="20" x="4" y="2" stroke-width=".13" rx="1"/>
    <rect width="18" height="18" x="3" y="3" stroke-width=".13" rx="1"/>
    <circle cx="12" cy="12" r="4" stroke-width=".13"/>
    <path fill="#000" fill-rule="evenodd" d="M15 7a1 1 0 102 0V6h2v3H5V6h2v1a1 1 0 002 0V6h6v1zM5 4h2V3a1 1 0 112 0v1h6V3a1 1 0 112 0v1h2a2 2 0 012 2v14a2 2 0 01-2 2H5a2 2 0 01-2-2V6a2 2 0 012-2zm0 16v-9h14v9H5zm13-7h-5v5h5v-5z" clip-rule="evenodd"/>
  </g>
  <defs>
    <clipPath id="clip0_344_283">
      <path fill="#fff" d="M0 0h24v24H0z"/>
    </clipPath>
  </defs>
</svg>
