<svg xmlns="http://www.w3.org/2000/svg" fill="none" viewBox="0 0 24 24" stroke-width="2" stroke="currentColor" aria-hidden="true">
  <g clip-path="url(#clip0_346_272)">
    <path fill="#fff" d="M0 0h24v24H0z"/>
    <path d="M0 0h24M0 0v24M0 0l24 24m0-24v24m0-24L0 24m24 0H0"/>
    <circle cx="12" cy="12" r="10" stroke-width=".13"/>
    <rect width="20" height="16" x="2" y="4" stroke-width=".13" rx="1"/>
    <rect width="16" height="20" x="4" y="2" stroke-width=".13" rx="1"/>
    <rect width="18" height="18" x="3" y="3" stroke-width=".13" rx="1"/>
    <circle cx="12" cy="12" r="4" stroke-width=".13"/>
    <path fill="#000" fill-rule="evenodd" d="M2.707 1.293a1 1 0 011.414 0l18.586 18.586a1 1 0 01-1.414 1.414L20 20H4a2 2 0 01-2-2V8a2 2 0 012-2h2L2.707 2.707a1 1 0 010-1.414zm12.577 13.991L18 18H4V8h4l1.716 1.716a4 4 0 105.568 5.568zM10 13a2 2 0 011.177-1.823l2.646 2.646A2 2 0 0110 13zm12 1.793a.5.5 0 01-.854.354l-1-1a.5.5 0 01-.146-.354V8.5a.5.5 0 00-.5-.5H15.95a.5.5 0 01-.428-.243l-.437-.728-1.072-1.786A.5.5 0 0013.585 5h-2.378a.5.5 0 01-.353-.146L9.706 3.706c-.24-.24-.17-.645.166-.689.086-.011.173-.017.26-.017h3.736a2 2 0 011.715.971l1.071 1.786a.5.5 0 00.43.243H20a2 2 0 012 2v6.793z" clip-rule="evenodd"/>
  </g>
  <defs>
    <clipPath id="clip0_346_272">
      <path fill="#fff" d="M0 0h24v24H0z"/>
    </clipPath>
  </defs>
</svg>
