<svg xmlns="http://www.w3.org/2000/svg" fill="none" viewBox="0 0 24 24" stroke-width="2" stroke="currentColor" aria-hidden="true">
  <path fill="#fff" d="M0 0h24v24H0z"/>
  <path fill="#000" fill-rule="evenodd" d="M8.332 8l.583-.971L10.132 5h3.736l1.217 2.029.583.971H20v10H4V8h4.332zM7.2 6l1.217-2.029A2 2 0 0110.132 3h3.736a2 2 0 011.715.971L16.8 6H20a2 2 0 012 2v10a2 2 0 01-2 2H4a2 2 0 01-2-2V8a2 2 0 012-2h3.2zm6.8 7a2 2 0 11-4 0 2 2 0 014 0zm2 0a4 4 0 11-8 0 4 4 0 018 0z" clip-rule="evenodd"/>
</svg>
