<svg xmlns="http://www.w3.org/2000/svg" fill="none" viewBox="0 0 24 24" stroke-width="2" stroke="currentColor" aria-hidden="true">
  <g clip-path="url(#clip0_342_467)">
    <path fill="#fff" d="M0 0h24v24H0z"/>
    <path d="M0 0h24M0 0v24M0 0l24 24m0-24v24m0-24L0 24m24 0H0"/>
    <circle cx="12" cy="12" r="10" stroke-width=".13"/>
    <rect width="20" height="16" x="2" y="4" stroke-width=".13" rx="1"/>
    <rect width="16" height="20" x="4" y="2" stroke-width=".13" rx="1"/>
    <rect width="18" height="18" x="3" y="3" stroke-width=".13" rx="1"/>
    <circle cx="12" cy="12" r="4" stroke-width=".13"/>
    <path fill="#000" fill-rule="evenodd" d="M8.332 8l.583-.971L10.132 5h3.736l1.217 2.029.583.971H20v10H4V8h4.332zM7.2 6l1.217-2.029A2 2 0 0110.132 3h3.736a2 2 0 011.715.971L16.8 6H20a2 2 0 012 2v10a2 2 0 01-2 2H4a2 2 0 01-2-2V8a2 2 0 012-2h3.2zm6.8 7a2 2 0 11-4 0 2 2 0 014 0zm2 0a4 4 0 11-8 0 4 4 0 018 0z" clip-rule="evenodd"/>
  </g>
  <defs>
    <clipPath id="clip0_342_467">
      <path fill="#fff" d="M0 0h24v24H0z"/>
    </clipPath>
  </defs>
</svg>
