<svg xmlns="http://www.w3.org/2000/svg" fill="none" viewBox="0 0 24 24" stroke-width="2" stroke="currentColor" aria-hidden="true">
  <g clip-path="url(#clip0_350_574)">
    <path fill="#fff" d="M0 0h24v24H0z"/>
    <path d="M0 0h24M0 0v24M0 0l24 24m0-24v24m0-24L0 24m24 0H0"/>
    <circle cx="12" cy="12" r="10" stroke-width=".13"/>
    <rect width="20" height="16" x="2" y="4" stroke-width=".13" rx="1"/>
    <rect width="16" height="20" x="4" y="2" stroke-width=".13" rx="1"/>
    <rect width="18" height="18" x="3" y="3" stroke-width=".13" rx="1"/>
    <circle cx="12" cy="12" r="4" stroke-width=".13"/>
    <path stroke-linecap="round" d="M8 10.5l3.954 4.106a.5.5 0 00.738-.02L21 5"/>
    <path fill="#000" fill-rule="evenodd" d="M20 12a8 8 0 11-4.602-7.245c.69.324 1.602-.13 1.602-.893a.862.862 0 00-.46-.775A9.957 9.957 0 0012 2C6.477 2 2 6.477 2 12s4.477 10 10 10 10-4.477 10-10c0-.411-.025-.816-.073-1.214-.056-.46-.46-.786-.923-.786-.636 0-1.1.603-1.04 1.236.024.252.036.506.036.764z" clip-rule="evenodd"/>
  </g>
  <defs>
    <clipPath id="clip0_350_574">
      <path fill="#fff" d="M0 0h24v24H0z"/>
    </clipPath>
  </defs>
</svg>
