<svg xmlns="http://www.w3.org/2000/svg" fill="none" viewBox="0 0 24 24" stroke-width="2" stroke="currentColor" aria-hidden="true">
  <path fill="#fff" d="M0 0h24v24H0z"/>
  <path fill="#000" d="M12 12l.707-.707a1 1 0 00-1.414 0L12 12zm-6.707 5.293a1 1 0 101.414 1.414l-1.414-1.414zm12 1.414a1 1 0 001.414-1.414l-1.414 1.414zm-6-7.414l-6 6 1.414 1.414 6-6-1.414-1.414zm0 1.414l6 6 1.414-1.414-6-6-1.414 1.414zM12 6l.707-.707a1 1 0 00-1.414 0L12 6zm-6.707 5.293a1 1 0 101.414 1.414l-1.414-1.414zm12 1.414a1 1 0 001.414-1.414l-1.414 1.414zm-6-7.414l-6 6 1.414 1.414 6-6-1.414-1.414zm0 1.414l6 6 1.414-1.414-6-6-1.414 1.414z"/>
</svg>
