<svg xmlns="http://www.w3.org/2000/svg" fill="none" viewBox="0 0 24 24" stroke-width="2" stroke="currentColor" aria-hidden="true">
  <path fill="#fff" d="M0 0h24v24H0z"/>
  <path fill="#000" d="M3 12l-.707-.707a1 1 0 000 1.414L3 12zm5.293 6.707a1 1 0 001.414-1.414l-1.414 1.414zm1.414-12a1 1 0 00-1.414-1.414l1.414 1.414zm-7.414 6l6 6 1.414-1.414-6-6-1.414 1.414zm1.414 0l6-6-1.414-1.414-6 6 1.414 1.414zM21 12l.707.707a1 1 0 000-1.414L21 12zm-5.293-6.707a1 1 0 10-1.414 1.414l1.414-1.414zm-1.414 12a1 1 0 001.414 1.414l-1.414-1.414zm7.414-6l-6-6-1.414 1.414 6 6 1.414-1.414zm-1.414 0l-6 6 1.414 1.414 6-6-1.414-1.414z"/>
</svg>
