<svg xmlns="http://www.w3.org/2000/svg" fill="none" viewBox="0 0 24 24" stroke-width="2" stroke="currentColor" aria-hidden="true">
  <g clip-path="url(#clip0_358_2397)">
    <path fill="#fff" d="M0 0h24v24H0z"/>
    <path d="M0 0h24M0 0v24M0 0l24 24m0-24v24m0-24L0 24m24 0H0"/>
    <circle cx="12" cy="12" r="10" stroke-width=".13"/>
    <rect width="20" height="16" x="2" y="4" stroke-width=".13" rx="1"/>
    <rect width="16" height="20" x="4" y="2" stroke-width=".13" rx="1"/>
    <rect width="18" height="18" x="3" y="3" stroke-width=".13" rx="1"/>
    <circle cx="12" cy="12" r="4" stroke-width=".13"/>
    <path fill="#000" fill-rule="evenodd" d="M7 3a1 1 0 00-2 0v3a1 1 0 002 0V3zm-3 8v7a2 2 0 002 2h8a2 2 0 002-2v-7H4zm0-2H2v9a4 4 0 004 4h8a4 4 0 004-4v-1a4 4 0 000-8H4zm14 6v-4a2 2 0 010 4zM10 2a1 1 0 011 1v3a1 1 0 11-2 0V3a1 1 0 011-1zm5 1a1 1 0 10-2 0v3a1 1 0 102 0V3z" clip-rule="evenodd"/>
  </g>
  <defs>
    <clipPath id="clip0_358_2397">
      <path fill="#fff" d="M0 0h24v24H0z"/>
    </clipPath>
  </defs>
</svg>
