<svg xmlns="http://www.w3.org/2000/svg" fill="none" viewBox="0 0 24 24" stroke-width="2" stroke="currentColor" aria-hidden="true">
  <g clip-path="url(#clip0_365_4071)">
    <path fill="#fff" d="M0 0h24v24H0z"/>
    <path d="M0 0h24M0 0v24M0 0l24 24m0-24v24m0-24L0 24m24 0H0"/>
    <circle cx="12" cy="12" r="10" stroke-width=".13"/>
    <rect width="20" height="16" x="2" y="4" stroke-width=".13" rx="1"/>
    <rect width="16" height="20" x="4" y="2" stroke-width=".13" rx="1"/>
    <rect width="18" height="18" x="3" y="3" stroke-width=".13" rx="1"/>
    <circle cx="12" cy="12" r="4" stroke-width=".13"/>
    <path d="M4 3h7v18H4a1 1 0 01-1-1V4a1 1 0 011-1z"/>
    <mask id="a" fill="#fff">
      <path fill-rule="evenodd" d="M20 22a2 2 0 002-2v-5h-9v7h7zm-7-8h9V4a2 2 0 00-2-2h-7v12z" clip-rule="evenodd"/>
    </mask>
    <path fill="#000" d="M22 15h2v-2h-2v2zm-9 0v-2h-2v2h2zm0 7h-2v2h2v-2zm0-8h-2v2h2v-2zm9 0v2h2v-2h-2zm0-10h-2 2zm-9-2V0h-2v2h2zm7 18v4a4 4 0 004-4h-4zm0-5v5h4v-5h-4zm2-2h-9v4h9v-4zm-7 9v-7h-4v7h4zm5-2h-7v4h7v-4zm-7-4h9v-4h-9v4zm7-12v10h4V4h-4zm0 0h4a4 4 0 00-4-4v4zm-7 0h7V0h-7v4zm2 10V2h-4v12h4z" mask="url(#a)"/>
  </g>
  <defs>
    <clipPath id="clip0_365_4071">
      <path fill="#fff" d="M0 0h24v24H0z"/>
    </clipPath>
  </defs>
</svg>
