<svg xmlns="http://www.w3.org/2000/svg" fill="none" viewBox="0 0 24 24" stroke-width="2" stroke="currentColor" aria-hidden="true">
  <path fill="#fff" d="M0 0h24v24H0z"/>
  <rect width="11" height="11" x="9" y="9" stroke-width="2" rx="1"/>
  <path fill="#000" fill-rule="evenodd" d="M5 5h9v2h2V5a2 2 0 00-2-2H5a2 2 0 00-2 2v9a2 2 0 002 2h2v-2H5V5z" clip-rule="evenodd"/>
  <rect width="11" height="11" x="9" y="9" stroke-width="2" rx="1"/>
  <path fill="#000" fill-rule="evenodd" d="M5 5h9v2h2V5a2 2 0 00-2-2H5a2 2 0 00-2 2v9a2 2 0 002 2h2v-2H5V5z" clip-rule="evenodd"/>
</svg>
