<svg xmlns="http://www.w3.org/2000/svg" fill="none" viewBox="0 0 24 24" stroke-width="2" stroke="currentColor" aria-hidden="true">
  <g clip-path="url(#clip0_356_1330)">
    <path fill="#fff" d="M0 0h24v24H0z"/>
    <path d="M0 0h24M0 0v24M0 0l24 24m0-24v24m0-24L0 24m24 0H0"/>
    <circle cx="12" cy="12" r="10" stroke-width=".13"/>
    <rect width="20" height="16" x="2" y="4" stroke-width=".13" rx="1"/>
    <rect width="16" height="20" x="4" y="2" stroke-width=".13" rx="1"/>
    <rect width="18" height="18" x="3" y="3" stroke-width=".13" rx="1"/>
    <circle cx="12" cy="12" r="4" stroke-width=".13"/>
    <path fill="#000" d="M20.546 6.869l-.704-.71-.003.002.707.708zm.012-.012l.705.71.002-.003-.707-.707zM8.532 12.31l.97.245-.97-.245zm0 0l-.707-.707.707.707zm0 0l-.97-.245.97.245zm-.011.045l-.97-.246.97.246zm-.945 4.32l.246.968-.246-.969zm-.122-.122l-.97-.247.97.247zm4.32-.945l-.247-.97.246.97zm9.477-8.03l.012-.012-1.41-1.419-.011.012 1.409 1.42zm-8.74 8.74l8.742-8.742L19.84 6.16l-8.742 8.743 1.414 1.414zm-.984-1.68l-4.198 1.067.493 1.938 4.197-1.066-.492-1.939zm-3.104 2.16l1.067-4.197-1.939-.492-1.066 4.197 1.938.493zm-.598-5.195l-.015.015 1.414 1.414.015-.015-1.414-1.414zm1.677.952l-1.94-.49 1.94.49zm7.063-9.692l-8.74 8.74 1.414 1.414 8.74-8.74-1.414-1.414zm4.7 0a3.324 3.324 0 00-4.7 0l1.414 1.414a1.324 1.324 0 011.872 0l1.414-1.414zm0 4.7a3.324 3.324 0 000-4.7l-1.414 1.414a1.324 1.324 0 010 1.873l1.414 1.414zm-4.7-3.286a1 1 0 001.414 0l-1.414-1.414a1 1 0 011.414 0l-1.414 1.414zm1.414 0a1 1 0 01-1.414 0l1.414-1.414a1 1 0 00-1.414 0l1.414 1.414zm-10.154 8.74a1 1 0 001.414 0l-1.414-1.414a1 1 0 011.414 0l-1.414 1.414zm1.677-.462a1 1 0 01-1.677.462l1.414-1.414a1 1 0 00-1.677.462l1.94.49zm-.263.462a1 1 0 00.263-.462l-1.94-.49a1 1 0 01.263-.462l1.414 1.414zm-.015-1.381a.987.987 0 010 1.396L7.81 11.618a1.013 1.013 0 000 1.432l1.414-1.414zm.266.965a1.013 1.013 0 00-.266-.965L7.81 13.05a.987.987 0 01-.259-.941l1.939.492zm-2.16 3.104a.9.9 0 011.093 1.094l-1.938-.493a1.1 1.1 0 001.337 1.337l-.493-1.938zm5.162-.801a1.013 1.013 0 00-.965-.265l.492 1.938a.987.987 0 01-.94-.259l1.413-1.414zm-1.396 0a.987.987 0 011.396 0l-1.414 1.414a1.013 1.013 0 001.433 0l-1.414-1.414z"/>
    <path fill="#000" fill-rule="evenodd" d="M4 20h14v-6.004l2-2V20a2 2 0 01-2 2H4a2 2 0 01-2-2V6a2 2 0 012-2h8.973l-2 2H4v14z" clip-rule="evenodd"/>
  </g>
  <defs>
    <clipPath id="clip0_356_1330">
      <path fill="#fff" d="M0 0h24v24H0z"/>
    </clipPath>
  </defs>
</svg>
