<svg xmlns="http://www.w3.org/2000/svg" fill="none" viewBox="0 0 24 24" stroke-width="2" stroke="currentColor" aria-hidden="true">
  <path fill="#fff" d="M0 0h24v24H0z"/>
  <path fill="#000" d="M4.558 15.462l.97.242-.97-.242zm-1.246 5.59l.243.97-.243-.97zm-.12-.122l-.971-.242.97.242zm5.589-1.246l-.243-.97.243.97zM20.828 9.071a4 4 0 000-5.657l-1.414 1.414a2 2 0 010 2.829l1.414 1.414zM9.534 20.365L20.828 9.071l-1.414-1.414L8.12 18.95l1.414 1.414zm-.996-1.65L3.07 20.08l.485 1.94 5.468-1.367-.485-1.94zm-4.377 2.458l1.367-5.469-1.94-.485-1.367 5.469 1.94.485zm11.01-17.759L3.878 14.708l1.415 1.414L16.586 4.828l-1.414-1.414zm5.657 0a4 4 0 00-5.656 0l1.414 1.414a2 2 0 012.828 0l1.414-1.414zm-15.3 12.29a.9.9 0 01-.236.418l-1.415-1.414a1.1 1.1 0 00-.289.511l1.94.485zM3.07 20.081a.9.9 0 011.091 1.092l-1.94-.485a1.1 1.1 0 001.334 1.334l-.485-1.94zm5.05-1.13a.9.9 0 01.418-.237l.485 1.94a1.1 1.1 0 00.511-.289L8.12 18.951z"/>
</svg>
