<svg xmlns="http://www.w3.org/2000/svg" fill="none" viewBox="0 0 24 24" stroke-width="2" stroke="currentColor" aria-hidden="true">
  <g clip-path="url(#clip0_360_3081)">
    <path fill="#fff" d="M0 0h24v24H0z"/>
    <path d="M0 0h24M0 0v24M0 0l24 24m0-24v24m0-24L0 24m24 0H0"/>
    <circle cx="12" cy="12" r="10" stroke-width=".13"/>
    <rect width="20" height="16" x="2" y="4" stroke-width=".13" rx="1"/>
    <rect width="16" height="20" x="4" y="2" stroke-width=".13" rx="1"/>
    <rect width="18" height="18" x="3" y="3" stroke-width=".13" rx="1"/>
    <circle cx="12" cy="12" r="4" stroke-width=".13"/>
    <path fill="#000" fill-rule="evenodd" d="M17.498 16.75a2.75 2.75 0 11-5.498 0 2.75 2.75 0 015.498 0zm-.173 3.99a4.75 4.75 0 111.414-1.414l1.968 1.967a1 1 0 01-1.414 1.414l-1.968-1.968z" clip-rule="evenodd"/>
    <path fill="#000" fill-rule="evenodd" d="M12.672 4L18 9.328v2.475a6.03 6.03 0 012 1.88V9.327a2 2 0 00-.586-1.414l-5.328-5.328A2 2 0 0012.672 2H6a2 2 0 00-2 2v16a2 2 0 002 2h5.682a6.03 6.03 0 01-1.88-2H6V4h6.672zm7.294 16.368a2.002 2.002 0 01-1.598 1.598 6.034 6.034 0 001.598-1.598z" clip-rule="evenodd"/>
    <path stroke-linecap="round" d="M13 3v5.5a.5.5 0 00.5.5H19"/>
  </g>
  <defs>
    <clipPath id="clip0_360_3081">
      <path fill="#fff" d="M0 0h24v24H0z"/>
    </clipPath>
  </defs>
</svg>
