<svg xmlns="http://www.w3.org/2000/svg" fill="none" viewBox="0 0 24 24" stroke-width="2" stroke="currentColor" aria-hidden="true">
  <g clip-path="url(#clip0_361_3270)">
    <path fill="#fff" d="M0 0h24v24H0z"/>
    <path d="M0 0h24M0 0v24M0 0l24 24m0-24v24m0-24L0 24m24 0H0"/>
    <circle cx="12" cy="12" r="10" stroke-width=".13"/>
    <rect width="20" height="16" x="2" y="4" stroke-width=".13" rx="1"/>
    <rect width="16" height="20" x="4" y="2" stroke-width=".13" rx="1"/>
    <rect width="18" height="18" x="3" y="3" stroke-width=".13" rx="1"/>
    <circle cx="12" cy="12" r="4" stroke-width=".13"/>
    <path fill="#000" fill-rule="evenodd" d="M13.9 2a2 2 0 011.403.575l4.1 4.037A2 2 0 0120 8.038V16a2 2 0 01-2 2H9a2 2 0 01-2-2V4a2 2 0 012-2h4.9zm2.64 4.6l-1.227-1.209V6.6h1.227zM13.313 4H9v12h9V8.6h-3.188a1.5 1.5 0 01-1.5-1.5V4z" clip-rule="evenodd"/>
    <path fill="#000" fill-rule="evenodd" d="M5.708 6H5a2 2 0 00-2 2v12a2 2 0 002 2h9a2 2 0 002-2v-.667h-2V20H5V8h.708V6z" clip-rule="evenodd"/>
  </g>
  <defs>
    <clipPath id="clip0_361_3270">
      <path fill="#fff" d="M0 0h24v24H0z"/>
    </clipPath>
  </defs>
</svg>
