<svg xmlns="http://www.w3.org/2000/svg" fill="none" viewBox="0 0 24 24" stroke-width="2" stroke="currentColor" aria-hidden="true">
  <path fill="#fff" d="M0 0h24v24H0z"/>
  <path fill="#000" fill-rule="evenodd" d="M13.9 2a2 2 0 011.403.575l4.1 4.037A2 2 0 0120 8.038V16a2 2 0 01-2 2H9a2 2 0 01-2-2V4a2 2 0 012-2h4.9zm2.64 4.6l-1.227-1.209V6.6h1.227zM13.313 4H9v12h9V8.6h-3.188a1.5 1.5 0 01-1.5-1.5V4z" clip-rule="evenodd"/>
  <path fill="#000" fill-rule="evenodd" d="M5.708 6H5a2 2 0 00-2 2v12a2 2 0 002 2h9a2 2 0 002-2v-.667h-2V20H5V8h.708V6z" clip-rule="evenodd"/>
</svg>
