<svg xmlns="http://www.w3.org/2000/svg" fill="none" viewBox="0 0 24 24" stroke-width="2" stroke="currentColor" aria-hidden="true">
  <g clip-path="url(#clip0_358_2770)">
    <path fill="#fff" d="M0 0h24v24H0z"/>
    <path d="M0 0h24M0 0v24M0 0l24 24m0-24v24m0-24L0 24m24 0H0"/>
    <circle cx="12" cy="12" r="10" stroke-width=".13"/>
    <rect width="20" height="16" x="2" y="4" stroke-width=".13" rx="1"/>
    <rect width="16" height="20" x="4" y="2" stroke-width=".13" rx="1"/>
    <rect width="18" height="18" x="3" y="3" stroke-width=".13" rx="1"/>
    <circle cx="12" cy="12" r="4" stroke-width=".13"/>
    <path fill="#000" fill-rule="evenodd" d="M18 10h-4.5A1.5 1.5 0 0112 8.5V4H6v16h12V10zm-4.303-7.717a.997.997 0 00-.833-.274A2 2 0 0012.672 2H6a2 2 0 00-2 2v16a2 2 0 002 2h12a2 2 0 002-2V9.328c0-.064-.003-.128-.01-.192a1.007 1.007 0 00-.273-.833 1.998 1.998 0 00-.303-.389l-5.328-5.328a2.003 2.003 0 00-.39-.303zM14 5.328V8h2.672L14 5.328z" clip-rule="evenodd"/>
  </g>
  <defs>
    <clipPath id="clip0_358_2770">
      <path fill="#fff" d="M0 0h24v24H0z"/>
    </clipPath>
  </defs>
</svg>
