<svg xmlns="http://www.w3.org/2000/svg" fill="none" viewBox="0 0 24 24" stroke-width="2" stroke="currentColor" aria-hidden="true">
  <path fill="#fff" d="M0 0h24v24H0z"/>
  <path stroke-linecap="round" d="M12 13l.02 9.121"/>
  <path fill="#000" d="M12 12l.707-.707a1 1 0 00-1.414 0L12 12zm-4.707 3.293a1 1 0 101.414 1.414l-1.414-1.414zm8 1.414a1 1 0 001.414-1.414l-1.414 1.414zm-4-5.414l-4 4 1.414 1.414 4-4-1.414-1.414zm0 1.414l4 4 1.414-1.414-4-4-1.414 1.414z"/>
  <path fill="#000" fill-rule="evenodd" d="M13.5 10H18v10h-3v2h3a2 2 0 002-2V9.328c0-.064-.003-.128-.01-.192a1.007 1.007 0 00-.273-.833 1.998 1.998 0 00-.303-.389l-5.328-5.328a2.003 2.003 0 00-.39-.303.997.997 0 00-.832-.274A2 2 0 0012.672 2H6a2 2 0 00-2 2v16a2 2 0 002 2h3v-2H6V4h6v4.5a1.5 1.5 0 001.5 1.5zm.5-2V5.328L16.672 8H14z" clip-rule="evenodd"/>
</svg>
