<svg xmlns="http://www.w3.org/2000/svg" fill="none" viewBox="0 0 24 24" stroke-width="2" stroke="currentColor" aria-hidden="true">
  <g clip-path="url(#clip0_363_3459)">
    <path fill="#fff" d="M0 0h24v24H0z"/>
    <path d="M0 0h24M0 0v24M0 0l24 24m0-24v24m0-24L0 24m24 0H0"/>
    <circle cx="12" cy="12" r="10" stroke-width=".13"/>
    <rect width="20" height="16" x="2" y="4" stroke-width=".13" rx="1"/>
    <rect width="16" height="20" x="4" y="2" stroke-width=".13" rx="1"/>
    <rect width="18" height="18" x="3" y="3" stroke-width=".13" rx="1"/>
    <circle cx="12" cy="12" r="4" stroke-width=".13"/>
    <path fill="#000" d="M20.249 4.834l.743.67-.743-.67zM14 11.778l-.743-.67-.257.286v.384h1zm-.724 7.86l-.447.895.447-.895zm-3-1.5l-.447.895.447-.895zM10 11.778h1v-.384l-.257-.285-.743.669zM3.751 4.834l-.743.67.743-.67zM19.877 3H4.123v2h15.754V3zm1.115 2.503C21.861 4.538 21.176 3 19.877 3v2a.5.5 0 01-.371-.834l1.486 1.337zm-6.249 6.944l6.25-6.944-1.487-1.337-6.25 6.943 1.487 1.338zM13 11.777v7.414h2v-7.413h-2zm0 7.414a.5.5 0 01.724-.447l-.895 1.789A1.5 1.5 0 0015 19.19h-2zm.724-.447l-3-1.5-.895 1.789 3 1.5.895-1.79zm-3-1.5a.5.5 0 01.276.447H9a1.5 1.5 0 00.83 1.342l.894-1.79zm.276.447v-5.913H9v5.913h2zM3.008 5.503l6.249 6.944 1.486-1.338-6.249-6.943-1.486 1.337zM4.123 3C2.824 3 2.139 4.538 3.008 5.503l1.486-1.337A.5.5 0 014.123 5V3z"/>
  </g>
  <defs>
    <clipPath id="clip0_363_3459">
      <path fill="#fff" d="M0 0h24v24H0z"/>
    </clipPath>
  </defs>
</svg>
