<svg xmlns="http://www.w3.org/2000/svg" fill="none" viewBox="0 0 24 24" stroke-width="2" stroke="currentColor" aria-hidden="true">
  <path fill="#fff" d="M0 0h24v24H0z"/>
  <path fill="#000" fill-rule="evenodd" d="M4.006 4a.997.997 0 01.204-.72c.418-.539 1.093-.833 1.697-1.003.642-.18 1.39-.27 2.15-.277 1.488-.013 3.24.292 4.484 1.093.697.448 1.94.834 3.175.898 1.296.067 2.156-.236 2.494-.67A1 1 0 0120 4v10a1 1 0 01-.49.86c-1.007.985-2.588 1.196-3.897 1.128-1.5-.077-3.1-.535-4.154-1.213-.789-.508-2.1-.786-3.384-.775-.627.006-1.193.08-1.628.203a2.6 2.6 0 00-.447.165V21a1 1 0 11-2 0V4h.006zM18 13.524V5.728c-.777.245-1.628.3-2.387.26-1.5-.077-3.1-.535-4.154-1.213-.789-.508-2.1-.786-3.384-.775-.627.006-1.193.08-1.628.203-.186.052-.335.11-.447.165V12.252A8.537 8.537 0 018.057 12c1.488-.013 3.24.292 4.484 1.093.697.448 1.94.834 3.175.898 1.081.056 1.86-.146 2.284-.467z" clip-rule="evenodd"/>
</svg>
