<svg xmlns="http://www.w3.org/2000/svg" fill="none" viewBox="0 0 24 24" stroke-width="2" stroke="currentColor" aria-hidden="true">
  <path fill="#fff" d="M0 0h24v24H0z"/>
  <path fill="#000" fill-rule="evenodd" d="M16 7c.52 0 .692-.164.747-.236.073-.094.138-.283.083-.58C16.71 5.547 16.165 5 15.5 5c-.567 0-1.182.364-1.707 1.047-.238.31-.422.64-.553.953H16zm-5.39 0a4.294 4.294 0 00-.553-.953C9.532 5.364 8.917 5 8.35 5c-.665 0-1.21.547-1.33 1.184-.055.297.01.486.083.58.055.072.226.236.747.236H10.61zM5.064 7a2.994 2.994 0 01-.01-1.184C5.31 4.453 6.515 3 8.35 3c1.433 0 2.568.886 3.293 1.828.098.128.193.262.282.399.09-.137.184-.27.282-.4C12.932 3.888 14.067 3 15.5 3c1.835 0 3.04 1.453 3.295 2.816.071.377.078.785-.01 1.184H21a1 1 0 011 1v4a1 1 0 01-1 1h-1v8a1 1 0 01-1 1H5a1 1 0 01-1-1v-8H3a1 1 0 01-1-1V8a1 1 0 011-1h2.064zM7.85 9H4v2h7V9H7.85zM13 9v2h7V9H13zm-2 4H6v7h5v-7zm2 7v-7h5v7h-5z" clip-rule="evenodd"/>
</svg>
