<svg xmlns="http://www.w3.org/2000/svg" fill="none" viewBox="0 0 24 24" stroke-width="2" stroke="currentColor" aria-hidden="true">
  <path fill="#fff" d="M0 0h24v24H0z"/>
  <path fill="#000" fill-rule="evenodd" d="M2 13.162a1 1 0 01.051-.316l2.493-7.478A2 2 0 016.442 4h11.116a2 2 0 011.898 1.368l2.493 7.478a1 1 0 01.051.316V19a2 2 0 01-2 2H4a2 2 0 01-2-2v-5.838zM4 14v5h16v-5h-3.834l-1.363 2.272a1.5 1.5 0 01-1.286.728H10.45a1.5 1.5 0 01-1.2-.6L7.45 14H4zm15.558-2l-2-6H6.442l-2 6H7.7a1.5 1.5 0 011.2.6l1.8 2.4h2.534l1.363-2.272A1.5 1.5 0 0115.883 12h3.675z" clip-rule="evenodd"/>
</svg>
