<svg xmlns="http://www.w3.org/2000/svg" fill="none" viewBox="0 0 24 24" stroke-width="2" stroke="currentColor" aria-hidden="true">
  <g clip-path="url(#clip0_365_4382)">
    <path fill="#fff" d="M0 0h24v24H0z"/>
    <path d="M0 0h24M0 0v24M0 0l24 24m0-24v24m0-24L0 24m24 0H0"/>
    <circle cx="12" cy="12" r="10" stroke-width=".13"/>
    <rect width="20" height="16" x="2" y="4" stroke-width=".13" rx="1"/>
    <rect width="16" height="20" x="4" y="2" stroke-width=".13" rx="1"/>
    <rect width="18" height="18" x="3" y="3" stroke-width=".13" rx="1"/>
    <circle cx="12" cy="12" r="4" stroke-width=".13"/>
    <path fill="#000" fill-rule="evenodd" d="M2 13.162a1 1 0 01.051-.316l2.493-7.478A2 2 0 016.442 4h11.116a2 2 0 011.898 1.368l2.493 7.478a1 1 0 01.051.316V19a2 2 0 01-2 2H4a2 2 0 01-2-2v-5.838zM4 14v5h16v-5h-3.834l-1.363 2.272a1.5 1.5 0 01-1.286.728H10.45a1.5 1.5 0 01-1.2-.6L7.45 14H4zm15.558-2l-2-6H6.442l-2 6H7.7a1.5 1.5 0 011.2.6l1.8 2.4h2.534l1.363-2.272A1.5 1.5 0 0115.883 12h3.675z" clip-rule="evenodd"/>
  </g>
  <defs>
    <clipPath id="clip0_365_4382">
      <path fill="#fff" d="M0 0h24v24H0z"/>
    </clipPath>
  </defs>
</svg>
