<svg xmlns="http://www.w3.org/2000/svg" fill="none" viewBox="0 0 24 24" stroke-width="2" stroke="currentColor" aria-hidden="true">
  <path fill="#fff" d="M0 0h24v24H0z"/>
  <path stroke-linecap="round" stroke-linejoin="round" d="M20.306 3.696a2.367 2.367 0 00-2.581-.515c-.288.12-.549.294-.769.515l-.456.458-.456-.458a2.365 2.365 0 00-3.35 0 2.38 2.38 0 000 3.36l.456.459 2.642 2.65a1 1 0 001.416 0l2.642-2.65.456-.458a2.375 2.375 0 00.514-2.59 2.375 2.375 0 00-.514-.77z"/>
  <path d="M3.71 11h5.58a1 1 0 00.872-1.49l-2.79-4.96a1 1 0 00-1.744 0l-2.79 4.96A1 1 0 003.71 11z"/>
  <circle cx="6.5" cy="17.5" r="3.5" stroke-width="2"/>
  <mask id="a" fill="#fff">
    <rect width="9" height="9" x="12" y="13" rx="1"/>
  </mask>
  <rect width="9" height="9" x="12" y="13" stroke-width="4" mask="url(#a)" rx="1"/>
</svg>
