<svg xmlns="http://www.w3.org/2000/svg" fill="none" viewBox="0 0 24 24" stroke-width="2" stroke="currentColor" aria-hidden="true">
  <path d="M18.717 4.163c.252.108.481.266.674.465.193.2.346.436.45.696a2.204 2.204 0 010 1.64 2.15 2.15 0 01-.45.696l-2.771 2.86a.79.79 0 01-1.134 0l-2.772-2.86a2.18 2.18 0 01-.609-1.516c0-.568.22-1.114.609-1.516.39-.402.918-.628 1.469-.628s1.08.226 1.47.628l.4.413.4-.413c.193-.199.422-.357.674-.465a2.022 2.022 0 011.59 0zM9.553 11.105H4.342a.79.79 0 01-.69-1.173l2.605-4.69a.79.79 0 011.38 0l2.606 4.69a.79.79 0 01-.69 1.173zM10.105 17.447a3.553 3.553 0 11-7.105 0 3.553 3.553 0 017.105 0zM13.684 13.895a.79.79 0 00-.79.79v5.525c0 .436.354.79.79.79h5.527a.79.79 0 00.789-.79v-5.526a.79.79 0 00-.79-.79h-5.526z"/>
</svg>
