<svg xmlns="http://www.w3.org/2000/svg" fill="none" viewBox="0 0 24 24" stroke-width="2" stroke="currentColor" aria-hidden="true">
  <path fill="#fff" d="M0 0h24v24H0z"/>
  <path fill="#000" fill-rule="evenodd" d="M1.907 8.407a1 1 0 102 0V4.75a1 1 0 011-1h3.657a1 1 0 100-2H4.907a3 3 0 00-3 3v3.657zm13.578-6.579a1 1 0 100 2h3.657a1 1 0 011 1v3.657a1 1 0 102 0V4.828a3 3 0 00-3-3h-3.657zm-7 20.157a1 1 0 100-2H4.828a1 1 0 01-1-1V15.33a1 1 0 10-2 0v3.656a3 3 0 003 3h3.657zm12.579-7.578a1 1 0 011 1v3.657a3 3 0 01-3 3h-3.657a1 1 0 110-2h3.657a1 1 0 001-1v-3.657a1 1 0 011-1z" clip-rule="evenodd"/>
</svg>
