<svg xmlns="http://www.w3.org/2000/svg" fill="none" viewBox="0 0 24 24" stroke-width="2" stroke="currentColor" aria-hidden="true">
  <path fill="#fff" d="M0 0h24v24H0z"/>
  <path fill="#000" fill-rule="evenodd" d="M9.604 21.655a1 1 0 111.594-1.2l.003-.003.008-.006a.99.99 0 001.602-.028l.008.006.01.006a.999.999 0 011.821.57c0 .279-.114.53-.298.712a3 3 0 01-4.748-.056z" clip-rule="evenodd"/>
  <mask id="a" fill="#fff">
    <path fill-rule="evenodd" d="M12.023 19.03H3.49a.504.504 0 01-.427-.77c1.645-2.673 2.666-4.916 2.667-10.244 0-.003.002-.006.005-.006a.005.005 0 00.005-.004C5.922 4.658 8.666 2 12.023 2c3.477 0 6.295 2.85 6.295 6.364 0 .213-.01.424-.03.631-.002.01.006.017.015.017.008 0 .015.007.015.016.002 5.163.964 6.64 2.524 9.034l.133.205a.494.494 0 01-.417.763h-8.535z" clip-rule="evenodd"/>
  </mask>
  <path fill="#000" d="M12.023 19.03v2-2zm8.819-.968l-1.676 1.092 1.676-1.092zm.133.205l1.676-1.09-1.676 1.09zm-2.688-9.272l1.99.194-1.99-.194zM5.74 8.005l-1.997-.109 1.997.11zm12.579 1.023h-2 2zM5.728 8.016h2-2zM3.489 19.03v2-2zm-.426-.77L1.36 17.212l1.703 1.048zm.427 2.77h8.534v-4H3.49v4zm.24-13.015c0 2.539-.244 4.23-.635 5.552-.388 1.313-.95 2.368-1.735 3.645l3.407 2.096c.859-1.396 1.63-2.8 2.164-4.608.531-1.8.799-3.895.799-6.684h-4zM12.023 0C7.58 0 3.983 3.513 3.742 7.896l3.994.22C7.863 5.802 9.753 4 12.023 4V0zm8.295 8.364C20.318 3.765 16.625 0 12.023 0v4c2.352 0 4.295 1.933 4.295 4.364h4zm-.04.825a8.51 8.51 0 00.04-.825h-4c0 .148-.007.294-.021.437l3.98.388zm2.24 7.781c-.794-1.217-1.28-1.982-1.624-3.016-.343-1.034-.575-2.459-.576-4.927l-4 .002c0 2.695.25 4.59.78 6.184.528 1.594 1.302 2.764 2.068 3.94l3.351-2.183zm.133.206l-.134-.206-3.351 2.184.132.203 3.354-2.18zM12.023 21.03h8.535v-4h-8.535v4zm7.275-1.673c-.661-1.017.087-2.327 1.26-2.327v4c1.961 0 3.184-2.177 2.093-3.854l-3.353 2.181zM16.297 8.801a2.015 2.015 0 002.006 2.211v-4a1.985 1.985 0 011.975 2.177l-3.981-.388zm-10.563 1.21a2.005 2.005 0 002.002-1.896l-3.994-.219A1.995 1.995 0 015.734 6.01v4zm12.569 1.001a1.984 1.984 0 01-1.985-1.983l4-.002c0-1.056-.847-2.015-2.015-2.015v4zM7.729 8.016c0 1.05-.843 1.995-1.995 1.995v-4a2.005 2.005 0 00-2.005 2.004h4zm-4.24 9.014c1.198 0 1.876 1.304 1.277 2.278l-3.407-2.096c-1.012 1.645.144 3.818 2.13 3.818v-4z" mask="url(#a)"/>
</svg>
