<svg xmlns="http://www.w3.org/2000/svg" fill="none" viewBox="0 0 24 24" stroke-width="2" stroke="currentColor" aria-hidden="true">
  <g clip-path="url(#clip0_342_573)">
    <path fill="#fff" d="M0 0h24v24H0z"/>
    <path d="M0 0h24M0 0v24M0 0l24 24m0-24v24m0-24L0 24m24 0H0"/>
    <circle cx="12" cy="12" r="10" stroke-width=".13"/>
    <rect width="20" height="16" x="2" y="4" stroke-width=".13" rx="1"/>
    <rect width="16" height="20" x="4" y="2" stroke-width=".13" rx="1"/>
    <rect width="18" height="18" x="3" y="3" stroke-width=".13" rx="1"/>
    <circle cx="12" cy="12" r="4" stroke-width=".13"/>
    <path fill="#000" fill-rule="evenodd" d="M2.707 1.293a1 1 0 011.414 0l18.586 18.586a1 1 0 01-1.414 1.414L19.03 19.03H3.489a.504.504 0 01-.427-.77c.148-.239.29-.475.427-.71.096-.165.19-.33.28-.495l.015-.025C5 14.814 5.728 12.514 5.729 8.016c0-.003.002-.005.005-.005a.005.005 0 00.005-.005c.036-.658.17-1.288.39-1.878l-3.422-3.42a1 1 0 010-1.415zm5.061 6.475l9.262 9.262H6.033c.34-.715.645-1.477.897-2.33.52-1.757.786-3.798.798-6.491.004-.031.006-.062.008-.094.006-.117.017-.232.032-.347zm-2.034 2.243zM9.36 21c0 .25.092.48.244.655a3 3 0 004.748.057 1 1 0 10-1.524-1.282l-.009-.006-.008-.006a.99.99 0 01-1.602.028l-.008.006-.003.002A1 1 0 009.36 21zm9.91-9.274c.076.784-1.194 1.511-1.75.955a.706.706 0 01-.204-.42 27.466 27.466 0 01-.156-2.731 3.352 3.352 0 00-.02-.285l-.005-.057a2.021 2.021 0 010-.387c.015-.143.022-.289.022-.437 0-2.43-1.944-4.364-4.295-4.364-.764 0-1.485.204-2.11.563-.47.27-1.08.27-1.462-.112-.4-.4-.395-1.06.074-1.378A6.217 6.217 0 0112.862 2c3.328 0 6.052 2.61 6.28 5.916a6.514 6.514 0 01-.016 1.08c0 .008.006.016.015.016s.016.007.016.016c0 1.035.04 1.922.114 2.698z" clip-rule="evenodd"/>
  </g>
  <defs>
    <clipPath id="clip0_342_573">
      <path fill="#fff" d="M0 0h24v24H0z"/>
    </clipPath>
  </defs>
</svg>
