<svg xmlns="http://www.w3.org/2000/svg" fill="none" viewBox="0 0 24 24" stroke-width="2" stroke="currentColor" aria-hidden="true">
  <g clip-path="url(#clip0_331_292)">
    <path fill="#fff" d="M0 0h24v24H0z"/>
    <path d="M0 0h24M0 0v24M0 0l24 24m0-24v24m0-24L0 24m24 0H0"/>
    <circle cx="12" cy="12" r="10" stroke-width=".13"/>
    <rect width="20" height="16" x="2" y="4" stroke-width=".13" rx="1"/>
    <rect width="16" height="20" x="4" y="2" stroke-width=".13" rx="1"/>
    <rect width="18" height="18" x="3" y="3" stroke-width=".13" rx="1"/>
    <circle cx="12" cy="12" r="4" stroke-width=".13"/>
    <path fill="#000" d="M17.866 5.139l-.707.707.707-.707zm.995.994l.707-.707-.707.707zm0 11.733l-.707-.707.707.707zm-.995.995l-.707-.707.707.707zm-11.732 0l-.708.707.707-.707zm-.995-.995l.707-.707-.707.707zM6.133 5.14l.708.707-.708-.707zM11.296 4h1.408V2h-1.408v2zm-5.45 2.84l.995-.994L5.426 4.43l-.995.995 1.415 1.415zM4 12.705v-1.408H2v1.408h2zm2.84 5.45l-.994-.995-1.415 1.415.995.994 1.415-1.414zM12.705 20h-1.408v2h1.408v-2zm5.45-2.84l-.995.994 1.415 1.415.994-.995-1.414-1.415zM20 11.295v1.408h2v-1.408h-2zm-2.84-5.45l.994.995 1.415-1.415-.995-.995-1.415 1.415zM14.6 12a2.6 2.6 0 01-2.6 2.6v2a4.6 4.6 0 004.6-4.6h-2zM12 9.4a2.6 2.6 0 012.6 2.6h2A4.6 4.6 0 0012 7.4v2zM9.4 12A2.6 2.6 0 0112 9.4v-2A4.6 4.6 0 007.4 12h2zm2.6 2.6A2.6 2.6 0 019.4 12h-2a4.6 4.6 0 004.6 4.6v-2zm3.636-10.53a.404.404 0 01-.6-.249l-1.94.485a2.404 2.404 0 003.57 1.479l-1.03-1.715zm2.938.361a2.404 2.404 0 00-2.938-.361l1.03 1.715a.404.404 0 01.493.06l1.415-1.414zm1.356 3.933a2.404 2.404 0 00-.361-2.938l-1.415 1.415a.404.404 0 01.061.494l1.715 1.029zm.249.6a.404.404 0 01-.249-.6l-1.715-1.03a2.404 2.404 0 001.479 3.57l.485-1.94zM22 11.296c0-1.103-.75-2.064-1.821-2.332l-.485 1.94c.18.045.306.207.306.393h2zm-1.821 3.74A2.404 2.404 0 0022 12.704h-2a.404.404 0 01-.306.392l.485 1.94zm-.249.6a.404.404 0 01.249-.6l-.485-1.94a2.404 2.404 0 00-1.479 3.57l1.715-1.03zm-.361 2.938c.78-.78.929-1.992.361-2.938l-1.715 1.03c.096.159.07.362-.06.493l1.413 1.415zm-3.933 1.356a2.404 2.404 0 002.938-.361l-1.415-1.415a.404.404 0 01-.494.061l-1.029 1.715zm-.6.249a.404.404 0 01.6-.249l1.03-1.715a2.404 2.404 0 00-3.57 1.479l1.94.485zM12.704 22c1.103 0 2.064-.75 2.332-1.821l-1.94-.485a.404.404 0 01-.393.306v2zm-3.74-1.821A2.404 2.404 0 0011.296 22v-2a.404.404 0 01-.392-.306l-1.94.485zm-.6-.249a.404.404 0 01.6.249l1.94-.485a2.404 2.404 0 00-3.57-1.479l1.03 1.715zm-2.938-.361c.78.78 1.992.929 2.938.361l-1.03-1.715a.404.404 0 01-.493-.06l-1.415 1.413zM4.07 15.636a2.404 2.404 0 00.361 2.938l1.415-1.415a.404.404 0 01-.061-.494L4.07 15.636zm-.249-.6a.404.404 0 01.249.6l1.715 1.03a2.404 2.404 0 00-1.479-3.57l-.485 1.94zM2 12.704c0 1.103.75 2.064 1.821 2.332l.485-1.94A.404.404 0 014 12.703H2zm1.821-3.74A2.404 2.404 0 002 11.296h2c0-.185.126-.347.306-.392l-.485-1.94zm.249-.6a.404.404 0 01-.249.6l.485 1.94a2.404 2.404 0 001.479-3.57L4.07 8.365zm.361-2.938c-.78.78-.929 1.992-.361 2.938l1.715-1.03a.404.404 0 01.06-.493L4.432 5.426zM8.364 4.07a2.404 2.404 0 00-2.938.361l1.415 1.415a.404.404 0 01.494-.061L8.364 4.07zm.6-.249a.404.404 0 01-.6.249l-1.03 1.715a2.404 2.404 0 003.57-1.479l-1.94-.485zm3.74.179c.185 0 .347.126.392.306l1.94-.485A2.404 2.404 0 0012.704 2v2zm-1.408-2c-1.103 0-2.064.75-2.332 1.821l1.94.485A.404.404 0 0111.297 4V2z"/>
  </g>
  <defs>
    <clipPath id="clip0_331_292">
      <path fill="#fff" d="M0 0h24v24H0z"/>
    </clipPath>
  </defs>
</svg>
