<svg xmlns="http://www.w3.org/2000/svg" fill="none" viewBox="0 0 24 24" stroke-width="2" stroke="currentColor" aria-hidden="true">
  <path stroke-linecap="round" d="M12.966 3H11.07c-.622 0-1.158.44-1.28 1.05a1.306 1.306 0 01-1.693.982l-.454-.151a1.728 1.728 0 00-1.896.56l-.676.846a1.428 1.428 0 00-.162 1.53c.333.668.097 1.48-.543 1.863l-.417.25A1.954 1.954 0 003 11.607v.788c0 .686.36 1.322.949 1.675l.417.25c.64.385.876 1.196.543 1.864a1.428 1.428 0 00.162 1.53l.676.846a1.728 1.728 0 001.896.56l.454-.151a1.306 1.306 0 011.693.982c.122.61.658 1.05 1.28 1.05h1.896a1.26 1.26 0 001.237-1.014 1.26 1.26 0 011.704-.923l.277.11a1.509 1.509 0 001.502-.222l.835-.668a1.69 1.69 0 00.513-1.947 1.69 1.69 0 01.7-2.076l.295-.177A2 2 0 0021 12.368v-.762c0-.686-.36-1.322-.949-1.675l-.473-.284a1.358 1.358 0 01-.516-1.772 1.358 1.358 0 00-.254-1.567l-1.134-1.134a1.446 1.446 0 00-1.56-.32l-.207.083a1.26 1.26 0 01-1.704-.923A1.26 1.26 0 0012.966 3z"/>
  <circle cx="12" cy="12" r="3" stroke-width="2"/>
</svg>
