<svg xmlns="http://www.w3.org/2000/svg" fill="none" viewBox="0 0 24 24" stroke-width="2" stroke="currentColor" aria-hidden="true">
  <path fill="#fff" d="M0 0h24v24H0z"/>
  <path stroke-linecap="round" d="M4 17h15"/>
  <path fill="#000" d="M3 17l-.707-.707a1 1 0 000 1.414L3 17zm3.293 4.707a1 1 0 001.414-1.414l-1.414 1.414zm1.414-8a1 1 0 10-1.414-1.414l1.414 1.414zm-5.414 4l4 4 1.414-1.414-4-4-1.414 1.414zm1.414 0l4-4-1.414-1.414-4 4 1.414 1.414z"/>
  <path stroke-linecap="round" d="M20 7H5"/>
  <path fill="#000" d="M21 7l.707.707a1 1 0 000-1.414L21 7zm-3.293-4.707a1 1 0 10-1.414 1.414l1.414-1.414zm-1.414 8a1 1 0 001.414 1.414l-1.414-1.414zm5.414-4l-4-4-1.414 1.414 4 4 1.414-1.414zm-1.414 0l-4 4 1.414 1.414 4-4-1.414-1.414z"/>
</svg>
