<svg xmlns="http://www.w3.org/2000/svg" fill="none" viewBox="0 0 24 24" stroke-width="2" stroke="currentColor" aria-hidden="true">
  <path fill="#fff" d="M0 0h24v24H0z"/>
  <path stroke-linecap="round" d="M7 4v15"/>
  <path fill="#000" d="M7 3l.707-.707a1 1 0 00-1.414 0L7 3zM2.293 6.293a1 1 0 001.414 1.414L2.293 6.293zm8 1.414a1 1 0 101.414-1.414l-1.414 1.414zm-4-5.414l-4 4 1.414 1.414 4-4-1.414-1.414zm0 1.414l4 4 1.414-1.414-4-4-1.414 1.414z"/>
  <path stroke-linecap="round" d="M17 20V5"/>
  <path fill="#000" d="M17 21l-.707.707a1 1 0 001.414 0L17 21zm4.707-3.293a1 1 0 00-1.414-1.414l1.414 1.414zm-8-1.414a1 1 0 00-1.414 1.414l1.414-1.414zm4 5.414l4-4-1.414-1.414-4 4 1.414 1.414zm0-1.414l-4-4-1.414 1.414 4 4 1.414-1.414z"/>
</svg>
