<svg xmlns="http://www.w3.org/2000/svg" fill="none" viewBox="0 0 24 24" stroke-width="2" stroke="currentColor" aria-hidden="true">
  <g clip-path="url(#clip0_365_4112)">
    <path fill="#fff" d="M0 0h24v24H0z"/>
    <path d="M0 0h24M0 0v24M0 0l24 24m0-24v24m0-24L0 24m24 0H0"/>
    <circle cx="12" cy="12" r="10" stroke-width=".13"/>
    <rect width="20" height="16" x="2" y="4" stroke-width=".13" rx="1"/>
    <rect width="16" height="20" x="4" y="2" stroke-width=".13" rx="1"/>
    <rect width="18" height="18" x="3" y="3" stroke-width=".13" rx="1"/>
    <circle cx="12" cy="12" r="4" stroke-width=".13"/>
    <mask id="a" fill="#fff">
      <path fill-rule="evenodd" d="M4 2a2 2 0 00-2 2v4h20V4a2 2 0 00-2-2H4zm11 7H9v13h6V9zm1 13V9h6v11a2 2 0 01-2 2h-4zM2 9h6v13H4a2 2 0 01-2-2V9z" clip-rule="evenodd"/>
    </mask>
    <path fill="#000" d="M2 8H0v2h2V8zm20 0v2h2V8h-2zm-7 1h2V7h-2v2zM9 9V7H7v2h2zm0 13H7v2h2v-2zm6 0v2h2v-2h-2zm1-13V7h-2v2h2zm0 13h-2v2h2v-2zm6-13h2V7h-2v2zM8 9h2V7H8v2zM2 9V7H0v2h2zm6 13v2h2v-2H8zM4 4V0a4 4 0 00-4 4h4zm0 4V4H0v4h4zm4-2H2v4h6V6zm1 0H8v4h1V6zm6 0H9v4h6V6zm0 4h1V6h-1v4zm7-4h-6v4h6V6zm-2-2v4h4V4h-4zm0 0h4a4 4 0 00-4-4v4zM4 4h16V0H4v4zm11 3H9v4h6V7zM7 9v13h4V9H7zm2 15h6v-4H9v4zm8-2V9h-4v13h4zM14 9v13h4V9h-4zm8-2h-6v4h6V7zm2 13V9h-4v11h4zm-4 4a4 4 0 004-4h-4v4zm-4 0h4v-4h-4v4zM8 7H2v4h6V7zm2 15V9H6v13h4zm-6 2h4v-4H4v4zm-4-4a4 4 0 004 4v-4H0zM0 9v11h4V9H0z" mask="url(#a)"/>
  </g>
  <defs>
    <clipPath id="clip0_365_4112">
      <path fill="#fff" d="M0 0h24v24H0z"/>
    </clipPath>
  </defs>
</svg>
