<svg xmlns="http://www.w3.org/2000/svg" fill="none" viewBox="0 0 24 24" stroke-width="2" stroke="currentColor" aria-hidden="true">
  <g clip-path="url(#clip0_331_215)">
    <path fill="#fff" d="M0 0h24v24H0z"/>
    <path d="M0 0h24M0 0v24M0 0l24 24m0-24v24m0-24L0 24m24 0H0"/>
    <circle cx="12" cy="12" r="10" stroke-width=".13"/>
    <rect width="20" height="16" x="2" y="4" stroke-width=".13" rx="1"/>
    <rect width="16" height="20" x="4" y="2" stroke-width=".13" rx="1"/>
    <rect width="18" height="18" x="3" y="3" stroke-width=".13" rx="1"/>
    <circle cx="12" cy="12" r="4" stroke-width=".13"/>
    <path fill="#000" fill-rule="evenodd" d="M14 4h-4v1h4V4zm2 1V4a2 2 0 00-2-2h-4a2 2 0 00-2 2v1H4a1 1 0 000 2h1v11a3 3 0 003 3h8a3 3 0 003-3V7h1a1 1 0 100-2h-4zm1 2H7v11a1 1 0 001 1h8a1 1 0 001-1V7zm-7 10a1 1 0 01-1-1v-6a1 1 0 012 0v6a1 1 0 01-1 1zm3-1a1 1 0 102 0v-6a1 1 0 10-2 0v6z" clip-rule="evenodd"/>
  </g>
  <defs>
    <clipPath id="clip0_331_215">
      <path fill="#fff" d="M0 0h24v24H0z"/>
    </clipPath>
  </defs>
</svg>
