<svg xmlns="http://www.w3.org/2000/svg" fill="none" viewBox="0 0 24 24" stroke-width="2" stroke="currentColor" aria-hidden="true">
  <path fill="#fff" d="M0 0h24v24H0z"/>
  <path stroke-linecap="round" d="M12 5l.02 9.121"/>
  <path fill="#000" d="M12 4l.707-.707a1 1 0 00-1.414 0L12 4zM7.293 7.293a1 1 0 001.414 1.414L7.293 7.293zm8 1.414a1 1 0 101.414-1.414l-1.414 1.414zm-4-5.414l-4 4 1.414 1.414 4-4-1.414-1.414zm0 1.414l4 4 1.414-1.414-4-4-1.414 1.414z"/>
  <path stroke-linecap="round" d="M21 14v4a2 2 0 01-2 2H5a2 2 0 01-2-2v-4"/>
</svg>
