<svg xmlns="http://www.w3.org/2000/svg" fill="none" viewBox="0 0 24 24" stroke-width="2" stroke="currentColor" aria-hidden="true">
  <g clip-path="url(#clip0_342_518)">
    <path fill="#fff" d="M0 0h24v24H0z"/>
    <path d="M0 0h24M0 0v24M0 0l24 24m0-24v24m0-24L0 24m24 0H0"/>
    <circle cx="12" cy="12" r="10" stroke-width=".13"/>
    <rect width="20" height="16" x="2" y="4" stroke-width=".13" rx="1"/>
    <rect width="16" height="20" x="4" y="2" stroke-width=".13" rx="1"/>
    <rect width="18" height="18" x="3" y="3" stroke-width=".13" rx="1"/>
    <circle cx="12" cy="12" r="4" stroke-width=".13"/>
    <path fill="#000" fill-rule="evenodd" d="M4 8h11v8H4V8zM2 8a2 2 0 012-2h11a2 2 0 012 2v1.75l3.4-2.55A1 1 0 0122 8v8a1 1 0 01-1.6.8L17 14.25V16a2 2 0 01-2 2H4a2 2 0 01-2-2V8zm15.333 4L20 10v4l-2.667-2z" clip-rule="evenodd"/>
  </g>
  <defs>
    <clipPath id="clip0_342_518">
      <path fill="#fff" d="M0 0h24v24H0z"/>
    </clipPath>
  </defs>
</svg>
