<svg xmlns="http://www.w3.org/2000/svg" viewBox="0 0 24 24" fill="currentColor" aria-hidden="true">
  <g clip-path="url(#clip0_363_3611)">
    <path d="M0 0h24v24H0z"/>
    <path stroke="#C4C4C4" stroke-width=".13" d="M0 0h24M0 0v24M0 0l24 24m0-24v24m0-24L0 24m24 0H0"/>
    <circle cx="12" cy="12" r="10" stroke="#C4C4C4" stroke-width=".13"/>
    <rect width="20" height="16" x="2" y="4" stroke="#C4C4C4" stroke-width=".13" rx="1"/>
    <rect width="16" height="20" x="4" y="2" stroke="#C4C4C4" stroke-width=".13" rx="1"/>
    <rect width="18" height="18" x="3" y="3" stroke="#C4C4C4" stroke-width=".13" rx="1"/>
    <circle cx="12" cy="12" r="4" stroke="#C4C4C4" stroke-width=".13"/>
    <path stroke="#000" stroke-linecap="round" stroke-width="2" d="M17 16v3M7 13v6M12 8V5"/>
    <path d="M18 5a1 1 0 10-2 0h2zm-2 8v1h2v-1h-2zm0-8v8h2V5h-2zM8 5a1 1 0 00-2 0h2zm-2 5v1h2v-1H6zm0-5v5h2V5H6zM11 19a1 1 0 102 0h-2zm2-8v-1h-2v1h2zm0 8v-8h-2v8h2z"/>
    <path stroke="#000" stroke-linecap="round" stroke-width="2" d="M19 16h-4M9 13H5M10 8h4"/>
  </g>
  <defs>
    <clipPath id="clip0_363_3611">
      <path d="M0 0h24v24H0z"/>
    </clipPath>
  </defs>
</svg>
