<svg xmlns="http://www.w3.org/2000/svg" viewBox="0 0 24 24" fill="currentColor" aria-hidden="true">
  <g clip-path="url(#clip0_363_3506)">
    <path d="M0 0h24v24H0z"/>
    <path stroke="#C4C4C4" stroke-width=".13" d="M0 0h24M0 0v24M0 0l24 24m0-24v24m0-24L0 24m24 0H0"/>
    <circle cx="12" cy="12" r="10" stroke="#C4C4C4" stroke-width=".13"/>
    <rect width="20" height="16" x="2" y="4" stroke="#C4C4C4" stroke-width=".13" rx="1"/>
    <rect width="16" height="20" x="4" y="2" stroke="#C4C4C4" stroke-width=".13" rx="1"/>
    <rect width="18" height="18" x="3" y="3" stroke="#C4C4C4" stroke-width=".13" rx="1"/>
    <circle cx="12" cy="12" r="4" stroke="#C4C4C4" stroke-width=".13"/>
    <path stroke="#000" stroke-linecap="round" stroke-width="2" d="M16 7h3M13 17h6M8 12H5"/>
    <path d="M5 6a1 1 0 000 2V6zm8 2h1V6h-1v2zM5 8h8V6H5v2zM5 16a1 1 0 100 2v-2zm5 2h1v-2h-1v2zm-5 0h5v-2H5v2zM19 13a1 1 0 100-2v2zm-8-2h-1v2h1v-2zm8 0h-8v2h8v-2z"/>
    <path stroke="#000" stroke-linecap="round" stroke-width="2" d="M16 5v4M13 15v4M8 14v-4"/>
  </g>
  <defs>
    <clipPath id="clip0_363_3506">
      <path d="M0 0h24v24H0z"/>
    </clipPath>
  </defs>
</svg>
