<svg xmlns="http://www.w3.org/2000/svg" viewBox="0 0 24 24" fill="currentColor" aria-hidden="true">
  <g clip-path="url(#clip0_355_752)">
    <path d="M0 0h24v24H0z"/>
    <path stroke="#C4C4C4" stroke-width=".13" d="M0 0h24M0 0v24M0 0l24 24m0-24v24m0-24L0 24m24 0H0"/>
    <circle cx="12" cy="12" r="10" stroke="#C4C4C4" stroke-width=".13"/>
    <rect width="20" height="16" x="2" y="4" stroke="#C4C4C4" stroke-width=".13" rx="1"/>
    <rect width="16" height="20" x="4" y="2" stroke="#C4C4C4" stroke-width=".13" rx="1"/>
    <rect width="18" height="18" x="3" y="3" stroke="#C4C4C4" stroke-width=".13" rx="1"/>
    <circle cx="12" cy="12" r="4" stroke="#C4C4C4" stroke-width=".13"/>
    <path d="M3.414 6.869a2 2 0 010-2.828l1.627-1.627a2 2 0 012.828 0l.707.707-4.455 4.455-.707-.707zM16.95 2.414a2 2 0 012.83 0l1.626 1.627a2 2 0 010 2.828l-.707.707-4.455-4.455.707-.707z"/>
    <path fill-rule="evenodd" d="M12.5 22a9 9 0 100-18 9 9 0 000 18zm1-13.95a1 1 0 10-2 0V13.618l.553.277 3.6 1.8a1 1 0 00.894-1.79L13.5 12.383V8.05z" clip-rule="evenodd"/>
  </g>
  <defs>
    <clipPath id="clip0_355_752">
      <path d="M0 0h24v24H0z"/>
    </clipPath>
  </defs>
</svg>
