<svg xmlns="http://www.w3.org/2000/svg" viewBox="0 0 24 24" fill="currentColor" aria-hidden="true">
  <g clip-path="url(#clip0_350_807)">
    <path d="M0 0h24v24H0z"/>
    <path stroke="#C4C4C4" stroke-width=".13" d="M0 0h24M0 0v24M0 0l24 24m0-24v24m0-24L0 24m24 0H0"/>
    <circle cx="12" cy="12" r="10" stroke="#C4C4C4" stroke-width=".13"/>
    <rect width="20" height="16" x="2" y="4" stroke="#C4C4C4" stroke-width=".13" rx="1"/>
    <rect width="16" height="20" x="4" y="2" stroke="#C4C4C4" stroke-width=".13" rx="1"/>
    <rect width="18" height="18" x="3" y="3" stroke="#C4C4C4" stroke-width=".13" rx="1"/>
    <circle cx="12" cy="12" r="4" stroke="#C4C4C4" stroke-width=".13"/>
    <path fill-rule="evenodd" d="M7.266 2.577A2 2 0 018.68 1.99h6.64a2 2 0 011.414.586l4.695 4.695a2 2 0 01.586 1.414v6.64a2 2 0 01-.586 1.413l-4.695 4.695a2 2 0 01-1.414.586H8.68a2 2 0 01-1.414-.586L2.571 16.74a2 2 0 01-.586-1.414v-6.64a2 2 0 01.586-1.413l4.695-4.695zM12 7a1 1 0 011 1v5a1 1 0 11-2 0V8a1 1 0 011-1zm0 10a1 1 0 100-2 1 1 0 000 2z" clip-rule="evenodd"/>
  </g>
  <defs>
    <clipPath id="clip0_350_807">
      <path d="M0 0h24v24H0z"/>
    </clipPath>
  </defs>
</svg>
