<svg xmlns="http://www.w3.org/2000/svg" viewBox="0 0 24 24" fill="currentColor" aria-hidden="true">
  <g clip-path="url(#clip0_351_888)">
    <path d="M0 0h24v24H0z"/>
    <path stroke="#C4C4C4" stroke-width=".13" d="M0 0h24M0 0v24M0 0l24 24m0-24v24m0-24L0 24m24 0H0"/>
    <circle cx="12" cy="12" r="10" stroke="#C4C4C4" stroke-width=".13"/>
    <rect width="20" height="16" x="2" y="4" stroke="#C4C4C4" stroke-width=".13" rx="1"/>
    <rect width="16" height="20" x="4" y="2" stroke="#C4C4C4" stroke-width=".13" rx="1"/>
    <rect width="18" height="18" x="3" y="3" stroke="#C4C4C4" stroke-width=".13" rx="1"/>
    <circle cx="12" cy="12" r="4" stroke="#C4C4C4" stroke-width=".13"/>
    <path fill-rule="evenodd" d="M13.732 3c-.77-1.333-2.694-1.333-3.464 0l-8.66 15c-.77 1.333.192 3 1.732 3h17.32c1.54 0 2.502-1.667 1.732-3l-8.66-15zM12 8a1 1 0 011 1v5a1 1 0 11-2 0V9a1 1 0 011-1zm1 9a1 1 0 11-2 0 1 1 0 012 0z" clip-rule="evenodd"/>
  </g>
  <defs>
    <clipPath id="clip0_351_888">
      <path d="M0 0h24v24H0z"/>
    </clipPath>
  </defs>
</svg>
