<svg xmlns="http://www.w3.org/2000/svg" viewBox="0 0 24 24" fill="currentColor" aria-hidden="true">
  <g clip-path="url(#clip0_357_1494)">
    <path d="M0 0h24v24H0z"/>
    <path stroke="#C4C4C4" stroke-width=".13" d="M0 0h24M0 0v24M0 0l24 24m0-24v24m0-24L0 24m24 0H0"/>
    <circle cx="12" cy="12" r="10" stroke="#C4C4C4" stroke-width=".13"/>
    <rect width="20" height="16" x="2" y="4" stroke="#C4C4C4" stroke-width=".13" rx="1"/>
    <rect width="16" height="20" x="4" y="2" stroke="#C4C4C4" stroke-width=".13" rx="1"/>
    <rect width="18" height="18" x="3" y="3" stroke="#C4C4C4" stroke-width=".13" rx="1"/>
    <circle cx="12" cy="12" r="4" stroke="#C4C4C4" stroke-width=".13"/>
    <path stroke="#000" stroke-linecap="round" stroke-width="2" d="M16.95 16.95L6.343 6.343"/>
    <path d="M17.657 17.657v1a1 1 0 001-1h-1zm1-8.485a1 1 0 00-2 0h2zm-9.485 7.485a1 1 0 100 2v-2zm9.485 1V9.172h-2v8.485h2zm-1-1H9.172v2h8.485v-2z"/>
  </g>
  <defs>
    <clipPath id="clip0_357_1494">
      <path d="M0 0h24v24H0z"/>
    </clipPath>
  </defs>
</svg>
