<svg xmlns="http://www.w3.org/2000/svg" viewBox="0 0 24 24" fill="currentColor" aria-hidden="true">
  <g clip-path="url(#clip0_357_1538)">
    <path d="M0 0h24v24H0z"/>
    <path stroke="#C4C4C4" stroke-width=".13" d="M0 0h24M0 0v24M0 0l24 24m0-24v24m0-24L0 24m24 0H0"/>
    <circle cx="12" cy="12" r="10" stroke="#C4C4C4" stroke-width=".13"/>
    <rect width="20" height="16" x="2" y="4" stroke="#C4C4C4" stroke-width=".13" rx="1"/>
    <rect width="16" height="20" x="4" y="2" stroke="#C4C4C4" stroke-width=".13" rx="1"/>
    <rect width="18" height="18" x="3" y="3" stroke="#C4C4C4" stroke-width=".13" rx="1"/>
    <circle cx="12" cy="12" r="4" stroke="#C4C4C4" stroke-width=".13"/>
    <path stroke="#000" stroke-linecap="round" stroke-width="2" d="M6.95 6.95l10.607 10.607"/>
    <path d="M6.243 6.243v-1a1 1 0 00-1 1h1zm-1 8.485a1 1 0 102 0h-2zm9.485-7.485a1 1 0 100-2v2zm-9.485-1v8.485h2V6.243h-2zm1 1h8.485v-2H6.243v2z"/>
  </g>
  <defs>
    <clipPath id="clip0_357_1538">
      <path d="M0 0h24v24H0z"/>
    </clipPath>
  </defs>
</svg>
