<svg xmlns="http://www.w3.org/2000/svg" viewBox="0 0 24 24" fill="currentColor" aria-hidden="true">
  <g clip-path="url(#clip0_357_1516)">
    <path d="M0 0h24v24H0z"/>
    <path stroke="#C4C4C4" stroke-width=".13" d="M0 0h24M0 0v24M0 0l24 24m0-24v24m0-24L0 24m24 0H0"/>
    <circle cx="12" cy="12" r="10" stroke="#C4C4C4" stroke-width=".13"/>
    <rect width="20" height="16" x="2" y="4" stroke="#C4C4C4" stroke-width=".13" rx="1"/>
    <rect width="16" height="20" x="4" y="2" stroke="#C4C4C4" stroke-width=".13" rx="1"/>
    <rect width="18" height="18" x="3" y="3" stroke="#C4C4C4" stroke-width=".13" rx="1"/>
    <circle cx="12" cy="12" r="4" stroke="#C4C4C4" stroke-width=".13"/>
    <path stroke="#000" stroke-linecap="round" stroke-width="2" d="M6.95 16.95L17.556 6.343"/>
    <path d="M6.243 17.657h-1a1 1 0 001 1v-1zm8.485 1a1 1 0 100-2v2zM7.243 9.172a1 1 0 10-2 0h2zm-1 9.485h8.485v-2H6.243v2zm1-1V9.172h-2v8.485h2z"/>
  </g>
  <defs>
    <clipPath id="clip0_357_1516">
      <path d="M0 0h24v24H0z"/>
    </clipPath>
  </defs>
</svg>
