<svg xmlns="http://www.w3.org/2000/svg" viewBox="0 0 24 24" fill="currentColor" aria-hidden="true">
  <path fill-rule="evenodd" d="M15 6a1 1 0 102 0V3a1 1 0 10-2 0v3zm1 1.5A1.5 1.5 0 0114.5 6V4h-5v2a1.5 1.5 0 11-3 0V4H5a2 2 0 00-2 2v13a3 3 0 003 3h12a3 3 0 003-3V6a2 2 0 00-2-2h-1.5v2A1.5 1.5 0 0116 7.5zm3 3H5V19a1 1 0 001 1h12a1 1 0 001-1v-8.5zM8 7a1 1 0 01-1-1V3a1 1 0 012 0v3a1 1 0 01-1 1zm1 6v2H7v-2h2zm0 5v-2H7v2h2zm2-5h2v2h-2v-2zm2 3h-2v2h2v-2zm4-3v2h-2v-2h2zm0 5v-2h-2v2h2z" clip-rule="evenodd"/>
</svg>
