<svg xmlns="http://www.w3.org/2000/svg" viewBox="0 0 24 24" fill="currentColor" aria-hidden="true">
  <path fill-rule="evenodd" d="M16 7a1 1 0 01-1-1V3a1 1 0 112 0v3a1 1 0 01-1 1zm-1.5-1a1.5 1.5 0 003 0V4H19a2 2 0 012 2v13a3 3 0 01-3 3H6a3 3 0 01-3-3V6a2 2 0 012-2h1.5v2a1.5 1.5 0 103 0V4h5v2zM5 11h14v8a1 1 0 01-1 1H6a1 1 0 01-1-1v-8zm2-5a1 1 0 002 0V3a1 1 0 00-2 0v3zm1.47 7.03l2.47 2.47-2.47 2.47 1.06 1.06L12 16.56l2.47 2.47 1.06-1.06-2.47-2.47 2.47-2.47-1.06-1.06L12 14.44l-2.47-2.47-1.06 1.06z" clip-rule="evenodd"/>
</svg>
