<svg xmlns="http://www.w3.org/2000/svg" viewBox="0 0 24 24" fill="currentColor" aria-hidden="true">
  <g clip-path="url(#clip0_344_550)">
    <path d="M0 0h24v24H0z"/>
    <path stroke="#C4C4C4" stroke-width=".13" d="M0 0h24M0 0v24M0 0l24 24m0-24v24m0-24L0 24m24 0H0"/>
    <circle cx="12" cy="12" r="10" stroke="#C4C4C4" stroke-width=".13"/>
    <rect width="20" height="16" x="2" y="4" stroke="#C4C4C4" stroke-width=".13" rx="1"/>
    <rect width="16" height="20" x="4" y="2" stroke="#C4C4C4" stroke-width=".13" rx="1"/>
    <rect width="18" height="18" x="3" y="3" stroke="#C4C4C4" stroke-width=".13" rx="1"/>
    <circle cx="12" cy="12" r="4" stroke="#C4C4C4" stroke-width=".13"/>
    <path fill-rule="evenodd" d="M16 7a1 1 0 01-1-1V3a1 1 0 112 0v3a1 1 0 01-1 1zm-1.5-1a1.5 1.5 0 003 0V4H19a2 2 0 012 2v13a3 3 0 01-3 3H6a3 3 0 01-3-3V6a2 2 0 012-2h1.5v2a1.5 1.5 0 103 0V4h5v2zM5 10.5h14V19a1 1 0 01-1 1H6a1 1 0 01-1-1v-8.5zM7 6a1 1 0 002 0V3a1 1 0 00-2 0v3zm1.47 7.03l2.47 2.47-2.47 2.47 1.06 1.06L12 16.56l2.47 2.47 1.06-1.06-2.47-2.47 2.47-2.47-1.06-1.06L12 14.44l-2.47-2.47-1.06 1.06z" clip-rule="evenodd"/>
  </g>
  <defs>
    <clipPath id="clip0_344_550">
      <path d="M0 0h24v24H0z"/>
    </clipPath>
  </defs>
</svg>
