<svg xmlns="http://www.w3.org/2000/svg" viewBox="0 0 24 24" fill="currentColor" aria-hidden="true">
  <g clip-path="url(#clip0_350_662)">
    <path d="M0 0h24v24H0z"/>
    <path stroke="#C4C4C4" stroke-width=".13" d="M0 0h24M0 0v24M0 0l24 24m0-24v24m0-24L0 24m24 0H0"/>
    <circle cx="12" cy="12" r="10" stroke="#C4C4C4" stroke-width=".13"/>
    <rect width="20" height="16" x="2" y="4" stroke="#C4C4C4" stroke-width=".13" rx="1"/>
    <rect width="16" height="20" x="4" y="2" stroke="#C4C4C4" stroke-width=".13" rx="1"/>
    <rect width="18" height="18" x="3" y="3" stroke="#C4C4C4" stroke-width=".13" rx="1"/>
    <circle cx="12" cy="12" r="4" stroke="#C4C4C4" stroke-width=".13"/>
    <path fill-rule="evenodd" d="M21.768 5.64a1 1 0 00-1.536-1.28l-1.447 1.736A2 2 0 0017 5H4a2 2 0 00-2 2v13a2 2 0 002 2h13a2 2 0 002-2V8.962l2.768-3.322zM19 8.962V7c0-.325-.078-.632-.215-.904l-7.825 9.39-4.226-4.565a1 1 0 00-1.468 1.358l4.614 4.983a1.5 1.5 0 002.253-.059L19 8.963z" clip-rule="evenodd"/>
  </g>
  <defs>
    <clipPath id="clip0_350_662">
      <path d="M0 0h24v24H0z"/>
    </clipPath>
  </defs>
</svg>
