<svg xmlns="http://www.w3.org/2000/svg" viewBox="0 0 24 24" fill="currentColor" aria-hidden="true">
  <g clip-path="url(#clip0_350_577)">
    <path d="M0 0h24v24H0z"/>
    <path stroke="#C4C4C4" stroke-width=".13" d="M0 0h24M0 0v24M0 0l24 24m0-24v24m0-24L0 24m24 0H0"/>
    <circle cx="12" cy="12" r="10" stroke="#C4C4C4" stroke-width=".13"/>
    <rect width="20" height="16" x="2" y="4" stroke="#C4C4C4" stroke-width=".13" rx="1"/>
    <rect width="16" height="20" x="4" y="2" stroke="#C4C4C4" stroke-width=".13" rx="1"/>
    <rect width="18" height="18" x="3" y="3" stroke="#C4C4C4" stroke-width=".13" rx="1"/>
    <circle cx="12" cy="12" r="4" stroke="#C4C4C4" stroke-width=".13"/>
    <path fill-rule="evenodd" d="M11.5 22a9.5 9.5 0 009.5-9.5 9.46 9.46 0 00-1.051-4.348l2.285-2.473a1 1 0 00-1.468-1.358l-1.954 2.114A9.5 9.5 0 1011.5 22zm7.312-15.565l-7.495 8.11-4.098-4.24a1 1 0 10-1.438 1.39l4.466 4.62a1.5 1.5 0 002.18-.025l7.522-8.138a9.513 9.513 0 00-1.137-1.717z" clip-rule="evenodd"/>
  </g>
  <defs>
    <clipPath id="clip0_350_577">
      <path d="M0 0h24v24H0z"/>
    </clipPath>
  </defs>
</svg>
