<svg xmlns="http://www.w3.org/2000/svg" viewBox="0 0 24 24" fill="currentColor" aria-hidden="true">
  <path d="M0 0h24v24H0z"/>
  <path d="M13 12l.707.707a1 1 0 000-1.414L13 12zM7.707 5.293a1 1 0 00-1.414 1.414l1.414-1.414zm-1.414 12a1 1 0 101.414 1.414l-1.414-1.414zm7.414-6l-6-6-1.414 1.414 6 6 1.414-1.414zm-1.414 0l-6 6 1.414 1.414 6-6-1.414-1.414zM19 12l.707.707a1 1 0 000-1.414L19 12zm-5.293-6.707a1 1 0 10-1.414 1.414l1.414-1.414zm-1.414 12a1 1 0 001.414 1.414l-1.414-1.414zm7.414-6l-6-6-1.414 1.414 6 6 1.414-1.414zm-1.414 0l-6 6 1.414 1.414 6-6-1.414-1.414z"/>
</svg>
