<svg xmlns="http://www.w3.org/2000/svg" viewBox="0 0 24 24" fill="currentColor" aria-hidden="true">
  <path d="M3 12l-.707-.707a1 1 0 000 1.414L3 12zm5.293 6.707a1 1 0 001.414-1.414l-1.414 1.414zm1.414-12a1 1 0 00-1.414-1.414l1.414 1.414zM21 12l.707.707a1 1 0 000-1.414L21 12zm-5.293-6.707a1 1 0 10-1.414 1.414l1.414-1.414zm-1.414 12a1 1 0 001.414 1.414l-1.414-1.414zm-12-4.586l6 6 1.414-1.414-6-6-1.414 1.414zm1.414 0l6-6-1.414-1.414-6 6 1.414 1.414zm18-1.414l-6-6-1.414 1.414 6 6 1.414-1.414zm-1.414 0l-6 6 1.414 1.414 6-6-1.414-1.414z"/>
</svg>
