<svg xmlns="http://www.w3.org/2000/svg" viewBox="0 0 24 24" fill="currentColor" aria-hidden="true">
  <g clip-path="url(#clip0_358_2505)">
    <path d="M0 0h24v24H0z"/>
    <path stroke="#C4C4C4" stroke-width=".13" d="M0 0h24M0 0v24M0 0l24 24m0-24v24m0-24L0 24m24 0H0"/>
    <circle cx="12" cy="12" r="10" stroke="#C4C4C4" stroke-width=".13"/>
    <rect width="20" height="16" x="2" y="4" stroke="#C4C4C4" stroke-width=".13" rx="1"/>
    <rect width="16" height="20" x="4" y="2" stroke="#C4C4C4" stroke-width=".13" rx="1"/>
    <rect width="18" height="18" x="3" y="3" stroke="#C4C4C4" stroke-width=".13" rx="1"/>
    <circle cx="12" cy="12" r="4" stroke="#C4C4C4" stroke-width=".13"/>
    <path stroke="#000" stroke-linecap="round" stroke-width="2" d="M8 3v11a2 2 0 002 2h11"/>
    <path fill-rule="evenodd" d="M7 7H3a1 1 0 100 2h4V7zm3 2h4a1 1 0 011 1v4h2v-4a3 3 0 00-3-3h-4v2zm6 13a1 1 0 01-1-1v-4h2v4a1 1 0 01-1 1z" clip-rule="evenodd"/>
  </g>
  <defs>
    <clipPath id="clip0_358_2505">
      <path d="M0 0h24v24H0z"/>
    </clipPath>
  </defs>
</svg>
