<svg xmlns="http://www.w3.org/2000/svg" viewBox="0 0 24 24" fill="currentColor" aria-hidden="true">
  <g clip-path="url(#clip0_358_2578)">
    <path d="M0 0h24v24H0z"/>
    <path stroke="#C4C4C4" stroke-width=".13" d="M0 0h24M0 0v24M0 0l24 24m0-24v24m0-24L0 24m24 0H0"/>
    <circle cx="12" cy="12" r="10" stroke="#C4C4C4" stroke-width=".13"/>
    <rect width="20" height="16" x="2" y="4" stroke="#C4C4C4" stroke-width=".13" rx="1"/>
    <rect width="16" height="20" x="4" y="2" stroke="#C4C4C4" stroke-width=".13" rx="1"/>
    <rect width="18" height="18" x="3" y="3" stroke="#C4C4C4" stroke-width=".13" rx="1"/>
    <circle cx="12" cy="12" r="4" stroke="#C4C4C4" stroke-width=".13"/>
    <path fill-rule="evenodd" d="M7.7 5.35A1 1 0 018.46 5H20a2 2 0 012 2v10a2 2 0 01-2 2H8.46a1 1 0 01-.76-.35l-5.142-6a1 1 0 010-1.3l5.143-6zm4.83 3.12a.75.75 0 10-1.06 1.06L13.94 12l-2.47 2.47a.75.75 0 101.06 1.06L15 13.06l2.47 2.47a.75.75 0 101.06-1.06L16.06 12l2.47-2.47a.75.75 0 00-1.06-1.06L15 10.94l-2.47-2.47z" clip-rule="evenodd"/>
  </g>
  <defs>
    <clipPath id="clip0_358_2578">
      <path d="M0 0h24v24H0z"/>
    </clipPath>
  </defs>
</svg>
