<svg xmlns="http://www.w3.org/2000/svg" viewBox="0 0 24 24" fill="currentColor" aria-hidden="true">
  <g clip-path="url(#clip0_356_1336)">
    <path d="M0 0h24v24H0z"/>
    <path stroke="#C4C4C4" stroke-width=".13" d="M0 0h24M0 0v24M0 0l24 24m0-24v24m0-24L0 24m24 0H0"/>
    <circle cx="12" cy="12" r="10" stroke="#C4C4C4" stroke-width=".13"/>
    <rect width="20" height="16" x="2" y="4" stroke="#C4C4C4" stroke-width=".13" rx="1"/>
    <rect width="16" height="20" x="4" y="2" stroke="#C4C4C4" stroke-width=".13" rx="1"/>
    <rect width="18" height="18" x="3" y="3" stroke="#C4C4C4" stroke-width=".13" rx="1"/>
    <circle cx="12" cy="12" r="4" stroke="#C4C4C4" stroke-width=".13"/>
    <path fill-rule="evenodd" d="M20.648 6.789l-.009.01-8.806 8.805a.013.013 0 01-.018 0 .013.013 0 00-.012-.003l-4.228 1.074a.1.1 0 01-.122-.122l1.075-4.228a.013.013 0 00-.004-.012.013.013 0 010-.018l.015-.015 8.8-8.8a2.34 2.34 0 013.31 3.309z" clip-rule="evenodd"/>
    <path d="M20.64 6.798l-.354-.354.353.354zm.008-.01l.353.355-.353-.354zM17.34 3.48l.354.353-.354-.353zm-8.8 8.8l-.485-.122.485.122zm0 0l-.485-.121.485.12zm-.011.045l-.485-.123.485.123zm-.953 4.35l.123.484-.123-.484zm-.122-.122l-.484-.123.484.123zm4.35-.953l-.123-.484.123.485zm.03.004l.354.354-.354-.354zm9.159-8.451l.009-.01-.705-.709-.01.01.706.709zm-8.805 8.805l8.806-8.806-.707-.707-8.806 8.805.707.707zm-.507-.842L7.452 16.19l.246.97 4.228-1.075-.246-.97zm-3.742 1.56l1.074-4.227-.969-.247-1.074 4.228.969.246zm.248-4.75l-.015.015.707.707.015-.014-.707-.708zm.838.475l-.97-.243.97.243zm7.962-9.275l-8.8 8.8.707.707 8.8-8.8-.707-.707zm4.016 0a2.84 2.84 0 00-4.016 0l.707.707a1.84 1.84 0 012.602 0l.707-.707zm0 4.016a2.84 2.84 0 000-4.016l-.707.707a1.84 1.84 0 010 2.602l.707.707zm-4.016-3.309a.5.5 0 00.707 0l-.707-.707a.5.5 0 01.707 0l-.707.707zm.707 0a.5.5 0 01-.707 0l.707-.707a.5.5 0 00-.707 0l.707.707zm-9.507 8.8a.5.5 0 00.707 0l-.707-.707a.5.5 0 01.707 0l-.707.707zm.838-.232a.5.5 0 01-.838.232l.707-.707a.5.5 0 00-.839.232l.97.243zm-.131.232a.5.5 0 00.131-.232l-.97-.242a.5.5 0 01.132-.233l.707.707zm-.015-.673c.19.19.19.498 0 .688l-.707-.707c-.2.2-.2.525 0 .726l.707-.707zm.134.488a.513.513 0 00-.134-.489l-.707.708a.487.487 0 01-.128-.465l.97.246zm-1.56 3.742a.4.4 0 01.486.486l-.97-.246a.6.6 0 00.73.73l-.246-.97zm4.717-.94a.513.513 0 00-.49-.134l.247.97a.487.487 0 01-.465-.128l.708-.708zm-.69 0c.191-.19.5-.19.69 0l-.708.707c.2.2.526.2.726 0l-.707-.707z"/>
    <path fill-rule="evenodd" d="M4 20h14v-6.996l2-2V20a2 2 0 01-2 2H4a2 2 0 01-2-2V6a2 2 0 012-2h9.036l-2 2H4v14z" clip-rule="evenodd"/>
  </g>
  <defs>
    <clipPath id="clip0_356_1336">
      <path d="M0 0h24v24H0z"/>
    </clipPath>
  </defs>
</svg>
