<svg xmlns="http://www.w3.org/2000/svg" viewBox="0 0 24 24" fill="currentColor" aria-hidden="true">
  <g clip-path="url(#clip0_358_2705)">
    <path d="M0 0h24v24H0z"/>
    <path stroke="#C4C4C4" stroke-width=".13" d="M0 0h24M0 0v24M0 0l24 24m0-24v24m0-24L0 24m24 0H0"/>
    <circle cx="12" cy="12" r="10" stroke="#C4C4C4" stroke-width=".13"/>
    <rect width="20" height="16" x="2" y="4" stroke="#C4C4C4" stroke-width=".13" rx="1"/>
    <rect width="16" height="20" x="4" y="2" stroke="#C4C4C4" stroke-width=".13" rx="1"/>
    <rect width="18" height="18" x="3" y="3" stroke="#C4C4C4" stroke-width=".13" rx="1"/>
    <circle cx="12" cy="12" r="4" stroke="#C4C4C4" stroke-width=".13"/>
    <path fill-rule="evenodd" d="M15.329 1.828a1 1 0 100 2h3.262L10.286 12.3a1 1 0 001.428 1.4l8.271-8.437v3.222a1 1 0 102 0V2.828a1 1 0 00-1-1H15.33zM6 18h12v-4.892l2-2V18a2 2 0 01-2 2H6a2 2 0 01-2-2V6a2 2 0 012-2h7.753l-2 2H6v12z" clip-rule="evenodd"/>
  </g>
  <defs>
    <clipPath id="clip0_358_2705">
      <path d="M0 0h24v24H0z"/>
    </clipPath>
  </defs>
</svg>
