<svg xmlns="http://www.w3.org/2000/svg" viewBox="0 0 24 24" fill="currentColor" aria-hidden="true">
  <g clip-path="url(#clip0_358_2891)">
    <path d="M0 0h24v24H0z"/>
    <path stroke="#C4C4C4" stroke-width=".13" d="M0 0h24M0 0v24M0 0l24 24m0-24v24m0-24L0 24m24 0H0"/>
    <circle cx="12" cy="12" r="10" stroke="#C4C4C4" stroke-width=".13"/>
    <rect width="20" height="16" x="2" y="4" stroke="#C4C4C4" stroke-width=".13" rx="1"/>
    <rect width="16" height="20" x="4" y="2" stroke="#C4C4C4" stroke-width=".13" rx="1"/>
    <rect width="18" height="18" x="3" y="3" stroke="#C4C4C4" stroke-width=".13" rx="1"/>
    <circle cx="12" cy="12" r="4" stroke="#C4C4C4" stroke-width=".13"/>
    <path fill-rule="evenodd" d="M12.5 2H6a2 2 0 00-2 2v16a2 2 0 002 2h12a2 2 0 002-2V9.5h-6.5a1 1 0 01-1-1V2zm7.32 6.5a2 2 0 00-.406-.586l-5.328-5.328a1.999 1.999 0 00-.586-.406V8.5h6.32zM11 17H8v-2h3v-3h2v3h3v2h-3v3h-2v-3z" clip-rule="evenodd"/>
  </g>
  <defs>
    <clipPath id="clip0_358_2891">
      <path d="M0 0h24v24H0z"/>
    </clipPath>
  </defs>
</svg>
