<svg xmlns="http://www.w3.org/2000/svg" viewBox="0 0 24 24" fill="currentColor" aria-hidden="true">
  <g clip-path="url(#clip0_360_3086)">
    <path d="M0 0h24v24H0z"/>
    <path stroke="#C4C4C4" stroke-width=".13" d="M0 0h24M0 0v24M0 0l24 24m0-24v24m0-24L0 24m24 0H0"/>
    <circle cx="12" cy="12" r="10" stroke="#C4C4C4" stroke-width=".13"/>
    <rect width="20" height="16" x="2" y="4" stroke="#C4C4C4" stroke-width=".13" rx="1"/>
    <rect width="16" height="20" x="4" y="2" stroke="#C4C4C4" stroke-width=".13" rx="1"/>
    <rect width="18" height="18" x="3" y="3" stroke="#C4C4C4" stroke-width=".13" rx="1"/>
    <circle cx="12" cy="12" r="4" stroke="#C4C4C4" stroke-width=".13"/>
    <path fill-rule="evenodd" d="M6 2h6.5v6.5a1 1 0 001 1H20V20c0 .277-.056.541-.158.781l-2.103-2.103a4.25 4.25 0 10-1.06 1.06l2.102 2.104c-.24.102-.504.158-.781.158H6a2 2 0 01-2-2V4a2 2 0 012-2zm13.414 5.914a2 2 0 01.406.586H13.5V2.18c.216.098.415.235.586.406l5.328 5.328zM14.25 19a2.75 2.75 0 100-5.5 2.75 2.75 0 000 5.5z" clip-rule="evenodd"/>
  </g>
  <defs>
    <clipPath id="clip0_360_3086">
      <path d="M0 0h24v24H0z"/>
    </clipPath>
  </defs>
</svg>
