<svg xmlns="http://www.w3.org/2000/svg" viewBox="0 0 24 24" fill="currentColor" aria-hidden="true">
  <g clip-path="url(#clip0_363_3414)">
    <path d="M0 0h24v24H0z"/>
    <path stroke="#C4C4C4" stroke-width=".13" d="M0 0h24M0 0v24M0 0l24 24m0-24v24m0-24L0 24m24 0H0"/>
    <circle cx="12" cy="12" r="10" stroke="#C4C4C4" stroke-width=".13"/>
    <rect width="20" height="16" x="2" y="4" stroke="#C4C4C4" stroke-width=".13" rx="1"/>
    <rect width="16" height="20" x="4" y="2" stroke="#C4C4C4" stroke-width=".13" rx="1"/>
    <rect width="18" height="18" x="3" y="3" stroke="#C4C4C4" stroke-width=".13" rx="1"/>
    <circle cx="12" cy="12" r="4" stroke="#C4C4C4" stroke-width=".13"/>
    <path fill-rule="evenodd" d="M12.5 2H6a2 2 0 00-2 2v16a2 2 0 002 2h5.268l-.016-7.191L8.53 17.53a.75.75 0 01-1.06-1.06l4-4a.75.75 0 011.06 0l4 4a.75.75 0 11-1.06 1.06l-2.718-2.718.016 7.188H18a2 2 0 002-2V9.5h-6.5a1 1 0 01-1-1V2zm7.32 6.5a2 2 0 00-.406-.586l-5.328-5.328a1.999 1.999 0 00-.586-.406V8.5h6.32z" clip-rule="evenodd"/>
  </g>
  <defs>
    <clipPath id="clip0_363_3414">
      <path d="M0 0h24v24H0z"/>
    </clipPath>
  </defs>
</svg>
