<svg xmlns="http://www.w3.org/2000/svg" viewBox="0 0 24 24" fill="currentColor" aria-hidden="true">
  <g clip-path="url(#clip0_361_3281)">
    <path d="M0 0h24v24H0z"/>
    <path stroke="#C4C4C4" stroke-width=".13" d="M0 0h24M0 0v24M0 0l24 24m0-24v24m0-24L0 24m24 0H0"/>
    <circle cx="12" cy="12" r="10" stroke="#C4C4C4" stroke-width=".13"/>
    <rect width="20" height="16" x="2" y="4" stroke="#C4C4C4" stroke-width=".13" rx="1"/>
    <rect width="16" height="20" x="4" y="2" stroke="#C4C4C4" stroke-width=".13" rx="1"/>
    <rect width="18" height="18" x="3" y="3" stroke="#C4C4C4" stroke-width=".13" rx="1"/>
    <circle cx="12" cy="12" r="4" stroke="#C4C4C4" stroke-width=".13"/>
    <path fill-rule="evenodd" d="M13.813 2H9a2 2 0 00-2 2v12a2 2 0 002 2h9a2 2 0 002-2V8.1h-5.188a1 1 0 01-1-1V2zm5.954 5.1a2.001 2.001 0 00-.364-.488l-4.1-4.037a2 2 0 00-.49-.354V7.1h4.954z" clip-rule="evenodd"/>
    <path fill-rule="evenodd" d="M6 6H5a2 2 0 00-2 2v12a2 2 0 002 2h9a2 2 0 002-2v-1.2H8a2 2 0 01-2-2V6z" clip-rule="evenodd"/>
  </g>
  <defs>
    <clipPath id="clip0_361_3281">
      <path d="M0 0h24v24H0z"/>
    </clipPath>
  </defs>
</svg>
