<svg xmlns="http://www.w3.org/2000/svg" viewBox="0 0 24 24" fill="currentColor" aria-hidden="true">
  <g clip-path="url(#clip0_363_3482)">
    <path d="M0 0h24v24H0z"/>
    <path stroke="#C4C4C4" stroke-width=".13" d="M0 0h24M0 0v24M0 0l24 24m0-24v24m0-24L0 24m24 0H0"/>
    <circle cx="12" cy="12" r="10" stroke="#C4C4C4" stroke-width=".13"/>
    <rect width="20" height="16" x="2" y="4" stroke="#C4C4C4" stroke-width=".13" rx="1"/>
    <rect width="16" height="20" x="4" y="2" stroke="#C4C4C4" stroke-width=".13" rx="1"/>
    <rect width="18" height="18" x="3" y="3" stroke="#C4C4C4" stroke-width=".13" rx="1"/>
    <circle cx="12" cy="12" r="4" stroke="#C4C4C4" stroke-width=".13"/>
    <path fill-rule="evenodd" d="M3.14 3h17.72c.891 0 1.337 1.077.707 1.707l-7.312 7.313v8.21a.5.5 0 01-.724.447l-3.51-1.754a.5.5 0 01-.276-.448V12.02L2.433 4.707C1.803 4.077 2.249 3 3.14 3z" clip-rule="evenodd"/>
  </g>
  <defs>
    <clipPath id="clip0_363_3482">
      <path d="M0 0h24v24H0z"/>
    </clipPath>
  </defs>
</svg>
