<svg xmlns="http://www.w3.org/2000/svg" viewBox="0 0 24 24" fill="currentColor" aria-hidden="true">
  <g clip-path="url(#clip0_363_3677)">
    <path d="M0 0h24v24H0z"/>
    <path stroke="#C4C4C4" stroke-width=".13" d="M0 0h24M0 0v24M0 0l24 24m0-24v24m0-24L0 24m24 0H0"/>
    <circle cx="12" cy="12" r="10" stroke="#C4C4C4" stroke-width=".13"/>
    <rect width="20" height="16" x="2" y="4" stroke="#C4C4C4" stroke-width=".13" rx="1"/>
    <rect width="16" height="20" x="4" y="2" stroke="#C4C4C4" stroke-width=".13" rx="1"/>
    <rect width="18" height="18" x="3" y="3" stroke="#C4C4C4" stroke-width=".13" rx="1"/>
    <circle cx="12" cy="12" r="4" stroke="#C4C4C4" stroke-width=".13"/>
    <path fill-rule="evenodd" d="M4.112 2.91C5.309 1.72 9.754 1.615 12 3.082c1.61 1.053 4.842 1.681 6.823.863.442-.183 1.177.135 1.177.614v10.034a.45.45 0 01-.108.3c-1.597 1.799-5.938 1.146-7.892-.131-1.329-.868-3.426-1.186-5.166-1.055-.485.036-.834.457-.834.942V21a1 1 0 11-2 0V3.205c0-.11.034-.218.112-.296z" clip-rule="evenodd"/>
  </g>
  <defs>
    <clipPath id="clip0_363_3677">
      <path d="M0 0h24v24H0z"/>
    </clipPath>
  </defs>
</svg>
