<svg xmlns="http://www.w3.org/2000/svg" viewBox="0 0 24 24" fill="currentColor" aria-hidden="true">
  <g clip-path="url(#clip0_363_3782)">
    <path d="M0 0h24v24H0z"/>
    <path stroke="#C4C4C4" stroke-width=".13" d="M0 0h24M0 0v24M0 0l24 24m0-24v24m0-24L0 24m24 0H0"/>
    <circle cx="12" cy="12" r="10" stroke="#C4C4C4" stroke-width=".13"/>
    <rect width="20" height="16" x="2" y="4" stroke="#C4C4C4" stroke-width=".13" rx="1"/>
    <rect width="16" height="20" x="4" y="2" stroke="#C4C4C4" stroke-width=".13" rx="1"/>
    <rect width="18" height="18" x="3" y="3" stroke="#C4C4C4" stroke-width=".13" rx="1"/>
    <circle cx="12" cy="12" r="4" stroke="#C4C4C4" stroke-width=".13"/>
    <path fill-rule="evenodd" d="M4 20a2 2 0 01-2-2V5a2 2 0 012-2h5.5L12 5.656h8a2 2 0 012 2V18a2 2 0 01-2 2H4zm4-6v-2h3V9h2v3h3v2h-3v3h-2v-3H8z" clip-rule="evenodd"/>
  </g>
  <defs>
    <clipPath id="clip0_363_3782">
      <path d="M0 0h24v24H0z"/>
    </clipPath>
  </defs>
</svg>
