<svg xmlns="http://www.w3.org/2000/svg" viewBox="0 0 24 24" fill="currentColor" aria-hidden="true">
  <g clip-path="url(#clip0_363_3827)">
    <path d="M0 0h24v24H0z"/>
    <path stroke="#C4C4C4" stroke-width=".13" d="M0 0h24M0 0v24M0 0l24 24m0-24v24m0-24L0 24m24 0H0"/>
    <circle cx="12" cy="12" r="10" stroke="#C4C4C4" stroke-width=".13"/>
    <rect width="20" height="16" x="2" y="4" stroke="#C4C4C4" stroke-width=".13" rx="1"/>
    <rect width="16" height="20" x="4" y="2" stroke="#C4C4C4" stroke-width=".13" rx="1"/>
    <rect width="18" height="18" x="3" y="3" stroke="#C4C4C4" stroke-width=".13" rx="1"/>
    <circle cx="12" cy="12" r="4" stroke="#C4C4C4" stroke-width=".13"/>
    <path stroke="#000" stroke-width="2" d="M16 4c-2 0-3.5 2.5-3.5 4h4c3 0 2-4-.5-4zM8.35 4c2 0 3.5 2.5 3.5 4h-4c-3 0-2-4 .5-4z"/>
    <path fill-rule="evenodd" d="M12.5 21H19a1 1 0 001-1v-8h-7.5v9zm-1-9H4v8a1 1 0 001 1h6.5v-9z" clip-rule="evenodd"/>
    <path d="M2 8a1 1 0 011-1h18a1 1 0 011 1v2a1 1 0 01-1 1H3a1 1 0 01-1-1V8z"/>
  </g>
  <defs>
    <clipPath id="clip0_363_3827">
      <path d="M0 0h24v24H0z"/>
    </clipPath>
  </defs>
</svg>
