<svg xmlns="http://www.w3.org/2000/svg" viewBox="0 0 24 24" fill="currentColor" aria-hidden="true">
  <path fill-rule="evenodd" d="M19.286 7c.087-.399.08-.807.01-1.184C19.04 4.453 17.835 3 16 3c-1.433 0-2.568.886-3.293 1.828a6.29 6.29 0 00-.532.818 6.28 6.28 0 00-.532-.818C10.918 3.886 9.783 3 8.35 3 6.515 3 5.31 4.453 5.055 5.816c-.071.377-.078.785.01 1.184H3a1 1 0 00-1 1v2a1 1 0 001 1h18a1 1 0 001-1V8a1 1 0 00-1-1h-1.714zM7.103 6.764c.055.072.226.236.747.236h2.76a4.289 4.289 0 00-.553-.953C9.532 5.364 8.917 5 8.35 5c-.665 0-1.21.547-1.33 1.184-.055.297.01.486.083.58zM13.74 7h2.76c.52 0 .692-.164.747-.236.073-.094.138-.283.083-.58C17.21 5.547 16.665 5 16 5c-.567 0-1.182.364-1.707 1.047-.238.31-.422.64-.553.953z" clip-rule="evenodd"/>
  <path d="M12.5 21H19a1 1 0 001-1v-8h-7.5v9zM11.5 12H4v8a1 1 0 001 1h6.5v-9z"/>
</svg>
