<svg xmlns="http://www.w3.org/2000/svg" viewBox="0 0 24 24" fill="currentColor" aria-hidden="true">
  <g clip-path="url(#clip0_365_4404)">
    <path d="M0 0h24v24H0z"/>
    <path stroke="#C4C4C4" stroke-width=".13" d="M0 0h24M0 0v24M0 0l24 24m0-24v24m0-24L0 24m24 0H0"/>
    <circle cx="12" cy="12" r="10" stroke="#C4C4C4" stroke-width=".13"/>
    <rect width="20" height="16" x="2" y="4" stroke="#C4C4C4" stroke-width=".13" rx="1"/>
    <rect width="16" height="20" x="4" y="2" stroke="#C4C4C4" stroke-width=".13" rx="1"/>
    <rect width="18" height="18" x="3" y="3" stroke="#C4C4C4" stroke-width=".13" rx="1"/>
    <circle cx="12" cy="12" r="4" stroke="#C4C4C4" stroke-width=".13"/>
    <mask id="a">
      <path fill-rule="evenodd" d="M2.013 13a.998.998 0 01.038-.154l2.493-7.478A2 2 0 016.442 4h11.116a2 2 0 011.898 1.368l2.493 7.478c.016.05.03.102.038.154H22v6a2 2 0 01-2 2H4a2 2 0 01-2-2v-6h.013zm17.879 0h-4.009l-1.509 2.514a1 1 0 01-.857.486H10.45a1 1 0 01-.8-.4L7.7 13H4.108l2.334-7h11.116l2.334 7z" clip-rule="evenodd"/>
    </mask>
    <path fill-rule="evenodd" d="M2.013 13a.998.998 0 01.038-.154l2.493-7.478A2 2 0 016.442 4h11.116a2 2 0 011.898 1.368l2.493 7.478c.016.05.03.102.038.154H22v6a2 2 0 01-2 2H4a2 2 0 01-2-2v-6h.013zm17.879 0h-4.009l-1.509 2.514a1 1 0 01-.857.486H10.45a1 1 0 01-.8-.4L7.7 13H4.108l2.334-7h11.116l2.334 7z" clip-rule="evenodd"/>
    <path d="M2.051 12.846l-1.897-.632 1.897.632zM2.013 13v2h1.698l.276-1.675L2.013 13zm2.531-7.632l-1.897-.633 1.897.633zm14.912 0L17.558 6l1.898-.632zm2.493 7.478l1.897-.632-1.897.632zm.038.154l-1.974.325L20.29 15h1.698v-2zM22 13h2v-2h-2v2zM2 13v-2H0v2h2zm13.883 0v-2h-1.132l-.583.971L15.883 13zm4.009 0v2h2.775l-.878-2.633-1.897.633zm-5.518 2.514l1.715 1.03-1.715-1.03zM9.65 15.6l1.6-1.2-1.6 1.2zM7.7 13l1.6-1.2-.6-.8h-1v2zm-3.592 0l-1.897-.633L1.333 15h2.775v-2zm2.334-7V4H5l-.456 1.368L6.442 6zm11.116 0l1.898-.632L19 4h-1.442v2zM.154 12.214c-.05.15-.089.305-.114.461l3.947.65a1.002 1.002 0 01-.038.154L.154 12.213zm2.493-7.479L.154 12.214l3.795 1.264L6.442 6 2.647 4.735zM6.442 2a4 4 0 00-3.795 2.735L6.442 6V2zm11.116 0H6.442v4h11.116V2zm3.795 2.735A4 4 0 0017.558 2v4l3.795-1.265zm2.493 7.479l-2.493-7.479L17.558 6l2.493 7.479 3.795-1.265zm.114.461a3.005 3.005 0 00-.114-.461l-3.795 1.264a.995.995 0 01-.038-.153l3.947-.65zM21.987 15H22v-4h-.013v4zM20 13v.162h4V13h-4zm0 .162V18.5h4v-5.338h-4zM24 19v-.5h-4v.5h4zm-4 4a4 4 0 004-4h-4v4zM4 23h16v-4H4v4zm-4-4a4 4 0 004 4v-4H0zm0-.5v.5h4v-.5H0zm4 0v-5.338H0V18.5h4zm0-5.338V13H0v.162h4zM2 15h.013v-4H2v4zm13.883 0h4.009v-4h-4.009v4zm.206 1.544l1.51-2.515-3.43-2.058-1.51 2.514 3.43 2.059zM13.517 18a3 3 0 002.572-1.456l-3.43-2.059a1 1 0 01.858-.485v4zM12 18h1.517v-4H12v4zm-1.55 0H12v-4h-1.55v4zm-2.4-1.2a3 3 0 002.4 1.2v-4a1 1 0 01.8.4l-3.2 2.4zM6.1 14.2l1.95 2.6 3.2-2.4-1.95-2.6-3.2 2.4zm-1.992.8H7.7v-4H4.108v4zm.436-9.632l-2.333 7 3.795 1.264 2.333-7-3.795-1.264zM17.558 4H6.442v4h11.116V4zm4.231 8.367l-2.333-7-3.795 1.265 2.333 7 3.795-1.264z" mask="url(#a)"/>
  </g>
  <defs>
    <clipPath id="clip0_365_4404">
      <path d="M0 0h24v24H0z"/>
    </clipPath>
  </defs>
</svg>
