<svg xmlns="http://www.w3.org/2000/svg" viewBox="0 0 24 24" fill="currentColor" aria-hidden="true">
  <path d="M19.375 3.207c.32.136.61.336.854.589.244.252.438.551.57.88a2.79 2.79 0 010 2.08c-.132.329-.326.628-.57.88l-3.511 3.623a1 1 0 01-1.436 0L11.77 7.636A2.76 2.76 0 0111 5.716c0-.72.277-1.411.77-1.92A2.591 2.591 0 0113.633 3c.698 0 1.367.286 1.86.796l.508.523.507-.523c.244-.253.534-.453.854-.59a2.561 2.561 0 012.014 0zM10.3 12H3.7a1 1 0 01-.875-1.486l3.3-5.94a1 1 0 011.75 0l3.3 5.94A1 1 0 0110.3 12zM11 17.5a4.5 4.5 0 11-9 0 4.5 4.5 0 019 0zM13 13a1 1 0 00-1 1v7a1 1 0 001 1h7a1 1 0 001-1v-7a1 1 0 00-1-1h-7z"/>
</svg>
