<svg xmlns="http://www.w3.org/2000/svg" viewBox="0 0 24 24" fill="currentColor" aria-hidden="true">
  <path d="M13.124 13a1 1 0 10-.005-2l.005 2zm-9.126-1.98a1 1 0 00.004 2l-.004-2zM14.12 12l.707.707a1 1 0 000-1.414l-.707.707zm-3.293-4.707a1 1 0 00-1.414 1.414l1.415-1.414zm-1.414 8a1 1 0 101.415 1.414l-1.415-1.414zM14 2a1 1 0 100 2V2zm0 18a1 1 0 100 2v-2zm-.88-9l-9.122.02.004 2 9.122-.02-.005-2zm1.709.293l-4-4-1.415 1.414 4 4 1.415-1.414zm-1.415 0l-4 4 1.415 1.414 4-4-1.415-1.414zM14 4h4V2h-4v2zm5 1v14h2V5h-2zm-1 15h-4v2h4v-2zm1-1a1 1 0 01-1 1v2a3 3 0 003-3h-2zM18 4a1 1 0 011 1h2a3 3 0 00-3-3v2z"/>
</svg>
