<svg xmlns="http://www.w3.org/2000/svg" viewBox="0 0 24 24" fill="currentColor" aria-hidden="true">
  <path d="M19.002 13a1 1 0 10-.004-2l.004 2zm-9.126-1.98a1 1 0 00.005 2l-.005-2zM20 12l.707.707a1 1 0 000-1.414L20 12zm-3.293-4.707a1 1 0 10-1.414 1.414l1.414-1.414zm-1.414 8a1 1 0 101.414 1.414l-1.414-1.414zM10 22a1 1 0 100-2v2zm-4-1v1-1zm-2-2h1-1zM4 5H3h1zm2-2V2v1zm4 1a1 1 0 100-2v2zm8.998 7l-9.122.02.005 2 9.121-.02-.004-2zm1.71.293l-4-4-1.415 1.414 4 4 1.414-1.414zm-1.415 0l-4 4 1.414 1.414 4-4-1.414-1.414zM10 20H6v2h4v-2zm-5-1V5H3v14h2zM6 4h4V2H6v2zM5 5a1 1 0 011-1V2a3 3 0 00-3 3h2zm1 15a1 1 0 01-1-1H3a3 3 0 003 3v-2z"/>
</svg>
