<svg xmlns="http://www.w3.org/2000/svg" viewBox="0 0 24 24" fill="currentColor" aria-hidden="true">
  <path d="M0 0h24v24H0z"/>
  <path stroke="#000" stroke-linecap="round" stroke-width="2" d="M13.121 12L4 12.02"/>
  <path d="M14.121 12l.707.707a1 1 0 000-1.414l-.707.707zm-3.293-4.707a1 1 0 00-1.414 1.414l1.415-1.414zm-1.414 8a1 1 0 101.415 1.414l-1.415-1.414zm5.415-4l-4-4-1.415 1.414 4 4 1.415-1.414zm-1.415 0l-4 4 1.415 1.414 4-4-1.415-1.414z"/>
  <path stroke="#000" stroke-linecap="round" stroke-width="2" d="M14 3h4a2 2 0 012 2v14a2 2 0 01-2 2h-4"/>
</svg>
