<svg xmlns="http://www.w3.org/2000/svg" viewBox="0 0 24 24" fill="currentColor" aria-hidden="true">
  <path d="M0 0h24v24H0z"/>
  <path stroke="#000" stroke-linecap="round" stroke-width="2" d="M19 12l-9.121.02"/>
  <path d="M20 12l.707.707a1 1 0 000-1.414L20 12zm-3.293-4.707a1 1 0 10-1.414 1.414l1.414-1.414zm-1.414 8a1 1 0 101.414 1.414l-1.414-1.414zm5.414-4l-4-4-1.414 1.414 4 4 1.414-1.414zm-1.414 0l-4 4 1.414 1.414 4-4-1.414-1.414z"/>
  <path stroke="#000" stroke-linecap="round" stroke-width="2" d="M10 21H6a2 2 0 01-2-2V5a2 2 0 012-2h4"/>
</svg>
