<svg xmlns="http://www.w3.org/2000/svg" viewBox="0 0 24 24" fill="currentColor" aria-hidden="true">
  <path d="M9.657 3a1 1 0 10-2 0h2zm-3 5.657v1-1zM3 7.657a1 1 0 000 2v-2zm12.328 9.671h-1 1zm-1 3.657a1 1 0 102 0h-2zm3-5.657v-1 1zm3.657 1a1 1 0 000-2v2zm0-6.671a1 1 0 000-2v2zm-5.657-3h-1 1zm1-3.657a1 1 0 10-2 0h2zM6.657 15.33v-1 1zm-3.657-1a1 1 0 100 2v-2zm5.657 3h1-1zm-1 3.656a1 1 0 102 0h-2zm2-14.328V3h-2v3.657h2zm-3 1H3v2h3.657v-2zm1-1a1 1 0 01-1 1v2a3 3 0 003-3h-2zm6.671 10.671v3.657h2v-3.657h-2zm3-1h3.657v-2h-3.657v2zm-1 1a1 1 0 011-1v-2a3 3 0 00-3 3h2zm1-7.671h3.657v-2h-3.657v2zm-1-3V3h-2v3.657h2zm1 1a1 1 0 01-1-1h-2a3 3 0 003 3v-2zM6.657 14.328H3v2h3.657v-2zm1 3v3.657h2v-3.657h-2zm-1-1a1 1 0 011 1h2a3 3 0 00-3-3v2z"/>
</svg>
