<svg xmlns="http://www.w3.org/2000/svg" viewBox="0 0 24 24" fill="currentColor" aria-hidden="true">
  <path d="M0 0h24v24H0z"/>
  <path d="M8.657 6.657h-1 1zm1-3.657a1 1 0 10-2 0h2zm-3 5.657v1-1zM3 7.657a1 1 0 100 2v-2zm6.657-1V3h-2v3.657h2zm-3 1H3v2h3.657v-2zm1-1a1 1 0 01-1 1v2a3 3 0 003-3h-2zM15.328 17.328h1-1zm-1 3.657a1 1 0 002 0h-2zm3-5.656v-1 1zm3.657 1a1 1 0 100-2v2zm-6.657 1v3.656h2v-3.657h-2zm3-1h3.657v-2h-3.657v2zm-1 1a1 1 0 011-1v-2a3 3 0 00-3 3h2zM17.328 8.657v-1 1zm3.657 1a1 1 0 000-2v2zm-5.657-3h-1 1zm1-3.657a1 1 0 10-2 0h2zm1 6.657h3.657v-2h-3.657v2zm-1-3V3h-2v3.657h2zm1 1a1 1 0 01-1-1h-2a3 3 0 003 3v-2zM6.657 15.329v1-1zm-3.657-1a1 1 0 100 2v-2zm5.657 3h1-1zm-1 3.656a1 1 0 102 0h-2zm-1-6.656H3v2h3.657v-2zm1 3v3.656h2V17.33h-2zm-1-1a1 1 0 011 1h2a3 3 0 00-3-3v2z"/>
</svg>
