<svg xmlns="http://www.w3.org/2000/svg" viewBox="0 0 24 24" fill="currentColor" aria-hidden="true">
  <path d="M3.707 1.293a1 1 0 00-1.414 1.414l3.5 3.5c-.087.144-.191.385-.293.793-.21.842-.266 1.752-.325 2.72-.082 1.328-.17 2.764-.675 4.28-.075.225-.14.441-.205.655-.254.842-.497 1.648-1.295 2.845-.77 1.155-.485 1.5 0 1.5h15.586l2.207 2.207a1 1 0 001.414-1.414l-18.5-18.5zM8 3.5l11 11c-.537-2.686-.59-4.254-.628-5.42-.033-1.005-.057-1.713-.372-2.58-2.068-5.688-7.5-4.5-8.5-4-.632.316-1.5 1-1.5 1z"/>
  <path d="M12 23a3 3 0 01-3-3h6a3 3 0 01-3 3z"/>
</svg>
