<svg xmlns="http://www.w3.org/2000/svg" viewBox="0 0 24 24" fill="currentColor" aria-hidden="true">
  <path fill-rule="evenodd" d="M14.296 3.182A1.56 1.56 0 0012.782 2h-1.564a1.56 1.56 0 00-1.513 1.182 1.56 1.56 0 01-2.317.96 1.56 1.56 0 00-1.906.234L4.376 5.482a1.56 1.56 0 00-.234 1.906 1.56 1.56 0 01-.96 2.317A1.56 1.56 0 002 11.218v1.564c0 .716.487 1.34 1.182 1.514a1.56 1.56 0 01.96 2.316 1.56 1.56 0 00.234 1.906l1.106 1.106a1.56 1.56 0 001.906.234 1.56 1.56 0 012.317.96A1.56 1.56 0 0011.218 22h1.564a1.56 1.56 0 001.514-1.182 1.56 1.56 0 012.316-.96 1.56 1.56 0 001.906-.234l1.106-1.106a1.56 1.56 0 00.234-1.906 1.56 1.56 0 01.96-2.316A1.56 1.56 0 0022 12.782v-1.564a1.56 1.56 0 00-1.182-1.513 1.56 1.56 0 01-.96-2.317 1.56 1.56 0 00-.234-1.906l-1.106-1.106a1.56 1.56 0 00-1.906-.234 1.56 1.56 0 01-2.316-.96zM12 16a4 4 0 100-8 4 4 0 000 8z" clip-rule="evenodd"/>
</svg>
