<svg xmlns="http://www.w3.org/2000/svg" viewBox="0 0 24 24" fill="currentColor" aria-hidden="true">
  <g clip-path="url(#clip0_358_1719)">
    <path d="M0 0h24v24H0z"/>
    <path stroke="#C4C4C4" stroke-width=".13" d="M0 0h24M0 0v24M0 0l24 24m0-24v24m0-24L0 24m24 0H0"/>
    <circle cx="12" cy="12" r="10" stroke="#C4C4C4" stroke-width=".13"/>
    <rect width="20" height="16" x="2" y="4" stroke="#C4C4C4" stroke-width=".13" rx="1"/>
    <rect width="16" height="20" x="4" y="2" stroke="#C4C4C4" stroke-width=".13" rx="1"/>
    <rect width="18" height="18" x="3" y="3" stroke="#C4C4C4" stroke-width=".13" rx="1"/>
    <circle cx="12" cy="12" r="4" stroke="#C4C4C4" stroke-width=".13"/>
    <path stroke="#000" stroke-linecap="round" stroke-width="2" d="M7 4v15"/>
    <path d="M7 3l.707-.707a1 1 0 00-1.414 0L7 3zM2.293 6.293a1 1 0 001.414 1.414L2.293 6.293zm8 1.414a1 1 0 101.414-1.414l-1.414 1.414zm-4-5.414l-4 4 1.414 1.414 4-4-1.414-1.414zm0 1.414l4 4 1.414-1.414-4-4-1.414 1.414z"/>
    <path stroke="#000" stroke-linecap="round" stroke-width="2" d="M17 20V5"/>
    <path d="M17 21l-.707.707a1 1 0 001.414 0L17 21zm4.707-3.293a1 1 0 00-1.414-1.414l1.414 1.414zm-8-1.414a1 1 0 00-1.414 1.414l1.414-1.414zm4 5.414l4-4-1.414-1.414-4 4 1.414 1.414zm0-1.414l-4-4-1.414 1.414 4 4 1.414-1.414z"/>
  </g>
  <defs>
    <clipPath id="clip0_358_1719">
      <path d="M0 0h24v24H0z"/>
    </clipPath>
  </defs>
</svg>
