<svg xmlns="http://www.w3.org/2000/svg" viewBox="0 0 24 24" fill="currentColor" aria-hidden="true">
  <g clip-path="url(#clip0_331_243)">
    <path d="M0 0h24v24H0z"/>
    <path stroke="#C4C4C4" stroke-width=".13" d="M0 0h24M0 0v24M0 0l24 24m0-24v24m0-24L0 24m24 0H0"/>
    <circle cx="12" cy="12" r="10" stroke="#C4C4C4" stroke-width=".13"/>
    <rect width="20" height="16" x="2" y="4" stroke="#C4C4C4" stroke-width=".13" rx="1"/>
    <rect width="16" height="20" x="4" y="2" stroke="#C4C4C4" stroke-width=".13" rx="1"/>
    <rect width="18" height="18" x="3" y="3" stroke="#C4C4C4" stroke-width=".13" rx="1"/>
    <circle cx="12" cy="12" r="4" stroke="#C4C4C4" stroke-width=".13"/>
    <path fill-rule="evenodd" d="M8 4a2 2 0 012-2h4a2 2 0 012 2v1h4a1 1 0 110 2H4a1 1 0 010-2h4V4zm11 4H5v10a3 3 0 003 3h8a3 3 0 003-3V8zm-9 9.75a.75.75 0 01-.75-.75v-6a.75.75 0 011.5 0v6a.75.75 0 01-.75.75zm3.25-.75a.75.75 0 001.5 0v-6a.75.75 0 00-1.5 0v6z" clip-rule="evenodd"/>
  </g>
  <defs>
    <clipPath id="clip0_331_243">
      <path d="M0 0h24v24H0z"/>
    </clipPath>
  </defs>
</svg>
