<svg xmlns="http://www.w3.org/2000/svg" viewBox="0 0 24 24" fill="currentColor" aria-hidden="true">
  <g clip-path="url(#clip0_358_2634)">
    <path d="M0 0h24v24H0z"/>
    <path stroke="#C4C4C4" stroke-width=".13" d="M0 0h24M0 0v24M0 0l24 24m0-24v24m0-24L0 24m24 0H0"/>
    <circle cx="12" cy="12" r="10" stroke="#C4C4C4" stroke-width=".13"/>
    <rect width="20" height="16" x="2" y="4" stroke="#C4C4C4" stroke-width=".13" rx="1"/>
    <rect width="16" height="20" x="4" y="2" stroke="#C4C4C4" stroke-width=".13" rx="1"/>
    <rect width="18" height="18" x="3" y="3" stroke="#C4C4C4" stroke-width=".13" rx="1"/>
    <circle cx="12" cy="12" r="4" stroke="#C4C4C4" stroke-width=".13"/>
    <path stroke="#000" stroke-linecap="round" stroke-width="2" d="M12 5l.02 9.121"/>
    <path d="M12 4l.707-.707a1 1 0 00-1.414 0L12 4zM7.293 7.293a1 1 0 001.414 1.414L7.293 7.293zm8 1.414a1 1 0 101.414-1.414l-1.414 1.414zm-4-5.414l-4 4 1.414 1.414 4-4-1.414-1.414zm0 1.414l4 4 1.414-1.414-4-4-1.414 1.414z"/>
    <path stroke="#000" stroke-linecap="round" stroke-width="2" d="M21 14v4a2 2 0 01-2 2H5a2 2 0 01-2-2v-4"/>
  </g>
  <defs>
    <clipPath id="clip0_358_2634">
      <path d="M0 0h24v24H0z"/>
    </clipPath>
  </defs>
</svg>
