<svg xmlns="http://www.w3.org/2000/svg" viewBox="0 0 24 24" fill="currentColor" aria-hidden="true">
  <path d="M13 4.998a1 1 0 00-2 .004l2-.004zm-1.98 9.126a1 1 0 102-.005l-2 .005zM12 4l.707-.707a1 1 0 00-1.414 0L12 4zM7.293 7.293a1 1 0 001.414 1.414L7.293 7.293zm8 1.414a1 1 0 101.414-1.414l-1.414 1.414zM22 14a1 1 0 10-2 0h2zm-1 4h-1 1zm-2 2v1-1zM5 20v-1 1zm-2-2h1-1zm1-4a1 1 0 10-2 0h2zm7-8.998l.02 9.122 2-.005L13 4.998l-2 .004zm.293-1.71l-4 4 1.414 1.415 4-4-1.414-1.414zm0 1.415l4 4 1.414-1.414-4-4-1.414 1.414zM20 14v4h2v-4h-2zm-1 5H5v2h14v-2zM4 18v-4H2v4h2zm1 1a1 1 0 01-1-1H2a3 3 0 003 3v-2zm15-1a1 1 0 01-1 1v2a3 3 0 003-3h-2z"/>
</svg>
