<svg xmlns="http://www.w3.org/2000/svg" viewBox="0 0 24 24" fill="currentColor" aria-hidden="true">
  <g clip-path="url(#clip0_331_138)">
    <path d="M0 0h24v24H0z"/>
    <path stroke="#C4C4C4" stroke-width=".13" d="M0 0h24M0 0v24M0 0l24 24m0-24v24m0-24L0 24m24 0H0"/>
    <circle cx="12" cy="12" r="10" stroke="#C4C4C4" stroke-width=".13"/>
    <rect width="20" height="16" x="2" y="4" stroke="#C4C4C4" stroke-width=".13" rx="1"/>
    <rect width="16" height="20" x="4" y="2" stroke="#C4C4C4" stroke-width=".13" rx="1"/>
    <rect width="18" height="18" x="3" y="3" stroke="#C4C4C4" stroke-width=".13" rx="1"/>
    <circle cx="12" cy="12" r="4" stroke="#C4C4C4" stroke-width=".13"/>
    <circle cx="12" cy="7" r="5"/>
    <path d="M3 17.5A4.5 4.5 0 017.5 13h9a4.5 4.5 0 014.5 4.5V20a1 1 0 01-1 1H4a1 1 0 01-1-1v-2.5z"/>
  </g>
  <defs>
    <clipPath id="clip0_331_138">
      <path d="M0 0h24v24H0z"/>
    </clipPath>
  </defs>
</svg>
