<svg xmlns="http://www.w3.org/2000/svg" viewBox="0 0 24 24" fill="currentColor" aria-hidden="true">
  <g clip-path="url(#clip0_350_467)">
    <path d="M0 0h24v24H0z"/>
    <path stroke="#C4C4C4" stroke-width=".13" d="M0 0h24M0 0v24M0 0l24 24m0-24v24m0-24L0 24m24 0H0"/>
    <circle cx="12" cy="12" r="10" stroke="#C4C4C4" stroke-width=".13"/>
    <rect width="20" height="16" x="2" y="4" stroke="#C4C4C4" stroke-width=".13" rx="1"/>
    <rect width="16" height="20" x="4" y="2" stroke="#C4C4C4" stroke-width=".13" rx="1"/>
    <rect width="18" height="18" x="3" y="3" stroke="#C4C4C4" stroke-width=".13" rx="1"/>
    <circle cx="12" cy="12" r="4" stroke="#C4C4C4" stroke-width=".13"/>
    <path fill-rule="evenodd" d="M12 22c5.523 0 10-4.477 10-10S17.523 2 12 2 2 6.477 2 12s4.477 10 10 10zM9.707 8.293a1 1 0 00-1.414 1.414L10.586 12l-2.293 2.293a1 1 0 101.414 1.414L12 13.414l2.293 2.293a1 1 0 001.414-1.414L13.414 12l2.293-2.293a1 1 0 00-1.414-1.414L12 10.586 9.707 8.293z" clip-rule="evenodd"/>
  </g>
  <defs>
    <clipPath id="clip0_350_467">
      <path d="M0 0h24v24H0z"/>
    </clipPath>
  </defs>
</svg>
