<svg xmlns="http://www.w3.org/2000/svg" viewBox="0 0 24 24" fill="currentColor" aria-hidden="true">
  <path d="M0 0h24v24H0z"/>
  <mask id="a">
    <path fill-rule="evenodd" d="M5 3a2 2 0 00-2 2v14a2 2 0 002 2h14a2 2 0 002-2V5a2 2 0 00-2-2H5zm4.707 5.293a1 1 0 00-1.414 1.414L10.586 12l-2.293 2.293a1 1 0 101.414 1.414L12 13.414l2.293 2.293a1 1 0 001.414-1.414L13.414 12l2.293-2.293a1 1 0 00-1.414-1.414L12 10.586 9.707 8.293z" clip-rule="evenodd"/>
  </mask>
  <path fill-rule="evenodd" d="M5 3a2 2 0 00-2 2v14a2 2 0 002 2h14a2 2 0 002-2V5a2 2 0 00-2-2H5zm4.707 5.293a1 1 0 00-1.414 1.414L10.586 12l-2.293 2.293a1 1 0 101.414 1.414L12 13.414l2.293 2.293a1 1 0 001.414-1.414L13.414 12l2.293-2.293a1 1 0 00-1.414-1.414L12 10.586 9.707 8.293z" clip-rule="evenodd"/>
  <path d="M8.293 8.293l1.414 1.414-1.414-1.414zm1.414 0L8.293 9.707l1.414-1.414zM8.293 9.707l1.414-1.414-1.414 1.414zM10.586 12L12 13.414 13.414 12 12 10.586 10.586 12zm-2.293 2.293l1.414 1.414-1.414-1.414zm0 1.414l1.414-1.414-1.414 1.414zm1.414 0l-1.414-1.414 1.414 1.414zM12 13.414L13.414 12 12 10.586 10.586 12 12 13.414zm2.293 2.293l1.414-1.414-1.414 1.414zm1.414 0l-1.414-1.414 1.414 1.414zm0-1.414l-1.414 1.414 1.414-1.414zM13.414 12L12 10.586 10.586 12 12 13.414 13.414 12zm2.293-2.293l-1.414-1.414 1.414 1.414zm0-1.414l-1.414 1.414 1.414-1.414zm-1.414 0l1.414 1.414-1.414-1.414zM12 10.586L10.586 12 12 13.414 13.414 12 12 10.586zM5 5V1a4 4 0 00-4 4h4zm0 14V5H1v14h4zm0 0H1a4 4 0 004 4v-4zm14 0H5v4h14v-4zm0 0v4a4 4 0 004-4h-4zm0-14v14h4V5h-4zm0 0h4a4 4 0 00-4-4v4zM5 5h14V1H5v4zm4.707 4.707a1 1 0 01-1.414 0L11.12 6.88a3 3 0 00-4.242 0l2.828 2.828zm0-1.414a1 1 0 010 1.414L6.88 6.88a3 3 0 000 4.242l2.828-2.828zM12 10.586L9.707 8.293 6.88 11.12l2.293 2.293L12 10.586zm-2.293 5.121L12 13.414l-2.828-2.828-2.293 2.293 2.828 2.828zm0-1.414a1 1 0 010 1.414L6.88 12.88a3 3 0 000 4.242l2.828-2.828zm-1.414 0a1 1 0 011.414 0L6.88 17.12a3 3 0 004.242 0l-2.828-2.828zM10.586 12l-2.293 2.293 2.828 2.828 2.293-2.293L10.586 12zm5.121 2.293L13.414 12l-2.828 2.828 2.293 2.293 2.828-2.828zm-1.414 0a1 1 0 011.414 0L12.88 17.12a3 3 0 004.242 0l-2.828-2.828zm0 1.414a1 1 0 010-1.414l2.828 2.828a3 3 0 000-4.242l-2.828 2.828zM12 13.414l2.293 2.293 2.828-2.828-2.293-2.293L12 13.414zm2.293-5.121L12 10.586l2.828 2.828 2.293-2.293-2.828-2.828zm0 1.414a1 1 0 010-1.414l2.828 2.828a3 3 0 000-4.242l-2.828 2.828zm1.414 0a1 1 0 01-1.414 0L17.12 6.88a3 3 0 00-4.242 0l2.828 2.828zM13.414 12l2.293-2.293L12.88 6.88l-2.293 2.293L13.414 12zM8.293 9.707L10.586 12l2.828-2.828-2.293-2.293-2.828 2.828z" mask="url(#a)"/>
</svg>
