<svg width="24" height="24" viewBox="0 0 24 24" fill="none" xmlns="http://www.w3.org/2000/svg">
<g clip-path="url(#clip0_363_3599)">
<rect width="24" height="24" fill="white"/>
<path d="M0 0H24M0 0V24M0 0L24 24M24 0V24M24 0L0 24M24 24H0" stroke="#C4C4C4" stroke-width="0.13"/>
<circle cx="12" cy="12" r="10" stroke="#C4C4C4" stroke-width="0.13"/>
<rect x="2" y="4" width="20" height="16" rx="1" stroke="#C4C4C4" stroke-width="0.13"/>
<rect x="4" y="2" width="16" height="20" rx="1" stroke="#C4C4C4" stroke-width="0.13"/>
<rect x="3" y="3" width="18" height="18" rx="1" stroke="#C4C4C4" stroke-width="0.13"/>
<circle cx="12" cy="12" r="4" stroke="#C4C4C4" stroke-width="0.13"/>
<path d="M7 8L7 5" stroke="black" stroke-width="2" stroke-linecap="round"/>
<path d="M17 11L17 5" stroke="black" stroke-width="2" stroke-linecap="round"/>
<path d="M12 16L12 19" stroke="black" stroke-width="2" stroke-linecap="round"/>
<path d="M6 19C6 19.5523 6.44772 20 7 20C7.55228 20 8 19.5523 8 19L6 19ZM8 11L8 10L6 10L6 11L8 11ZM8 19L8 11L6 11L6 19L8 19Z" fill="black"/>
<path d="M16 19C16 19.5523 16.4477 20 17 20C17.5523 20 18 19.5523 18 19L16 19ZM18 14L18 13L16 13L16 14L18 14ZM18 19L18 14L16 14L16 19L18 19Z" fill="black"/>
<path d="M13 5C13 4.44772 12.5523 4 12 4C11.4477 4 11 4.44772 11 5L13 5ZM11 13L11 14L13 14L13 13L11 13ZM11 5L11 13L13 13L13 5L11 5Z" fill="black"/>
<path d="M5 8L9 8" stroke="black" stroke-width="2" stroke-linecap="round"/>
<path d="M15 11L19 11" stroke="black" stroke-width="2" stroke-linecap="round"/>
<path d="M14 16L10 16" stroke="black" stroke-width="2" stroke-linecap="round"/>
</g>
<defs>
<clipPath id="clip0_363_3599">
<rect width="24" height="24" fill="white"/>
</clipPath>
</defs>
</svg>
