<svg width="24" height="24" viewBox="0 0 24 24" fill="none" xmlns="http://www.w3.org/2000/svg">
<path d="M15.2917 3H8.70833C8.44312 3 8.18876 3.10536 8.00122 3.29289L3.29289 8.00122C3.10536 8.18876 3 8.44312 3 8.70833V15.2917C3 15.5569 3.10536 15.8112 3.29289 15.9988L8.00122 20.7071C8.18876 20.8946 8.44312 21 8.70833 21H15.2917C15.5569 21 15.8112 20.8946 15.9988 20.7071L20.7071 15.9988C20.8946 15.8112 21 15.5569 21 15.2917V8.70833C21 8.44312 20.8946 8.18876 20.7071 8.00122L15.9988 3.29289C15.8112 3.10536 15.5569 3 15.2917 3Z" stroke="black" stroke-width="2"/>
<path d="M12 8V13" stroke="black" stroke-width="2" stroke-linecap="round"/>
<circle cx="12" cy="16.5" r="0.5" stroke="black"/>
</svg>
