<svg width="24" height="24" viewBox="0 0 24 24" fill="none" xmlns="http://www.w3.org/2000/svg">
<path d="M14.8799 4H9.1201C8.85488 4 8.60053 4.10536 8.41299 4.29289L4.29289 8.41299C4.10536 8.60053 4 8.85488 4 9.1201V14.8799C4 15.1451 4.10536 15.3995 4.29289 15.587L8.41299 19.7071C8.60053 19.8946 8.85488 20 9.1201 20H14.8799C15.1451 20 15.3995 19.8946 15.587 19.7071L19.7071 15.587C19.8946 15.3995 20 15.1451 20 14.8799V9.1201C20 8.85488 19.8946 8.60053 19.7071 8.41299L15.587 4.29289C15.3995 4.10536 15.1451 4 14.8799 4Z" stroke="black" stroke-width="2"/>
<path d="M12 8V13" stroke="black" stroke-width="2" stroke-linecap="round"/>
<path d="M12 16V16.01" stroke="black" stroke-width="2" stroke-linecap="round"/>
</svg>
