<svg width="24" height="24" viewBox="0 0 24 24" fill="none" xmlns="http://www.w3.org/2000/svg">
<rect width="24" height="24" fill="white"/>
<path fill-rule="evenodd" clip-rule="evenodd" d="M12 4L20.6603 19H3.33975L12 4ZM10.2679 3C11.0377 1.66667 12.9622 1.66667 13.732 3L22.3923 18C23.1621 19.3333 22.1999 21 20.6603 21H3.33975C1.80014 21 0.837894 19.3333 1.60769 18L10.2679 3ZM12 8C12.5523 8 13 8.44772 13 9V14C13 14.5523 12.5523 15 12 15C11.4477 15 11 14.5523 11 14V9C11 8.44772 11.4477 8 12 8ZM13 17C13 17.5523 12.5523 18 12 18C11.4477 18 11 17.5523 11 17C11 16.4477 11.4477 16 12 16C12.5523 16 13 16.4477 13 17Z" fill="black"/>
</svg>
