<svg width="24" height="24" viewBox="0 0 24 24" fill="none" xmlns="http://www.w3.org/2000/svg">
<g clip-path="url(#clip0_350_800)">
<rect width="24" height="24" fill="white"/>
<path d="M0 0H24M0 0V24M0 0L24 24M24 0V24M24 0L0 24M24 24H0" stroke="#C4C4C4" stroke-width="0.13"/>
<circle cx="12" cy="12" r="10" stroke="#C4C4C4" stroke-width="0.13"/>
<rect x="2" y="4" width="20" height="16" rx="1" stroke="#C4C4C4" stroke-width="0.13"/>
<rect x="4" y="2" width="16" height="20" rx="1" stroke="#C4C4C4" stroke-width="0.13"/>
<rect x="3" y="3" width="18" height="18" rx="1" stroke="#C4C4C4" stroke-width="0.13"/>
<circle cx="12" cy="12" r="4" stroke="#C4C4C4" stroke-width="0.13"/>
<path fill-rule="evenodd" clip-rule="evenodd" d="M8.6803 3.99084L15.3199 3.99084L20.0148 8.68574L20.0148 15.3253L15.3199 20.0202H8.6803L3.98541 15.3253L3.98541 8.68574L8.6803 3.99084ZM7.26609 2.57663C7.64116 2.20156 8.14987 1.99084 8.6803 1.99084H15.3199C15.8503 1.99084 16.359 2.20156 16.7341 2.57663L21.429 7.27152C21.8041 7.6466 22.0148 8.1553 22.0148 8.68574V15.3253C22.0148 15.8557 21.8041 16.3645 21.429 16.7395L16.7341 21.4344C16.359 21.8095 15.8503 22.0202 15.3199 22.0202H8.6803C8.14987 22.0202 7.64116 21.8095 7.26609 21.4344L2.5712 16.7395C2.19613 16.3645 1.98541 15.8557 1.98541 15.3253V8.68574C1.98541 8.1553 2.19613 7.64659 2.5712 7.27152L7.26609 2.57663ZM12 7.00002C12.5523 7.00002 13 7.44774 13 8.00002V13C13 13.5523 12.5523 14 12 14C11.4477 14 11 13.5523 11 13V8.00002C11 7.44774 11.4477 7.00002 12 7.00002ZM13 16C13 16.5523 12.5523 17 12 17C11.4477 17 11 16.5523 11 16C11 15.4477 11.4477 15 12 15C12.5523 15 13 15.4477 13 16Z" fill="black"/>
</g>
<defs>
<clipPath id="clip0_350_800">
<rect width="24" height="24" fill="white"/>
</clipPath>
</defs>
</svg>
