<svg width="24" height="24" viewBox="0 0 24 24" fill="none" xmlns="http://www.w3.org/2000/svg">
<g clip-path="url(#clip0_365_4033)">
<rect width="24" height="24" fill="white"/>
<path d="M0 0H24M0 0V24M0 0L24 24M24 0V24M24 0L0 24M24 24H0" stroke="#C4C4C4" stroke-width="0.13"/>
<circle cx="12" cy="12" r="10" stroke="#C4C4C4" stroke-width="0.13"/>
<rect x="2" y="4" width="20" height="16" rx="1" stroke="#C4C4C4" stroke-width="0.13"/>
<rect x="4" y="2" width="16" height="20" rx="1" stroke="#C4C4C4" stroke-width="0.13"/>
<rect x="3" y="3" width="18" height="18" rx="1" stroke="#C4C4C4" stroke-width="0.13"/>
<circle cx="12" cy="12" r="4" stroke="#C4C4C4" stroke-width="0.13"/>
<mask id="path-7-inside-1_365_4033" fill="white">
<rect x="2" y="2" width="6" height="6" rx="1"/>
</mask>
<rect x="2" y="2" width="6" height="6" rx="1" stroke="black" stroke-width="4" mask="url(#path-7-inside-1_365_4033)"/>
<mask id="path-8-inside-2_365_4033" fill="white">
<rect x="2" y="9" width="6" height="6" rx="1"/>
</mask>
<rect x="2" y="9" width="6" height="6" rx="1" stroke="black" stroke-width="4" mask="url(#path-8-inside-2_365_4033)"/>
<mask id="path-9-inside-3_365_4033" fill="white">
<rect x="2" y="16" width="6" height="6" rx="1"/>
</mask>
<rect x="2" y="16" width="6" height="6" rx="1" stroke="black" stroke-width="4" mask="url(#path-9-inside-3_365_4033)"/>
<mask id="path-10-inside-4_365_4033" fill="white">
<rect x="9" y="2" width="6" height="6" rx="1"/>
</mask>
<rect x="9" y="2" width="6" height="6" rx="1" stroke="black" stroke-width="4" mask="url(#path-10-inside-4_365_4033)"/>
<mask id="path-11-inside-5_365_4033" fill="white">
<rect x="9" y="9" width="6" height="6" rx="1"/>
</mask>
<rect x="9" y="9" width="6" height="6" rx="1" stroke="black" stroke-width="4" mask="url(#path-11-inside-5_365_4033)"/>
<mask id="path-12-inside-6_365_4033" fill="white">
<rect x="9" y="16" width="6" height="6" rx="1"/>
</mask>
<rect x="9" y="16" width="6" height="6" rx="1" stroke="black" stroke-width="4" mask="url(#path-12-inside-6_365_4033)"/>
<mask id="path-13-inside-7_365_4033" fill="white">
<rect x="16" y="2" width="6" height="6" rx="1"/>
</mask>
<rect x="16" y="2" width="6" height="6" rx="1" stroke="black" stroke-width="4" mask="url(#path-13-inside-7_365_4033)"/>
<mask id="path-14-inside-8_365_4033" fill="white">
<rect x="16" y="9" width="6" height="6" rx="1"/>
</mask>
<rect x="16" y="9" width="6" height="6" rx="1" stroke="black" stroke-width="4" mask="url(#path-14-inside-8_365_4033)"/>
<mask id="path-15-inside-9_365_4033" fill="white">
<rect x="16" y="16" width="6" height="6" rx="1"/>
</mask>
<rect x="16" y="16" width="6" height="6" rx="1" stroke="black" stroke-width="4" mask="url(#path-15-inside-9_365_4033)"/>
</g>
<defs>
<clipPath id="clip0_365_4033">
<rect width="24" height="24" fill="white"/>
</clipPath>
</defs>
</svg>
