<svg width="24" height="24" viewBox="0 0 24 24" fill="none" xmlns="http://www.w3.org/2000/svg">
<rect width="24" height="24" fill="white"/>
<mask id="path-1-inside-1_365_4033" fill="white">
<rect x="2" y="2" width="6" height="6" rx="1"/>
</mask>
<rect x="2" y="2" width="6" height="6" rx="1" stroke="black" stroke-width="4" mask="url(#path-1-inside-1_365_4033)"/>
<mask id="path-2-inside-2_365_4033" fill="white">
<rect x="2" y="9" width="6" height="6" rx="1"/>
</mask>
<rect x="2" y="9" width="6" height="6" rx="1" stroke="black" stroke-width="4" mask="url(#path-2-inside-2_365_4033)"/>
<mask id="path-3-inside-3_365_4033" fill="white">
<rect x="2" y="16" width="6" height="6" rx="1"/>
</mask>
<rect x="2" y="16" width="6" height="6" rx="1" stroke="black" stroke-width="4" mask="url(#path-3-inside-3_365_4033)"/>
<mask id="path-4-inside-4_365_4033" fill="white">
<rect x="9" y="2" width="6" height="6" rx="1"/>
</mask>
<rect x="9" y="2" width="6" height="6" rx="1" stroke="black" stroke-width="4" mask="url(#path-4-inside-4_365_4033)"/>
<mask id="path-5-inside-5_365_4033" fill="white">
<rect x="9" y="9" width="6" height="6" rx="1"/>
</mask>
<rect x="9" y="9" width="6" height="6" rx="1" stroke="black" stroke-width="4" mask="url(#path-5-inside-5_365_4033)"/>
<mask id="path-6-inside-6_365_4033" fill="white">
<rect x="9" y="16" width="6" height="6" rx="1"/>
</mask>
<rect x="9" y="16" width="6" height="6" rx="1" stroke="black" stroke-width="4" mask="url(#path-6-inside-6_365_4033)"/>
<mask id="path-7-inside-7_365_4033" fill="white">
<rect x="16" y="2" width="6" height="6" rx="1"/>
</mask>
<rect x="16" y="2" width="6" height="6" rx="1" stroke="black" stroke-width="4" mask="url(#path-7-inside-7_365_4033)"/>
<mask id="path-8-inside-8_365_4033" fill="white">
<rect x="16" y="9" width="6" height="6" rx="1"/>
</mask>
<rect x="16" y="9" width="6" height="6" rx="1" stroke="black" stroke-width="4" mask="url(#path-8-inside-8_365_4033)"/>
<mask id="path-9-inside-9_365_4033" fill="white">
<rect x="16" y="16" width="6" height="6" rx="1"/>
</mask>
<rect x="16" y="16" width="6" height="6" rx="1" stroke="black" stroke-width="4" mask="url(#path-9-inside-9_365_4033)"/>
</svg>
