<svg width="24" height="24" viewBox="0 0 24 24" fill="none" xmlns="http://www.w3.org/2000/svg">
<g clip-path="url(#clip0_357_1391)">
<rect width="24" height="24" fill="white"/>
<path d="M0 0H24M0 0V24M0 0L24 24M24 0V24M24 0L0 24M24 24H0" stroke="#C4C4C4" stroke-width="0.13"/>
<circle cx="12" cy="12" r="10" stroke="#C4C4C4" stroke-width="0.13"/>
<rect x="2" y="4" width="20" height="16" rx="1" stroke="#C4C4C4" stroke-width="0.13"/>
<rect x="4" y="2" width="16" height="20" rx="1" stroke="#C4C4C4" stroke-width="0.13"/>
<rect x="3" y="3" width="18" height="18" rx="1" stroke="#C4C4C4" stroke-width="0.13"/>
<circle cx="12" cy="12" r="4" stroke="#C4C4C4" stroke-width="0.13"/>
<path d="M4 12L19 12" stroke="black" stroke-width="2" stroke-linecap="round"/>
<path d="M20 12L20.7071 12.7071C21.0976 12.3166 21.0976 11.6834 20.7071 11.2929L20 12ZM14.7071 5.29289C14.3166 4.90237 13.6834 4.90237 13.2929 5.29289C12.9024 5.68342 12.9024 6.31658 13.2929 6.70711L14.7071 5.29289ZM13.2929 17.2929C12.9024 17.6834 12.9024 18.3166 13.2929 18.7071C13.6834 19.0976 14.3166 19.0976 14.7071 18.7071L13.2929 17.2929ZM20.7071 11.2929L14.7071 5.29289L13.2929 6.70711L19.2929 12.7071L20.7071 11.2929ZM19.2929 11.2929L13.2929 17.2929L14.7071 18.7071L20.7071 12.7071L19.2929 11.2929Z" fill="black"/>
</g>
<defs>
<clipPath id="clip0_357_1391">
<rect width="24" height="24" fill="white"/>
</clipPath>
</defs>
</svg>
