<svg width="24" height="24" viewBox="0 0 24 24" fill="none" xmlns="http://www.w3.org/2000/svg">
<g clip-path="url(#clip0_357_1490)">
<rect width="24" height="24" fill="white"/>
<path d="M0 0H24M0 0V24M0 0L24 24M24 0V24M24 0L0 24M24 24H0" stroke="#C4C4C4" stroke-width="0.13"/>
<circle cx="12" cy="12" r="10" stroke="#C4C4C4" stroke-width="0.13"/>
<rect x="2" y="4" width="20" height="16" rx="1" stroke="#C4C4C4" stroke-width="0.13"/>
<rect x="4" y="2" width="16" height="20" rx="1" stroke="#C4C4C4" stroke-width="0.13"/>
<rect x="3" y="3" width="18" height="18" rx="1" stroke="#C4C4C4" stroke-width="0.13"/>
<circle cx="12" cy="12" r="4" stroke="#C4C4C4" stroke-width="0.13"/>
<path d="M16.9497 16.9497L6.34314 6.3431" stroke="black" stroke-width="2" stroke-linecap="round"/>
<path d="M17.6569 17.6569L17.6569 18.6569C18.2091 18.6569 18.6569 18.2092 18.6569 17.6569L17.6569 17.6569ZM18.6569 9.17163C18.6569 8.61935 18.2091 8.17163 17.6569 8.17163C17.1046 8.17163 16.6569 8.61935 16.6569 9.17163L18.6569 9.17163ZM9.17158 16.6569C8.61929 16.6569 8.17158 17.1046 8.17158 17.6569C8.17158 18.2092 8.61929 18.6569 9.17158 18.6569L9.17158 16.6569ZM18.6569 17.6569L18.6569 9.17163L16.6569 9.17163L16.6569 17.6569L18.6569 17.6569ZM17.6569 16.6569L9.17158 16.6569L9.17158 18.6569L17.6569 18.6569L17.6569 16.6569Z" fill="black"/>
</g>
<defs>
<clipPath id="clip0_357_1490">
<rect width="24" height="24" fill="white"/>
</clipPath>
</defs>
</svg>
