<svg width="24" height="24" viewBox="0 0 24 24" fill="none" xmlns="http://www.w3.org/2000/svg">
<g clip-path="url(#clip0_357_1426)">
<rect width="24" height="24" fill="white"/>
<path d="M0 0H24M0 0V24M0 0L24 24M24 0V24M24 0L0 24M24 24H0" stroke="#C4C4C4" stroke-width="0.13"/>
<circle cx="12" cy="12" r="10" stroke="#C4C4C4" stroke-width="0.13"/>
<rect x="2" y="4" width="20" height="16" rx="1" stroke="#C4C4C4" stroke-width="0.13"/>
<rect x="4" y="2" width="16" height="20" rx="1" stroke="#C4C4C4" stroke-width="0.13"/>
<rect x="3" y="3" width="18" height="18" rx="1" stroke="#C4C4C4" stroke-width="0.13"/>
<circle cx="12" cy="12" r="4" stroke="#C4C4C4" stroke-width="0.13"/>
<path d="M5 12L20 12" stroke="black" stroke-width="2" stroke-linecap="round"/>
<path d="M4 12L3.29289 11.2929C2.90237 11.6834 2.90237 12.3166 3.29289 12.7071L4 12ZM9.29289 18.7071C9.68342 19.0976 10.3166 19.0976 10.7071 18.7071C11.0976 18.3166 11.0976 17.6834 10.7071 17.2929L9.29289 18.7071ZM10.7071 6.70711C11.0976 6.31658 11.0976 5.68342 10.7071 5.29289C10.3166 4.90237 9.68342 4.90237 9.29289 5.29289L10.7071 6.70711ZM3.29289 12.7071L9.29289 18.7071L10.7071 17.2929L4.70711 11.2929L3.29289 12.7071ZM4.70711 12.7071L10.7071 6.70711L9.29289 5.29289L3.29289 11.2929L4.70711 12.7071Z" fill="black"/>
</g>
<defs>
<clipPath id="clip0_357_1426">
<rect width="24" height="24" fill="white"/>
</clipPath>
</defs>
</svg>
