<svg width="24" height="24" viewBox="0 0 24 24" fill="none" xmlns="http://www.w3.org/2000/svg">
<g clip-path="url(#clip0_354_404)">
<rect width="24" height="24" fill="white"/>
<path d="M0 0H24M0 0V24M0 0L24 24M24 0V24M24 0L0 24M24 24H0" stroke="#C4C4C4" stroke-width="0.13"/>
<circle cx="12" cy="12" r="10" stroke="#C4C4C4" stroke-width="0.13"/>
<rect x="2" y="4" width="20" height="16" rx="1" stroke="#C4C4C4" stroke-width="0.13"/>
<rect x="4" y="2" width="16" height="20" rx="1" stroke="#C4C4C4" stroke-width="0.13"/>
<rect x="3" y="3" width="18" height="18" rx="1" stroke="#C4C4C4" stroke-width="0.13"/>
<circle cx="12" cy="12" r="4" stroke="#C4C4C4" stroke-width="0.13"/>
<path d="M12.5665 16.676L12 16.2865L11.4335 16.676L5 21.099L5 4C5 3.44772 5.44772 3 6 3H18C18.5523 3 19 3.44772 19 4L19 21.099L12.5665 16.676Z" stroke="black" stroke-width="2"/>
</g>
<defs>
<clipPath id="clip0_354_404">
<rect width="24" height="24" fill="white"/>
</clipPath>
</defs>
</svg>
