<svg width="24" height="24" viewBox="0 0 24 24" fill="none" xmlns="http://www.w3.org/2000/svg">
<rect width="24" height="24" fill="white"/>
<path fill-rule="evenodd" clip-rule="evenodd" d="M15 7C15 7.55228 15.4477 8 16 8C16.5523 8 17 7.55228 17 7V6H19V9H5V6H7V7C7 7.55228 7.44772 8 8 8C8.55228 8 9 7.55228 9 7V6H15V7ZM5 4H7V3C7 2.44772 7.44771 2 8 2C8.55228 2 9 2.44772 9 3V4H15V3C15 2.44772 15.4477 2 16 2C16.5523 2 17 2.44772 17 3V4H19C20.1046 4 21 4.89543 21 6V20C21 21.1046 20.1046 22 19 22H5C3.89543 22 3 21.1046 3 20V6C3 4.89543 3.89543 4 5 4ZM5 20L5 11H19V20H5ZM16.0303 13.5303L14.9697 12.4697L10.5 16.9393L8.53033 14.9697L7.46967 16.0303L9.96967 18.5303L10.5 19.0607L11.0303 18.5303L16.0303 13.5303Z" fill="black"/>
</svg>
