<svg width="24" height="24" viewBox="0 0 24 24" fill="none" xmlns="http://www.w3.org/2000/svg">
<path d="M4 10H20M6 21H18C19.1046 21 20 20.1046 20 19V7C20 5.89543 19.1046 5 18 5H6C4.89543 5 4 5.89543 4 7V19C4 20.1046 4.89543 21 6 21Z" stroke="black" stroke-width="2"/>
<line x1="16" y1="7" x2="16" y2="3" stroke="black" stroke-width="2" stroke-linecap="round"/>
<line x1="8" y1="7" x2="8" y2="3" stroke="black" stroke-width="2" stroke-linecap="round"/>
<rect x="7" y="13" width="1" height="1" stroke="black" stroke-width="2"/>
<rect x="7" y="17" width="1" height="1" stroke="black" stroke-width="2"/>
<rect x="11.5" y="13" width="1" height="1" stroke="black" stroke-width="2"/>
<rect x="11.5" y="17" width="1" height="1" stroke="black" stroke-width="2"/>
<rect x="16" y="13" width="1" height="1" stroke="black" stroke-width="2"/>
<rect x="16" y="17" width="1" height="1" stroke="black" stroke-width="2"/>
</svg>
