<svg width="24" height="24" viewBox="0 0 24 24" fill="none" xmlns="http://www.w3.org/2000/svg">
<g clip-path="url(#clip0_344_540)">
<rect width="24" height="24" fill="white"/>
<path d="M0 0H24M0 0V24M0 0L24 24M24 0V24M24 0L0 24M24 24H0" stroke="#C4C4C4" stroke-width="0.13"/>
<circle cx="12" cy="12" r="10" stroke="#C4C4C4" stroke-width="0.13"/>
<rect x="2" y="4" width="20" height="16" rx="1" stroke="#C4C4C4" stroke-width="0.13"/>
<rect x="4" y="2" width="16" height="20" rx="1" stroke="#C4C4C4" stroke-width="0.13"/>
<rect x="3" y="3" width="18" height="18" rx="1" stroke="#C4C4C4" stroke-width="0.13"/>
<circle cx="12" cy="12" r="4" stroke="#C4C4C4" stroke-width="0.13"/>
<path fill-rule="evenodd" clip-rule="evenodd" d="M15 7C15 7.55228 15.4477 8 16 8C16.5523 8 17 7.55228 17 7V6H19V9H5V6H7V7C7 7.55228 7.44772 8 8 8C8.55228 8 9 7.55228 9 7V6H15V7ZM5 4H7V3C7 2.44772 7.44771 2 8 2C8.55228 2 9 2.44772 9 3V4H15V3C15 2.44772 15.4477 2 16 2C16.5523 2 17 2.44772 17 3V4H19C20.1046 4 21 4.89543 21 6V20C21 21.1046 20.1046 22 19 22H5C3.89543 22 3 21.1046 3 20V6C3 4.89543 3.89543 4 5 4ZM5 20L5 11H19V20H5ZM8.46967 13.0303L10.9393 15.5L8.46967 17.9697L9.53033 19.0303L12 16.5607L14.4697 19.0303L15.5303 17.9697L13.0607 15.5L15.5303 13.0303L14.4697 11.9697L12 14.4393L9.53033 11.9697L8.46967 13.0303Z" fill="black"/>
</g>
<defs>
<clipPath id="clip0_344_540">
<rect width="24" height="24" fill="white"/>
</clipPath>
</defs>
</svg>
