<svg width="24" height="24" viewBox="0 0 24 24" fill="none" xmlns="http://www.w3.org/2000/svg">
<rect width="24" height="24" fill="white"/>
<path fill-rule="evenodd" clip-rule="evenodd" d="M2.70711 1.29289C3.09763 0.902369 3.7308 0.902369 4.12132 1.29289L22.7071 19.8787C23.0976 20.2692 23.0976 20.9024 22.7071 21.2929C22.3166 21.6834 21.6834 21.6834 21.2929 21.2929L20 20H4C2.89543 20 2 19.1046 2 18V8C2 6.89543 2.89543 6 4 6H6L2.70711 2.70711C2.31658 2.31658 2.31658 1.68342 2.70711 1.29289ZM15.2841 15.2841L18 18H4V8H7.2H8L9.71586 9.71587C8.6787 10.4386 8 11.64 8 13C8 15.2091 9.79086 17 12 17C13.36 17 14.5614 16.3213 15.2841 15.2841ZM10 13C10 12.1889 10.4828 11.4906 11.1768 11.1768L13.8232 13.8232C13.5094 14.5172 12.8111 15 12 15C10.8954 15 10 14.1046 10 13ZM22 14.7929C22 15.2384 21.4614 15.4614 21.1465 15.1465L20.1465 14.1465C20.0527 14.0527 20 13.9255 20 13.7929V8.5C20 8.22386 19.7762 8 19.5 8H16.8H15.9507C15.7751 8 15.6123 7.90785 15.522 7.75725L15.085 7.02899L14.0133 5.24275C13.9229 5.09215 13.7602 5 13.5845 5L11.2071 5C11.0745 5 10.9473 4.94732 10.8536 4.85355L9.70555 3.70554C9.46571 3.46571 9.53601 3.06102 9.87231 3.01695C9.95789 3.00574 10.0447 3 10.1324 3H13.8676C14.5702 3 15.2212 3.3686 15.5826 3.97101L16.6544 5.75725C16.7447 5.90785 16.9075 6 17.0831 6H20C21.1046 6 22 6.89543 22 8V14.7929Z" fill="black"/>
</svg>
