<svg width="24" height="24" viewBox="0 0 24 24" fill="none" xmlns="http://www.w3.org/2000/svg">
<path d="M7.5 6.64706H5C3.89543 6.64706 3 7.54249 3 8.64706V17C3 18.1046 3.89543 19 5 19H20.1M10.3 4H13.6414C14.3036 4 14.9229 4.32778 15.2953 4.87538L16.5 6.64706H19C20.1046 6.64706 21 7.54249 21 8.64706V14.4706" stroke="black" stroke-width="2" stroke-linecap="round"/>
<path d="M16 13.73C15.4612 15.061 14.1563 16 12.632 16C10.6261 16 9 14.3739 9 12.368C9 10.8437 9.93895 9.5388 11.27 9" stroke="black" stroke-width="2"/>
<line x1="3.41421" y1="2" x2="22" y2="20.5858" stroke="black" stroke-width="2" stroke-linecap="round"/>
</svg>
