<svg width="24" height="24" viewBox="0 0 24 24" fill="none" xmlns="http://www.w3.org/2000/svg">
<rect width="24" height="24" fill="white"/>
<path fill-rule="evenodd" clip-rule="evenodd" d="M8.33238 8L8.91499 7.02899L10.1324 5L13.8676 5L15.085 7.02899L15.6676 8H16.8H20V18H4V8H7.2H8.33238ZM7.2 6L8.41739 3.97101C8.77884 3.3686 9.42986 3 10.1324 3H13.8676C14.5701 3 15.2212 3.3686 15.5826 3.97101L16.8 6H20C21.1046 6 22 6.89543 22 8V18C22 19.1046 21.1046 20 20 20H4C2.89543 20 2 19.1046 2 18V8C2 6.89543 2.89543 6 4 6H7.2ZM14 13C14 14.1046 13.1046 15 12 15C10.8954 15 10 14.1046 10 13C10 11.8954 10.8954 11 12 11C13.1046 11 14 11.8954 14 13ZM16 13C16 15.2091 14.2091 17 12 17C9.79086 17 8 15.2091 8 13C8 10.7909 9.79086 9 12 9C14.2091 9 16 10.7909 16 13Z" fill="black"/>
</svg>
