<svg width="24" height="24" viewBox="0 0 24 24" fill="none" xmlns="http://www.w3.org/2000/svg">
<g clip-path="url(#clip0_350_574)">
<rect width="24" height="24" fill="white"/>
<path d="M0 0H24M0 0V24M0 0L24 24M24 0V24M24 0L0 24M24 24H0" stroke="#C4C4C4" stroke-width="0.13"/>
<circle cx="12" cy="12" r="10" stroke="#C4C4C4" stroke-width="0.13"/>
<rect x="2" y="4" width="20" height="16" rx="1" stroke="#C4C4C4" stroke-width="0.13"/>
<rect x="4" y="2" width="16" height="20" rx="1" stroke="#C4C4C4" stroke-width="0.13"/>
<rect x="3" y="3" width="18" height="18" rx="1" stroke="#C4C4C4" stroke-width="0.13"/>
<circle cx="12" cy="12" r="4" stroke="#C4C4C4" stroke-width="0.13"/>
<path d="M8 10.5L11.9537 14.6058C12.1576 14.8175 12.4992 14.8086 12.6917 14.5865L21 5" stroke="black" stroke-width="2" stroke-linecap="round"/>
<path fill-rule="evenodd" clip-rule="evenodd" d="M20 12C20 16.4183 16.4183 20 12 20C7.58172 20 4 16.4183 4 12C4 7.58172 7.58172 4 12 4C13.2148 4 14.3665 4.27079 15.3977 4.7553C16.0876 5.07942 17 4.62411 17 3.86187V3.86187C17 3.53754 16.8286 3.23488 16.5397 3.08745C15.1774 2.39213 13.6345 2 12 2C6.47715 2 2 6.47715 2 12C2 17.5228 6.47715 22 12 22C17.5228 22 22 17.5228 22 12C22 11.5889 21.9752 11.1836 21.927 10.7855C21.8713 10.3258 21.4671 10 21.004 10V10C20.3678 10 19.904 10.6026 19.964 11.236C19.9878 11.4875 20 11.7423 20 12Z" fill="black"/>
</g>
<defs>
<clipPath id="clip0_350_574">
<rect width="24" height="24" fill="white"/>
</clipPath>
</defs>
</svg>
