<svg width="24" height="24" viewBox="0 0 24 24" fill="none" xmlns="http://www.w3.org/2000/svg">
<rect width="24" height="24" fill="white"/>
<path d="M13 12L13.7071 12.7071C14.0976 12.3166 14.0976 11.6834 13.7071 11.2929L13 12ZM7.70711 5.29289C7.31658 4.90237 6.68342 4.90237 6.29289 5.29289C5.90237 5.68342 5.90237 6.31658 6.29289 6.70711L7.70711 5.29289ZM6.29289 17.2929C5.90237 17.6834 5.90237 18.3166 6.29289 18.7071C6.68342 19.0976 7.31658 19.0976 7.70711 18.7071L6.29289 17.2929ZM13.7071 11.2929L7.70711 5.29289L6.29289 6.70711L12.2929 12.7071L13.7071 11.2929ZM12.2929 11.2929L6.29289 17.2929L7.70711 18.7071L13.7071 12.7071L12.2929 11.2929Z" fill="black"/>
<path d="M19 12L19.7071 12.7071C20.0976 12.3166 20.0976 11.6834 19.7071 11.2929L19 12ZM13.7071 5.29289C13.3166 4.90237 12.6834 4.90237 12.2929 5.29289C11.9024 5.68342 11.9024 6.31658 12.2929 6.70711L13.7071 5.29289ZM12.2929 17.2929C11.9024 17.6834 11.9024 18.3166 12.2929 18.7071C12.6834 19.0976 13.3166 19.0976 13.7071 18.7071L12.2929 17.2929ZM19.7071 11.2929L13.7071 5.29289L12.2929 6.70711L18.2929 12.7071L19.7071 11.2929ZM18.2929 11.2929L12.2929 17.2929L13.7071 18.7071L19.7071 12.7071L18.2929 11.2929Z" fill="black"/>
</svg>
