<svg width="24" height="24" viewBox="0 0 24 24" fill="none" xmlns="http://www.w3.org/2000/svg">
<g clip-path="url(#clip0_333_645)">
<rect width="24" height="24" fill="white"/>
<path d="M0 0H24M0 0V24M0 0L24 24M24 0V24M24 0L0 24M24 24H0" stroke="#C4C4C4" stroke-width="0.13"/>
<circle cx="12" cy="12" r="10" stroke="#C4C4C4" stroke-width="0.13"/>
<rect x="2" y="4" width="20" height="16" rx="1" stroke="#C4C4C4" stroke-width="0.13"/>
<rect x="4" y="2" width="16" height="20" rx="1" stroke="#C4C4C4" stroke-width="0.13"/>
<rect x="3" y="3" width="18" height="18" rx="1" stroke="#C4C4C4" stroke-width="0.13"/>
<circle cx="12" cy="12" r="4" stroke="#C4C4C4" stroke-width="0.13"/>
<path d="M11 12L10.2929 11.2929C9.90237 11.6834 9.90237 12.3166 10.2929 12.7071L11 12ZM16.2929 18.7071C16.6834 19.0976 17.3166 19.0976 17.7071 18.7071C18.0976 18.3166 18.0976 17.6834 17.7071 17.2929L16.2929 18.7071ZM17.7071 6.70711C18.0976 6.31658 18.0976 5.68342 17.7071 5.29289C17.3166 4.90237 16.6834 4.90237 16.2929 5.29289L17.7071 6.70711ZM10.2929 12.7071L16.2929 18.7071L17.7071 17.2929L11.7071 11.2929L10.2929 12.7071ZM11.7071 12.7071L17.7071 6.70711L16.2929 5.29289L10.2929 11.2929L11.7071 12.7071Z" fill="black"/>
<path d="M5 12L4.29289 11.2929C3.90237 11.6834 3.90237 12.3166 4.29289 12.7071L5 12ZM10.2929 18.7071C10.6834 19.0976 11.3166 19.0976 11.7071 18.7071C12.0976 18.3166 12.0976 17.6834 11.7071 17.2929L10.2929 18.7071ZM11.7071 6.70711C12.0976 6.31658 12.0976 5.68342 11.7071 5.29289C11.3166 4.90237 10.6834 4.90237 10.2929 5.29289L11.7071 6.70711ZM4.29289 12.7071L10.2929 18.7071L11.7071 17.2929L5.70711 11.2929L4.29289 12.7071ZM5.70711 12.7071L11.7071 6.70711L10.2929 5.29289L4.29289 11.2929L5.70711 12.7071Z" fill="black"/>
</g>
<defs>
<clipPath id="clip0_333_645">
<rect width="24" height="24" fill="white"/>
</clipPath>
</defs>
</svg>
