<svg width="24" height="24" viewBox="0 0 24 24" fill="none" xmlns="http://www.w3.org/2000/svg">
<rect width="24" height="24" fill="white"/>
<path fill-rule="evenodd" clip-rule="evenodd" d="M7 3C7 2.44772 6.55228 2 6 2C5.44772 2 5 2.44772 5 3V6C5 6.55228 5.44772 7 6 7C6.55228 7 7 6.55228 7 6V3ZM4 11V18C4 19.1046 4.89543 20 6 20H14C15.1046 20 16 19.1046 16 18V11H4ZM4 9H2V11V18C2 20.2091 3.79086 22 6 22H14C16.2091 22 18 20.2091 18 18V17C18.5253 17 19.0454 16.8965 19.5307 16.6955C19.6924 16.6286 19.8491 16.5512 20 16.4641C20.3021 16.2897 20.5807 16.0761 20.8284 15.8284C21.1999 15.457 21.4945 15.016 21.6955 14.5307C21.8965 14.0454 22 13.5253 22 13C22 12.4747 21.8965 11.9546 21.6955 11.4693C21.4945 10.984 21.1999 10.543 20.8284 10.1716C20.5807 9.92386 20.3021 9.71031 20 9.5359C19.8491 9.44879 19.6924 9.37144 19.5307 9.30448C19.0454 9.10346 18.5253 9 18 9H16H4ZM18.0005 15H18V11C18.2626 11 18.5227 11.0517 18.7654 11.1522C19.008 11.2528 19.2285 11.4001 19.4142 11.5858C19.5999 11.7715 19.7472 11.992 19.8478 12.2346C19.9483 12.4773 20 12.7374 20 13C20 13.2626 19.9483 13.5227 19.8478 13.7654C19.7472 14.008 19.5999 14.2285 19.4142 14.4142C19.2285 14.5999 19.008 14.7472 18.7654 14.8478C18.5229 14.9482 18.263 14.9999 18.0005 15ZM10 2C10.5523 2 11 2.44772 11 3V6C11 6.55228 10.5523 7 10 7C9.44772 7 9 6.55228 9 6V3C9 2.44772 9.44772 2 10 2ZM15 3C15 2.44772 14.5523 2 14 2C13.4477 2 13 2.44772 13 3V6C13 6.55228 13.4477 7 14 7C14.5523 7 15 6.55228 15 6V3Z" fill="black"/>
</svg>
