<svg width="24" height="24" viewBox="0 0 24 24" fill="none" xmlns="http://www.w3.org/2000/svg">
<g clip-path="url(#clip0_365_4208)">
<rect width="24" height="24" fill="white"/>
<path d="M0 0H24M0 0V24M0 0L24 24M24 0V24M24 0L0 24M24 24H0" stroke="#C4C4C4" stroke-width="0.13"/>
<circle cx="12" cy="12" r="10" stroke="#C4C4C4" stroke-width="0.13"/>
<rect x="2" y="4" width="20" height="16" rx="1" stroke="#C4C4C4" stroke-width="0.13"/>
<rect x="4" y="2" width="16" height="20" rx="1" stroke="#C4C4C4" stroke-width="0.13"/>
<rect x="3" y="3" width="18" height="18" rx="1" stroke="#C4C4C4" stroke-width="0.13"/>
<circle cx="12" cy="12" r="4" stroke="#C4C4C4" stroke-width="0.13"/>
<path d="M5 3H12V21H5C4.44772 21 4 20.5523 4 20V4C4 3.44772 4.44772 3 5 3Z" stroke="black" stroke-width="2"/>
<path d="M19 21L12 21L12 3L19 3C19.5523 3 20 3.44772 20 4L20 20C20 20.5523 19.5523 21 19 21Z" stroke="black" stroke-width="2"/>
</g>
<defs>
<clipPath id="clip0_365_4208">
<rect width="24" height="24" fill="white"/>
</clipPath>
</defs>
</svg>
