<svg width="24" height="24" viewBox="0 0 24 24" fill="none" xmlns="http://www.w3.org/2000/svg">
<g clip-path="url(#clip0_358_2532)">
<rect width="24" height="24" fill="white"/>
<path d="M0 0H24M0 0V24M0 0L24 24M24 0V24M24 0L0 24M24 24H0" stroke="#C4C4C4" stroke-width="0.13"/>
<circle cx="12" cy="12" r="10" stroke="#C4C4C4" stroke-width="0.13"/>
<rect x="2" y="4" width="20" height="16" rx="1" stroke="#C4C4C4" stroke-width="0.13"/>
<rect x="4" y="2" width="16" height="20" rx="1" stroke="#C4C4C4" stroke-width="0.13"/>
<rect x="3" y="3" width="18" height="18" rx="1" stroke="#C4C4C4" stroke-width="0.13"/>
<circle cx="12" cy="12" r="4" stroke="#C4C4C4" stroke-width="0.13"/>
<path d="M12 9L18 15M12 15L18 9" stroke="black" stroke-width="1.5" stroke-linecap="round"/>
<mask id="path-8-inside-1_358_2532" fill="white">
<path fill-rule="evenodd" clip-rule="evenodd" d="M8.45993 5C8.16801 5 7.89066 5.12756 7.70068 5.34921L2.55782 11.3492C2.23683 11.7237 2.23683 12.2763 2.55782 12.6508L7.70068 18.6508C7.89066 18.8724 8.16801 19 8.45994 19H20C21.1046 19 22 18.1046 22 17V7C22 5.89543 21.1046 5 20 5H8.45993Z"/>
</mask>
<path d="M2.55782 11.3492L4.07633 12.6508L4.07633 12.6508L2.55782 11.3492ZM2.55782 12.6508L1.03931 13.9524L2.55782 12.6508ZM7.70068 18.6508L6.18217 19.9524L7.70068 18.6508ZM4.07633 12.6508L9.21919 6.65079L6.18216 4.04763L1.03931 10.0476L4.07633 12.6508ZM4.07633 11.3492C4.39732 11.7237 4.39733 12.2763 4.07633 12.6508L1.03931 10.0476C0.0763326 11.1711 0.0763357 12.8289 1.03931 13.9524L4.07633 11.3492ZM9.21919 17.3492L4.07633 11.3492L1.03931 13.9524L6.18217 19.9524L9.21919 17.3492ZM20 17H8.45994V21H20V17ZM20 17V21C22.2091 21 24 19.2091 24 17H20ZM20 7V17H24V7H20ZM20 7H24C24 4.79086 22.2091 3 20 3V7ZM8.45994 7H20V3H8.45994V7ZM6.18217 19.9524C6.75211 20.6173 7.58416 21 8.45994 21V17C8.75186 17 9.02921 17.1276 9.21919 17.3492L6.18217 19.9524ZM9.21919 6.65079C9.02921 6.87244 8.75186 7 8.45994 7V3C7.58416 3 6.75211 3.38269 6.18216 4.04763L9.21919 6.65079Z" fill="black" mask="url(#path-8-inside-1_358_2532)"/>
</g>
<defs>
<clipPath id="clip0_358_2532">
<rect width="24" height="24" fill="white"/>
</clipPath>
</defs>
</svg>
