<svg width="24" height="24" viewBox="0 0 24 24" fill="none" xmlns="http://www.w3.org/2000/svg">
<rect width="24" height="24" fill="white"/>
<rect x="9" y="9" width="11" height="11" rx="1" stroke="black" stroke-width="2"/>
<path fill-rule="evenodd" clip-rule="evenodd" d="M5 5H14V7H16V5C16 3.89543 15.1046 3 14 3H5C3.89543 3 3 3.89543 3 5V14C3 15.1046 3.89543 16 5 16H7V14H5L5 5Z" fill="black"/>
<rect x="9" y="9" width="11" height="11" rx="1" stroke="black" stroke-width="2"/>
<path fill-rule="evenodd" clip-rule="evenodd" d="M5 5H14V7H16V5C16 3.89543 15.1046 3 14 3H5C3.89543 3 3 3.89543 3 5V14C3 15.1046 3.89543 16 5 16H7V14H5L5 5Z" fill="black"/>
</svg>
