<svg width="24" height="24" viewBox="0 0 24 24" fill="none" xmlns="http://www.w3.org/2000/svg">
<rect x="9" y="9" width="11" height="11" rx="1" stroke="black" stroke-width="2"/>
<path d="M15 7V5C15 4.44772 14.5523 4 14 4H5C4.44771 4 4 4.44772 4 5V14C4 14.5523 4.44772 15 5 15H7" stroke="black" stroke-width="2"/>
<rect x="9" y="9" width="11" height="11" rx="1" stroke="black" stroke-width="2"/>
<path d="M15 7V5C15 4.44772 14.5523 4 14 4H5C4.44771 4 4 4.44772 4 5V14C4 14.5523 4.44772 15 5 15H7" stroke="black" stroke-width="2"/>
</svg>
