<svg width="24" height="24" viewBox="0 0 24 24" fill="none" xmlns="http://www.w3.org/2000/svg">
<rect width="24" height="24" fill="white"/>
<path d="M4.55825 15.4619L5.5284 15.7044L4.55825 15.4619ZM3.31245 21.0515L3.55498 22.0216L3.31245 21.0515ZM3.19118 20.9302L2.22104 20.6877L3.19118 20.9302ZM8.78074 19.6844L8.5382 18.7142L8.78074 19.6844ZM20.8284 9.07107C22.3905 7.50897 22.3905 4.97631 20.8284 3.41421L19.4142 4.82843C20.1953 5.60948 20.1953 6.87581 19.4142 7.65685L20.8284 9.07107ZM9.5343 20.3652L20.8284 9.07107L19.4142 7.65685L8.12009 18.951L9.5343 20.3652ZM8.5382 18.7142L3.06991 20.0813L3.55498 22.0216L9.02328 20.6545L8.5382 18.7142ZM4.16132 21.1727L5.5284 15.7044L3.58811 15.2194L2.22104 20.6877L4.16132 21.1727ZM15.1716 3.41421L3.87745 14.7083L5.29166 16.1225L16.5858 4.82843L15.1716 3.41421ZM20.8284 3.41421C19.2663 1.85212 16.7337 1.85212 15.1716 3.41421L16.5858 4.82843C17.3668 4.04738 18.6332 4.04738 19.4142 4.82843L20.8284 3.41421ZM5.5284 15.7044C5.48883 15.8627 5.40701 16.0072 5.29166 16.1225L3.87745 14.7083C3.73648 14.8493 3.63646 15.0259 3.58811 15.2194L5.5284 15.7044ZM3.06991 20.0813C3.72905 19.9165 4.32611 20.5136 4.16132 21.1727L2.22104 20.6877C2.01963 21.4933 2.74937 22.223 3.55498 22.0216L3.06991 20.0813ZM8.12009 18.951C8.23543 18.8356 8.37996 18.7538 8.5382 18.7142L9.02328 20.6545C9.21669 20.6062 9.39333 20.5062 9.5343 20.3652L8.12009 18.951Z" fill="black"/>
</svg>
