<svg width="24" height="24" viewBox="0 0 24 24" fill="none" xmlns="http://www.w3.org/2000/svg">
<g clip-path="url(#clip0_356_1330)">
<rect width="24" height="24" fill="white"/>
<path d="M0 0H24M0 0V24M0 0L24 24M24 0V24M24 0L0 24M24 24H0" stroke="#C4C4C4" stroke-width="0.13"/>
<circle cx="12" cy="12" r="10" stroke="#C4C4C4" stroke-width="0.13"/>
<rect x="2" y="4" width="20" height="16" rx="1" stroke="#C4C4C4" stroke-width="0.13"/>
<rect x="4" y="2" width="16" height="20" rx="1" stroke="#C4C4C4" stroke-width="0.13"/>
<rect x="3" y="3" width="18" height="18" rx="1" stroke="#C4C4C4" stroke-width="0.13"/>
<circle cx="12" cy="12" r="4" stroke="#C4C4C4" stroke-width="0.13"/>
<path d="M20.5461 6.86855L19.8415 6.15893L19.839 6.16144L20.5461 6.86855ZM20.5581 6.85665L21.2627 7.56628L21.2652 7.56376L20.5581 6.85665ZM8.53199 12.3099L9.50157 12.5547L8.53199 12.3099ZM8.53196 12.31L7.82485 11.6029L8.53196 12.31ZM8.53197 12.3099L7.5624 12.0651L8.53197 12.3099ZM8.5205 12.3551L7.55129 12.1088L8.5205 12.3551ZM7.57553 16.6742L7.82179 17.6434L7.57553 16.6742ZM7.45399 16.5527L6.48478 16.3064L7.45399 16.5527ZM11.7731 15.6077L11.5268 14.6385L11.7731 15.6077ZM21.2507 7.57817L21.2627 7.56627L19.8535 6.14703L19.8416 6.15893L21.2507 7.57817ZM12.5107 16.3182L21.2532 7.57566L19.839 6.16144L11.0965 14.904L12.5107 16.3182ZM11.5268 14.6385L7.32928 15.705L7.82179 17.6434L12.0193 16.5769L11.5268 14.6385ZM8.42319 16.7989L9.4897 12.6014L7.55129 12.1088L6.48478 16.3064L8.42319 16.7989ZM7.82485 11.6029L7.81003 11.6177L9.22425 13.0319L9.23907 13.0171L7.82485 11.6029ZM9.50155 12.5547L9.50157 12.5547L7.56242 12.0651L7.5624 12.0651L9.50155 12.5547ZM16.5646 2.86306L7.82495 11.6028L9.23917 13.017L17.9789 4.27727L16.5646 2.86306ZM21.2652 2.86316C19.9672 1.56518 17.8628 1.56513 16.5648 2.86301L17.9789 4.27732C18.4959 3.76039 19.334 3.76041 19.851 4.27737L21.2652 2.86316ZM21.2652 7.56376C22.5633 6.26573 22.5633 4.1612 21.2652 2.86316L19.851 4.27737C20.368 4.79436 20.368 5.63256 19.851 6.14955L21.2652 7.56376ZM16.5647 4.27727C16.9622 4.67476 17.5954 4.66081 17.9789 4.27732L16.5648 2.86301C16.9483 2.47955 17.5814 2.4656 17.9789 2.86306L16.5647 4.27727ZM17.9789 4.27727C17.5883 4.66778 16.9552 4.66778 16.5647 4.27727L17.9789 2.86306C17.5884 2.47252 16.9552 2.47252 16.5646 2.86306L17.9789 4.27727ZM7.82492 13.017C8.21737 13.4094 8.85055 13.4056 9.23917 13.017L7.82495 11.6028C8.21355 11.2142 8.8467 11.2103 9.23913 11.6028L7.82492 13.017ZM9.50157 12.5547C9.31155 13.3073 8.3738 13.5659 7.82492 13.017L9.23913 11.6028C8.69023 11.0538 7.75244 11.3124 7.56242 12.0651L9.50157 12.5547ZM9.23907 13.0171C9.36667 12.8895 9.45737 12.7297 9.50155 12.5547L7.5624 12.0651C7.60657 11.8902 7.69726 11.7304 7.82485 11.6029L9.23907 13.0171ZM9.22425 11.6358C9.60977 12.0213 9.60977 12.6464 9.22425 13.0319L7.81003 11.6177C7.41451 12.0132 7.41451 12.6545 7.81003 13.05L9.22425 11.6358ZM9.4897 12.6014C9.57765 12.2552 9.47679 11.8883 9.22425 11.6358L7.81003 13.05C7.56388 12.8038 7.46557 12.4462 7.55129 12.1088L9.4897 12.6014ZM7.32928 15.705C7.99074 15.537 8.59125 16.1375 8.42319 16.7989L6.48478 16.3064C6.27938 17.1149 7.01334 17.8488 7.82179 17.6434L7.32928 15.705ZM12.4925 14.904C12.2399 14.6514 11.873 14.5506 11.5268 14.6385L12.0193 16.5769C11.682 16.6627 11.3244 16.5643 11.0783 16.3182L12.4925 14.904ZM11.0965 14.904C11.482 14.5185 12.107 14.5185 12.4925 14.904L11.0783 16.3182C11.4738 16.7138 12.1151 16.7138 12.5107 16.3182L11.0965 14.904Z" fill="black"/>
<path fill-rule="evenodd" clip-rule="evenodd" d="M4 20H18V13.9963L20 11.9963V20C20 21.1046 19.1046 22 18 22H4C2.89543 22 2 21.1046 2 20V6C2 4.89543 2.89543 4 4 4H12.9727L10.9727 6H4L4 20Z" fill="black"/>
</g>
<defs>
<clipPath id="clip0_356_1330">
<rect width="24" height="24" fill="white"/>
</clipPath>
</defs>
</svg>
