<svg width="24" height="24" viewBox="0 0 24 24" fill="none" xmlns="http://www.w3.org/2000/svg">
<g clip-path="url(#clip0_365_4244)">
<rect width="24" height="24" fill="white"/>
<path d="M0 0H24M0 0V24M0 0L24 24M24 0V24M24 0L0 24M24 24H0" stroke="#C4C4C4" stroke-width="0.13"/>
<circle cx="12" cy="12" r="10" stroke="#C4C4C4" stroke-width="0.13"/>
<rect x="2" y="4" width="20" height="16" rx="1" stroke="#C4C4C4" stroke-width="0.13"/>
<rect x="4" y="2" width="16" height="20" rx="1" stroke="#C4C4C4" stroke-width="0.13"/>
<rect x="3" y="3" width="18" height="18" rx="1" stroke="#C4C4C4" stroke-width="0.13"/>
<circle cx="12" cy="12" r="4" stroke="#C4C4C4" stroke-width="0.13"/>
<path d="M19.612 6.41452C19.1722 5.96607 18.65 5.61034 18.0752 5.36763C17.5005 5.12492 16.8844 5 16.2623 5C15.6401 5 15.0241 5.12492 14.4493 5.36763C13.8746 5.61034 13.3524 5.96607 12.9126 6.41452L11.9998 7.34476L11.087 6.41452C10.1986 5.50912 8.99364 5.00047 7.73725 5.00047C6.48085 5.00047 5.27591 5.50912 4.38751 6.41452C3.4991 7.31992 3 8.5479 3 9.82833C3 11.1088 3.4991 12.3367 4.38751 13.2421L5.30029 14.1724L11.286 20.2726C11.678 20.6721 12.3215 20.6721 12.7135 20.2726L18.6992 14.1724L19.612 13.2421C20.0521 12.7939 20.4011 12.2617 20.6393 11.676C20.8774 11.0902 21 10.4624 21 9.82833C21 9.19428 20.8774 8.56645 20.6393 7.9807C20.4011 7.39494 20.0521 6.86275 19.612 6.41452Z" stroke="black" stroke-width="2" stroke-linecap="round" stroke-linejoin="round"/>
</g>
<defs>
<clipPath id="clip0_365_4244">
<rect width="24" height="24" fill="white"/>
</clipPath>
</defs>
</svg>
