<svg width="24" height="24" viewBox="0 0 24 24" fill="none" xmlns="http://www.w3.org/2000/svg">
<rect width="24" height="24" fill="white"/>
<path fill-rule="evenodd" clip-rule="evenodd" d="M13.8994 2C14.4245 2 14.9285 2.20648 15.3026 2.57487L19.4032 6.61239C19.785 6.98832 20 7.50172 20 8.03752V16C20 17.1046 19.1046 18 18 18H9C7.89543 18 7 17.1046 7 16V4C7 2.89543 7.89543 2 9 2H13.8994ZM16.54 6.60002L15.3125 5.39137V6.60002H16.54ZM13.3125 4L9 4L9 16H18V8.60002H14.8125C13.9841 8.60002 13.3125 7.92845 13.3125 7.10002V4Z" fill="black"/>
<path fill-rule="evenodd" clip-rule="evenodd" d="M5.70831 6H5C3.89543 6 3 6.89543 3 8V20C3 21.1046 3.89543 22 5 22H14C15.1046 22 16 21.1046 16 20V19.3333H14V20H5L5 8H5.70831V6Z" fill="black"/>
</svg>
