<svg width="24" height="24" viewBox="0 0 24 24" fill="none" xmlns="http://www.w3.org/2000/svg">
<g clip-path="url(#clip0_360_3081)">
<rect width="24" height="24" fill="white"/>
<path d="M0 0H24M0 0V24M0 0L24 24M24 0V24M24 0L0 24M24 24H0" stroke="#C4C4C4" stroke-width="0.13"/>
<circle cx="12" cy="12" r="10" stroke="#C4C4C4" stroke-width="0.13"/>
<rect x="2" y="4" width="20" height="16" rx="1" stroke="#C4C4C4" stroke-width="0.13"/>
<rect x="4" y="2" width="16" height="20" rx="1" stroke="#C4C4C4" stroke-width="0.13"/>
<rect x="3" y="3" width="18" height="18" rx="1" stroke="#C4C4C4" stroke-width="0.13"/>
<circle cx="12" cy="12" r="4" stroke="#C4C4C4" stroke-width="0.13"/>
<path fill-rule="evenodd" clip-rule="evenodd" d="M17.4982 16.7491C17.4982 18.2674 16.2674 19.4982 14.7491 19.4982C13.2308 19.4982 12 18.2674 12 16.7491C12 15.2308 13.2308 14 14.7491 14C16.2674 14 17.4982 15.2308 17.4982 16.7491ZM17.3252 20.7394C16.5832 21.2195 15.6987 21.4982 14.7491 21.4982C12.1262 21.4982 10 19.3719 10 16.7491C10 14.1262 12.1262 12 14.7491 12C17.3719 12 19.4982 14.1262 19.4982 16.7491C19.4982 17.6987 19.2195 18.5832 18.7394 19.3252L20.7071 21.2929C21.0976 21.6834 21.0976 22.3166 20.7071 22.7071C20.3166 23.0976 19.6834 23.0976 19.2929 22.7071L17.3252 20.7394Z" fill="black"/>
<path fill-rule="evenodd" clip-rule="evenodd" d="M12.6716 4L18 9.32843V11.8027C18.8028 12.2671 19.488 12.9121 20 13.6822V9.32843C20 8.79799 19.7893 8.28929 19.4142 7.91421L14.0858 2.58579C13.7107 2.21071 13.202 2 12.6716 2H6C4.89543 2 4 2.89543 4 4V20C4 21.1046 4.89543 22 6 22H11.6822C10.9121 21.488 10.2671 20.8028 9.80269 20H6V4H12.6716ZM19.9662 20.3681C19.8156 21.1775 19.1775 21.8156 18.3681 21.9662C18.9963 21.5393 19.5393 20.9963 19.9662 20.3681Z" fill="black"/>
<path d="M13 3V8.5C13 8.77614 13.2239 9 13.5 9H19" stroke="black" stroke-width="2" stroke-linecap="round"/>
</g>
<defs>
<clipPath id="clip0_360_3081">
<rect width="24" height="24" fill="white"/>
</clipPath>
</defs>
</svg>
