<svg width="24" height="24" viewBox="0 0 24 24" fill="none" xmlns="http://www.w3.org/2000/svg">
<g clip-path="url(#clip0_363_3409)">
<rect width="24" height="24" fill="white"/>
<path d="M0 0H24M0 0V24M0 0L24 24M24 0V24M24 0L0 24M24 24H0" stroke="#C4C4C4" stroke-width="0.13"/>
<circle cx="12" cy="12" r="10" stroke="#C4C4C4" stroke-width="0.13"/>
<rect x="2" y="4" width="20" height="16" rx="1" stroke="#C4C4C4" stroke-width="0.13"/>
<rect x="4" y="2" width="16" height="20" rx="1" stroke="#C4C4C4" stroke-width="0.13"/>
<rect x="3" y="3" width="18" height="18" rx="1" stroke="#C4C4C4" stroke-width="0.13"/>
<circle cx="12" cy="12" r="4" stroke="#C4C4C4" stroke-width="0.13"/>
<path d="M12 13L12.0209 22.1214" stroke="black" stroke-width="2" stroke-linecap="round"/>
<path d="M12 12L12.7071 11.2929C12.5196 11.1054 12.2652 11 12 11C11.7348 11 11.4804 11.1054 11.2929 11.2929L12 12ZM7.29289 15.2929C6.90237 15.6834 6.90237 16.3166 7.29289 16.7071C7.68342 17.0976 8.31658 17.0976 8.70711 16.7071L7.29289 15.2929ZM15.2929 16.7071C15.6834 17.0976 16.3166 17.0976 16.7071 16.7071C17.0976 16.3166 17.0976 15.6834 16.7071 15.2929L15.2929 16.7071ZM11.2929 11.2929L7.29289 15.2929L8.70711 16.7071L12.7071 12.7071L11.2929 11.2929ZM11.2929 12.7071L15.2929 16.7071L16.7071 15.2929L12.7071 11.2929L11.2929 12.7071Z" fill="black"/>
<path fill-rule="evenodd" clip-rule="evenodd" d="M13.5 10H18V20H15V22H18C19.1046 22 20 21.1046 20 20V9.32843C20 9.26404 19.9969 9.19998 19.9908 9.13644C19.9969 9.09183 20 9.04628 20 9C20 8.72904 19.8922 8.48324 19.7172 8.30315C19.6333 8.16266 19.5319 8.03186 19.4142 7.91421L14.0858 2.58579C13.9681 2.46814 13.8373 2.36666 13.6969 2.28279C13.5168 2.10777 13.271 2 13 2C12.9537 2 12.9082 2.00314 12.8636 2.00923C12.8 2.0031 12.736 2 12.6716 2H6C4.89543 2 4 2.89543 4 4V20C4 21.1046 4.89543 22 6 22H9V20H6V4H12V8.5C12 9.32843 12.6716 10 13.5 10ZM14 8V5.32843L16.6716 8H14Z" fill="black"/>
</g>
<defs>
<clipPath id="clip0_363_3409">
<rect width="24" height="24" fill="white"/>
</clipPath>
</defs>
</svg>
