<svg width="24" height="24" viewBox="0 0 24 24" fill="none" xmlns="http://www.w3.org/2000/svg">
<path d="M14.601 3.28743L18.7016 7.32496C18.8925 7.51292 19 7.76962 19 8.03752V16C19 16.5523 18.5523 17 18 17H9C8.44772 17 8 16.5523 8 16V4C8 3.44772 8.44772 3 9 3H13.8994C14.1619 3 14.4139 3.10324 14.601 3.28743Z" stroke="black" stroke-width="2" stroke-linecap="round"/>
<path d="M14.3125 3.68896V7.10008C14.3125 7.37622 14.5364 7.60008 14.8125 7.60008H18.2847" stroke="black" stroke-width="2" stroke-linecap="round"/>
<path d="M16 20.1875V20.1875C16 20.6362 15.6362 21 15.1875 21H6C4.89543 21 4 20.1046 4 19V6.76923C4 6.3444 4.3444 6 4.76923 6V6" stroke="black" stroke-width="2" stroke-linecap="square"/>
</svg>
