<svg width="24" height="24" viewBox="0 0 24 24" fill="none" xmlns="http://www.w3.org/2000/svg">
<rect width="24" height="24" fill="white"/>
<path fill-rule="evenodd" clip-rule="evenodd" d="M18 10H13.5C12.6716 10 12 9.32843 12 8.5V4H6V20H18V10ZM13.6969 2.28279C13.5168 2.10777 13.271 2 13 2C12.9537 2 12.9082 2.00314 12.8636 2.00923C12.8 2.0031 12.736 2 12.6716 2H6C4.89543 2 4 2.89543 4 4V20C4 21.1046 4.89543 22 6 22H18C19.1046 22 20 21.1046 20 20V9.32843C20 9.26404 19.9969 9.19998 19.9908 9.13644C19.9969 9.09183 20 9.04628 20 9C20 8.72904 19.8922 8.48324 19.7172 8.30315C19.6333 8.16266 19.5319 8.03186 19.4142 7.91421L14.0858 2.58579C13.9681 2.46814 13.8373 2.36666 13.6969 2.28279ZM14 5.32843V8H16.6716L14 5.32843Z" fill="black"/>
<path d="M8 15H16" stroke="black" stroke-width="2"/>
</svg>
