<svg width="24" height="24" viewBox="0 0 24 24" fill="none" xmlns="http://www.w3.org/2000/svg">
<rect width="24" height="24" fill="white"/>
<path d="M20.2489 4.83448L20.9922 5.50345L20.2489 4.83448ZM14 11.7778L13.2567 11.1088L13 11.394V11.7778H14ZM13.2764 19.6382L12.8292 20.5326L12.8292 20.5326L13.2764 19.6382ZM10.2764 18.1382L9.82916 19.0326L9.82916 19.0326L10.2764 18.1382ZM9.99999 11.7778H11V11.3941L10.7433 11.1088L9.99999 11.7778ZM3.75101 4.83448L3.00771 5.50345L3.75101 4.83448ZM19.8773 3H4.12265V5H19.8773V3ZM20.9922 5.50345C21.861 4.53816 21.176 3 19.8773 3V5C19.4444 5 19.2161 4.48728 19.5056 4.16552L20.9922 5.50345ZM14.7433 12.4467L20.9922 5.50345L19.5056 4.16552L13.2567 11.1088L14.7433 12.4467ZM13 11.7778V19.191H15V11.7778H13ZM13 19.191C13 18.8193 13.3911 18.5775 13.7236 18.7438L12.8292 20.5326C13.8265 21.0313 15 20.3061 15 19.191H13ZM13.7236 18.7438L10.7236 17.2438L9.82916 19.0326L12.8292 20.5326L13.7236 18.7438ZM10.7236 17.2438C10.893 17.3285 11 17.5016 11 17.691H8.99999C8.99999 18.2591 9.32099 18.7785 9.82916 19.0326L10.7236 17.2438ZM11 17.691V11.7778H8.99999V17.691H11ZM3.00771 5.50345L9.25669 12.4468L10.7433 11.1088L4.4943 4.16552L3.00771 5.50345ZM4.12265 3C2.82399 3 2.13896 4.53817 3.00771 5.50345L4.4943 4.16552C4.78388 4.48728 4.55554 5 4.12265 5V3Z" fill="black"/>
</svg>
