<svg width="24" height="24" viewBox="0 0 24 24" fill="none" xmlns="http://www.w3.org/2000/svg">
<g clip-path="url(#clip0_363_3665)">
<rect width="24" height="24" fill="white"/>
<path d="M0 0H24M0 0V24M0 0L24 24M24 0V24M24 0L0 24M24 24H0" stroke="#C4C4C4" stroke-width="0.13"/>
<circle cx="12" cy="12" r="10" stroke="#C4C4C4" stroke-width="0.13"/>
<rect x="2" y="4" width="20" height="16" rx="1" stroke="#C4C4C4" stroke-width="0.13"/>
<rect x="4" y="2" width="16" height="20" rx="1" stroke="#C4C4C4" stroke-width="0.13"/>
<rect x="3" y="3" width="18" height="18" rx="1" stroke="#C4C4C4" stroke-width="0.13"/>
<circle cx="12" cy="12" r="4" stroke="#C4C4C4" stroke-width="0.13"/>
<path fill-rule="evenodd" clip-rule="evenodd" d="M4.00573 4C3.97893 3.7514 4.04476 3.4925 4.21027 3.27945C4.62828 2.74136 5.3034 2.44676 5.90669 2.27738C6.54912 2.09701 7.29721 2.00728 8.05674 2.00042C9.54496 1.98699 11.2968 2.29211 12.5412 3.09291C13.2379 3.54128 14.4807 3.9274 15.7155 3.99097C17.0116 4.05769 17.8722 3.75549 18.2103 3.32026C18.5491 2.88413 19.1774 2.80526 19.6135 3.14409C19.8767 3.34856 20.0098 3.65841 19.9995 3.96783C19.9998 3.97851 20 3.98924 20 4V13.9248C20 13.9312 20 13.9377 20 13.9442V14C20 14.3658 19.8036 14.6858 19.5104 14.8601C18.5027 15.8454 16.9224 16.0557 15.6126 15.9883C14.113 15.9111 12.5121 15.4526 11.4588 14.7747C10.6703 14.2673 9.35958 13.9887 8.07478 14.0003C7.4478 14.006 6.88176 14.0809 6.4473 14.2029C6.26095 14.2552 6.11247 14.3124 5.99998 14.3682L5.99999 21C5.99999 21.5523 5.55227 22 4.99999 22C4.4477 22 3.99999 21.5523 3.99999 21L3.99998 13.9018L3.99998 13.8826L3.99998 5L3.99998 4H4.00573ZM18 13.5243V5.72835C17.2229 5.97309 16.3723 6.02743 15.6126 5.98832C14.113 5.91112 12.5121 5.45258 11.4588 4.77474C10.6703 4.26727 9.35958 3.98875 8.07478 4.00034C7.4478 4.006 6.88176 4.08095 6.4473 4.20293C6.26095 4.25525 6.11247 4.31242 5.99998 4.36819V5L5.99998 12.252C6.62101 12.0886 7.33369 12.0069 8.05674 12.0004C9.54496 11.987 11.2968 12.2921 12.5412 13.0929C13.2379 13.5413 14.4807 13.9274 15.7155 13.991C16.7972 14.0467 17.5755 13.8454 18 13.5243Z" fill="black"/>
</g>
<defs>
<clipPath id="clip0_363_3665">
<rect width="24" height="24" fill="white"/>
</clipPath>
</defs>
</svg>
