<svg width="24" height="24" viewBox="0 0 24 24" fill="none" xmlns="http://www.w3.org/2000/svg">
<g clip-path="url(#clip0_363_3777)">
<rect width="24" height="24" fill="white"/>
<path d="M0 0H24M0 0V24M0 0L24 24M24 0V24M24 0L0 24M24 24H0" stroke="#C4C4C4" stroke-width="0.13"/>
<circle cx="12" cy="12" r="10" stroke="#C4C4C4" stroke-width="0.13"/>
<rect x="2" y="4" width="20" height="16" rx="1" stroke="#C4C4C4" stroke-width="0.13"/>
<rect x="4" y="2" width="16" height="20" rx="1" stroke="#C4C4C4" stroke-width="0.13"/>
<rect x="3" y="3" width="18" height="18" rx="1" stroke="#C4C4C4" stroke-width="0.13"/>
<circle cx="12" cy="12" r="4" stroke="#C4C4C4" stroke-width="0.13"/>
<path d="M11.2718 6.34161L11.5679 6.65625H12H20C20.5523 6.65625 21 7.10397 21 7.65625V18C21 18.5523 20.5523 19 20 19H4C3.44772 19 3 18.5523 3 18V5C3 4.44772 3.44772 4 4 4H9.06793L11.2718 6.34161Z" stroke="black" stroke-width="2" stroke-linecap="round"/>
<path d="M8 13H16" stroke="black" stroke-width="2"/>
<path d="M12 9L12 17" stroke="black" stroke-width="2"/>
</g>
<defs>
<clipPath id="clip0_363_3777">
<rect width="24" height="24" fill="white"/>
</clipPath>
</defs>
</svg>
