<svg width="24" height="24" viewBox="0 0 24 24" fill="none" xmlns="http://www.w3.org/2000/svg">
<path d="M15.5 4C13.5 4 12 6.5 12 8H16C19 8 18 4 15.5 4Z" stroke="black" stroke-width="2"/>
<path d="M8.3501 4C10.3501 4 11.8501 6.5 11.8501 8H7.8501C4.8501 8 5.8501 4 8.3501 4Z" stroke="black" stroke-width="2"/>
<path d="M19.2 12.2H20.5C20.7761 12.2 21 11.9761 21 11.7V8.5C21 8.22386 20.7761 8 20.5 8H12M19.2 12.2V20.5C19.2 20.7761 18.9761 21 18.7 21H12M19.2 12.2H12H4.8M4.8 12.2V20.5C4.8 20.7761 5.02386 21 5.3 21H12M4.8 12.2H3.5C3.22386 12.2 3 11.9761 3 11.7V8.5C3 8.22386 3.22386 8 3.5 8H12M12 21L12 8" stroke="black" stroke-width="2" stroke-linecap="round"/>
</svg>
