<svg width="24" height="24" viewBox="0 0 24 24" fill="none" xmlns="http://www.w3.org/2000/svg">
<g clip-path="url(#clip0_363_3821)">
<rect width="24" height="24" fill="white"/>
<path d="M0 0H24M0 0V24M0 0L24 24M24 0V24M24 0L0 24M24 24H0" stroke="#C4C4C4" stroke-width="0.13"/>
<circle cx="12" cy="12" r="10" stroke="#C4C4C4" stroke-width="0.13"/>
<rect x="2" y="4" width="20" height="16" rx="1" stroke="#C4C4C4" stroke-width="0.13"/>
<rect x="4" y="2" width="16" height="20" rx="1" stroke="#C4C4C4" stroke-width="0.13"/>
<rect x="3" y="3" width="18" height="18" rx="1" stroke="#C4C4C4" stroke-width="0.13"/>
<circle cx="12" cy="12" r="4" stroke="#C4C4C4" stroke-width="0.13"/>
<path fill-rule="evenodd" clip-rule="evenodd" d="M16 7C16.5207 7 16.6917 6.83627 16.7471 6.76449C16.8198 6.67008 16.8852 6.48056 16.8296 6.18429C16.7102 5.5471 16.1648 5 15.5 5C14.933 5 14.3183 5.36385 13.7926 6.04721C13.555 6.35617 13.3705 6.68663 13.2396 7H13.2405H13.2483H13.256H13.2639H13.2717H13.2796H13.2875H13.2954H13.3033H13.3113H13.3193H13.3273H13.3353H13.3434H13.3515H13.3596H13.3677H13.3759H13.384H13.3922H13.4005H13.4087H13.417H13.4253H13.4336H13.442H13.4503H13.4587H13.4671H13.4756H13.484H13.4925H13.501H13.5096H13.5181H13.5267H13.5353H13.544H13.5526H13.5613H13.57H13.5787H13.5875H13.5963H13.6051H13.6139H13.6227H13.6316H13.6405H13.6494H13.6584H13.6673H13.6763H13.6853H13.6944H13.7034H13.7125H13.7216H13.7308H13.7399H13.7491H13.7583H13.7676H13.7768H13.7861H13.7954H13.8048H13.8141H13.8235H13.8329H13.8423H13.8518H13.8613H13.8708H13.8803H13.8898H13.8994H13.909H13.9186H13.9283H13.938H13.9476H13.9574H13.9671H13.9769H13.9867H13.9965H14.0063H14.0162H14.0261H14.036H14.046H14.0559H14.0659H14.0759H14.086H14.096H14.1061H14.1162H14.1264H14.1365H14.1467H14.1569H14.1672H14.1774H14.1877H14.198H14.2083H14.2187H14.2291H14.2395H14.2499H14.2604H14.2709H14.2814H14.2919H14.3025H14.313H14.3236H14.3343H14.3449H14.3556H14.3663H14.377H14.3878H14.3986H14.4094H14.4202H14.4311H14.4419H14.4528H14.4638H14.4747H14.4857H14.4967H14.5077H14.5188H14.5298H14.5409H14.5521H14.5632H14.5744H14.5856H14.5968H14.6081H14.6194H14.6307H14.642H14.6533H14.6647H14.6761H14.6875H14.699H14.7105H14.722H14.7335H14.745H14.7566H14.7682H14.7798H14.7915H14.8032H14.8149H14.8266H14.8383H14.8501H14.8619H14.8738H14.8856H14.8975H14.9094H14.9213H14.9333H14.9452H14.9572H14.9693H14.9813H14.9934H15.0055H15.0176H15.0298H15.042H15.0542H15.0664H15.0787H15.0909H15.1033H15.1156H15.1279H15.1403H15.1527H15.1652H15.1776H15.1901H15.2026H15.2152H15.2277H15.2403H15.2529H15.2655H15.2782H15.2909H15.3036H15.3163H15.3291H15.3419H15.3547H15.3676H15.3804H15.3933H15.4062H15.4192H15.4321H15.4451H15.4582H15.4712H15.4843H15.4974H15.5105H15.5236H15.5368H15.55H15.5632H15.5765H15.5898H15.6031H15.6164H15.6297H15.6431H15.6565H15.6699H15.6834H15.6969H15.7104H15.7239H15.7375H15.7511H15.7647H15.7783H15.792H15.8057H15.8194H15.8331H15.8469H15.8607H15.8745H15.8883H15.9022H15.9161H15.93H15.944H15.9579H15.9719H15.986H16ZM10.6105 7C10.4796 6.68663 10.2951 6.35617 10.0575 6.04721C9.53181 5.36385 8.91706 5 8.3501 5C7.68527 5 7.13994 5.5471 7.02047 6.18429C6.96492 6.48056 7.03027 6.67008 7.10305 6.76449C7.15837 6.83627 7.3294 7 7.8501 7H7.86415H7.87817H7.89217H7.90614H7.92009H7.93401H7.9479H7.96177H7.97561H7.98943H8.00322H8.01698H8.03072H8.04443H8.05812H8.07178H8.08542H8.09903H8.11261H8.12617H8.1397H8.15321H8.16669H8.18015H8.19358H8.20698H8.22036H8.23371H8.24704H8.26034H8.27362H8.28687H8.30009H8.31329H8.32646H8.33961H8.35273H8.36583H8.3789H8.39194H8.40496H8.41795H8.43092H8.44386H8.45678H8.46967H8.48254H8.49538H8.50819H8.52098H8.53375H8.54649H8.5592H8.57189H8.58455H8.59719H8.6098H8.62238H8.63494H8.64748H8.65999H8.67247H8.68493H8.69736H8.70977H8.72215H8.73451H8.74684H8.75915H8.77143H8.78369H8.79592H8.80812H8.8203H8.83246H8.84459H8.85669H8.86877H8.88082H8.89285H8.90486H8.91683H8.92879H8.94071H8.95262H8.96449H8.97635H8.98817H8.99998H9.01175H9.0235H9.03523H9.04693H9.05861H9.07026H9.08189H9.09349H9.10506H9.11661H9.12814H9.13964H9.15111H9.16257H9.17399H9.18539H9.19677H9.20812H9.21944H9.23074H9.24202H9.25327H9.2645H9.2757H9.28687H9.29802H9.30915H9.32025H9.33133H9.34238H9.3534H9.36441H9.37538H9.38634H9.39726H9.40816H9.41904H9.4299H9.44072H9.45153H9.4623H9.47306H9.48379H9.49449H9.50517H9.51582H9.52645H9.53706H9.54764H9.55819H9.56873H9.57923H9.58971H9.60017H9.6106H9.62101H9.63139H9.64175H9.65208H9.66239H9.67268H9.68294H9.69317H9.70338H9.71357H9.72373H9.73387H9.74398H9.75407H9.76413H9.77417H9.78418H9.79417H9.80414H9.81408H9.824H9.83389H9.84376H9.8536H9.86342H9.87321H9.88298H9.89273H9.90245H9.91214H9.92182H9.93146H9.94109H9.95069H9.96026H9.96981H9.97934H9.98884H9.99832H10.0078H10.0172H10.0266H10.036H10.0453H10.0547H10.064H10.0733H10.0825H10.0918H10.101H10.1102H10.1193H10.1285H10.1376H10.1467H10.1557H10.1648H10.1738H10.1828H10.1917H10.2007H10.2096H10.2185H10.2274H10.2362H10.245H10.2538H10.2626H10.2714H10.2801H10.2888H10.2975H10.3061H10.3148H10.3234H10.332H10.3405H10.3491H10.3576H10.3661H10.3745H10.383H10.3914H10.3998H10.4081H10.4165H10.4248H10.4331H10.4414H10.4496H10.4579H10.4661H10.4742H10.4824H10.4905H10.4986H10.5067H10.5148H10.5228H10.5308H10.5388H10.5468H10.5547H10.5626H10.5705H10.5784H10.5862H10.594H10.6018H10.6096H10.6105ZM5.06434 7C4.97729 6.60144 4.98394 6.19322 5.05473 5.81571C5.31025 4.4529 6.51493 3 8.3501 3C9.78314 3 10.9184 3.88615 11.6427 4.82779C11.7415 4.95618 11.8358 5.0896 11.925 5.22689C12.0143 5.0896 12.1086 4.95618 12.2074 4.82779C12.9317 3.88615 14.067 3 15.5 3C17.3352 3 18.5398 4.4529 18.7954 5.81571C18.8662 6.19322 18.8728 6.60144 18.7858 7H21C21.5523 7 22 7.44772 22 8V12C22 12.5523 21.5523 13 21 13H20V21C20 21.5523 19.5523 22 19 22H5C4.44772 22 4 21.5523 4 21V13H3C2.44772 13 2 12.5523 2 12V8C2 7.44772 2.44772 7 3 7H5.06434ZM7.8501 9H4V11H5H11V9H10.9945H10.988H10.9815H10.9749H10.9683H10.9617H10.9551H10.9485H10.9418H10.9351H10.9284H10.9216H10.9149H10.9081H10.9013H10.8944H10.8876H10.8807H10.8738H10.8669H10.8599H10.8529H10.8459H10.8389H10.8319H10.8248H10.8177H10.8106H10.8035H10.7963H10.7891H10.7819H10.7747H10.7674H10.7601H10.7528H10.7455H10.7382H10.7308H10.7234H10.716H10.7085H10.7011H10.6936H10.6861H10.6785H10.671H10.6634H10.6558H10.6481H10.6405H10.6328H10.6251H10.6174H10.6096H10.6018H10.594H10.5862H10.5784H10.5705H10.5626H10.5547H10.5468H10.5388H10.5308H10.5228H10.5148H10.5067H10.4986H10.4905H10.4824H10.4742H10.4661H10.4579H10.4496H10.4414H10.4331H10.4248H10.4165H10.4081H10.3998H10.3914H10.383H10.3745H10.3661H10.3576H10.3491H10.3405H10.332H10.3234H10.3148H10.3061H10.2975H10.2888H10.2801H10.2714H10.2626H10.2538H10.245H10.2362H10.2274H10.2185H10.2096H10.2007H10.1917H10.1828H10.1738H10.1648H10.1557H10.1467H10.1376H10.1285H10.1193H10.1102H10.101H10.0918H10.0825H10.0733H10.064H10.0547H10.0453H10.036H10.0266H10.0172H10.0078H9.99832H9.98884H9.97934H9.96981H9.96026H9.95069H9.94109H9.93146H9.92182H9.91214H9.90245H9.89273H9.88298H9.87321H9.86342H9.8536H9.84376H9.83389H9.824H9.81408H9.80414H9.79417H9.78418H9.77417H9.76413H9.75407H9.74398H9.73387H9.72373H9.71357H9.70338H9.69317H9.68294H9.67268H9.66239H9.65208H9.64175H9.63139H9.62101H9.6106H9.60017H9.58971H9.57923H9.56873H9.55819H9.54764H9.53706H9.52645H9.51582H9.50517H9.49449H9.48379H9.47306H9.4623H9.45153H9.44072H9.4299H9.41904H9.40816H9.39726H9.38634H9.37538H9.36441H9.3534H9.34238H9.33133H9.32025H9.30915H9.29802H9.28687H9.2757H9.2645H9.25327H9.24202H9.23074H9.21944H9.20812H9.19677H9.18539H9.17399H9.16257H9.15111H9.13964H9.12814H9.11661H9.10506H9.09349H9.08189H9.07026H9.05861H9.04693H9.03523H9.0235H9.01175H8.99998H8.98817H8.97635H8.96449H8.95262H8.94071H8.92879H8.91683H8.90486H8.89285H8.88082H8.86877H8.85669H8.84459H8.83246H8.8203H8.80812H8.79592H8.78369H8.77143H8.75915H8.74684H8.73451H8.72215H8.70977H8.69736H8.68493H8.67247H8.65999H8.64748H8.63494H8.62238H8.6098H8.59719H8.58455H8.57189H8.5592H8.54649H8.53375H8.52098H8.50819H8.49538H8.48254H8.46967H8.45678H8.44386H8.43092H8.41795H8.40496H8.39194H8.3789H8.36583H8.35273H8.33961H8.32646H8.31329H8.30009H8.28687H8.27362H8.26034H8.24704H8.23371H8.22036H8.20698H8.19358H8.18015H8.16669H8.15321H8.1397H8.12617H8.11261H8.09903H8.08542H8.07178H8.05812H8.04443H8.03072H8.01698H8.00322H7.98943H7.97561H7.96177H7.9479H7.93401H7.92009H7.90614H7.89217H7.87817H7.86415H7.8501ZM13 9V11H19H20V9H16H15.986H15.9719H15.9579H15.944H15.93H15.9161H15.9022H15.8883H15.8745H15.8607H15.8469H15.8331H15.8194H15.8057H15.792H15.7783H15.7647H15.7511H15.7375H15.7239H15.7104H15.6969H15.6834H15.6699H15.6565H15.6431H15.6297H15.6164H15.6031H15.5898H15.5765H15.5632H15.55H15.5368H15.5236H15.5105H15.4974H15.4843H15.4712H15.4582H15.4451H15.4321H15.4192H15.4062H15.3933H15.3804H15.3676H15.3547H15.3419H15.3291H15.3163H15.3036H15.2909H15.2782H15.2655H15.2529H15.2403H15.2277H15.2152H15.2026H15.1901H15.1776H15.1652H15.1527H15.1403H15.1279H15.1156H15.1033H15.0909H15.0787H15.0664H15.0542H15.042H15.0298H15.0176H15.0055H14.9934H14.9813H14.9693H14.9572H14.9452H14.9333H14.9213H14.9094H14.8975H14.8856H14.8738H14.8619H14.8501H14.8383H14.8266H14.8149H14.8032H14.7915H14.7798H14.7682H14.7566H14.745H14.7335H14.722H14.7105H14.699H14.6875H14.6761H14.6647H14.6533H14.642H14.6307H14.6194H14.6081H14.5968H14.5856H14.5744H14.5632H14.5521H14.5409H14.5298H14.5188H14.5077H14.4967H14.4857H14.4747H14.4638H14.4528H14.4419H14.4311H14.4202H14.4094H14.3986H14.3878H14.377H14.3663H14.3556H14.3449H14.3343H14.3236H14.313H14.3025H14.2919H14.2814H14.2709H14.2604H14.2499H14.2395H14.2291H14.2187H14.2083H14.198H14.1877H14.1774H14.1672H14.1569H14.1467H14.1365H14.1264H14.1162H14.1061H14.096H14.086H14.0759H14.0659H14.0559H14.046H14.036H14.0261H14.0162H14.0063H13.9965H13.9867H13.9769H13.9671H13.9574H13.9476H13.938H13.9283H13.9186H13.909H13.8994H13.8898H13.8803H13.8708H13.8613H13.8518H13.8423H13.8329H13.8235H13.8141H13.8048H13.7954H13.7861H13.7768H13.7676H13.7583H13.7491H13.7399H13.7308H13.7216H13.7125H13.7034H13.6944H13.6853H13.6763H13.6673H13.6584H13.6494H13.6405H13.6316H13.6227H13.6139H13.6051H13.5963H13.5875H13.5787H13.57H13.5613H13.5526H13.544H13.5353H13.5267H13.5181H13.5096H13.501H13.4925H13.484H13.4756H13.4671H13.4587H13.4503H13.442H13.4336H13.4253H13.417H13.4087H13.4005H13.3922H13.384H13.3759H13.3677H13.3596H13.3515H13.3434H13.3353H13.3273H13.3193H13.3113H13.3033H13.2954H13.2875H13.2796H13.2717H13.2639H13.256H13.2483H13.2405H13.2327H13.225H13.2173H13.2096H13.202H13.1943H13.1867H13.1791H13.1716H13.164H13.1565H13.149H13.1416H13.1341H13.1267H13.1193H13.1119H13.1046H13.0973H13.09H13.0827H13.0754H13.0682H13.061H13.0538H13.0466H13.0395H13.0324H13.0253H13.0182H13.0112H13.0042H13ZM11 13H6V20H11V13ZM13 20V13H18V20H13Z" fill="black"/>
</g>
<defs>
<clipPath id="clip0_363_3821">
<rect width="24" height="24" fill="white"/>
</clipPath>
</defs>
</svg>
