<svg width="24" height="24" viewBox="0 0 24 24" fill="none" xmlns="http://www.w3.org/2000/svg">
<rect width="24" height="24" fill="white"/>
<path fill-rule="evenodd" clip-rule="evenodd" d="M3.35982 8.89845C3.13182 9.08844 3 9.36989 3 9.66667V11V11.6983V19C3 20.6569 4.34315 22 6 22H8L10 22V14H14V22L16 22H18C19.6569 22 21 20.6569 21 19V11.6983V11V9.66667C21 9.36989 20.8682 9.08844 20.6402 8.89844L12.6402 2.23178C12.2693 1.92274 11.7307 1.92274 11.3598 2.23178L3.35982 8.89845ZM16 20H18C18.5523 20 19 19.5523 19 19V12.6983V11V10.6983V10.135L12 4.30171L5 10.135V10.6983V11V12.6983V19C5 19.5523 5.44772 20 6 20H8V13C8 12.4477 8.44772 12 9 12H15C15.5523 12 16 12.4477 16 13V20Z" fill="black"/>
</svg>
