<svg width="24" height="24" viewBox="0 0 24 24" fill="none" xmlns="http://www.w3.org/2000/svg">
<g clip-path="url(#clip0_365_4382)">
<rect width="24" height="24" fill="white"/>
<path d="M0 0H24M0 0V24M0 0L24 24M24 0V24M24 0L0 24M24 24H0" stroke="#C4C4C4" stroke-width="0.13"/>
<circle cx="12" cy="12" r="10" stroke="#C4C4C4" stroke-width="0.13"/>
<rect x="2" y="4" width="20" height="16" rx="1" stroke="#C4C4C4" stroke-width="0.13"/>
<rect x="4" y="2" width="16" height="20" rx="1" stroke="#C4C4C4" stroke-width="0.13"/>
<rect x="3" y="3" width="18" height="18" rx="1" stroke="#C4C4C4" stroke-width="0.13"/>
<circle cx="12" cy="12" r="4" stroke="#C4C4C4" stroke-width="0.13"/>
<path fill-rule="evenodd" clip-rule="evenodd" d="M2 13.1623C2 13.0548 2.01733 12.948 2.05132 12.8461L4.54415 5.36754C4.81638 4.55086 5.58066 4 6.44152 4H17.5585C18.4193 4 19.1836 4.55086 19.4558 5.36754L21.9487 12.8461C21.9827 12.948 22 13.0548 22 13.1623V19C22 20.1046 21.1046 21 20 21H4C2.89543 21 2 20.1046 2 19V13.1623ZM4 14V19H20V14H16.1662L14.8031 16.2717C14.5321 16.7236 14.0438 17 13.5169 17H12H10.45C9.97786 17 9.53328 16.7777 9.25 16.4L7.45 14H4ZM19.5585 12L17.5585 5.99999L6.44152 6L4.44152 12H7.7C8.17214 12 8.61672 12.2223 8.9 12.6L10.7 15H12H13.2338L14.5969 12.7283C14.8679 12.2764 15.3562 12 15.8831 12H19.5585Z" fill="black"/>
</g>
<defs>
<clipPath id="clip0_365_4382">
<rect width="24" height="24" fill="white"/>
</clipPath>
</defs>
</svg>
