<svg width="24" height="24" viewBox="0 0 24 24" fill="none" xmlns="http://www.w3.org/2000/svg">
<path d="M3 13.1623L5.49284 5.68377C5.62895 5.27543 6.01109 5 6.44152 5H17.5585C17.9889 5 18.3711 5.27543 18.5072 5.68377L19.4558 5.36754L18.5072 5.68377L21 13.1623V19C21 19.5523 20.5523 20 20 20H4C3.44772 20 3 19.5523 3 19L3 13.1623Z" stroke="black" stroke-width="2"/>
<path d="M3 13H7.7C7.85738 13 8.00557 13.0741 8.1 13.2L10.05 15.8C10.1444 15.9259 10.2926 16 10.45 16H12H13.5169C13.6925 16 13.8553 15.9079 13.9457 15.7572L15.4543 13.2428C15.5447 13.0921 15.7075 13 15.8831 13H21" stroke="black" stroke-width="2"/>
</svg>
