<svg width="24" height="24" viewBox="0 0 24 24" fill="none" xmlns="http://www.w3.org/2000/svg">
<path d="M18.7172 4.16326C18.9693 4.27104 19.1983 4.42901 19.3912 4.62816C19.5842 4.82721 19.7373 5.06354 19.8418 5.32366C19.9462 5.58378 20 5.86259 20 6.14416C20 6.42572 19.9462 6.70453 19.8418 6.96465C19.7373 7.22477 19.5842 7.46111 19.3912 7.66016L16.6195 10.5203C16.3093 10.8403 15.7958 10.8403 15.4856 10.5203L12.7138 7.66016C12.3242 7.25809 12.1053 6.71277 12.1053 6.14416C12.1053 5.57555 12.3242 5.03023 12.7138 4.62816C13.1035 4.22609 13.632 4.00021 14.183 4.00021C14.7341 4.00021 15.2625 4.22609 15.6522 4.62816L16.0525 5.04126L16.4529 4.62816C16.6458 4.42901 16.8748 4.27104 17.1269 4.16326C17.379 4.05548 17.6492 4 17.9221 4C18.1949 4 18.4651 4.05548 18.7172 4.16326Z" stroke="black" stroke-width="2"/>
<path d="M9.55302 11.1053L4.34172 11.1053C3.73976 11.1053 3.35926 10.4586 3.6516 9.93239L6.25724 5.24222C6.55804 4.7008 7.3367 4.7008 7.63749 5.24222L10.2431 9.93239C10.5355 10.4586 10.155 11.1053 9.55302 11.1053Z" stroke="black" stroke-width="2"/>
<path d="M10.1053 17.4474C10.1053 19.4094 8.5147 21 6.55263 21C4.59057 21 3 19.4094 3 17.4474C3 15.4853 4.59057 13.8947 6.55263 13.8947C8.5147 13.8947 10.1053 15.4853 10.1053 17.4474Z" stroke="black" stroke-width="2"/>
<path d="M13.6842 13.8947C13.2482 13.8947 12.8947 14.2482 12.8947 14.6842V20.2105C12.8947 20.6465 13.2482 21 13.6842 21H19.2105C19.6465 21 20 20.6465 20 20.2105V14.6842C20 14.2482 19.6465 13.8947 19.2105 13.8947H13.6842Z" stroke="black" stroke-width="2"/>
</svg>
