<svg width="24" height="24" viewBox="0 0 24 24" fill="none" xmlns="http://www.w3.org/2000/svg">
<g clip-path="url(#clip0_356_1101)">
<rect width="24" height="24" fill="white"/>
<path d="M0 0H24M0 0V24M0 0L24 24M24 0V24M24 0L0 24M24 24H0" stroke="#C4C4C4" stroke-width="0.13"/>
<circle cx="12" cy="12" r="10" stroke="#C4C4C4" stroke-width="0.13"/>
<rect x="2" y="4" width="20" height="16" rx="1" stroke="#C4C4C4" stroke-width="0.13"/>
<rect x="4" y="2" width="16" height="20" rx="1" stroke="#C4C4C4" stroke-width="0.13"/>
<rect x="3" y="3" width="18" height="18" rx="1" stroke="#C4C4C4" stroke-width="0.13"/>
<circle cx="12" cy="12" r="4" stroke="#C4C4C4" stroke-width="0.13"/>
<path d="M9 7H19" stroke="black" stroke-width="2" stroke-linecap="round"/>
<path d="M9 12H19" stroke="black" stroke-width="2" stroke-linecap="round"/>
<path d="M9 17H19" stroke="black" stroke-width="2" stroke-linecap="round"/>
<circle cx="5" cy="7" r="1" fill="black"/>
<circle cx="5" cy="12" r="1" fill="black"/>
<circle cx="5" cy="17" r="1" fill="black"/>
</g>
<defs>
<clipPath id="clip0_356_1101">
<rect width="24" height="24" fill="white"/>
</clipPath>
</defs>
</svg>
