<svg width="24" height="24" viewBox="0 0 24 24" fill="none" xmlns="http://www.w3.org/2000/svg">
<rect width="24" height="24" fill="white"/>
<path d="M13.1214 12L4.00002 12.0209" stroke="black" stroke-width="2" stroke-linecap="round"/>
<path d="M14.1214 12L14.8285 12.7071C15.016 12.5196 15.1214 12.2652 15.1214 12C15.1214 11.7348 15.016 11.4804 14.8285 11.2929L14.1214 12ZM10.8285 7.29289C10.438 6.90237 9.80482 6.90237 9.41429 7.29289C9.02377 7.68342 9.02377 8.31658 9.41429 8.70711L10.8285 7.29289ZM9.41429 15.2929C9.02377 15.6834 9.02377 16.3166 9.41429 16.7071C9.80481 17.0976 10.438 17.0976 10.8285 16.7071L9.41429 15.2929ZM14.8285 11.2929L10.8285 7.29289L9.41429 8.70711L13.4143 12.7071L14.8285 11.2929ZM13.4143 11.2929L9.41429 15.2929L10.8285 16.7071L14.8285 12.7071L13.4143 11.2929Z" fill="black"/>
<path d="M14 3H18C19.1046 3 20 3.89543 20 5V19C20 20.1046 19.1046 21 18 21H14" stroke="black" stroke-width="2" stroke-linecap="round"/>
</svg>
