<svg width="24" height="24" viewBox="0 0 24 24" fill="none" xmlns="http://www.w3.org/2000/svg">
<g clip-path="url(#clip0_358_2141)">
<rect width="24" height="24" fill="white"/>
<path d="M0 0H24M0 0V24M0 0L24 24M24 0V24M24 0L0 24M24 24H0" stroke="#C4C4C4" stroke-width="0.13"/>
<circle cx="12" cy="12" r="10" stroke="#C4C4C4" stroke-width="0.13"/>
<rect x="2" y="4" width="20" height="16" rx="1" stroke="#C4C4C4" stroke-width="0.13"/>
<rect x="4" y="2" width="16" height="20" rx="1" stroke="#C4C4C4" stroke-width="0.13"/>
<rect x="3" y="3" width="18" height="18" rx="1" stroke="#C4C4C4" stroke-width="0.13"/>
<circle cx="12" cy="12" r="4" stroke="#C4C4C4" stroke-width="0.13"/>
<path d="M19.1421 2.82837V3.82837V2.82837ZM15.4853 1.82837C14.933 1.82837 14.4853 2.27608 14.4853 2.82837C14.4853 3.38065 14.933 3.82837 15.4853 3.82837V1.82837ZM21.1421 4.82837L22.1421 4.82837L22.1421 4.82837L21.1421 4.82837ZM20.1421 8.48522C20.1421 9.03751 20.5898 9.48522 21.1421 9.48522C21.6944 9.48522 22.1421 9.03751 22.1421 8.48522L20.1421 8.48522ZM19.1421 1.82837L15.4853 1.82837V3.82837L19.1421 3.82837L19.1421 1.82837ZM20.1421 4.82837L20.1421 8.48522L22.1421 8.48522L22.1421 4.82837L20.1421 4.82837ZM19.1421 3.82837C19.6944 3.82837 20.1421 4.27608 20.1421 4.82837L22.1421 4.82837C22.1421 3.17152 20.799 1.82837 19.1421 1.82837L19.1421 3.82837Z" fill="black"/>
<path d="M4.82844 20.9854L4.82844 19.9854L4.82844 20.9854ZM8.48529 21.9854C9.03758 21.9854 9.48529 21.5376 9.48529 20.9854C9.48529 20.4331 9.03758 19.9854 8.48529 19.9854L8.48529 21.9854ZM2.82844 18.9854L1.82844 18.9854L1.82844 18.9854L2.82844 18.9854ZM3.82844 15.3285C3.82844 14.7762 3.38072 14.3285 2.82844 14.3285C2.27615 14.3285 1.82844 14.7762 1.82844 15.3285L3.82844 15.3285ZM4.82844 21.9854L8.48529 21.9854L8.48529 19.9854L4.82844 19.9854L4.82844 21.9854ZM3.82844 18.9854L3.82844 15.3285L1.82844 15.3285L1.82844 18.9854L3.82844 18.9854ZM4.82844 19.9854C4.27615 19.9854 3.82844 19.5376 3.82844 18.9854L1.82844 18.9854C1.82844 20.6422 3.17158 21.9854 4.82844 21.9854L4.82844 19.9854Z" fill="black"/>
<path d="M21.0638 19.0636L20.0638 19.0636L21.0638 19.0636ZM22.0638 15.4067C22.0638 14.8545 21.6161 14.4067 21.0638 14.4067C20.5115 14.4067 20.0638 14.8545 20.0638 15.4067L22.0638 15.4067ZM19.0638 21.0636L19.0638 22.0636L19.0638 22.0636L19.0638 21.0636ZM15.407 20.0636C14.8547 20.0636 14.407 20.5113 14.407 21.0636C14.407 21.6159 14.8547 22.0636 15.407 22.0636L15.407 20.0636ZM22.0638 19.0636L22.0638 15.4067L20.0638 15.4067L20.0638 19.0636L22.0638 19.0636ZM19.0638 20.0636L15.407 20.0636L15.407 22.0636L19.0638 22.0636L19.0638 20.0636ZM20.0638 19.0636C20.0638 19.6159 19.6161 20.0636 19.0638 20.0636L19.0638 22.0636C20.7207 22.0636 22.0638 20.7204 22.0638 19.0636H20.0638Z" fill="black"/>
<path d="M2.90671 4.75013L3.90671 4.75013L2.90671 4.75013ZM1.90671 8.40698C1.90671 8.95927 2.35442 9.40698 2.90671 9.40698C3.45899 9.40698 3.90671 8.95927 3.90671 8.40698L1.90671 8.40698ZM4.90671 2.75013L4.90671 1.75013L4.90671 1.75013L4.90671 2.75013ZM8.56356 3.75013C9.11585 3.75013 9.56356 3.30241 9.56356 2.75013C9.56356 2.19784 9.11585 1.75013 8.56356 1.75013L8.56356 3.75013ZM1.90671 4.75013L1.90671 8.40698L3.90671 8.40698L3.90671 4.75013L1.90671 4.75013ZM4.90671 3.75013L8.56356 3.75013L8.56356 1.75013L4.90671 1.75013L4.90671 3.75013ZM3.90671 4.75013C3.90671 4.19784 4.35442 3.75013 4.90671 3.75013L4.90671 1.75013C3.24985 1.75013 1.90671 3.09327 1.90671 4.75013L3.90671 4.75013Z" fill="black"/>
</g>
<defs>
<clipPath id="clip0_358_2141">
<rect width="24" height="24" fill="white"/>
</clipPath>
</defs>
</svg>
