<svg width="24" height="24" viewBox="0 0 24 24" fill="none" xmlns="http://www.w3.org/2000/svg">
<rect width="24" height="24" fill="white"/>
<path fill-rule="evenodd" clip-rule="evenodd" d="M1.90672 8.40685C1.90672 8.95914 2.35443 9.40685 2.90672 9.40685C3.459 9.40685 3.90672 8.95914 3.90672 8.40685L3.90672 4.75C3.90672 4.19772 4.35443 3.75 4.90672 3.75L8.56357 3.75C9.11586 3.75 9.56357 3.30229 9.56357 2.75C9.56357 2.19772 9.11586 1.75 8.56357 1.75H4.90672C3.24986 1.75 1.90672 3.09315 1.90672 4.75L1.90672 8.40685ZM15.4853 1.82837C14.933 1.82837 14.4853 2.27608 14.4853 2.82837C14.4853 3.38065 14.933 3.82837 15.4853 3.82837H19.1421C19.6944 3.82837 20.1421 4.27608 20.1421 4.82837L20.1421 8.48522C20.1421 9.03751 20.5898 9.48522 21.1421 9.48522C21.6944 9.48522 22.1421 9.03751 22.1421 8.48522L22.1421 4.82837C22.1421 3.17152 20.799 1.82837 19.1421 1.82837L15.4853 1.82837ZM8.48528 21.9855C9.03757 21.9855 9.48528 21.5378 9.48528 20.9855C9.48528 20.4332 9.03757 19.9855 8.48528 19.9855H4.82843C4.27615 19.9855 3.82843 19.5378 3.82843 18.9855L3.82843 15.3286C3.82843 14.7763 3.38072 14.3286 2.82843 14.3286C2.27615 14.3286 1.82843 14.7763 1.82843 15.3286V18.9855C1.82843 20.6423 3.17158 21.9855 4.82843 21.9855H8.48528ZM21.0638 14.4068C21.6161 14.4068 22.0638 14.8546 22.0638 15.4068V19.0637C22.0638 20.7206 20.7207 22.0637 19.0638 22.0637H15.407C14.8547 22.0637 14.407 21.616 14.407 21.0637C14.407 20.5114 14.8547 20.0637 15.407 20.0637L19.0638 20.0637C19.6161 20.0637 20.0638 19.616 20.0638 19.0637V15.4068C20.0638 14.8546 20.5115 14.4068 21.0638 14.4068Z" fill="black"/>
</svg>