<svg width="24" height="24" viewBox="0 0 24 24" fill="none" xmlns="http://www.w3.org/2000/svg">
<g clip-path="url(#clip0_358_1740)">
<rect width="24" height="24" fill="white"/>
<path d="M0 0H24M0 0V24M0 0L24 24M24 0V24M24 0L0 24M24 24H0" stroke="#C4C4C4" stroke-width="0.13"/>
<circle cx="12" cy="12" r="10" stroke="#C4C4C4" stroke-width="0.13"/>
<rect x="2" y="4" width="20" height="16" rx="1" stroke="#C4C4C4" stroke-width="0.13"/>
<rect x="4" y="2" width="16" height="20" rx="1" stroke="#C4C4C4" stroke-width="0.13"/>
<rect x="3" y="3" width="18" height="18" rx="1" stroke="#C4C4C4" stroke-width="0.13"/>
<circle cx="12" cy="12" r="4" stroke="#C4C4C4" stroke-width="0.13"/>
<path d="M20.435 3.5354L14 10" stroke="black" stroke-width="2" stroke-linecap="round"/>
<path d="M21.1421 2.82837L22.1421 2.82837C22.1421 2.56315 22.0368 2.3088 21.8492 2.12126C21.6617 1.93373 21.4073 1.82837 21.1421 1.82837L21.1421 2.82837ZM15.4853 1.82837C14.933 1.82837 14.4853 2.27608 14.4853 2.82837C14.4853 3.38065 14.933 3.82837 15.4853 3.82837V1.82837ZM20.1421 8.48522C20.1421 9.03751 20.5898 9.48522 21.1421 9.48522C21.6944 9.48522 22.1421 9.03751 22.1421 8.48522L20.1421 8.48522ZM21.1421 1.82837L15.4853 1.82837V3.82837L21.1421 3.82837V1.82837ZM20.1421 2.82837L20.1421 8.48522L22.1421 8.48522L22.1421 2.82837L20.1421 2.82837Z" fill="black"/>
<path d="M3.53552 20.2783L9.97055 13.8137" stroke="black" stroke-width="2" stroke-linecap="round"/>
<path d="M2.82844 20.9854L1.82844 20.9854C1.82844 21.2506 1.93379 21.5049 2.12133 21.6925C2.30887 21.88 2.56322 21.9854 2.82844 21.9854L2.82844 20.9854ZM8.48529 21.9854C9.03758 21.9854 9.48529 21.5376 9.48529 20.9854C9.48529 20.4331 9.03758 19.9854 8.48529 19.9854L8.48529 21.9854ZM3.82844 15.3285C3.82844 14.7762 3.38072 14.3285 2.82844 14.3285C2.27615 14.3285 1.82844 14.7762 1.82844 15.3285L3.82844 15.3285ZM2.82844 21.9854L8.48529 21.9854L8.48529 19.9854L2.82844 19.9854L2.82844 21.9854ZM3.82844 20.9854L3.82844 15.3285L1.82844 15.3285L1.82844 20.9854H3.82844Z" fill="black"/>
</g>
<defs>
<clipPath id="clip0_358_1740">
<rect width="24" height="24" fill="white"/>
</clipPath>
</defs>
</svg>
