<svg width="24" height="24" viewBox="0 0 24 24" fill="none" xmlns="http://www.w3.org/2000/svg">
<rect width="24" height="24" fill="white"/>
<path d="M9.27823 14.5354L2.8432 21" stroke="black" stroke-width="2" stroke-linecap="round"/>
<path d="M9.98532 13.8284L10.9853 13.8284C10.9853 13.5632 10.88 13.3088 10.6924 13.1213C10.5049 12.9337 10.2505 12.8284 9.98531 12.8284L9.98532 13.8284ZM4.32846 12.8284C3.77618 12.8284 3.32846 13.2761 3.32846 13.8284C3.32846 14.3807 3.77618 14.8284 4.32846 14.8284V12.8284ZM8.98531 19.4852C8.98531 20.0375 9.43303 20.4852 9.98531 20.4852C10.5376 20.4852 10.9853 20.0375 10.9853 19.4852L8.98531 19.4852ZM9.98531 12.8284L4.32846 12.8284V14.8284L9.98531 14.8284V12.8284ZM8.98531 13.8284L8.98531 19.4852L10.9853 19.4852L10.9853 13.8284L8.98531 13.8284Z" fill="black"/>
<path d="M14.5355 9.27832L20.9705 2.81372" stroke="black" stroke-width="2" stroke-linecap="round"/>
<path d="M13.8284 9.98535L12.8284 9.98535C12.8284 10.2506 12.9338 10.5049 13.1213 10.6925C13.3089 10.88 13.5632 10.9854 13.8284 10.9854L13.8284 9.98535ZM19.4853 10.9854C20.0376 10.9854 20.4853 10.5376 20.4853 9.98535C20.4853 9.43307 20.0376 8.98535 19.4853 8.98535L19.4853 10.9854ZM14.8284 4.3285C14.8284 3.77621 14.3807 3.3285 13.8284 3.3285C13.2762 3.3285 12.8284 3.77621 12.8284 4.3285L14.8284 4.3285ZM13.8284 10.9854L19.4853 10.9854L19.4853 8.98535L13.8284 8.98535L13.8284 10.9854ZM14.8284 9.98535L14.8284 4.3285L12.8284 4.3285L12.8284 9.98535H14.8284Z" fill="black"/>
</svg>
