<svg width="24" height="24" viewBox="0 0 24 24" fill="none" xmlns="http://www.w3.org/2000/svg">
<g clip-path="url(#clip0_358_2295)">
<rect width="24" height="24" fill="white"/>
<path d="M0 0H24M0 0V24M0 0L24 24M24 0V24M24 0L0 24M24 24H0" stroke="#C4C4C4" stroke-width="0.13"/>
<circle cx="12" cy="12" r="10" stroke="#C4C4C4" stroke-width="0.13"/>
<rect x="2" y="4" width="20" height="16" rx="1" stroke="#C4C4C4" stroke-width="0.13"/>
<rect x="4" y="2" width="16" height="20" rx="1" stroke="#C4C4C4" stroke-width="0.13"/>
<rect x="3" y="3" width="18" height="18" rx="1" stroke="#C4C4C4" stroke-width="0.13"/>
<circle cx="12" cy="12" r="4" stroke="#C4C4C4" stroke-width="0.13"/>
<path d="M8.65686 6.65685L7.65686 6.65685L8.65686 6.65685ZM9.65686 3C9.65686 2.44772 9.20915 2 8.65686 2C8.10458 2 7.65686 2.44772 7.65686 3L9.65686 3ZM6.65686 8.65685L6.65686 9.65685L6.65686 9.65685L6.65686 8.65685ZM3.00001 7.65685C2.44772 7.65685 2.00001 8.10457 2.00001 8.65685C2.00001 9.20914 2.44772 9.65685 3.00001 9.65685L3.00001 7.65685ZM9.65686 6.65685L9.65686 3L7.65686 3L7.65686 6.65685L9.65686 6.65685ZM6.65686 7.65685L3.00001 7.65685L3.00001 9.65685L6.65686 9.65685L6.65686 7.65685ZM7.65686 6.65685C7.65686 7.20914 7.20914 7.65685 6.65686 7.65685L6.65686 9.65685C8.31371 9.65685 9.65686 8.31371 9.65686 6.65685H7.65686Z" fill="black"/>
<path d="M15.3284 17.3285L16.3284 17.3285L15.3284 17.3285ZM14.3284 20.9854C14.3284 21.5376 14.7761 21.9854 15.3284 21.9854C15.8807 21.9854 16.3284 21.5376 16.3284 20.9854L14.3284 20.9854ZM17.3284 15.3285L17.3284 14.3285L17.3284 14.3285L17.3284 15.3285ZM20.9853 16.3285C21.5376 16.3285 21.9853 15.8808 21.9853 15.3285C21.9853 14.7762 21.5376 14.3285 20.9853 14.3285L20.9853 16.3285ZM14.3284 17.3285L14.3284 20.9854L16.3284 20.9854L16.3284 17.3285L14.3284 17.3285ZM17.3284 16.3285L20.9853 16.3285L20.9853 14.3285L17.3284 14.3285L17.3284 16.3285ZM16.3284 17.3285C16.3284 16.7762 16.7761 16.3285 17.3284 16.3285L17.3284 14.3285C15.6716 14.3285 14.3284 15.6716 14.3284 17.3285L16.3284 17.3285Z" fill="black"/>
<path d="M17.3284 8.65674L17.3284 7.65674L17.3284 8.65674ZM20.9853 9.65674C21.5375 9.65674 21.9853 9.20902 21.9853 8.65674C21.9853 8.10445 21.5375 7.65674 20.9853 7.65674L20.9853 9.65674ZM15.3284 6.65674L14.3284 6.65674L14.3284 6.65674L15.3284 6.65674ZM16.3284 2.99988C16.3284 2.4476 15.8807 1.99988 15.3284 1.99988C14.7761 1.99988 14.3284 2.4476 14.3284 2.99988L16.3284 2.99988ZM17.3284 9.65674L20.9853 9.65674L20.9853 7.65674L17.3284 7.65674L17.3284 9.65674ZM16.3284 6.65674L16.3284 2.99988L14.3284 2.99988L14.3284 6.65674L16.3284 6.65674ZM17.3284 7.65674C16.7761 7.65674 16.3284 7.20902 16.3284 6.65674L14.3284 6.65674C14.3284 8.31359 15.6716 9.65674 17.3284 9.65674V7.65674Z" fill="black"/>
<path d="M6.65688 15.3286L6.65688 16.3286L6.65688 15.3286ZM3.00003 14.3286C2.44775 14.3286 2.00003 14.7763 2.00003 15.3286C2.00003 15.8809 2.44775 16.3286 3.00003 16.3286L3.00003 14.3286ZM8.65688 17.3286L9.65688 17.3286L9.65688 17.3286L8.65688 17.3286ZM7.65688 20.9855C7.65688 21.5378 8.1046 21.9855 8.65688 21.9855C9.20917 21.9855 9.65688 21.5378 9.65688 20.9855L7.65688 20.9855ZM6.65688 14.3286L3.00003 14.3286L3.00003 16.3286L6.65688 16.3286L6.65688 14.3286ZM7.65688 17.3286L7.65688 20.9855L9.65688 20.9855L9.65688 17.3286L7.65688 17.3286ZM6.65688 16.3286C7.20917 16.3286 7.65688 16.7763 7.65688 17.3286L9.65688 17.3286C9.65688 15.6718 8.31374 14.3286 6.65688 14.3286L6.65688 16.3286Z" fill="black"/>
</g>
<defs>
<clipPath id="clip0_358_2295">
<rect width="24" height="24" fill="white"/>
</clipPath>
</defs>
</svg>
