<svg width="24" height="24" viewBox="0 0 24 24" fill="none" xmlns="http://www.w3.org/2000/svg">
<rect width="24" height="24" fill="white"/>
<path fill-rule="evenodd" clip-rule="evenodd" d="M9.60447 21.6552C9.45217 21.4797 9.35999 21.2506 9.35999 21C9.35999 20.4477 9.8077 20 10.36 20C10.7109 20 11.0196 20.1808 11.1981 20.4543L11.2014 20.4518L11.2093 20.4458C11.3034 20.5706 11.4256 20.6713 11.566 20.7398C11.7064 20.8083 11.8611 20.8426 12.0173 20.8398C12.1735 20.8371 12.3268 20.7975 12.4648 20.7241C12.6027 20.6508 12.7213 20.5458 12.811 20.4178L12.8191 20.4236L12.8283 20.43C13.0089 20.1701 13.3096 20 13.65 20C14.2023 20 14.65 20.4477 14.65 21C14.65 21.2785 14.5361 21.5304 14.3524 21.7118C14.0958 22.036 13.7746 22.3041 13.4084 22.4988C13.1791 22.6208 12.9357 22.712 12.6845 22.7709C12.4779 22.8193 12.266 22.8458 12.0524 22.8495C11.8387 22.8533 11.626 22.8342 11.4178 22.793C11.1648 22.7429 10.9183 22.6602 10.6849 22.5464C10.2595 22.3389 9.88928 22.0338 9.60441 21.6559L9.60409 21.6554L9.60447 21.6552Z" fill="black"/>
<mask id="path-2-inside-1_334_223" fill="white">
<path fill-rule="evenodd" clip-rule="evenodd" d="M12.0233 19.0297L3.48856 19.0297C3.09482 19.0297 2.85612 18.5955 3.06244 18.2601C4.70668 15.5874 5.72821 13.3436 5.72885 8.01551C5.72885 8.01279 5.73105 8.01049 5.73377 8.01049V8.01049C5.73639 8.01049 5.73855 8.00842 5.73869 8.00581C5.92244 4.6577 8.66594 2 12.0234 2C15.4998 2 18.3179 4.84928 18.3179 8.36404C18.3179 8.57709 18.3076 8.78771 18.2873 8.99539C18.2865 9.00439 18.2935 9.0122 18.3026 9.0122V9.0122C18.311 9.0122 18.3179 9.01938 18.3179 9.02782C18.3198 14.1911 19.2822 15.6684 20.8417 18.0621C20.8856 18.1295 20.93 18.1977 20.9749 18.2666C21.1895 18.5967 20.9519 19.0297 20.5582 19.0297L12.0233 19.0297Z"/>
</mask>
<path d="M12.0233 19.0297L12.0233 21.0297H12.0233V19.0297ZM20.8417 18.0621L19.1659 19.1538L20.8417 18.0621ZM20.9749 18.2666L22.6515 17.1762L20.9749 18.2666ZM18.2873 8.99539L20.2779 9.18929L18.2873 8.99539ZM5.73869 8.00581L3.7417 7.89621L5.73869 8.00581ZM18.3179 9.02782L16.3179 9.02857L18.3179 9.02782ZM5.72885 8.01551L7.72885 8.01575L5.72885 8.01551ZM3.48856 19.0297L3.48856 21.0297L3.48856 19.0297ZM3.06244 18.2601L1.35898 17.2122L3.06244 18.2601ZM3.48856 21.0297L12.0233 21.0297L12.0233 17.0297L3.48856 17.0297L3.48856 21.0297ZM3.72885 8.01527C3.72854 10.554 3.48454 12.2443 3.09388 13.5672C2.70605 14.8805 2.14449 15.9353 1.35898 17.2122L4.76589 19.3081C5.62462 17.9122 6.39595 16.5088 6.93011 14.7C7.46144 12.9008 7.72851 10.8051 7.72885 8.01575L3.72885 8.01527ZM12.0234 0C7.57907 0 3.98226 3.51274 3.7417 7.89621L7.73569 8.11541C7.86261 5.80266 9.75281 4 12.0234 4V0ZM20.3179 8.36404C20.3179 3.76547 16.625 0 12.0234 0V4C14.3746 4 16.3179 5.93308 16.3179 8.36404H20.3179ZM20.2779 9.18929C20.3044 8.91726 20.3179 8.64194 20.3179 8.36404H16.3179C16.3179 8.51225 16.3107 8.65815 16.2968 8.80149L20.2779 9.18929ZM22.5174 16.9704C21.7244 15.7531 21.2371 14.9883 20.894 13.9539C20.5511 12.9201 20.3188 11.4953 20.3179 9.02707L16.3179 9.02857C16.3189 11.7236 16.5687 13.6191 17.0974 15.2131C17.6259 16.8067 18.3995 17.9774 19.1659 19.1538L22.5174 16.9704ZM22.6515 17.1762C22.6061 17.1065 22.5613 17.0377 22.5174 16.9704L19.1659 19.1538C19.2099 19.2213 19.2539 19.2888 19.2983 19.3571L22.6515 17.1762ZM12.0233 21.0297L20.5582 21.0297L20.5582 17.0297L12.0233 17.0297L12.0233 21.0297ZM19.2983 19.3571C18.6368 18.34 19.3846 17.0297 20.5582 17.0297L20.5582 21.0297C22.5191 21.0297 23.7423 18.8534 22.6515 17.1762L19.2983 19.3571ZM16.2968 8.80149C16.1817 9.98274 17.1089 11.0122 18.3026 11.0122V7.0122C19.4781 7.0122 20.3912 8.02605 20.2779 9.18929L16.2968 8.80149ZM5.73377 10.0105C6.81142 10.0105 7.67806 9.16533 7.73569 8.11541L3.7417 7.89621C3.79903 6.85151 4.66136 6.01049 5.73377 6.01049V10.0105ZM18.3026 11.0122C17.1507 11.0122 16.3183 10.0675 16.3179 9.02857L20.3179 9.02707C20.3175 7.97126 19.4714 7.0122 18.3026 7.0122V11.0122ZM7.72885 8.01575C7.72872 9.06633 6.88602 10.0105 5.73377 10.0105V6.01049C4.57609 6.01049 3.72898 6.95925 3.72885 8.01527L7.72885 8.01575ZM3.48856 17.0297C4.68682 17.0297 5.36493 18.3344 4.76589 19.3081L1.35898 17.2122C0.347314 18.8566 1.50283 21.0297 3.48856 21.0297L3.48856 17.0297Z" fill="black" mask="url(#path-2-inside-1_334_223)"/>
</svg>
