<svg width="24" height="24" viewBox="0 0 24 24" fill="none" xmlns="http://www.w3.org/2000/svg">
<rect width="24" height="24" fill="white"/>
<path fill-rule="evenodd" clip-rule="evenodd" d="M2.70711 1.29289C3.09763 0.902369 3.7308 0.902369 4.12132 1.29289L22.7071 19.8787C23.0976 20.2692 23.0976 20.9024 22.7071 21.2929C22.3166 21.6834 21.6834 21.6834 21.2929 21.2929L19.0297 19.0297L12.0233 19.0297L4.93584 19.0297L4.9003 19.0297H4.31333H3.48856C3.09483 19.0297 2.85612 18.5955 3.06244 18.2601C3.20956 18.021 3.3517 17.7853 3.48856 17.5505C3.585 17.385 3.67882 17.2201 3.76993 17.0547L3.78365 17.0297C5.00003 14.814 5.72831 12.514 5.72885 8.01552C5.72885 8.0128 5.73106 8.0105 5.73377 8.0105C5.73639 8.0105 5.73855 8.00843 5.73869 8.00582C5.77477 7.3484 5.90955 6.71759 6.12828 6.1283L2.70711 2.70711C2.31658 2.31658 2.31658 1.68342 2.70711 1.29289ZM7.76833 7.76834L17.0297 17.0297L12.0233 17.0297L6.03217 17.0297C6.37374 16.3155 6.67828 15.5528 6.93011 14.7C7.44912 12.9425 7.71599 10.9021 7.7284 8.20871C7.73153 8.1778 7.73397 8.1467 7.73569 8.11542C7.74211 7.99836 7.75305 7.88262 7.76833 7.76834ZM5.73377 10.0105C6.11395 10.0105 6.46787 9.90532 6.76926 9.72306C6.47241 9.90413 6.12053 10.0105 5.73377 10.0105ZM9.35999 21C9.35999 21.2506 9.45217 21.4797 9.60447 21.6552L9.60409 21.6554L9.60441 21.6559C9.88929 22.0338 10.2595 22.3389 10.6849 22.5464C10.9183 22.6602 11.1648 22.7429 11.4178 22.793C11.626 22.8342 11.8387 22.8533 12.0524 22.8495C12.266 22.8458 12.4779 22.8193 12.6845 22.7709C12.9357 22.712 13.1791 22.6208 13.4084 22.4988C13.7746 22.3041 14.0958 22.036 14.3524 21.7118C14.5361 21.5304 14.65 21.2785 14.65 21C14.65 20.4477 14.2023 20 13.65 20C13.3096 20 13.0089 20.1701 12.8283 20.43L12.8191 20.4236L12.811 20.4178C12.7213 20.5458 12.6027 20.6508 12.4648 20.7241C12.3268 20.7975 12.1735 20.8371 12.0173 20.8398C11.8611 20.8426 11.7064 20.8083 11.566 20.7398C11.4256 20.6713 11.3034 20.5706 11.2093 20.4458L11.2014 20.4518L11.1981 20.4543C11.0196 20.1808 10.7109 20 10.36 20C9.8077 20 9.35999 20.4477 9.35999 21ZM19.2708 11.7259C19.3462 12.5097 18.0762 13.2373 17.5194 12.6806C17.4065 12.5676 17.3339 12.4203 17.3159 12.2616C17.2241 11.4492 17.1727 10.5487 17.1599 9.52979C17.1587 9.43465 17.1495 9.33979 17.1402 9.24503C17.1384 9.22602 17.1365 9.20701 17.1348 9.18801C17.1229 9.06184 17.1228 8.9326 17.1356 8.80149C17.1496 8.65815 17.1568 8.51225 17.1568 8.36404C17.1568 5.93308 15.2134 4 12.8623 4C12.098 4 11.3767 4.20425 10.7514 4.56346C10.2829 4.83255 9.67188 4.83303 9.28987 4.45102C8.88925 4.0504 8.89468 3.39037 9.36379 3.07269C10.3643 2.39516 11.5676 2 12.8623 2C16.1897 2 18.9141 4.61034 19.1414 7.91608C19.1516 8.06406 19.1568 8.21344 19.1568 8.36404C19.1568 8.51463 19.1516 8.664 19.1414 8.81198C19.1372 8.87336 19.1321 8.9345 19.1262 8.99539C19.1253 9.00439 19.1324 9.0122 19.1414 9.0122C19.1499 9.0122 19.1567 9.01938 19.1567 9.02782C19.1571 10.063 19.1961 10.95 19.2708 11.7259Z" fill="black"/>
</svg>
