<svg width="24" height="24" viewBox="0 0 24 24" fill="none" xmlns="http://www.w3.org/2000/svg">
<path d="M18.5 18H4.1824C4.10344 18 4.05578 17.9138 4.1003 17.8486C4.8775 16.7101 6.5 14.9593 6.5 9C6.5 7.98967 6.66872 7.14806 6.94728 6.44728M9.5 3.69171C10.6662 3.0988 11.7777 3 12 3C12.5 3 17.5 3.5 17.5 9C17.5 10.0774 17.5504 11.0129 17.6374 11.8292" stroke="black" stroke-width="2" stroke-linecap="round"/>
<path d="M10 21C10.1667 21.3333 10.8 22 12 22C13.2 22 13.8333 21.3333 14 21" stroke="black" stroke-width="2" stroke-linecap="round"/>
<line x1="3.41421" y1="2" x2="22" y2="20.5858" stroke="black" stroke-width="2" stroke-linecap="round"/>
</svg>
