<svg width="24" height="24" viewBox="0 0 24 24" fill="none" xmlns="http://www.w3.org/2000/svg">
<path d="M12.9663 3H11.0704C10.448 3 9.91214 3.43932 9.79007 4.04964C9.63605 4.81977 8.8419 5.28063 8.09682 5.03227L7.64305 4.88102C6.95626 4.65209 6.19956 4.87555 5.74732 5.44085L5.07078 6.28653C4.72282 6.72147 4.65952 7.31903 4.90861 7.81723C5.24232 8.48464 5.00592 9.29645 4.36607 9.68036L3.94857 9.93086C3.36008 10.284 3 10.9199 3 11.6062V12.3938C3 13.0801 3.36008 13.716 3.94857 14.0691L4.36607 14.3196C5.00592 14.7036 5.24232 15.5154 4.90861 16.1828C4.65952 16.681 4.72282 17.2785 5.07078 17.7135L5.74732 18.5591C6.19956 19.1245 6.95626 19.3479 7.64305 19.119L8.09682 18.9677C8.8419 18.7194 9.63605 19.1802 9.79007 19.9504C9.91214 20.5607 10.448 21 11.0704 21H12.9663C13.5674 21 14.0848 20.5758 14.2027 19.9864C14.3573 19.2134 15.1755 18.7702 15.9074 19.063L16.1838 19.1735C16.6882 19.3753 17.2622 19.2902 17.6864 18.9509L18.5211 18.2831C19.1025 17.818 19.3109 17.0273 19.0344 16.3361C18.7264 15.5661 19.0228 14.6863 19.734 14.2596L20.029 14.0826C20.6314 13.7212 21 13.0701 21 12.3676V11.6062C21 10.9199 20.6399 10.284 20.0514 9.93086L19.5782 9.64693C18.9698 9.28188 18.745 8.50996 19.0623 7.87535C19.3237 7.3526 19.2212 6.72125 18.808 6.30798L17.6744 5.1744C17.2653 4.76527 16.6517 4.63933 16.1145 4.85421L15.9074 4.93704C15.1755 5.22982 14.3573 4.78664 14.2027 4.01361C14.0848 3.42424 13.5674 3 12.9663 3Z" stroke="black" stroke-width="2" stroke-linecap="round"/>
<circle cx="12" cy="12" r="3" stroke="black" stroke-width="2"/>
</svg>
