<svg width="24" height="24" viewBox="0 0 24 24" fill="none" xmlns="http://www.w3.org/2000/svg">
<rect width="24" height="24" fill="white"/>
<path d="M17.8665 5.13859L17.1594 5.8457L17.8665 5.13859ZM18.8614 6.13349L19.5685 5.42639L18.8614 6.13349ZM18.8614 17.8665L18.1543 17.1594L18.8614 17.8665ZM17.8665 18.8614L17.1594 18.1543L17.8665 18.8614ZM6.1335 18.8614L5.42639 19.5685L6.1335 18.8614ZM5.1386 17.8665L5.8457 17.1594L5.1386 17.8665ZM6.13349 5.1386L6.8406 5.8457L6.13349 5.1386ZM11.2965 4H12.7035V2H11.2965V4ZM5.8457 6.84061L6.8406 5.8457L5.42639 4.43149L4.43149 5.42639L5.8457 6.84061ZM4 12.7035V11.2965H2V12.7035H4ZM6.84061 18.1543L5.8457 17.1594L4.43149 18.5736L5.42639 19.5685L6.84061 18.1543ZM12.7035 20H11.2965V22H12.7035V20ZM18.1543 17.1594L17.1594 18.1543L18.5736 19.5685L19.5685 18.5736L18.1543 17.1594ZM20 11.2965V12.7035H22V11.2965H20ZM17.1594 5.8457L18.1543 6.8406L19.5685 5.42639L18.5736 4.43149L17.1594 5.8457ZM14.6 12C14.6 13.4359 13.4359 14.6 12 14.6V16.6C14.5405 16.6 16.6 14.5405 16.6 12H14.6ZM12 9.4C13.4359 9.4 14.6 10.5641 14.6 12H16.6C16.6 9.45949 14.5405 7.4 12 7.4V9.4ZM9.4 12C9.4 10.5641 10.5641 9.4 12 9.4V7.4C9.45949 7.4 7.4 9.45949 7.4 12H9.4ZM12 14.6C10.5641 14.6 9.4 13.4359 9.4 12H7.4C7.4 14.5405 9.45949 16.6 12 16.6V14.6ZM15.6364 4.0699C15.4036 4.20961 15.1019 4.08467 15.0361 3.82123L13.0958 4.3063C13.4874 5.87268 15.2809 6.61559 16.6654 5.78489L15.6364 4.0699ZM18.5736 4.43149C17.7935 3.65134 16.5825 3.50227 15.6364 4.0699L16.6654 5.78489C16.8245 5.68942 17.0282 5.71449 17.1594 5.8457L18.5736 4.43149ZM19.9301 8.36357C20.4977 7.41751 20.3486 6.20653 19.5685 5.42639L18.1543 6.8406C18.2855 6.97181 18.3106 7.17547 18.2151 7.33458L19.9301 8.36357ZM20.1788 8.96392C19.9153 8.89806 19.7904 8.59642 19.9301 8.36357L18.2151 7.33458C17.3844 8.71909 18.1273 10.5126 19.6937 10.9042L20.1788 8.96392ZM22 11.2965C22 10.1932 21.2491 9.2315 20.1788 8.96392L19.6937 10.9042C19.8737 10.9492 20 11.111 20 11.2965H22ZM20.1788 15.0361C21.2491 14.7685 22 13.8068 22 12.7035H20C20 12.8891 19.8737 13.0508 19.6937 13.0958L20.1788 15.0361ZM19.9301 15.6364C19.7904 15.4036 19.9153 15.1019 20.1788 15.0361L19.6937 13.0958C18.1273 13.4874 17.3844 15.2809 18.2151 16.6654L19.9301 15.6364ZM19.5685 18.5736C20.3487 17.7935 20.4977 16.5825 19.9301 15.6364L18.2151 16.6654C18.3106 16.8245 18.2855 17.0282 18.1543 17.1594L19.5685 18.5736ZM15.6364 19.9301C16.5825 20.4977 17.7935 20.3487 18.5736 19.5685L17.1594 18.1543C17.0282 18.2855 16.8245 18.3106 16.6654 18.2151L15.6364 19.9301ZM15.0361 20.1788C15.1019 19.9153 15.4036 19.7904 15.6364 19.9301L16.6654 18.2151C15.2809 17.3844 13.4874 18.1273 13.0958 19.6937L15.0361 20.1788ZM12.7035 22C13.8068 22 14.7685 21.2491 15.0361 20.1788L13.0958 19.6937C13.0508 19.8737 12.889 20 12.7035 20V22ZM8.96392 20.1788C9.2315 21.2491 10.1932 22 11.2965 22V20C11.1109 20 10.9492 19.8737 10.9042 19.6937L8.96392 20.1788ZM8.36357 19.9301C8.59642 19.7904 8.89806 19.9153 8.96392 20.1788L10.9042 19.6937C10.5126 18.1273 8.71909 17.3844 7.33458 18.2151L8.36357 19.9301ZM5.42639 19.5685C6.20653 20.3487 7.41751 20.4977 8.36357 19.9301L7.33458 18.2151C7.17547 18.3106 6.97181 18.2855 6.84061 18.1543L5.42639 19.5685ZM4.06991 15.6364C3.50227 16.5825 3.65135 17.7935 4.43149 18.5736L5.8457 17.1594C5.7145 17.0282 5.68943 16.8245 5.78489 16.6654L4.06991 15.6364ZM3.82123 15.0361C4.08467 15.1019 4.20961 15.4036 4.06991 15.6364L5.78489 16.6654C6.6156 15.2809 5.87269 13.4874 4.3063 13.0958L3.82123 15.0361ZM2 12.7035C2 13.8068 2.75088 14.7685 3.82123 15.0361L4.3063 13.0958C4.12629 13.0508 4 12.889 4 12.7035H2ZM3.82123 8.96392C2.75088 9.2315 2 10.1932 2 11.2965H4C4 11.1109 4.12629 10.9492 4.3063 10.9042L3.82123 8.96392ZM4.0699 8.36357C4.20961 8.59642 4.08467 8.89806 3.82123 8.96392L4.3063 10.9042C5.87269 10.5126 6.61559 8.71909 5.78489 7.33458L4.0699 8.36357ZM4.43149 5.42639C3.65134 6.20653 3.50227 7.41751 4.0699 8.36357L5.78489 7.33458C5.68942 7.17547 5.71449 6.97181 5.8457 6.84061L4.43149 5.42639ZM8.36357 4.06991C7.41751 3.50227 6.20653 3.65135 5.42639 4.43149L6.8406 5.8457C6.97181 5.7145 7.17547 5.68943 7.33458 5.78489L8.36357 4.06991ZM8.96392 3.82123C8.89806 4.08467 8.59642 4.20961 8.36357 4.06991L7.33458 5.78489C8.71909 6.6156 10.5126 5.87269 10.9042 4.3063L8.96392 3.82123ZM12.7035 4C12.8891 4 13.0508 4.12629 13.0958 4.3063L15.0361 3.82123C14.7685 2.75088 13.8068 2 12.7035 2V4ZM11.2965 2C10.1932 2 9.2315 2.75089 8.96392 3.82123L10.9042 4.3063C10.9492 4.12629 11.111 4 11.2965 4V2Z" fill="black"/>
</svg>
