<svg width="24" height="24" viewBox="0 0 24 24" fill="none" xmlns="http://www.w3.org/2000/svg">
<rect width="24" height="24" fill="white"/>
<mask id="path-1-inside-1_365_4112" fill="white">
<path fill-rule="evenodd" clip-rule="evenodd" d="M4 2C2.89543 2 2 2.89543 2 4V8H8H9H15H16H22V4C22 2.89543 21.1046 2 20 2H4ZM15 9H9L9 22H15L15 9ZM16 22L16 9H22V20C22 21.1046 21.1046 22 20 22H16ZM2 9H8L8 22H4C2.89543 22 2 21.1046 2 20V9Z"/>
</mask>
<path d="M2 8H0V10H2V8ZM22 8V10H24V8H22ZM15 9H17V7H15V9ZM9 9V7H7V9H9ZM9 22H7V24H9V22ZM15 22V24H17V22H15ZM16 9V7H14V9H16ZM16 22H14V24H16V22ZM22 9H24V7H22V9ZM8 9H10V7H8V9ZM2 9V7H0V9H2ZM8 22V24H10V22H8ZM4 4V4V0C1.79086 0 0 1.79086 0 4H4ZM4 8V4H0V8H4ZM8 6H2V10H8V6ZM9 6H8V10H9V6ZM15 6H9V10H15V6ZM15 10H16V6H15V10ZM22 6H16V10H22V6ZM20 4V8H24V4H20ZM20 4H24C24 1.79086 22.2091 0 20 0V4ZM4 4H20V0H4V4ZM15 7H9V11H15V7ZM7 9L7 22H11L11 9H7ZM9 24H15V20H9V24ZM17 22L17 9H13L13 22H17ZM14 9L14 22H18L18 9H14ZM22 7H16V11H22V7ZM24 20V9H20V20H24ZM20 24C22.2091 24 24 22.2091 24 20H20V24ZM16 24H20V20H16V24ZM8 7H2V11H8V7ZM10 22L10 9H6L6 22H10ZM4 24H8V20H4V24ZM0 20C0 22.2091 1.79086 24 4 24V20H4H0ZM0 9V20H4V9H0Z" fill="black" mask="url(#path-1-inside-1_365_4112)"/>
</svg>
