<svg width="24" height="24" viewBox="0 0 24 24" fill="none" xmlns="http://www.w3.org/2000/svg">
<g clip-path="url(#clip0_331_215)">
<rect width="24" height="24" fill="white"/>
<path d="M0 0H24M0 0V24M0 0L24 24M24 0V24M24 0L0 24M24 24H0" stroke="#C4C4C4" stroke-width="0.13"/>
<circle cx="12" cy="12" r="10" stroke="#C4C4C4" stroke-width="0.13"/>
<rect x="2" y="4" width="20" height="16" rx="1" stroke="#C4C4C4" stroke-width="0.13"/>
<rect x="4" y="2" width="16" height="20" rx="1" stroke="#C4C4C4" stroke-width="0.13"/>
<rect x="3" y="3" width="18" height="18" rx="1" stroke="#C4C4C4" stroke-width="0.13"/>
<circle cx="12" cy="12" r="4" stroke="#C4C4C4" stroke-width="0.13"/>
<path fill-rule="evenodd" clip-rule="evenodd" d="M14 4H10V5H14V4ZM16 5V4C16 2.89543 15.1046 2 14 2H10C8.89543 2 8 2.89543 8 4V5H7H5H4C3.44772 5 3 5.44772 3 6C3 6.55228 3.44772 7 4 7H5V18C5 19.6569 6.34315 21 8 21H16C17.6569 21 19 19.6569 19 18V7H20C20.5523 7 21 6.55228 21 6C21 5.44772 20.5523 5 20 5H19H17H16ZM17 7H16H14H10H8H7V18C7 18.5523 7.44772 19 8 19H16C16.5523 19 17 18.5523 17 18V7ZM10 17C9.44772 17 9 16.5523 9 16V10C9 9.44772 9.44772 9 10 9C10.5523 9 11 9.44772 11 10V16C11 16.5523 10.5523 17 10 17ZM13 16C13 16.5523 13.4477 17 14 17C14.5523 17 15 16.5523 15 16V10C15 9.44772 14.5523 9 14 9C13.4477 9 13 9.44772 13 10V16Z" fill="black"/>
</g>
<defs>
<clipPath id="clip0_331_215">
<rect width="24" height="24" fill="white"/>
</clipPath>
</defs>
</svg>
