<svg width="24" height="24" viewBox="0 0 24 24" fill="none" xmlns="http://www.w3.org/2000/svg">
<rect width="24" height="24" fill="white"/>
<path fill-rule="evenodd" clip-rule="evenodd" d="M14 4H10V5H14V4ZM16 5V4C16 2.89543 15.1046 2 14 2H10C8.89543 2 8 2.89543 8 4V5H7H5H4C3.44772 5 3 5.44772 3 6C3 6.55228 3.44772 7 4 7H5V18C5 19.6569 6.34315 21 8 21H16C17.6569 21 19 19.6569 19 18V7H20C20.5523 7 21 6.55228 21 6C21 5.44772 20.5523 5 20 5H19H17H16ZM17 7H16H14H10H8H7V18C7 18.5523 7.44772 19 8 19H16C16.5523 19 17 18.5523 17 18V7ZM10 17C9.44772 17 9 16.5523 9 16V10C9 9.44772 9.44772 9 10 9C10.5523 9 11 9.44772 11 10V16C11 16.5523 10.5523 17 10 17ZM13 16C13 16.5523 13.4477 17 14 17C14.5523 17 15 16.5523 15 16V10C15 9.44772 14.5523 9 14 9C13.4477 9 13 9.44772 13 10V16Z" fill="black"/>
</svg>
