<svg width="24" height="24" viewBox="0 0 24 24" fill="none" xmlns="http://www.w3.org/2000/svg">
<rect width="24" height="24" fill="white"/>
<path d="M12 5L12.0209 14.1214" stroke="black" stroke-width="2" stroke-linecap="round"/>
<path d="M12 4L12.7071 3.29289C12.5195 3.10536 12.2652 3 12 3C11.7348 3 11.4804 3.10536 11.2929 3.29289L12 4ZM7.29286 7.29289C6.90234 7.68342 6.90234 8.31658 7.29286 8.70711C7.68339 9.09763 8.31655 9.09763 8.70708 8.70711L7.29286 7.29289ZM15.2929 8.70711C15.6834 9.09763 16.3166 9.09763 16.7071 8.70711C17.0976 8.31658 17.0976 7.68342 16.7071 7.29289L15.2929 8.70711ZM11.2929 3.29289L7.29286 7.29289L8.70708 8.70711L12.7071 4.70711L11.2929 3.29289ZM11.2929 4.70711L15.2929 8.70711L16.7071 7.29289L12.7071 3.29289L11.2929 4.70711Z" fill="black"/>
<path d="M21 14L21 18C21 19.1046 20.1045 20 19 20L4.99997 20C3.8954 20 2.99997 19.1046 2.99997 18L2.99997 14" stroke="black" stroke-width="2" stroke-linecap="round"/>
</svg>
