<svg width="24" height="24" viewBox="0 0 24 24" fill="none" xmlns="http://www.w3.org/2000/svg">
<rect width="24" height="24" fill="white"/>
<line x1="2.41421" y1="3" x2="21" y2="21.5858" stroke="black" stroke-width="2" stroke-linecap="round"/>
<mask id="mask0_348_284" style="mask-type:alpha" maskUnits="userSpaceOnUse" x="2" y="6" width="20" height="12">
<path fill-rule="evenodd" clip-rule="evenodd" d="M4 8H15V16H4L4 8ZM2 8C2 6.89543 2.89543 6 4 6H15C16.1046 6 17 6.89543 17 8V9.75L20.4 7.2C21.0592 6.70557 22 7.17595 22 8V16C22 16.824 21.0592 17.2944 20.4 16.8L17 14.25V16C17 17.1046 16.1046 18 15 18H4C2.89543 18 2 17.1046 2 16V8ZM17.3333 12L20 10V14L17.3333 12Z" fill="black"/>
</mask>
<g mask="url(#mask0_348_284)">
<path d="M20 21.5L1.5 3H0V21.5H20Z" fill="black"/>
</g>
<mask id="mask1_348_284" style="mask-type:alpha" maskUnits="userSpaceOnUse" x="2" y="6" width="20" height="12">
<path fill-rule="evenodd" clip-rule="evenodd" d="M4 8H15V16H4L4 8ZM2 8C2 6.89543 2.89543 6 4 6H15C16.1046 6 17 6.89543 17 8V9.75L20.4 7.2C21.0592 6.70557 22 7.17595 22 8V16C22 16.824 21.0592 17.2944 20.4 16.8L17 14.25V16C17 17.1046 16.1046 18 15 18H4C2.89543 18 2 17.1046 2 16V8ZM17.3333 12L20 10V14L17.3333 12Z" fill="black"/>
</mask>
<g mask="url(#mask1_348_284)">
<path d="M8 5L20.1875 17.1875L23 20V5H8Z" fill="black"/>
</g>
</svg>
